<svg width="37" height="47" viewBox="0 0 37 47" fill="none" xmlns="http://www.w3.org/2000/svg">
<g id="administrator-developer-icon 1" clip-path="url(#clip0_1549_17660)">
<g id="Group">
<path id="Vector" fill-rule="evenodd" clip-rule="evenodd" d="M18.733 41.1121C19.57 41.1121 20.2479 41.7822 20.2479 42.6095C20.2479 43.4368 19.57 44.1069 18.733 44.1069C17.8961 44.1069 17.2182 43.4368 17.2182 42.6095C17.2182 41.7822 17.8961 41.1121 18.733 41.1121ZM8.9472 25.7826C8.92448 25.7376 8.89797 25.6965 8.86767 25.6553C8.73512 25.4419 8.60257 25.2285 8.47003 24.9852C8.33748 24.7231 8.20493 24.4761 8.08753 24.2477C7.97013 24.0007 7.85652 23.7386 7.75806 23.4766C7.67474 23.2482 7.57628 22.9862 7.47781 22.6755C7.33011 22.2337 6.91354 21.9567 6.46666 21.9567H3.59984C3.50137 21.9567 3.40291 21.9417 3.33474 21.908C3.27036 21.8743 3.18705 21.8257 3.13781 21.762C3.07343 21.6947 3.02042 21.631 2.99012 21.5674C2.95603 21.5037 2.94089 21.4027 2.94089 21.3053V17.734C2.94089 17.6367 2.95603 17.5544 2.97497 17.487C3.00905 17.4196 3.05829 17.341 3.1416 17.2586C3.20598 17.195 3.27415 17.1426 3.33853 17.1276C3.4067 17.0939 3.50516 17.0789 3.60363 17.0789H6.23565C6.76584 17.0789 7.19757 16.7008 7.29603 16.2104C7.36041 15.9334 7.42858 15.6714 7.49296 15.4393C7.57627 15.1772 7.65959 14.9302 7.75806 14.6681C7.85652 14.4211 7.95498 14.159 8.08753 13.9157C8.20493 13.6536 8.33748 13.4253 8.45109 13.1969C8.6821 12.7702 8.59879 12.2798 8.26931 11.9541L6.21671 9.90641C6.20156 9.89144 6.20156 9.89144 6.18263 9.89144C6.11825 9.8278 6.06523 9.76042 6.03493 9.69678C6.00085 9.63314 6.00085 9.56575 6.00085 9.46842C6.00085 9.37109 6.016 9.28874 6.05008 9.22135C6.08416 9.139 6.1334 9.07536 6.21671 8.993L8.75027 6.50358C8.83359 6.42122 8.89797 6.37256 8.98128 6.33887C9.04945 6.30518 9.12898 6.2902 9.23123 6.2902C9.32969 6.2902 9.41301 6.30518 9.48118 6.33887C9.54935 6.37256 9.62887 6.42122 9.69704 6.48486H9.71219L11.583 8.33415C11.9466 8.69352 12.526 8.74219 12.9426 8.45019C13.1584 8.31917 13.3743 8.18815 13.6205 8.05713C13.8856 7.92611 14.1355 7.79508 14.3665 7.67904C14.6165 7.56299 14.8816 7.45068 15.1467 7.35335C15.3777 7.271 15.6428 7.17367 15.9571 7.07633C16.404 6.93034 16.6842 6.51855 16.6842 6.07682V3.23926C16.6842 3.14193 16.6994 3.0446 16.7334 2.97721C16.7675 2.91357 16.8168 2.84619 16.866 2.78255C16.9342 2.71891 16.9985 2.6665 17.0629 2.65153C17.1273 2.61784 17.2295 2.60286 17.328 2.60286H19.8729H19.9032H20.1645C20.263 2.60286 20.3615 2.61784 20.4296 2.65153C20.494 2.6665 20.5622 2.71891 20.6266 2.78255C20.6758 2.84619 20.725 2.91357 20.7591 2.97721C20.7932 3.04085 20.8083 3.14193 20.8083 3.23926V6.07308C20.8083 6.51481 21.0886 6.92285 21.5355 7.07259C21.8498 7.16992 22.1149 7.26725 22.3459 7.34961C22.611 7.44694 22.8761 7.56299 23.126 7.67529C23.357 7.79134 23.607 7.92236 23.8721 8.05339C24.122 8.18441 24.3341 8.31543 24.55 8.44645C24.9628 8.74219 25.5422 8.69352 25.9095 8.3304L27.7804 6.48112H27.7955C27.8599 6.41748 27.9432 6.36507 28.0114 6.33512C28.0758 6.30143 28.1591 6.28646 28.2613 6.28646C28.3598 6.28646 28.4431 6.30143 28.5113 6.33512C28.5946 6.36881 28.659 6.41748 28.7423 6.49984L31.2758 8.98926C31.3591 9.07161 31.4084 9.13525 31.4425 9.21761C31.4766 9.28125 31.4917 9.36361 31.4917 9.46468C31.4917 9.56201 31.4917 9.62939 31.4576 9.69303C31.4235 9.76042 31.3743 9.82406 31.3099 9.8877C31.2948 9.8877 31.2948 9.88769 31.2758 9.90267L29.2232 11.9504C28.8938 12.276 28.8104 12.7702 29.0415 13.1932C29.1589 13.4215 29.2914 13.6499 29.405 13.9119C29.5376 14.159 29.636 14.4211 29.7345 14.6644C29.833 14.9264 29.9163 15.1735 29.9996 15.4355C30.064 15.6639 30.1321 15.9259 30.1965 16.2067C30.295 16.6971 30.7267 17.0752 31.2569 17.0752H33.8889C33.9874 17.0752 34.0858 17.0902 34.154 17.1239C34.2184 17.1388 34.2866 17.1875 34.3509 17.2549C34.4343 17.3372 34.4835 17.4196 34.5176 17.4832C34.5327 17.5469 34.5517 17.6292 34.5517 17.7303V21.3016C34.5517 21.3989 34.5365 21.4963 34.5024 21.5636C34.4683 21.631 34.4191 21.6947 34.3547 21.7583C34.3055 21.8219 34.2222 21.8743 34.1578 21.9043C34.0896 21.938 33.9912 21.953 33.8927 21.953H31.0259C30.579 21.953 30.1662 22.23 30.0147 22.6717C29.9163 22.9824 29.8178 23.2445 29.7345 23.4728C29.636 23.7349 29.5186 23.9969 29.405 24.244C29.2876 24.4723 29.1551 24.7194 29.0225 24.9814C28.89 25.2285 28.7574 25.4419 28.6249 25.6515C28.5946 25.6927 28.5681 25.7339 28.5453 25.7788H31.0524C31.1584 25.5692 31.2645 25.3446 31.3743 25.1125C31.5068 24.8167 31.6394 24.5247 31.7568 24.229C31.7719 24.1803 31.806 24.113 31.825 24.0643H33.9457C34.3282 24.0643 34.6918 24.0006 35.0213 23.8696C35.3507 23.7386 35.6688 23.5252 35.9339 23.2632C36.199 23.0011 36.4149 22.7054 36.5475 22.361C36.68 22.0166 36.7444 21.6722 36.7444 21.2978V17.7303C36.7444 17.3709 36.6611 17.0116 36.5285 16.6821C36.396 16.3564 36.199 16.0607 35.9339 15.7987L35.9188 15.7837C35.6537 15.5216 35.3545 15.3083 35.025 15.1772C34.6956 15.0312 34.3282 14.9639 33.9495 14.9639H32.1431C32.1431 14.9152 32.1279 14.8815 32.109 14.8328C32.0105 14.5221 31.9121 14.2114 31.7947 13.9157C31.6621 13.605 31.5447 13.3092 31.4122 13.0322C31.397 12.9985 31.3629 12.9499 31.3478 12.9012L32.8399 11.4113C33.1201 11.1642 33.3209 10.8722 33.4686 10.5428C33.6011 10.2171 33.6844 9.854 33.6844 9.47965C33.6844 9.10156 33.62 8.7609 33.4686 8.4165C33.3209 8.09082 33.1201 7.79508 32.855 7.53304H32.8399L30.3063 5.04362C30.0412 4.78158 29.7421 4.58691 29.3937 4.43717C29.0452 4.29118 28.6968 4.2238 28.3181 4.2238C27.9546 4.2238 27.591 4.28743 27.2426 4.43717C26.8942 4.5682 26.595 4.78158 26.3299 5.04362L25.0385 6.30518L24.94 6.25651C24.6749 6.11051 24.3758 5.97949 24.0614 5.82975C23.7623 5.69873 23.4669 5.56771 23.1677 5.45166C23.1185 5.43669 23.0503 5.40299 23.0011 5.38428V3.28792C23.0011 2.90983 22.9367 2.55046 22.8041 2.22477C22.6716 1.89535 22.4557 1.58464 22.1906 1.32259C21.9104 1.06055 21.6112 0.847168 21.2779 0.716146C20.9333 0.585124 20.5849 0.521484 20.2024 0.521484H18.8959H18.6043H17.2977C16.9152 0.521484 16.5706 0.585124 16.2222 0.716146C15.8927 0.847168 15.5935 1.06055 15.3095 1.32259C15.0444 1.58464 14.8285 1.89535 14.696 2.22477C14.5634 2.55046 14.4991 2.91357 14.4991 3.28792V5.38428C14.4498 5.39925 14.3817 5.43294 14.3324 5.45166C14.0333 5.56771 13.7379 5.69873 13.4387 5.82975C13.1244 5.97575 12.8252 6.10677 12.5601 6.25651L12.4616 6.30518L11.1702 5.04362C10.9051 4.78158 10.6059 4.5682 10.2575 4.43717C9.90912 4.29118 9.54556 4.2238 9.182 4.2238C8.7995 4.2238 8.45488 4.28743 8.10647 4.43717C7.75806 4.58317 7.45888 4.78158 7.19378 5.04362L4.66022 7.53304H4.64507C4.37998 7.79508 4.18305 8.09082 4.03157 8.4165C3.88387 8.75716 3.8157 9.10156 3.8157 9.47591C3.8157 9.854 3.89902 10.2134 4.03157 10.5391C4.17926 10.8647 4.37998 11.1605 4.66022 11.4076L6.15233 12.8975C6.13718 12.9461 6.1031 12.9948 6.08795 13.0285C5.9554 13.3055 5.838 13.6012 5.70546 13.9119C5.58806 14.2077 5.48959 14.5184 5.39113 14.8291C5.37598 14.8778 5.35705 14.9115 5.35705 14.9601H3.55061C3.16811 14.9601 2.80455 15.0275 2.47508 15.1735C2.1456 15.3045 1.84642 15.5179 1.58132 15.7799L1.56618 15.7949C1.30108 16.057 1.10415 16.3527 0.971604 16.6784C0.835269 17.0078 0.751953 17.3709 0.751953 17.7303V21.2978C0.751953 21.6759 0.816334 22.0166 0.948881 22.361C1.08143 22.7054 1.29729 23.0011 1.56239 23.2632C1.82748 23.5252 2.14181 23.7386 2.47508 23.8696C2.80455 24.0006 3.1719 24.0643 3.55061 24.0643H5.67137C5.68652 24.113 5.7206 24.1803 5.73954 24.229C5.85694 24.5247 5.98949 24.8167 6.12204 25.1125C6.23565 25.3483 6.3379 25.5729 6.44394 25.7788H8.9472V25.7826ZM13.0486 22.4696C12.7343 22.4808 12.4919 22.5444 12.3291 22.6567C12.2344 22.7204 12.1662 22.799 12.1246 22.8926C12.0753 22.9974 12.0526 23.1247 12.0564 23.2707C12.0678 23.6974 12.295 24.259 12.7343 24.9066L12.7419 24.9141L14.1658 27.1564C14.7376 28.0548 15.336 28.972 16.0821 29.6421C16.7978 30.2897 17.6651 30.7277 18.8163 30.7314C20.0585 30.7352 20.9712 30.2785 21.7097 29.5972C22.4784 28.8859 23.0844 27.9126 23.6789 26.9393L25.2847 24.3263C25.5839 23.6525 25.6937 23.1995 25.6255 22.9338C25.5839 22.7765 25.4096 22.6979 25.1067 22.6829C25.0423 22.6792 24.9779 22.6792 24.9097 22.6792C24.8378 22.6829 24.7621 22.6867 24.6863 22.6942C24.6447 22.6979 24.603 22.6942 24.5613 22.6867C24.4174 22.6942 24.2697 22.6829 24.122 22.6642L24.6712 20.2572C20.5925 20.8936 17.5401 17.8988 13.2266 19.6582L13.5371 22.492C13.3667 22.4958 13.2001 22.492 13.0486 22.4696ZM25.6558 21.9642C26.0497 22.084 26.3034 22.3311 26.4094 22.7316C26.523 23.1771 26.3981 23.8022 26.0194 24.6558C26.0118 24.6707 26.0042 24.6857 25.9966 24.7007L24.372 27.3436C23.7471 28.3618 23.1109 29.3838 22.2626 30.1699L22.2209 30.2074C22.3004 30.3234 22.3913 30.4507 22.4822 30.5854C22.7625 30.9935 23.0844 31.4614 23.3836 31.8245C25.1483 32.9102 29.0301 33.2021 30.5487 34.0369C34.4115 36.167 33.0027 41.3405 33.283 45.0615C33.1997 45.9412 32.696 46.4466 31.7038 46.5215H30.632L31.8098 37.6981C31.9007 37.0093 31.4084 36.4478 30.7987 36.4478H22.5163C22.7208 35.0065 22.8685 33.6289 22.9405 32.5882C22.5542 32.1652 22.1414 31.5662 21.7854 31.0496C21.7059 30.9373 21.6301 30.825 21.5582 30.724C20.8121 31.2181 19.926 31.5251 18.8163 31.5213C17.578 31.5176 16.6123 31.0983 15.8132 30.4582C15.5897 31.1208 15.2603 32.0342 14.9422 32.4722C14.9156 32.5096 14.8816 32.5433 14.8437 32.5695C14.98 33.6439 15.1694 35.0215 15.3928 36.4515H6.90975C6.30382 36.4515 5.80771 37.013 5.8986 37.7018L7.07638 46.5252H6.00085C5.00863 46.4504 4.50495 45.945 4.42164 45.0653C4.47087 41.1234 2.95603 36.3542 7.15591 34.0407C8.69346 33.1909 12.6585 32.9027 14.3892 31.7834C14.6543 31.293 14.9459 30.4095 15.1239 29.8854C15.1429 29.8255 15.1126 29.9228 15.1429 29.8367C14.5066 29.1629 13.9878 28.3656 13.4879 27.5794L12.064 25.3408C11.5414 24.5734 11.2725 23.8696 11.2535 23.2931C11.246 23.0236 11.2914 22.7765 11.3937 22.5594C11.4997 22.3348 11.6625 22.1439 11.8822 21.9979C11.9844 21.9305 12.1018 21.8706 12.2268 21.8219C12.1359 20.6053 12.0981 19.0742 12.1586 17.7939C12.1889 17.4907 12.2495 17.1838 12.3329 16.8805C12.8555 15.0387 14.4574 13.7098 16.2866 13.0846C17.1727 12.7814 16.8319 12.0589 17.7294 12.1076C19.8578 12.2236 23.1374 13.5788 24.3985 15.0163C26.1708 17.0265 25.7126 19.5047 25.6558 21.9642ZM15.9154 34.284C15.1959 33.4754 15.1353 32.6294 15.9154 31.7347C16.8168 31.9593 17.6423 32.3449 18.4035 32.8652C18.5664 32.7941 18.7595 32.7642 18.9451 32.7791C19.7366 32.2251 20.744 32.0005 21.6264 31.585C22.6792 32.5994 22.5655 33.5316 21.5317 34.3963C20.9522 34.2653 20.4031 34.0631 19.8767 33.7974C19.8616 33.9321 19.8275 34.0781 19.7631 34.2353L20.032 36.4478H17.8847L18.1536 34.2353C17.987 33.9546 17.9226 33.715 17.9264 33.5166C17.3015 33.8872 16.6236 34.1268 15.9154 34.284Z" fill="white"/>
</g>
</g>
<defs>
<clipPath id="clip0_1549_17660">
<rect width="36" height="46" fill="white" transform="translate(0.751953 0.521484)"/>
</clipPath>
</defs>
</svg>
