<svg width="51" height="48" viewBox="0 0 51 48" fill="none" xmlns="http://www.w3.org/2000/svg">
<g id="architecture-plan-icon 1" clip-path="url(#clip0_1662_1218)">
<g id="Group">
<path id="Vector" d="M1.46905 36.2714C1.85918 35.7971 2.28668 35.416 2.75152 35.1026C3.68536 34.4715 4.73956 34.137 5.93487 33.9125C5.93487 23.2657 5.93487 12.6232 5.93487 1.97642C1.40679 2.42956 1.43585 6.70268 1.46075 10.6709C1.4649 11.2045 1.46905 11.484 1.46905 11.6153V36.2714ZM17.8382 11.2765H25.9065H26.5333V11.916V42.2089V42.8484H25.9065H17.8382H17.2115V42.2089V11.916V11.2765H17.8382ZM19.4693 39.2402H21.1461V40.1337H19.4693V39.2402ZM19.4693 36.7246H21.1461V37.6182H19.4693V36.7246ZM19.4693 34.209H21.1461V35.1026H19.4693V34.209ZM19.4693 31.6892H21.1461V32.5827H19.4693V31.6892ZM19.4693 29.1736H22.2542V30.0672H19.4693V29.1736ZM19.4693 26.658H21.1461V27.5516H19.4693V26.658ZM19.4693 24.1382H21.1461V25.0317H19.4693V24.1382ZM19.4693 21.6226H21.1461V22.5162H19.4693V21.6226ZM19.4693 19.107H21.1461V20.0006H19.4693V19.107ZM19.4693 16.5872H21.1461V17.4807H19.4693V16.5872ZM19.4693 14.0716H22.2542V14.9652H19.4693V14.0716ZM25.2798 12.5512H18.4649V41.5652H25.2798V12.5512ZM38.1668 17.612V42.4122H32.4102V17.612H32.3853L32.5804 17.2055L34.9586 12.2209L35.1993 11.7127L35.4524 12.2124L37.9842 17.197L38.1959 17.612H38.1668ZM33.2776 17.0403H37.2869L35.6932 13.9064H34.7718L33.2776 17.0403ZM7.38751 6.52481H49.817C50.1448 6.52481 50.4395 6.66033 50.6553 6.88055C50.8712 7.10077 51.004 7.40145 51.004 7.73601V46.2533C51.004 46.5836 50.8712 46.8843 50.6553 47.1045L50.6512 47.1088C50.4354 47.329 50.1407 47.4645 49.817 47.4645H6.52837C4.75616 47.4645 2.29913 46.0458 1.27398 44.5508C0.269585 43.094 -0.0914989 41.2221 0.0164113 39.0411V11.6153C0.0164113 10.8572 0.0164113 10.7767 0.0164113 10.6751C-0.0167918 5.8218 -0.0499948 0.574635 6.57818 0.46029C6.60723 0.456055 6.63213 0.456055 6.66119 0.456055C7.06378 0.456055 7.38751 0.786384 7.38751 1.19718V6.52481ZM1.46075 39.219C1.38604 41.0316 1.67657 42.5562 2.46099 43.6954C3.24957 44.8431 4.57354 45.635 6.57818 45.978H49.5513V8.00282H7.38751V34.5308H7.38336C7.38336 34.8908 7.13018 35.2042 6.7691 35.2593C5.50738 35.4583 4.42828 35.7378 3.54839 36.3307C2.71002 36.8982 2.0169 37.7876 1.46075 39.219Z" fill="#10D1E3"/>
</g>
</g>
<defs>
<clipPath id="clip0_1662_1218">
<rect width="51" height="47" fill="white" transform="translate(0 0.456055)"/>
</clipPath>
</defs>
</svg>
