<svg width="105" height="7" viewBox="0 0 105 7" fill="none" xmlns="http://www.w3.org/2000/svg">
<path opacity="0.5" d="M104.391 3.14452L99.3912 0.257772L99.3912 6.03127L104.391 3.14452ZM0.371094 3.64453L1.9008 3.64453L1.9008 2.64453L0.371094 2.64453L0.371094 3.64453ZM4.96021 3.64453L8.01963 3.64453L8.01963 2.64453L4.96021 2.64453L4.96021 3.64453ZM11.079 3.64453L14.1385 3.64453L14.1385 2.64453L11.079 2.64453L11.079 3.64453ZM17.1979 3.64453L20.2573 3.64453L20.2573 2.64453L17.1979 2.64453L17.1979 3.64453ZM23.3167 3.64453L26.3761 3.64453L26.3761 2.64453L23.3167 2.64453L23.3167 3.64453ZM29.4355 3.64453L32.4949 3.64453L32.4949 2.64453L29.4355 2.64453L29.4355 3.64453ZM35.5544 3.64453L38.6138 3.64453L38.6138 2.64453L35.5544 2.64453L35.5544 3.64453ZM41.6732 3.64453L44.7326 3.64453L44.7326 2.64453L41.6732 2.64453L41.6732 3.64453ZM47.792 3.64453L50.8514 3.64453L50.8514 2.64453L47.792 2.64453L47.792 3.64453ZM53.9108 3.64453L56.9702 3.64453L56.9702 2.64453L53.9108 2.64453L53.9108 3.64453ZM60.0297 3.64453L63.0891 3.64453L63.0891 2.64453L60.0297 2.64453L60.0297 3.64453ZM66.1485 3.64453L69.2079 3.64453L69.2079 2.64453L66.1485 2.64453L66.1485 3.64453ZM72.2673 3.64453L75.3267 3.64452L75.3267 2.64452L72.2673 2.64453L72.2673 3.64453ZM78.3861 3.64452L81.4455 3.64452L81.4455 2.64452L78.3861 2.64452L78.3861 3.64452ZM84.505 3.64452L87.5644 3.64452L87.5644 2.64452L84.505 2.64452L84.505 3.64452ZM90.6238 3.64452L93.6832 3.64452L93.6832 2.64452L90.6238 2.64452L90.6238 3.64452ZM96.7426 3.64452L99.802 3.64452L99.802 2.64452L96.7426 2.64452L96.7426 3.64452Z" fill="#0CAA41"/>
</svg>
