<svg width="168" height="7" viewBox="0 0 168 7" fill="none" xmlns="http://www.w3.org/2000/svg">
<path opacity="0.5" d="M167.39 3.64479L162.39 0.758034L162.39 6.53154L167.39 3.64479ZM0.437499 4.14453L1.92814 4.14453L1.92815 3.14453L0.437501 3.14453L0.437499 4.14453ZM4.90943 4.14454L7.89072 4.14454L7.89072 3.14454L4.90943 3.14454L4.90943 4.14454ZM10.872 4.14455L13.8533 4.14455L13.8533 3.14455L10.872 3.14455L10.872 4.14455ZM16.8346 4.14456L19.8159 4.14456L19.8159 3.14456L16.8346 3.14456L16.8346 4.14456ZM22.7972 4.14457L25.7785 4.14457L25.7785 3.14457L22.7972 3.14457L22.7972 4.14457ZM28.7597 4.14458L31.741 4.14458L31.741 3.14458L28.7597 3.14458L28.7597 4.14458ZM34.7223 4.14459L37.7036 4.14459L37.7036 3.14459L34.7223 3.14459L34.7223 4.14459ZM40.6849 4.14459L43.6662 4.1446L43.6662 3.1446L40.6849 3.14459L40.6849 4.14459ZM46.6475 4.1446L49.6288 4.14461L49.6288 3.14461L46.6475 3.1446L46.6475 4.1446ZM52.6101 4.14461L55.5913 4.14462L55.5914 3.14462L52.6101 3.14461L52.6101 4.14461ZM58.5726 4.14462L61.5539 4.14463L61.5539 3.14463L58.5726 3.14462L58.5726 4.14462ZM64.5352 4.14463L67.5165 4.14464L67.5165 3.14464L64.5352 3.14463L64.5352 4.14463ZM70.4978 4.14464L73.4791 4.14465L73.4791 3.14465L70.4978 3.14464L70.4978 4.14464ZM76.4604 4.14465L79.4417 4.14466L79.4417 3.14466L76.4604 3.14465L76.4604 4.14465ZM82.423 4.14466L85.4043 4.14466L85.4043 3.14466L82.423 3.14466L82.423 4.14466ZM88.3856 4.14467L91.3669 4.14467L91.3669 3.14467L88.3856 3.14467L88.3856 4.14467ZM94.3482 4.14468L97.3294 4.14468L97.3294 3.14468L94.3482 3.14468L94.3482 4.14468ZM100.311 4.14469L103.292 4.14469L103.292 3.14469L100.311 3.14469L100.311 4.14469ZM106.273 4.1447L109.255 4.1447L109.255 3.1447L106.273 3.1447L106.273 4.1447ZM112.236 4.14471L115.217 4.14471L115.217 3.14471L112.236 3.14471L112.236 4.14471ZM118.198 4.14472L121.18 4.14472L121.18 3.14472L118.198 3.14472L118.198 4.14472ZM124.161 4.14473L127.142 4.14473L127.142 3.14473L124.161 3.14473L124.161 4.14473ZM130.124 4.14473L133.105 4.14474L133.105 3.14474L130.124 3.14473L130.124 4.14473ZM136.086 4.14474L139.068 4.14475L139.068 3.14475L136.086 3.14474L136.086 4.14474ZM142.049 4.14475L145.03 4.14476L145.03 3.14476L142.049 3.14475L142.049 4.14475ZM148.011 4.14476L150.993 4.14477L150.993 3.14477L148.011 3.14476L148.011 4.14476ZM153.974 4.14477L156.955 4.14478L156.955 3.14478L153.974 3.14477L153.974 4.14477ZM159.937 4.14478L162.918 4.14479L162.918 3.14479L159.937 3.14478L159.937 4.14478Z" fill="#0CAA41"/>
</svg>
