<svg width="168" height="7" viewBox="0 0 168 7" fill="none" xmlns="http://www.w3.org/2000/svg">
<path opacity="0.5" d="M167.39 3.14479L162.39 0.258034L162.39 6.03154L167.39 3.14479ZM0.437499 3.64453L1.92814 3.64453L1.92815 2.64453L0.437501 2.64453L0.437499 3.64453ZM4.90943 3.64454L7.89072 3.64454L7.89072 2.64454L4.90943 2.64454L4.90943 3.64454ZM10.872 3.64455L13.8533 3.64455L13.8533 2.64455L10.872 2.64455L10.872 3.64455ZM16.8346 3.64456L19.8159 3.64456L19.8159 2.64456L16.8346 2.64456L16.8346 3.64456ZM22.7972 3.64457L25.7785 3.64457L25.7785 2.64457L22.7972 2.64457L22.7972 3.64457ZM28.7597 3.64458L31.741 3.64458L31.741 2.64458L28.7597 2.64458L28.7597 3.64458ZM34.7223 3.64459L37.7036 3.64459L37.7036 2.64459L34.7223 2.64459L34.7223 3.64459ZM40.6849 3.64459L43.6662 3.6446L43.6662 2.6446L40.6849 2.64459L40.6849 3.64459ZM46.6475 3.6446L49.6288 3.64461L49.6288 2.64461L46.6475 2.6446L46.6475 3.6446ZM52.6101 3.64461L55.5913 3.64462L55.5914 2.64462L52.6101 2.64461L52.6101 3.64461ZM58.5726 3.64462L61.5539 3.64463L61.5539 2.64463L58.5726 2.64462L58.5726 3.64462ZM64.5352 3.64463L67.5165 3.64464L67.5165 2.64464L64.5352 2.64463L64.5352 3.64463ZM70.4978 3.64464L73.4791 3.64465L73.4791 2.64465L70.4978 2.64464L70.4978 3.64464ZM76.4604 3.64465L79.4417 3.64466L79.4417 2.64466L76.4604 2.64465L76.4604 3.64465ZM82.423 3.64466L85.4043 3.64466L85.4043 2.64466L82.423 2.64466L82.423 3.64466ZM88.3856 3.64467L91.3669 3.64467L91.3669 2.64467L88.3856 2.64467L88.3856 3.64467ZM94.3482 3.64468L97.3294 3.64468L97.3294 2.64468L94.3482 2.64468L94.3482 3.64468ZM100.311 3.64469L103.292 3.64469L103.292 2.64469L100.311 2.64469L100.311 3.64469ZM106.273 3.6447L109.255 3.6447L109.255 2.6447L106.273 2.6447L106.273 3.6447ZM112.236 3.64471L115.217 3.64471L115.217 2.64471L112.236 2.64471L112.236 3.64471ZM118.198 3.64472L121.18 3.64472L121.18 2.64472L118.198 2.64472L118.198 3.64472ZM124.161 3.64473L127.142 3.64473L127.142 2.64473L124.161 2.64473L124.161 3.64473ZM130.124 3.64473L133.105 3.64474L133.105 2.64474L130.124 2.64473L130.124 3.64473ZM136.086 3.64474L139.068 3.64475L139.068 2.64475L136.086 2.64474L136.086 3.64474ZM142.049 3.64475L145.03 3.64476L145.03 2.64476L142.049 2.64475L142.049 3.64475ZM148.011 3.64476L150.993 3.64477L150.993 2.64477L148.011 2.64476L148.011 3.64476ZM153.974 3.64477L156.955 3.64478L156.955 2.64478L153.974 2.64477L153.974 3.64477ZM159.937 3.64478L162.918 3.64479L162.918 2.64479L159.937 2.64478L159.937 3.64478Z" fill="#0CAA41"/>
</svg>
