<svg width="195" height="7" viewBox="0 0 195 7" fill="none" xmlns="http://www.w3.org/2000/svg">
<path opacity="0.5" d="M194.391 3.14453L189.391 0.25778L189.391 6.03128L194.391 3.14453ZM0.914062 3.64453L2.4256 3.64453L2.4256 2.64453L0.914063 2.64453L0.914062 3.64453ZM5.44869 3.64453L8.47177 3.64453L8.47177 2.64453L5.44869 2.64453L5.44869 3.64453ZM11.4949 3.64453L14.5179 3.64453L14.5179 2.64453L11.4949 2.64453L11.4949 3.64453ZM17.541 3.64453L20.5641 3.64453L20.5641 2.64453L17.541 2.64453L17.541 3.64453ZM23.5872 3.64453L26.6103 3.64453L26.6103 2.64453L23.5872 2.64453L23.5872 3.64453ZM29.6334 3.64453L32.6564 3.64453L32.6564 2.64453L29.6334 2.64453L29.6334 3.64453ZM35.6795 3.64453L38.7026 3.64453L38.7026 2.64453L35.6795 2.64453L35.6795 3.64453ZM41.7257 3.64453L44.7488 3.64453L44.7488 2.64453L41.7257 2.64453L41.7257 3.64453ZM47.7718 3.64453L50.7949 3.64453L50.7949 2.64453L47.7718 2.64453L47.7718 3.64453ZM53.818 3.64453L56.8411 3.64453L56.8411 2.64453L53.818 2.64453L53.818 3.64453ZM59.8642 3.64453L62.8873 3.64453L62.8873 2.64453L59.8642 2.64453L59.8642 3.64453ZM65.9103 3.64453L68.9334 3.64453L68.9334 2.64453L65.9103 2.64453L65.9103 3.64453ZM71.9565 3.64453L74.9796 3.64453L74.9796 2.64453L71.9565 2.64453L71.9565 3.64453ZM78.0027 3.64453L81.0258 3.64453L81.0258 2.64453L78.0027 2.64453L78.0027 3.64453ZM84.0489 3.64453L87.072 3.64453L87.072 2.64453L84.0489 2.64453L84.0489 3.64453ZM90.095 3.64453L93.1181 3.64453L93.1181 2.64453L90.095 2.64453L90.095 3.64453ZM96.1412 3.64453L99.1643 3.64453L99.1643 2.64453L96.1412 2.64453L96.1412 3.64453ZM102.187 3.64453L105.21 3.64453L105.21 2.64453L102.187 2.64453L102.187 3.64453ZM108.234 3.64453L111.257 3.64453L111.257 2.64453L108.234 2.64453L108.234 3.64453ZM114.28 3.64453L117.303 3.64453L117.303 2.64453L114.28 2.64453L114.28 3.64453ZM120.326 3.64453L123.349 3.64453L123.349 2.64453L120.326 2.64453L120.326 3.64453ZM126.372 3.64453L129.395 3.64453L129.395 2.64453L126.372 2.64453L126.372 3.64453ZM132.418 3.64453L135.441 3.64453L135.441 2.64453L132.418 2.64453L132.418 3.64453ZM138.464 3.64453L141.488 3.64453L141.488 2.64453L138.464 2.64453L138.464 3.64453ZM144.511 3.64453L147.534 3.64453L147.534 2.64453L144.511 2.64453L144.511 3.64453ZM150.557 3.64453L153.58 3.64453L153.58 2.64453L150.557 2.64453L150.557 3.64453ZM156.603 3.64453L159.626 3.64453L159.626 2.64453L156.603 2.64453L156.603 3.64453ZM162.649 3.64453L165.672 3.64453L165.672 2.64453L162.649 2.64453L162.649 3.64453ZM168.695 3.64453L171.718 3.64453L171.718 2.64453L168.695 2.64453L168.695 3.64453ZM174.741 3.64453L177.765 3.64453L177.765 2.64453L174.741 2.64453L174.741 3.64453ZM180.788 3.64453L183.811 3.64453L183.811 2.64453L180.788 2.64453L180.788 3.64453ZM186.834 3.64453L189.857 3.64453L189.857 2.64453L186.834 2.64453L186.834 3.64453Z" fill="#0CAA41"/>
</svg>
