<svg width="113" height="7" viewBox="0 0 113 7" fill="none" xmlns="http://www.w3.org/2000/svg">
<path opacity="0.5" d="M112.392 3.64454L107.392 0.757789L107.392 6.53129L112.392 3.64454ZM0.0507812 4.14453L1.52896 4.14453L1.52896 3.14453L0.0507813 3.14453L0.0507812 4.14453ZM4.48532 4.14453L7.44168 4.14453L7.44168 3.14453L4.48532 3.14453L4.48532 4.14453ZM10.398 4.14453L13.3544 4.14453L13.3544 3.14453L10.398 3.14453L10.398 4.14453ZM16.3108 4.14453L19.2671 4.14453L19.2671 3.14453L16.3108 3.14453L16.3108 4.14453ZM22.2235 4.14453L25.1798 4.14453L25.1798 3.14453L22.2235 3.14453L22.2235 4.14453ZM28.1362 4.14453L31.0926 4.14453L31.0926 3.14453L28.1362 3.14453L28.1362 4.14453ZM34.0489 4.14453L37.0053 4.14453L37.0053 3.14453L34.0489 3.14453L34.0489 4.14453ZM39.9616 4.14453L42.918 4.14453L42.918 3.14453L39.9616 3.14453L39.9616 4.14453ZM45.8744 4.14454L48.8307 4.14454L48.8307 3.14454L45.8744 3.14454L45.8744 4.14454ZM51.7871 4.14454L54.7434 4.14454L54.7434 3.14454L51.7871 3.14454L51.7871 4.14454ZM57.6998 4.14454L60.6562 4.14454L60.6562 3.14454L57.6998 3.14454L57.6998 4.14454ZM63.6125 4.14454L66.5689 4.14454L66.5689 3.14454L63.6125 3.14454L63.6125 4.14454ZM69.5252 4.14454L72.4816 4.14454L72.4816 3.14454L69.5252 3.14454L69.5252 4.14454ZM75.438 4.14454L78.3943 4.14454L78.3943 3.14454L75.438 3.14454L75.438 4.14454ZM81.3507 4.14454L84.307 4.14454L84.307 3.14454L81.3507 3.14454L81.3507 4.14454ZM87.2634 4.14454L90.2197 4.14454L90.2197 3.14454L87.2634 3.14454L87.2634 4.14454ZM93.1761 4.14454L96.1325 4.14454L96.1325 3.14454L93.1761 3.14454L93.1761 4.14454ZM99.0888 4.14454L102.045 4.14454L102.045 3.14454L99.0888 3.14454L99.0888 4.14454ZM105.002 4.14454L107.958 4.14454L107.958 3.14454L105.002 3.14454L105.002 4.14454Z" fill="#0CAA41"/>
</svg>
