<svg width="248" height="7" viewBox="0 0 248 7" fill="none" xmlns="http://www.w3.org/2000/svg">
<path opacity="0.5" d="M247.391 3.64451L242.391 0.75776L242.391 6.53126L247.391 3.64451ZM0.863281 4.14453L2.3665 4.14453L2.3665 3.14453L0.863281 3.14453L0.863281 4.14453ZM5.37293 4.14453L8.37937 4.14453L8.37936 3.14453L5.37293 3.14453L5.37293 4.14453ZM11.3858 4.14453L14.3922 4.14453L14.3922 3.14453L11.3858 3.14453L11.3858 4.14453ZM17.3987 4.14453L20.4051 4.14453L20.4051 3.14453L17.3987 3.14453L17.3987 4.14453ZM23.4115 4.14453L26.418 4.14453L26.418 3.14453L23.4115 3.14453L23.4115 4.14453ZM29.4244 4.14453L32.4308 4.14453L32.4308 3.14453L29.4244 3.14453L29.4244 4.14453ZM35.4373 4.14453L38.4437 4.14453L38.4437 3.14453L35.4373 3.14453L35.4373 4.14453ZM41.4501 4.14453L44.4566 4.14453L44.4566 3.14453L41.4501 3.14453L41.4501 4.14453ZM47.463 4.14453L50.4694 4.14453L50.4694 3.14453L47.463 3.14453L47.463 4.14453ZM53.4759 4.14453L56.4823 4.14453L56.4823 3.14453L53.4759 3.14453L53.4759 4.14453ZM59.4887 4.14453L62.4952 4.14453L62.4952 3.14453L59.4887 3.14453L59.4887 4.14453ZM65.5016 4.14453L68.508 4.14453L68.508 3.14453L65.5016 3.14453L65.5016 4.14453ZM71.5145 4.14453L74.5209 4.14453L74.5209 3.14453L71.5145 3.14453L71.5145 4.14453ZM77.5273 4.14452L80.5337 4.14452L80.5337 3.14452L77.5273 3.14452L77.5273 4.14452ZM83.5402 4.14452L86.5466 4.14452L86.5466 3.14452L83.5402 3.14452L83.5402 4.14452ZM89.553 4.14452L92.5595 4.14452L92.5595 3.14452L89.553 3.14452L89.553 4.14452ZM95.5659 4.14452L98.5723 4.14452L98.5723 3.14452L95.5659 3.14452L95.5659 4.14452ZM101.579 4.14452L104.585 4.14452L104.585 3.14452L101.579 3.14452L101.579 4.14452ZM107.592 4.14452L110.598 4.14452L110.598 3.14452L107.592 3.14452L107.592 4.14452ZM113.604 4.14452L116.611 4.14452L116.611 3.14452L113.604 3.14452L113.604 4.14452ZM119.617 4.14452L122.624 4.14452L122.624 3.14452L119.617 3.14452L119.617 4.14452ZM125.63 4.14452L128.637 4.14452L128.637 3.14452L125.63 3.14452L125.63 4.14452ZM131.643 4.14452L134.65 4.14452L134.65 3.14452L131.643 3.14452L131.643 4.14452ZM137.656 4.14452L140.662 4.14452L140.662 3.14452L137.656 3.14452L137.656 4.14452ZM143.669 4.14452L146.675 4.14452L146.675 3.14452L143.669 3.14452L143.669 4.14452ZM149.682 4.14452L152.688 4.14452L152.688 3.14452L149.682 3.14452L149.682 4.14452ZM155.695 4.14452L158.701 4.14452L158.701 3.14452L155.695 3.14452L155.695 4.14452ZM161.707 4.14452L164.714 4.14452L164.714 3.14452L161.707 3.14452L161.707 4.14452ZM167.72 4.14452L170.727 4.14452L170.727 3.14452L167.72 3.14452L167.72 4.14452ZM173.733 4.14452L176.74 4.14452L176.74 3.14452L173.733 3.14452L173.733 4.14452ZM179.746 4.14452L182.753 4.14452L182.753 3.14452L179.746 3.14452L179.746 4.14452ZM185.759 4.14452L188.765 4.14452L188.765 3.14452L185.759 3.14452L185.759 4.14452ZM191.772 4.14452L194.778 4.14451L194.778 3.14451L191.772 3.14452L191.772 4.14452ZM197.785 4.14451L200.791 4.14451L200.791 3.14451L197.785 3.14451L197.785 4.14451ZM203.798 4.14451L206.804 4.14451L206.804 3.14451L203.798 3.14451L203.798 4.14451ZM209.811 4.14451L212.817 4.14451L212.817 3.14451L209.811 3.14451L209.811 4.14451ZM215.823 4.14451L218.83 4.14451L218.83 3.14451L215.823 3.14451L215.823 4.14451ZM221.836 4.14451L224.843 4.14451L224.843 3.14451L221.836 3.14451L221.836 4.14451ZM227.849 4.14451L230.856 4.14451L230.856 3.14451L227.849 3.14451L227.849 4.14451ZM233.862 4.14451L236.868 4.14451L236.868 3.14451L233.862 3.14451L233.862 4.14451ZM239.875 4.14451L242.881 4.14451L242.881 3.14451L239.875 3.14451L239.875 4.14451Z" fill="#0CAA41"/>
</svg>
