<svg width="49" height="56" viewBox="0 0 49 56" fill="none" xmlns="http://www.w3.org/2000/svg">
<g id="blockchain-icon 1" clip-path="url(#clip0_1662_1210)">
<path id="Vector" fill-rule="evenodd" clip-rule="evenodd" d="M15.4692 21.8778L23.7227 17.2855V8.65145C22.7637 8.48154 21.8953 7.98083 21.2696 7.23706L8.04687 14.8595C8.20412 15.2982 8.28949 15.7681 8.28949 16.2605C8.28949 16.6723 8.23108 17.0662 8.11876 17.4421L15.4692 21.8778ZM20.5687 6.04199C20.3933 5.57692 20.3035 5.08414 20.3036 4.58732C20.3036 3.44596 20.7664 2.41203 21.5167 1.66455C22.267 0.917074 23.3049 0.456055 24.4506 0.456055C25.5963 0.456055 26.6342 0.917074 27.3845 1.66455C27.77 2.04811 28.0756 2.50377 28.2838 3.00536C28.4919 3.50694 28.5986 4.04455 28.5976 4.58732C28.5976 5.08862 28.5077 5.56755 28.346 6.01066L41.6316 13.6645C41.7259 13.5526 41.8203 13.4407 41.9236 13.3377C42.3087 12.9537 42.7661 12.6492 43.2695 12.4419C43.773 12.2345 44.3127 12.1282 44.8575 12.1292C46.0032 12.1292 47.0411 12.5903 47.7914 13.3377C48.1769 13.7213 48.4825 14.177 48.6907 14.6785C48.8989 15.1801 49.0055 15.7177 49.0045 16.2605C49.0045 17.4019 48.5417 18.4313 47.7914 19.1788C47.1466 19.822 46.3061 20.2343 45.4012 20.3515V35.5293C46.3312 35.6501 47.1624 36.0754 47.7914 36.702C48.5417 37.4495 49.0045 38.4834 49.0045 39.6203C49.005 40.1629 48.898 40.7004 48.6898 41.2018C48.4816 41.7032 48.1761 42.1589 47.7909 42.5426C47.4058 42.9263 46.9484 43.2306 46.4451 43.438C45.9417 43.6455 45.4022 43.752 44.8575 43.7515C44.2425 43.7525 43.635 43.6168 43.0793 43.3543C42.5236 43.0918 42.0336 42.7092 41.6451 42.2342L28.3415 49.897C28.5032 50.3401 28.5931 50.819 28.5931 51.3203C28.5931 52.4617 28.1303 53.4956 27.38 54.2431C26.995 54.6271 26.5376 54.9316 26.0341 55.139C25.5306 55.3463 24.9909 55.4526 24.4461 55.4516C23.3004 55.4516 22.2625 54.9906 21.5122 54.2431C20.7619 53.4956 20.2991 52.4617 20.2991 51.3203C20.2991 50.8101 20.3935 50.3177 20.5642 49.8656L7.34597 42.2521C6.95709 42.7234 6.46799 43.1028 5.91399 43.3629C5.36 43.623 4.75493 43.7573 4.14251 43.756C2.99681 43.756 1.95894 43.295 1.20862 42.5475C0.462787 41.8 1.43036e-05 40.7661 1.43036e-05 39.6248C1.43036e-05 38.4834 0.462787 37.4539 1.21311 36.7065C1.85064 36.0707 2.67865 35.6591 3.5719 35.5338V20.347C2.67803 20.2237 1.84943 19.8117 1.21311 19.1743C0.827337 18.7919 0.521497 18.3371 0.313274 17.8362C0.105052 17.3352 -0.00142016 16.7982 1.43036e-05 16.256C1.43036e-05 15.1147 0.462787 14.0807 1.21311 13.3333C1.59813 12.9492 2.05552 12.6448 2.55901 12.4374C3.0625 12.23 3.60217 12.1237 4.147 12.1248C4.76314 12.1237 5.37174 12.2598 5.92831 12.5231C6.48489 12.7863 6.97538 13.1702 7.36394 13.6466L20.5687 6.04199ZM27.6496 7.21021C27.0199 7.97508 26.1346 8.48833 25.156 8.65592V17.2855L33.3915 22.0389L40.9621 17.6794C40.7959 17.2362 40.7105 16.7528 40.7105 16.256C40.7105 15.7726 40.7959 15.3027 40.9487 14.873L27.6496 7.21021ZM44.1342 20.3246C43.2962 20.1795 42.5239 19.7792 41.9236 19.1788C41.8383 19.0938 41.7574 19.0087 41.681 18.9147L34.1239 23.2653V32.5662L41.7125 36.9303C41.7799 36.8542 41.8473 36.7781 41.9191 36.7065C42.52 36.1069 43.292 35.7068 44.1297 35.5606V20.3246H44.1342ZM40.9577 41.0347C40.7959 40.596 40.7105 40.1216 40.7105 39.6292C40.7105 39.11 40.8049 38.6132 40.9846 38.1522L33.6431 33.9314L25.156 38.8459V47.2562C26.1346 47.4238 27.0199 47.937 27.6496 48.7019L40.9577 41.0347ZM21.2696 48.6706C21.8953 47.9268 22.7637 47.4261 23.7227 47.2562V38.8057L15.2041 33.8822L7.97498 38.0403C8.17717 38.5282 8.29398 39.0653 8.29398 39.6292C8.29398 40.1305 8.20412 40.6095 8.04238 41.0526L21.2696 48.6706ZM4.83442 35.5517C5.70156 35.6949 6.47883 36.1112 7.07639 36.7065C7.12132 36.7512 7.16176 36.796 7.2022 36.8407L14.5661 32.6065V22.9967L7.47627 18.7178C7.35496 18.8834 7.22017 19.0356 7.07639 19.1788C6.46721 19.7858 5.68379 20.1893 4.83442 20.3336V35.5517ZM4.15149 18.9595C4.16946 18.9595 4.18743 18.955 4.20541 18.955H4.24135C4.92793 18.9335 5.5804 18.6518 6.06548 18.1672C6.31784 17.9165 6.518 17.6186 6.65447 17.2907C6.79095 16.9627 6.86104 16.6111 6.86073 16.256C6.86073 15.5085 6.55521 14.8327 6.06548 14.3448C5.57575 13.8569 4.89732 13.5526 4.147 13.5526C3.39668 13.5526 2.71824 13.8569 2.22851 14.3448C1.97616 14.5955 1.77599 14.8934 1.63952 15.2214C1.50305 15.5494 1.43295 15.901 1.43326 16.256C1.43326 17.0035 1.73878 17.6794 2.22851 18.1672C2.48081 18.419 2.78059 18.6187 3.11061 18.7546C3.44062 18.8906 3.79437 18.9602 4.15149 18.9595ZM26.3646 49.4181C26.1129 49.1666 25.8139 48.9672 25.4847 48.8313C25.1554 48.6953 24.8025 48.6255 24.4461 48.6258C23.6958 48.6258 23.0173 48.9302 22.5276 49.4181C22.0379 49.9059 21.7324 50.5818 21.7324 51.3293C21.7324 52.0767 22.0379 52.7526 22.5276 53.2405C23.0173 53.7284 23.6958 54.0327 24.4461 54.0327C25.1964 54.0327 25.8749 53.7284 26.3646 53.2405C26.8543 52.7526 27.1598 52.0767 27.1598 51.3293C27.1598 50.5818 26.8588 49.9059 26.3646 49.4181ZM26.3646 2.67611C26.1129 2.42471 25.8139 2.2253 25.4847 2.08935C25.1554 1.95339 24.8025 1.88356 24.4461 1.88387C23.6958 1.88387 23.0173 2.18823 22.5276 2.67611C22.0379 3.16398 21.7324 3.83984 21.7324 4.58732C21.7324 5.3348 22.0379 6.01066 22.5276 6.49854C22.7793 6.74994 23.0783 6.94934 23.4075 7.08529C23.7368 7.22125 24.0897 7.29108 24.4461 7.29077C25.1964 7.29077 25.8749 6.98641 26.3646 6.49854C26.6169 6.24783 26.8171 5.94993 26.9536 5.62195C27.09 5.29397 27.1601 4.94236 27.1598 4.58732C27.1598 3.83984 26.8588 3.16398 26.3646 2.67611ZM46.7715 37.718C46.5199 37.4666 46.2208 37.2672 45.8916 37.1313C45.5624 36.9953 45.2094 36.9255 44.853 36.9258C44.1027 36.9258 43.4243 37.2301 42.9345 37.718C42.6822 37.9687 42.482 38.2666 42.3456 38.5946C42.2091 38.9226 42.139 39.2742 42.1393 39.6292C42.1393 40.3767 42.4448 41.0526 42.9345 41.5404C43.1862 41.7918 43.4852 41.9913 43.8145 42.1272C44.1437 42.2632 44.4966 42.333 44.853 42.3327C45.6034 42.3327 46.2818 42.0283 46.7715 41.5404C47.0239 41.2897 47.224 40.9918 47.3605 40.6639C47.497 40.3359 47.5671 39.9843 47.5668 39.6292C47.5668 38.8818 47.2657 38.2059 46.7715 37.718ZM6.06548 37.718C5.57575 37.2301 4.89732 36.9258 4.147 36.9258C3.39668 36.9258 2.71824 37.2301 2.22851 37.718C1.97616 37.9687 1.77599 38.2666 1.63952 38.5946C1.50305 38.9226 1.43295 39.2742 1.43326 39.6292C1.43326 40.3767 1.73878 41.0526 2.22851 41.5404C2.71824 42.0283 3.39668 42.3327 4.147 42.3327C4.89732 42.3327 5.57575 42.0283 6.06548 41.5404C6.31784 41.2897 6.518 40.9918 6.65447 40.6639C6.79095 40.3359 6.86104 39.9843 6.86073 39.6292C6.85929 38.9126 6.57342 38.2255 6.06548 37.718ZM42.4358 17.4779C42.4718 17.5138 42.4987 17.5585 42.5257 17.6033C42.5527 17.648 42.5706 17.6928 42.5886 17.742C42.6919 17.8942 42.8087 18.0374 42.9345 18.1672C43.1862 18.4186 43.4852 18.618 43.8145 18.754C44.1437 18.8899 44.4966 18.9598 44.853 18.9595C45.6034 18.9595 46.2818 18.6551 46.7715 18.1672C47.0239 17.9165 47.224 17.6186 47.3605 17.2907C47.497 16.9627 47.5671 16.6111 47.5668 16.256C47.5668 15.5085 47.2612 14.8327 46.7715 14.3448C46.5199 14.0934 46.2208 13.894 45.8916 13.758C45.5624 13.6221 45.2094 13.5523 44.853 13.5526C44.1027 13.5526 43.4243 13.8569 42.9345 14.3448C42.6822 14.5955 42.482 14.8934 42.3456 15.2214C42.2091 15.5494 42.139 15.901 42.1393 16.256C42.1438 16.6991 42.2516 17.1109 42.4358 17.4779ZM15.9095 32.4543C16.0116 32.5637 16.0788 32.7008 16.1027 32.8482L23.7991 37.3555V28.4574L15.9095 23.78V32.4543ZM32.785 23.9009L25.1425 28.4618V37.3644L32.785 32.8661V23.9009ZM24.4371 18.3552L16.9788 22.7998L24.4776 27.2981L31.7606 22.8938L24.4371 18.3552Z" fill="#10D1E3"/>
</g>
<defs>
<clipPath id="clip0_1662_1210">
<rect width="49" height="55" fill="white" transform="translate(0 0.456055)"/>
</clipPath>
</defs>
</svg>
