<svg width="160" height="29" viewBox="0 0 160 29" fill="none" xmlns="http://www.w3.org/2000/svg">
<path d="M12.8774 3.54702C13.1742 2.62045 14.4852 2.62045 14.782 3.54702L16.7107 9.56768C16.8434 9.98171 17.2283 10.2626 17.6631 10.2626H23.9343C24.8996 10.2626 25.3046 11.495 24.5275 12.0676L19.4297 15.8243C19.0842 16.0789 18.9397 16.5256 19.0706 16.9344L21.012 22.9947C21.308 23.9185 20.2474 24.6803 19.4665 24.1048L14.4229 20.3882C14.0702 20.1282 13.5892 20.1282 13.2365 20.3882L8.19293 24.1048C7.41201 24.6803 6.35143 23.9185 6.64737 22.9947L8.58878 16.9344C8.71972 16.5256 8.57522 16.0789 8.22969 15.8243L3.13189 12.0676C2.35481 11.495 2.75984 10.2626 3.72513 10.2626H9.99635C10.4311 10.2626 10.816 9.98171 10.9487 9.56768L12.8774 3.54702Z" fill="#08D3BB"/>
<path d="M46.1801 3.54702C46.4769 2.62045 47.7879 2.62045 48.0848 3.54702L50.0135 9.56768C50.1461 9.98171 50.531 10.2626 50.9658 10.2626H57.237C58.2023 10.2626 58.6073 11.495 57.8303 12.0676L52.7325 15.8243C52.3869 16.0789 52.2424 16.5256 52.3734 16.9344L54.3148 22.9947C54.6107 23.9185 53.5501 24.6803 52.7692 24.1048L47.7257 20.3882C47.3729 20.1282 46.892 20.1282 46.5392 20.3882L41.4957 24.1048C40.7147 24.6803 39.6542 23.9185 39.9501 22.9947L41.8915 16.9344C42.0225 16.5256 41.878 16.0789 41.5324 15.8243L36.4346 12.0676C35.6575 11.495 36.0626 10.2626 37.0279 10.2626H43.2991C43.7338 10.2626 44.1188 9.98171 44.2514 9.56768L46.1801 3.54702Z" fill="#08D3BB"/>
<path d="M78.227 3.54702C78.5238 2.62045 79.8348 2.62045 80.1316 3.54702L82.0603 9.56768C82.193 9.98171 82.5779 10.2626 83.0127 10.2626H89.2839C90.2492 10.2626 90.6542 11.495 89.8771 12.0676L84.7793 15.8243C84.4338 16.0789 84.2893 16.5256 84.4202 16.9344L86.3617 22.9947C86.6576 23.9185 85.597 24.6803 84.8161 24.1048L79.7726 20.3882C79.4198 20.1282 78.9389 20.1282 78.5861 20.3882L73.5425 24.1048C72.7616 24.6803 71.701 23.9185 71.997 22.9947L73.9384 16.9344C74.0693 16.5256 73.9248 16.0789 73.5793 15.8243L68.4815 12.0676C67.7044 11.495 68.1095 10.2626 69.0747 10.2626H75.346C75.7807 10.2626 76.1657 9.98171 76.2983 9.56768L78.227 3.54702Z" fill="#08D3BB"/>
<path d="M111.53 3.54702C111.827 2.62045 113.138 2.62045 113.434 3.54702L115.363 9.56768C115.496 9.98171 115.881 10.2626 116.315 10.2626H122.587C123.552 10.2626 123.957 11.495 123.18 12.0676L118.082 15.8243C117.737 16.0789 117.592 16.5256 117.723 16.9344L119.664 22.9947C119.96 23.9185 118.9 24.6803 118.119 24.1048L113.075 20.3882C112.723 20.1282 112.242 20.1282 111.889 20.3882L106.845 24.1048C106.064 24.6803 105.004 23.9185 105.3 22.9947L107.241 16.9344C107.372 16.5256 107.228 16.0789 106.882 15.8243L101.784 12.0676C101.007 11.495 101.412 10.2626 102.377 10.2626H108.649C109.083 10.2626 109.468 9.98171 109.601 9.56768L111.53 3.54702Z" fill="#08D3BB"/>
<path d="M144.832 3.54702C145.129 2.62045 146.44 2.62045 146.737 3.54702L148.666 9.56768C148.798 9.98171 149.183 10.2626 149.618 10.2626H155.889C156.855 10.2626 157.26 11.495 156.483 12.0676L151.385 15.8243C151.039 16.0789 150.895 16.5256 151.026 16.9344L152.967 22.9947C153.263 23.9185 152.202 24.6803 151.422 24.1048L146.378 20.3882C146.025 20.1282 145.544 20.1282 145.192 20.3882L140.148 24.1048C139.367 24.6803 138.307 23.9185 138.602 22.9947L140.544 16.9344C140.675 16.5256 140.53 16.0789 140.185 15.8243L135.087 12.0676C134.31 11.495 134.715 10.2626 135.68 10.2626H141.951C142.386 10.2626 142.771 9.98171 142.904 9.56768L144.832 3.54702Z" fill="#08D3BB"/>
</svg>
