<svg width="21" height="18" viewBox="0 0 21 18" fill="none" xmlns="http://www.w3.org/2000/svg">
<g id="briefcase-line-icon 1" clip-path="url(#clip0_1549_17611)">
<g id="Group">
<path id="Vector" d="M9.99544 9.44421H11.4733C11.6898 9.44421 11.8883 9.53552 12.0299 9.68433C12.1732 9.83314 12.2611 10.0378 12.2611 10.2627V13.4993C12.2611 13.7242 12.1732 13.9288 12.0299 14.0776C11.8867 14.2265 11.6898 14.3178 11.4733 14.3178H9.99544C9.77897 14.3178 9.58203 14.2265 9.4388 14.0776C9.29557 13.9288 9.20768 13.7242 9.20768 13.4993V10.2644C9.20768 10.0395 9.29557 9.83314 9.4388 9.68602C9.58203 9.53721 9.77897 9.44421 9.99544 9.44421ZM1.86882 3.30405H6.99577V1.77873C6.99577 1.54875 7.08529 1.34075 7.23177 1.18856C7.37663 1.03637 7.57845 0.943359 7.7998 0.943359H13.6689C13.8903 0.943359 14.0905 1.03637 14.237 1.18856C14.3818 1.33906 14.473 1.54875 14.473 1.77873V3.30574H19.5999C19.9124 3.30574 20.1956 3.43764 20.4023 3.6524C20.6074 3.86547 20.736 4.1614 20.736 4.48608V16.7664C20.736 17.0911 20.609 17.3853 20.4023 17.6001C20.1973 17.8132 19.9124 17.9467 19.5999 17.9467H1.86882C1.55632 17.9467 1.27311 17.8148 1.06641 17.6001C0.861328 17.3836 0.734375 17.0894 0.734375 16.7647V4.48439C0.734375 4.15971 0.861328 3.86547 1.06803 3.65071C1.27311 3.43764 1.55632 3.30405 1.86882 3.30405ZM13.6689 1.67558H7.7998C7.77214 1.67558 7.74772 1.68742 7.72982 1.70602C7.71191 1.72462 7.70052 1.74998 7.70052 1.77873V3.28883H13.7682V1.77873C13.7682 1.74998 13.7568 1.72462 13.7389 1.70602C13.721 1.68572 13.6966 1.67558 13.6689 1.67558ZM1.4375 10.3506C4.03027 11.1251 5.94759 11.4582 8.54199 11.5834V12.3156C5.94922 12.1921 4.0319 11.8675 1.4375 11.1082V16.763C1.4375 16.8865 1.48633 16.9981 1.56445 17.0792C1.64258 17.1604 1.75 17.2111 1.86882 17.2111H19.5983C19.7171 17.2111 19.8245 17.1604 19.9027 17.0792C19.9808 16.9981 20.0296 16.8865 20.0296 16.763V11.1099C17.4401 11.8675 15.6383 12.1921 13.0505 12.3156V11.5834C15.64 11.4565 17.4417 11.1234 20.0296 10.3506V4.48439C20.0296 4.36095 19.9808 4.24934 19.9027 4.16817C19.8245 4.087 19.7171 4.03627 19.5983 4.03627H1.86882C1.75 4.03627 1.64258 4.087 1.56445 4.16817C1.48633 4.24934 1.4375 4.36095 1.4375 4.48439V10.3506ZM11.4733 10.1764H9.99544C9.97266 10.1764 9.9515 10.1866 9.93685 10.2018C9.9222 10.217 9.91244 10.239 9.91244 10.2627V13.4993C9.91244 13.523 9.9222 13.545 9.93685 13.5602C9.9515 13.5771 9.97266 13.5856 9.99544 13.5856H11.4733C11.4961 13.5856 11.5173 13.5754 11.5319 13.5602C11.5465 13.545 11.5563 13.523 11.5563 13.4993V10.2644C11.5563 10.2407 11.5465 10.2187 11.5319 10.2035C11.5173 10.1866 11.4961 10.1764 11.4733 10.1764Z" fill="#43C4D8"/>
</g>
</g>
<defs>
<clipPath id="clip0_1549_17611">
<rect width="20" height="17" fill="white" transform="translate(0.734375 0.943359)"/>
</clipPath>
</defs>
</svg>
