<svg width="40" height="33" viewBox="0 0 40 33" fill="none" xmlns="http://www.w3.org/2000/svg">
<g id="briefcase-icon 1" clip-path="url(#clip0_1549_17565)">
<g id="Group">
<path id="Vector" d="M21.4624 17.6311H18.5806C18.533 17.6311 18.4949 17.6502 18.4631 17.6788C18.4314 17.7107 18.4155 17.752 18.4155 17.7966V23.8885C18.4155 23.9362 18.4346 23.9744 18.4631 24.0063C18.4949 24.0381 18.5361 24.054 18.5806 24.054H21.4592C21.5068 24.054 21.5449 24.0349 21.5767 24.0063C21.6084 23.9744 21.6243 23.9331 21.6243 23.8885V17.7966C21.6243 17.7489 21.6052 17.7107 21.5767 17.6788C21.5481 17.6438 21.5068 17.6311 21.4624 17.6311ZM2.73682 4.69932H12.7312V1.82524C12.7312 1.38919 12.9089 0.997708 13.1914 0.714438C13.477 0.431167 13.8706 0.25293 14.2991 0.25293H25.7439C26.1787 0.25293 26.5659 0.431167 26.8516 0.714438C27.134 0.997708 27.3118 1.39556 27.3118 1.82524V4.69932H37.3062C37.9187 4.69932 38.4709 4.95076 38.8677 5.35498C39.2708 5.7592 39.5215 6.31301 39.5215 6.92092V12.2871C37.0173 14.009 34.4338 15.4763 31.771 16.6731C29.0923 17.8762 26.3311 18.8087 23.4746 19.4517V17.3064C23.4746 16.8163 23.2747 16.3643 22.9541 16.0397C22.6335 15.7182 22.1829 15.5177 21.6909 15.5177H18.3489C17.8601 15.5177 17.4094 15.7182 17.0857 16.0397C16.7651 16.3611 16.5652 16.8131 16.5652 17.3064V19.4039C13.7849 18.7642 11.0903 17.8475 8.47827 16.6731C5.74243 15.4445 3.09229 13.9263 0.521484 12.1439V6.92092C0.521484 6.30664 0.772217 5.75283 1.17529 5.35498C1.5752 4.95076 2.13062 4.69932 2.73682 4.69932ZM39.5215 15.47V30.0345C39.5215 30.6488 39.2708 31.2026 38.8677 31.6005C38.4646 32.0047 37.9124 32.2561 37.3062 32.2561H2.73682C2.12427 32.2561 1.57202 32.0047 1.17529 31.6005C0.772217 31.1962 0.521484 30.6424 0.521484 30.0345V15.3363C2.70825 16.7431 4.9585 17.9716 7.27222 19.0124C10.2588 20.3556 13.3564 21.3836 16.5684 22.0711V24.3787C16.5684 24.8688 16.7683 25.3208 17.0889 25.6454C17.4094 25.9669 17.8633 26.1674 18.3521 26.1674H21.6941C22.1829 26.1674 22.6335 25.9669 22.9573 25.6454C23.2778 25.3239 23.4778 24.872 23.4778 24.3787V21.9597L23.5127 22.1061C26.7849 21.4155 29.9397 20.3779 32.9802 19.0092C35.2209 18.0035 37.4014 16.8195 39.5215 15.47ZM24.5505 2.39496H15.4988C15.4448 2.39496 15.4004 2.41406 15.3591 2.45544C15.3274 2.48726 15.2988 2.54137 15.2988 2.59548V4.63885H24.741V2.59548C24.741 2.54137 24.7219 2.49681 24.6807 2.45544C24.6489 2.42361 24.595 2.39496 24.541 2.39496H24.5505Z" fill="#43C4D8"/>
</g>
</g>
<defs>
<clipPath id="clip0_1549_17565">
<rect width="39" height="32" fill="white" transform="translate(0.521484 0.25293)"/>
</clipPath>
</defs>
</svg>
