<svg width="54" height="41" viewBox="0 0 54 41" fill="none" xmlns="http://www.w3.org/2000/svg">
<g id="business-working-hours-icon 1" clip-path="url(#clip0_1549_17497)">
<path id="Vector" d="M50.7606 10.271C50.658 10.1051 50.5238 9.9614 50.3657 9.84828C50.2077 9.73516 50.0289 9.65488 49.8398 9.6121C49.6507 9.56932 49.4551 9.5649 49.2643 9.59909C49.0735 9.63328 48.8913 9.70541 48.7284 9.81127C48.5655 9.91714 48.425 10.0546 48.3152 10.2157C48.2054 10.3769 48.1284 10.5584 48.0888 10.7498C48.0491 10.9412 48.0475 11.1387 48.0841 11.3307C48.1208 11.5228 48.1948 11.7055 48.3021 11.8684C48.7906 12.6268 49.2134 13.4263 49.5658 14.258C49.7179 14.5906 49.9867 14.8544 50.3204 14.9986C50.6541 15.1427 51.0288 15.1569 51.3723 15.0383C51.7157 14.9197 52.0033 14.6768 52.1795 14.3566C52.3557 14.0364 52.408 13.6616 52.3263 13.3048C52.3004 13.2308 52.2831 13.1611 52.2486 13.0828C51.8343 12.1038 51.3364 11.163 50.7606 10.271ZM11.0408 30.0055L13.4044 36.2601L14.5905 32.8521L14.0082 32.2123C13.5769 31.5637 13.7192 30.8325 14.5301 30.7019C14.8173 30.6808 15.1056 30.6808 15.3927 30.7019C15.7138 30.6798 16.0363 30.693 16.3546 30.7411C17.1094 30.9065 17.187 31.6421 16.8118 32.2297L16.2295 32.8695L17.4156 36.2775L19.5722 30.0229C21.1292 31.4027 25.2569 31.69 26.952 32.6432C28.7161 33.6399 29.1086 35.0893 29.4277 36.752L29.6779 36.8347C31.4333 37.4963 30.5405 40.1644 28.7549 39.6334C28.4486 39.542 28.1338 39.4375 27.8362 39.3287C27.6385 39.2553 27.4589 39.1395 27.31 38.9892C27.161 38.8389 27.0462 38.6577 26.9736 38.4582H0.857422C1.36637 36.1034 1.31462 33.9315 3.65666 32.6258C5.74422 31.4549 9.33276 31.542 11.0408 29.9881V30.0055ZM10.6095 25.814C10.4083 25.8277 10.2076 25.7824 10.0315 25.6834C9.78222 25.5311 9.58968 25.3001 9.48372 25.0262C9.22925 24.4516 9.02653 22.937 9.66919 22.5061L9.54842 22.4277V22.258C9.52254 21.9533 9.51823 21.5833 9.5096 21.2003C9.48804 19.777 9.45784 18.0534 8.29329 17.7182L7.75846 17.5572L8.09058 17.1568C8.95384 16.0826 9.93162 15.1076 11.0063 14.2493C11.9788 13.4353 13.1387 12.8814 14.3792 12.6388C14.9622 12.5445 15.5586 12.5777 16.1278 12.7362C16.6971 12.8946 17.226 13.1746 17.6787 13.5572C17.9944 13.8175 18.2834 14.1092 18.5413 14.4277C19.0587 14.4832 19.5591 14.646 20.0111 14.9059C20.4631 15.1658 20.857 15.5172 21.168 15.938C21.5575 16.4466 21.85 17.0236 22.0307 17.6399C22.2179 18.2628 22.2967 18.9137 22.2636 19.5637C22.2226 20.7415 21.7329 21.8579 20.8963 22.6802C21.0466 22.6814 21.1944 22.7187 21.3276 22.789C21.8107 23.0414 21.828 23.5985 21.7029 24.0643C21.5735 24.4517 21.4139 24.9 21.2716 25.2786C21.0904 25.7922 20.8403 25.888 20.3011 25.8314C19.1366 30.9805 12.1061 31.1546 10.6095 25.8314V25.814ZM31.4808 12.9087C31.4808 12.5046 31.6398 12.1172 31.9229 11.8315C32.2061 11.5458 32.59 11.3853 32.9904 11.3853C33.3908 11.3853 33.7747 11.5458 34.0578 11.8315C34.341 12.1172 34.5 12.5046 34.5 12.9087V22.1491L40.7713 24.9304C41.1357 25.0926 41.4212 25.3942 41.5652 25.7689C41.7092 26.1436 41.6998 26.5606 41.5391 26.9283C41.3783 27.2959 41.0795 27.5841 40.7082 27.7294C40.3369 27.8747 39.9237 27.8652 39.5593 27.703L32.4297 24.5561C32.1475 24.4435 31.9057 24.2472 31.7363 23.9931C31.5669 23.739 31.4778 23.4391 31.4808 23.1328V12.9087ZM48.2158 5.84447C48.2794 6.00533 48.3145 6.17624 48.3193 6.34936C48.3824 6.74106 48.3026 7.14254 48.0949 7.47945C47.8871 7.81636 47.5654 8.06588 47.1893 8.18179L42.8416 9.52238C42.6344 9.59603 42.4146 9.62654 42.1953 9.61207C41.9761 9.59759 41.762 9.53844 41.5661 9.43818C41.3702 9.33791 41.1964 9.19862 41.0552 9.0287C40.9141 8.85879 40.8086 8.66178 40.745 8.44956C40.6814 8.23735 40.6611 8.01433 40.6853 7.79397C40.7095 7.57362 40.7777 7.36049 40.8857 7.16747C40.9938 6.97444 41.1395 6.80552 41.3141 6.67089C41.4886 6.53627 41.6884 6.43874 41.9014 6.38419L42.3327 6.25361C38.6319 4.22707 34.3039 3.70309 30.2331 4.78874C26.1623 5.87439 22.656 8.48772 20.4305 12.0947C20.261 12.029 20.0883 11.9724 19.9129 11.925C19.7835 11.7988 19.6498 11.6769 19.4816 11.5594L19.3134 11.4114C18.884 11.0678 18.4164 10.7757 17.9202 10.5409C18.7107 9.26724 19.6427 8.08878 20.6979 7.02836C23.694 4.00238 27.5894 2.04939 31.789 1.46778C35.9885 0.886165 40.2612 1.70791 43.9544 3.80747L43.5576 2.73239C43.4634 2.3436 43.5129 1.93348 43.6967 1.57884C43.8806 1.2242 44.1863 0.949357 44.5565 0.805784C44.9267 0.66221 45.3361 0.659753 45.708 0.798872C46.0799 0.93799 46.3888 1.20914 46.5768 1.56155L48.1986 5.84447H48.2158ZM34.4396 37.5485C34.5128 37.5417 34.5864 37.5417 34.6596 37.5485C34.7457 37.5417 34.8322 37.5417 34.9184 37.5485C35.8121 37.5352 36.7028 37.4405 37.5796 37.2656C37.6764 37.2481 37.7745 37.2393 37.8729 37.2395C38.2325 37.2501 38.5757 37.3937 38.8372 37.643C39.0987 37.8923 39.2602 38.2299 39.2911 38.5916C39.322 38.9533 39.2201 39.3139 39.0047 39.6047C38.7893 39.8954 38.4755 40.0962 38.123 40.1687C37.0835 40.3703 36.0286 40.481 34.9701 40.4995C34.8827 40.5091 34.7945 40.5091 34.707 40.4995C34.619 40.517 34.5294 40.5258 34.4396 40.5256C33.5321 40.5252 32.6257 40.4626 31.7266 40.3385C32.0183 40.0183 32.2296 39.6323 32.3429 39.2128C32.4563 38.7932 32.4683 38.3524 32.3779 37.9272L32.2744 37.431C32.9893 37.5269 33.7098 37.5749 34.431 37.5746L34.4396 37.5485ZM42.6001 35.4157C42.2518 35.5889 41.9859 35.8946 41.8609 36.2656C41.7359 36.6366 41.7621 37.0425 41.9337 37.394C42.1053 37.7455 42.4082 38.0138 42.7759 38.1399C43.1435 38.266 43.5457 38.2396 43.894 38.0664C44.8823 37.5401 45.8145 36.913 46.676 36.1949C46.9603 35.9677 47.1508 35.6421 47.2105 35.2813C47.2703 34.9204 47.1951 34.55 46.9994 34.2419C46.8038 33.9339 46.5017 33.7102 46.1519 33.6142C45.802 33.5182 45.4293 33.5569 45.106 33.7226C45.0128 33.7699 44.9246 33.8268 44.8429 33.8923C44.1443 34.4617 43.3999 34.9713 42.6173 35.4157H42.6001ZM48.3711 29.8662C48.1646 30.1975 48.097 30.598 48.1832 30.9796C48.2693 31.3612 48.5021 31.6927 48.8304 31.9011C49.1587 32.1094 49.5556 32.1776 49.9338 32.0907C50.3119 32.0038 50.6404 31.7688 50.8468 31.4375C51.4073 30.534 51.8949 29.5864 52.3047 28.604C52.4733 28.2534 52.4976 27.8498 52.3723 27.4812C52.2471 27.1127 51.9825 26.809 51.6362 26.6366C51.2899 26.4642 50.8902 26.437 50.5241 26.561C50.158 26.6849 49.8554 26.9499 49.6823 27.2982C49.3008 28.1761 48.8687 29.0306 48.3883 29.8575L48.3711 29.8662ZM50.8727 22.2057C50.8515 22.3984 50.868 22.5933 50.9215 22.7795C50.9749 22.9656 51.0641 23.1394 51.1841 23.2907C51.304 23.4421 51.4524 23.5681 51.6206 23.6616C51.7888 23.7552 51.9736 23.8143 52.1645 23.8358C52.3554 23.8572 52.5486 23.8405 52.7331 23.7866C52.9175 23.7327 53.0897 23.6426 53.2397 23.5216C53.5426 23.2771 53.7369 22.9212 53.7798 22.5322C53.879 21.4405 53.879 20.342 53.7798 19.2503C53.7478 18.8602 53.5634 18.4988 53.2674 18.2458C52.9713 17.9927 52.5878 17.8687 52.2012 17.9011C51.8145 17.9334 51.4564 18.1194 51.2057 18.4181C50.9549 18.7169 50.8321 19.1039 50.8641 19.4941C50.9374 20.3965 50.9374 21.3034 50.8641 22.2057H50.8727Z" fill="white"/>
</g>
<defs>
<clipPath id="clip0_1549_17497">
<rect width="53" height="40" fill="white" transform="translate(0.857422 0.5)"/>
</clipPath>
</defs>
</svg>
