<svg width="57" height="57" viewBox="0 0 57 57" fill="none" xmlns="http://www.w3.org/2000/svg">
<g id="code (1) 2" clip-path="url(#clip0_1556_45309)">
<path id="Vector" d="M22.5018 39.6688C22.2903 39.6688 22.0772 39.596 21.9034 39.4479L15.9207 34.3537C15.7144 34.1778 15.5957 33.9209 15.5957 33.6495C15.5957 33.3787 15.7149 33.1217 15.9207 32.9458L21.9034 27.8516C22.2918 27.5204 22.8753 27.5673 23.2066 27.9558C23.5373 28.3448 23.4908 28.9283 23.1018 29.259L17.9462 33.6495L23.1018 38.04C23.4908 38.3712 23.5373 38.9547 23.2066 39.3432C23.0234 39.5583 22.7634 39.6688 22.5018 39.6688Z" fill="#10D1E3"/>
<path id="Vector_2" d="M34.3117 39.6688C34.0501 39.6688 33.7901 39.5583 33.6075 39.3432C33.2763 38.9547 33.3232 38.3712 33.7117 38.04L38.8673 33.6495L33.7117 29.259C33.3232 28.9283 33.2763 28.3448 33.6075 27.9558C33.9382 27.5673 34.5222 27.5204 34.9102 27.8516L40.8928 32.9458C41.0992 33.1217 41.2178 33.3787 41.2178 33.6495C41.2178 33.9209 41.0992 34.1778 40.8928 34.3537L34.9102 39.4479C34.7363 39.596 34.5232 39.6688 34.3117 39.6688Z" fill="#10D1E3"/>
<path id="Vector_3" d="M26.2893 43.4897C26.2258 43.4897 26.1618 43.483 26.0974 43.4696C25.5979 43.3643 25.2781 42.8737 25.3833 42.3743L29.1119 24.6716C29.2171 24.1722 29.7073 23.8523 30.2072 23.9575C30.7066 24.0628 31.0265 24.5529 30.9212 25.0528L27.1927 42.7556C27.1008 43.191 26.717 43.4897 26.2893 43.4897Z" fill="#10D1E3"/>
<path id="Vector_4" d="M50.1987 53.1341H6.6138C3.19119 53.1341 0.40625 50.3497 0.40625 46.9266V9.93411C0.40625 6.5115 3.19119 3.72656 6.6138 3.72656H50.1987C53.6213 3.72656 56.4062 6.5115 56.4062 9.93411V46.9266C56.4062 50.3497 53.6213 53.1341 50.1987 53.1341ZM6.6138 5.57562C4.21064 5.57562 2.25531 7.53096 2.25531 9.93411V46.9266C2.25531 49.3298 4.21064 51.2851 6.6138 51.2851H50.1987C52.6019 51.2851 54.5572 49.3298 54.5572 46.9266V9.93411C54.5572 7.53096 52.6019 5.57562 50.1987 5.57562H6.6138Z" fill="#10D1E3"/>
<path id="Vector_5" d="M55.4817 18.5307H1.33078C0.820018 18.5307 0.40625 18.1169 0.40625 17.6062C0.40625 17.0959 0.820018 16.6816 1.33078 16.6816H55.4817C55.9925 16.6816 56.4062 17.0959 56.4062 17.6062C56.4062 18.1169 55.9925 18.5307 55.4817 18.5307Z" fill="#10D1E3"/>
<path id="Vector_6" d="M16.2031 14.1074C14.5904 14.1074 13.2773 12.7944 13.2773 11.1816C13.2773 9.56836 14.5904 8.25586 16.2031 8.25586C17.8164 8.25586 19.1289 9.56836 19.1289 11.1816C19.1289 12.7944 17.8164 14.1074 16.2031 14.1074ZM16.2031 10.1049C15.6098 10.1049 15.1264 10.5878 15.1264 11.1816C15.1264 11.7755 15.6098 12.2584 16.2031 12.2584C16.7969 12.2584 17.2798 11.7755 17.2798 11.1816C17.2798 10.5878 16.7969 10.1049 16.2031 10.1049Z" fill="#10D1E3"/>
<path id="Vector_7" d="M7.21289 14.0791C5.59961 14.0791 4.28711 12.7666 4.28711 11.1533C4.28711 9.54004 5.59961 8.22754 7.21289 8.22754C8.82617 8.22754 10.1387 9.54004 10.1387 11.1533C10.1387 12.7666 8.82617 14.0791 7.21289 14.0791ZM7.21289 10.0766C6.61958 10.0766 6.13616 10.56 6.13616 11.1533C6.13616 11.7471 6.61958 12.23 7.21289 12.23C7.80671 12.23 8.28961 11.7471 8.28961 11.1533C8.28961 10.56 7.80671 10.0766 7.21289 10.0766Z" fill="#10D1E3"/>
<path id="Vector_8" d="M25.1928 14.1352C23.5801 14.1352 22.2676 12.8227 22.2676 11.2094C22.2676 9.59668 23.5801 8.28418 25.1928 8.28418C26.8061 8.28418 28.1186 9.59668 28.1186 11.2094C28.1186 12.8227 26.8061 14.1352 25.1928 14.1352ZM25.1928 10.1327C24.5995 10.1327 24.1166 10.6156 24.1166 11.2094C24.1166 11.8033 24.5995 12.2862 25.1928 12.2862C25.7867 12.2862 26.2696 11.8033 26.2696 11.2094C26.2696 10.6156 25.7867 10.1327 25.1928 10.1327Z" fill="#10D1E3"/>
</g>
<defs>
<clipPath id="clip0_1556_45309">
<rect width="56" height="56" fill="white" transform="translate(0.40625 0.424805)"/>
</clipPath>
</defs>
</svg>
