<svg width="42" height="39" viewBox="0 0 42 39" fill="none" xmlns="http://www.w3.org/2000/svg">
<g id="data-protect-icon 1" clip-path="url(#clip0_1549_17001)">
<path id="Vector" d="M6.02561 8.90828C8.5833 9.76086 12.1428 10.2887 16.097 10.2887C20.0513 10.2887 23.6108 9.76086 26.1685 8.90828C28.413 8.15966 29.8024 7.25429 29.8024 6.36812C29.8024 5.48194 28.413 4.57497 26.1685 3.82716C23.6108 2.97377 20.0513 2.44671 16.097 2.44671C12.1428 2.44671 8.5833 2.97377 6.02561 3.82716C1.26256 5.41476 1.13123 7.27669 6.02561 8.90828ZM31.1886 14.1749C33.0071 15.3267 34.7833 16.2184 36.4417 16.7751C37.9824 17.2918 39.4198 17.5221 40.693 17.4061L41.3681 17.3445L41.4009 18.0212C41.6452 22.9591 40.8276 26.9797 39.1507 30.1061C37.3986 33.3733 34.4109 35.9878 30.869 37.1547C27.2551 35.8751 24.5148 33.61 22.7027 30.2157C21.0459 27.1125 20.1794 23.0447 20.3147 17.8868L20.3324 17.219L20.997 17.2534C22.7211 17.3437 24.3755 17.1262 25.9402 16.6231C27.5306 16.1121 29.0369 15.2995 30.4398 14.2109L30.8018 13.9302L31.1886 14.1749ZM27.738 23.9533H28.0495V23.2319C28.0495 22.4329 28.365 21.705 28.8727 21.1756C29.3852 20.6429 30.0923 20.311 30.8706 20.311C31.6498 20.311 32.3577 20.6421 32.8694 21.1756C33.3779 21.705 33.6934 22.4329 33.6934 23.2319V23.9533H34.0049C34.2579 23.9533 34.4654 24.1604 34.4654 24.4132V29.2727C34.4654 29.5255 34.2579 29.7318 34.0049 29.7318H27.738C27.4841 29.7318 27.2775 29.5255 27.2775 29.2727V24.4132C27.2767 24.1604 27.4841 23.9533 27.738 23.9533ZM30.4935 27.0573L29.9962 28.3562H31.7451L31.2854 27.0389C31.5777 26.8893 31.7771 26.5846 31.7771 26.2343C31.7771 25.7344 31.3711 25.3289 30.8706 25.3289C30.371 25.3289 29.965 25.7344 29.965 26.2343C29.965 26.599 30.182 26.9133 30.4935 27.0573ZM28.9207 23.9533H32.8213V23.2319C32.8213 22.664 32.5995 22.1497 32.2424 21.7778C31.8892 21.4099 31.404 21.182 30.8706 21.182C30.3381 21.182 29.8521 21.4099 29.4997 21.7778C29.1426 22.1497 28.9207 22.664 28.9207 23.2319V23.9533ZM35.8659 18.2491C34.27 17.7133 32.5867 16.8887 30.8746 15.8353C29.5037 16.8439 28.0343 17.6077 26.4816 18.1068C25.0209 18.5762 23.4866 18.8106 21.8955 18.7954C21.853 23.263 22.6354 26.7886 24.0712 29.4799C25.6287 32.3959 27.9686 34.3419 30.8738 35.452C33.8608 34.2771 36.2319 32.2592 37.779 29.3743C39.2252 26.6758 39.9643 23.2095 39.8346 18.9521C38.599 18.9649 37.2633 18.7178 35.8659 18.2491ZM20.0193 29.7102C18.766 29.823 17.4512 29.8838 16.097 29.8838C11.9442 29.8838 8.16369 29.3159 5.409 28.3978C4.22064 28.0011 3.20766 27.5268 2.41168 26.9885V32.8174C2.58945 33.6436 3.93637 34.477 6.02561 35.1736C8.5833 36.0254 12.1428 36.5533 16.097 36.5533C19.0431 36.5533 21.7698 36.2606 24.0264 35.7591C24.5965 36.3158 25.2043 36.8284 25.8489 37.3003C23.2016 38.0489 19.7974 38.5 16.097 38.5C11.9442 38.5 8.16369 37.9313 5.409 37.0132C3.95639 36.5285 0.463379 34.9369 0.463379 33.035V32.4119C0.463379 23.7301 0.443359 15.0475 0.443359 6.36812C0.443359 4.55098 2.34121 3.00977 5.409 1.98682C8.16369 1.06866 11.9442 0.5 16.097 0.5C20.2491 0.5 24.0304 1.06866 26.7851 1.98682C29.5774 2.91779 31.4 4.27825 31.7051 5.88504C31.7419 5.98741 31.7611 6.09779 31.7611 6.21216V11.8339C31.4536 11.6508 31.1413 11.4596 30.825 11.2597C30.4855 11.5228 30.1475 11.7692 29.8128 11.9979V9.31857C29.0136 9.86483 27.9894 10.3471 26.7851 10.7478C24.0304 11.6668 20.2491 12.2346 16.097 12.2346C11.9442 12.2346 8.16369 11.6668 5.409 10.7478C4.22064 10.3519 3.20766 9.87763 2.41168 9.33937V15.5866C2.58945 16.4128 3.93637 17.2462 6.02561 17.942C8.5833 18.7946 12.1428 19.3224 16.097 19.3224C16.7168 19.3224 17.327 19.3096 17.9244 19.2841C17.9588 19.9487 18.0053 20.5957 18.0654 21.226C17.4207 21.254 16.7641 21.2692 16.097 21.2692C11.9442 21.2692 8.16369 20.7005 5.409 19.7823C4.22064 19.3856 3.20766 18.9113 2.41168 18.3731V24.202C2.58945 25.0282 3.93637 25.8616 6.02561 26.5574C8.5833 27.41 12.1428 27.9379 16.097 27.9379C17.2125 27.9379 18.2968 27.8955 19.3354 27.8163C19.5428 28.4753 19.7702 29.1064 20.0193 29.7102Z" fill="white"/>
</g>
<defs>
<clipPath id="clip0_1549_17001">
<rect width="41" height="38" fill="white" transform="translate(0.443359 0.5)"/>
</clipPath>
</defs>
</svg>
