<svg width="52" height="50" viewBox="0 0 52 50" fill="none" xmlns="http://www.w3.org/2000/svg">
<g id="data-protect-icon 2" clip-path="url(#clip0_1662_1225)">
<path id="Vector" d="M7.07992 11.2983C10.3238 12.3977 14.8383 13.0784 19.8534 13.0784C24.8686 13.0784 29.383 12.3977 32.627 11.2983C35.4738 10.333 37.2359 9.16554 37.2359 8.02284C37.2359 6.88014 35.4738 5.71062 32.627 4.74634C29.383 3.64592 24.8686 2.96628 19.8534 2.96628C14.8383 2.96628 10.3238 3.64592 7.07992 4.74634C1.03898 6.79351 0.872422 9.19442 7.07992 11.2983ZM38.9939 18.0895C41.3004 19.5746 43.553 20.7246 45.6564 21.4424C47.6105 22.1086 49.4335 22.4056 51.0484 22.2561L51.9045 22.1767L51.9462 23.0491C52.2559 29.4165 51.219 34.6009 49.0923 38.6324C46.8701 42.8453 43.0808 46.2167 38.5887 47.7214C34.0052 46.0713 30.5297 43.1506 28.2313 38.7737C26.13 34.7721 25.0311 29.5269 25.2027 22.8759L25.2251 22.0147L26.068 22.0591C28.2547 22.1756 30.353 21.8951 32.3375 21.2464C34.3545 20.5874 36.2649 19.5396 38.0443 18.1359L38.5034 17.774L38.9939 18.0895ZM34.6176 30.6984H35.0127V29.7682C35.0127 28.7379 35.4128 27.7994 36.0567 27.1167C36.7067 26.4298 37.6035 26.0018 38.5907 26.0018C39.5789 26.0018 40.4767 26.4288 41.1257 27.1167C41.7706 27.7994 42.1708 28.7379 42.1708 29.7682V30.6984H42.5659C42.8868 30.6984 43.1498 30.9655 43.1498 31.2914V37.5577C43.1498 37.8836 42.8868 38.1497 42.5659 38.1497H34.6176C34.2956 38.1497 34.0336 37.8836 34.0336 37.5577V31.2914C34.0326 30.9655 34.2956 30.6984 34.6176 30.6984ZM38.1123 34.701L37.4816 36.3758H39.6998L39.1168 34.6773C39.4875 34.4844 39.7404 34.0915 39.7404 33.6398C39.7404 32.9952 39.2255 32.4723 38.5907 32.4723C37.957 32.4723 37.442 32.9952 37.442 33.6398C37.442 34.11 37.7173 34.5153 38.1123 34.701ZM36.1177 30.6984H41.0648V29.7682C41.0648 29.0359 40.7834 28.3728 40.3305 27.8932C39.8826 27.4188 39.2671 27.1249 38.5907 27.1249C37.9153 27.1249 37.2988 27.4188 36.852 27.8932C36.399 28.3728 36.1177 29.0359 36.1177 29.7682V30.6984ZM44.9262 23.3431C42.902 22.6521 40.7672 21.5888 38.5958 20.2306C36.857 21.531 34.9934 22.516 33.0241 23.1595C31.1716 23.7649 29.2256 24.0671 27.2076 24.0475C27.1538 29.8084 28.146 34.3545 29.967 37.8248C31.9424 41.585 34.9101 44.0942 38.5948 45.5257C42.383 44.0107 45.3903 41.4087 47.3525 37.6887C49.1867 34.209 50.1241 29.7393 49.9596 24.2496C48.3925 24.2661 46.6984 23.9474 44.9262 23.3431ZM24.828 38.1219C23.2385 38.2673 21.5709 38.3457 19.8534 38.3457C14.5864 38.3457 9.79164 37.6134 6.29789 36.4295C4.7907 35.9179 3.50594 35.3064 2.49641 34.6123V42.1285C2.72187 43.1939 4.43016 44.2685 7.07992 45.1668C10.3238 46.2652 14.8383 46.9458 19.8534 46.9458C23.5899 46.9458 27.0481 46.5684 29.9102 45.9217C30.6333 46.6395 31.4041 47.3006 32.2217 47.9091C28.8641 48.8744 24.5466 49.4561 19.8534 49.4561C14.5864 49.4561 9.79164 48.7228 6.29789 47.5388C4.45555 46.9139 0.0253906 44.8615 0.0253906 42.4091V41.6057C0.0253906 30.4107 0 19.2147 0 8.02284C0 5.67968 2.40703 3.69233 6.29789 2.37328C9.79164 1.18932 14.5864 0.456055 19.8534 0.456055C25.1195 0.456055 29.9152 1.18932 33.409 2.37328C36.9505 3.57373 39.262 5.328 39.649 7.39992C39.6957 7.53193 39.7201 7.67425 39.7201 7.82173V15.0709C39.3301 14.8347 38.934 14.5882 38.5328 14.3304C38.1022 14.6697 37.6736 14.9873 37.2491 15.2823V11.8274C36.2355 12.5318 34.9365 13.1536 33.409 13.6703C29.9152 14.8553 25.1195 15.5876 19.8534 15.5876C14.5864 15.5876 9.79164 14.8553 6.29789 13.6703C4.7907 13.1598 3.50594 12.5483 2.49641 11.8542V19.9098C2.72187 20.9752 4.43016 22.0498 7.07992 22.947C10.3238 24.0464 14.8383 24.7271 19.8534 24.7271C20.6395 24.7271 21.4134 24.7106 22.1711 24.6776C22.2148 25.5346 22.2737 26.369 22.3498 27.1816C21.5323 27.2177 20.6995 27.2373 19.8534 27.2373C14.5864 27.2373 9.79164 26.5041 6.29789 25.3201C4.7907 24.8086 3.50594 24.197 2.49641 23.5029V31.0192C2.72187 32.0845 4.43016 33.1592 7.07992 34.0564C10.3238 35.1558 14.8383 35.8365 19.8534 35.8365C21.2682 35.8365 22.6434 35.7818 23.9606 35.6797C24.2237 36.5295 24.5121 37.3432 24.828 38.1219Z" fill="#10D1E3"/>
</g>
<defs>
<clipPath id="clip0_1662_1225">
<rect width="52" height="49" fill="white" transform="translate(0 0.456055)"/>
</clipPath>
</defs>
</svg>
