<svg width="44" height="45" viewBox="0 0 44 45" fill="none" xmlns="http://www.w3.org/2000/svg">
<circle cx="21.8644" cy="22.1711" r="21.1144" fill="white" stroke="#43C4D8" stroke-width="1.5"/>
<g clip-path="url(#clip0_2008_108)">
<path d="M21.3576 13.7276C21.2628 13.7323 21.1681 13.718 21.0791 13.6857C20.9901 13.6535 20.9087 13.6038 20.8399 13.5398C20.7711 13.4757 20.7163 13.3987 20.6789 13.3132C20.6415 13.2278 20.6222 13.1359 20.6222 13.0429C20.6222 12.95 20.6415 12.858 20.6789 12.7726C20.7163 12.6872 20.7711 12.6101 20.8399 12.5461C20.9087 12.4821 20.9901 12.4324 21.0791 12.4001C21.1681 12.3678 21.2628 12.3536 21.3576 12.3583C23.2833 12.3558 25.1739 12.8635 26.829 13.8275L26.7591 13.8853C26.4476 14.1606 26.12 14.4814 25.7888 14.8233C24.4276 14.1032 22.9047 13.7266 21.3576 13.7276ZM18.6613 20.6422L20.5161 20.6177L20.654 20.6528C21.0303 20.8616 21.3858 21.1046 21.7157 21.3786C21.9569 21.5785 22.1848 21.7934 22.3978 22.022C23.2312 20.7595 24.1331 19.5416 25.0995 18.3736C25.9213 17.404 27.0868 16.04 27.9981 15.2423L28.1771 15.174H30.202L29.7938 15.6175C28.4645 17.1153 27.2247 18.6871 26.0806 20.3249C25.0511 21.7818 23.5472 24.0382 22.729 25.5845L22.4748 26.0649L22.2403 25.5758C21.8253 24.6886 21.3003 23.8548 20.6773 23.0932C20.0555 22.3378 19.3252 21.6747 18.5091 21.1244L18.6613 20.6387V20.6422ZM17.263 17.916C17.2125 17.8382 17.1787 17.7512 17.1634 17.6603C17.1482 17.5694 17.152 17.4763 17.1745 17.3868C17.197 17.2974 17.2378 17.2133 17.2944 17.1397C17.351 17.066 17.4223 17.0044 17.5039 16.9585C17.5855 16.9127 17.6758 16.8834 17.7693 16.8727C17.8627 16.8619 17.9575 16.8698 18.0477 16.8958C18.138 16.9219 18.2219 16.9656 18.2945 17.0243C18.367 17.0831 18.4266 17.1556 18.4698 17.2375L18.7831 17.7635C18.8287 17.8412 18.8582 17.9269 18.87 18.0158C18.8818 18.1047 18.8755 18.195 18.8517 18.2815C18.8278 18.368 18.7868 18.4491 18.7309 18.5201C18.6751 18.5911 18.6055 18.6506 18.5262 18.6953C18.4468 18.74 18.3592 18.7689 18.2685 18.7804C18.1777 18.7919 18.0855 18.7858 17.9972 18.7625C17.9088 18.7391 17.826 18.6989 17.7535 18.6443C17.681 18.5896 17.6202 18.5214 17.5746 18.4437L17.263 17.9177V17.916ZM15.2274 20.5844C15.1481 20.5394 15.0785 20.4795 15.0228 20.4082C14.9671 20.3369 14.9263 20.2555 14.9027 20.1687C14.855 19.9935 14.8803 19.8068 14.9732 19.6499C15.066 19.493 15.2187 19.3786 15.3977 19.3319C15.4863 19.3088 15.5787 19.303 15.6696 19.3148C15.7605 19.3267 15.8481 19.3559 15.9274 19.401L16.4645 19.7078C16.6248 19.7987 16.7416 19.9482 16.7893 20.1234C16.837 20.2987 16.8116 20.4853 16.7188 20.6422C16.6259 20.7992 16.4733 20.9136 16.2943 20.9602C16.1153 21.0069 15.9248 20.9821 15.7645 20.8912L15.2274 20.5844ZM16.2103 26.8749C16.131 26.9196 16.0434 26.9485 15.9526 26.96C15.8619 26.9716 15.7697 26.9655 15.6813 26.9421C15.593 26.9187 15.5102 26.8786 15.4376 26.8239C15.3651 26.7692 15.3043 26.701 15.2587 26.6233C15.2131 26.5456 15.1836 26.4599 15.1718 26.371C15.16 26.2821 15.1663 26.1918 15.1901 26.1053C15.2383 25.9306 15.3554 25.7817 15.5157 25.6915L16.0528 25.3847C16.213 25.2945 16.4033 25.2703 16.5818 25.3175C16.7602 25.3647 16.9122 25.4793 17.0043 25.6363C17.0965 25.7932 17.1211 25.9795 17.073 26.1543C17.0248 26.329 16.9077 26.4779 16.7474 26.5681L16.2103 26.8749ZM14.7172 23.5438C14.5324 23.5438 14.3553 23.472 14.2247 23.3441C14.0941 23.2162 14.0207 23.0427 14.0207 22.8618C14.0207 22.6809 14.0941 22.5075 14.2247 22.3796C14.3553 22.2517 14.5324 22.1798 14.7172 22.1798H15.342C15.5267 22.1798 15.7038 22.2517 15.8345 22.3796C15.9651 22.5075 16.0384 22.6809 16.0384 22.8618C16.0384 23.0427 15.9651 23.2162 15.8345 23.3441C15.7038 23.472 15.5267 23.5438 15.342 23.5438H14.7172ZM21.8374 29.1541C21.8374 29.335 21.7641 29.5084 21.6334 29.6363C21.5028 29.7642 21.3257 29.8361 21.141 29.8361C20.9563 29.8361 20.7791 29.7642 20.6485 29.6363C20.5179 29.5084 20.4445 29.335 20.4445 29.1541V28.5405C20.4445 28.3596 20.5179 28.1861 20.6485 28.0582C20.7791 27.9303 20.9563 27.8585 21.141 27.8585C21.3257 27.8585 21.5028 27.9303 21.6334 28.0582C21.7641 28.1861 21.8374 28.3596 21.8374 28.5405V29.1541ZM20.4445 16.566C20.4445 16.3851 20.5179 16.2117 20.6485 16.0838C20.7791 15.9559 20.9563 15.884 21.141 15.884C21.3257 15.884 21.5028 15.9559 21.6334 16.0838C21.7641 16.2117 21.8374 16.3851 21.8374 16.566V17.1796C21.8374 17.2692 21.8194 17.3579 21.7844 17.4406C21.7494 17.5234 21.6981 17.5986 21.6334 17.6619C21.5688 17.7252 21.492 17.7754 21.4075 17.8097C21.323 17.844 21.2324 17.8616 21.141 17.8616C21.0495 17.8616 20.959 17.844 20.8745 17.8097C20.79 17.7754 20.7132 17.7252 20.6485 17.6619C20.5838 17.5986 20.5325 17.5234 20.4975 17.4406C20.4625 17.3579 20.4445 17.2692 20.4445 17.1796V16.566ZM18.5324 28.6474C18.4396 28.8041 18.287 28.9183 18.1082 28.9648C17.9294 29.0113 17.7391 28.9864 17.579 28.8955C17.419 28.8046 17.3024 28.6552 17.2549 28.4801C17.2074 28.305 17.2329 28.1186 17.3257 27.9619L17.6372 27.4359C17.683 27.3579 17.7439 27.2894 17.8167 27.2345C17.8894 27.1795 17.9725 27.1391 18.0612 27.1156C18.1499 27.092 18.2425 27.0858 18.3336 27.0973C18.4248 27.1088 18.5127 27.1378 18.5924 27.1826C18.6721 27.2274 18.742 27.2871 18.7982 27.3583C18.8543 27.4296 18.8955 27.5109 18.9196 27.5978C18.9436 27.6847 18.9499 27.7753 18.9382 27.8645C18.9264 27.9538 18.8968 28.0399 18.8511 28.1179L18.5378 28.6439L18.5324 28.6474ZM25.2427 27.9619C25.3175 28.1164 25.3304 28.2927 25.2787 28.456C25.2271 28.6193 25.1147 28.7576 24.9638 28.8436C24.813 28.9296 24.6346 28.957 24.4641 28.9203C24.2936 28.8837 24.1434 28.7856 24.0432 28.6457L23.7298 28.1197C23.6373 27.9628 23.6121 27.7762 23.66 27.6012C23.7078 27.4261 23.8247 27.2768 23.985 27.1861C24.1452 27.0954 24.3357 27.0708 24.5145 27.1177C24.6933 27.1645 24.8458 27.279 24.9383 27.4359L25.2517 27.9619H25.2427ZM27.0528 25.6827C27.2065 25.7765 27.317 25.9252 27.3609 26.0973C27.4048 26.2694 27.3787 26.4515 27.2881 26.6051C27.1975 26.7587 27.0494 26.8718 26.8752 26.9205C26.701 26.9692 26.5143 26.9497 26.3545 26.8661L25.8174 26.5593C25.6572 26.4684 25.5403 26.3189 25.4927 26.1437C25.445 25.9684 25.4704 25.7818 25.5632 25.6249C25.656 25.4679 25.8087 25.3535 25.9877 25.3069C26.1666 25.2602 26.3572 25.285 26.5174 25.3759L27.0546 25.6827H27.0528ZM27.9945 22.1763C28.1792 22.1763 28.3564 22.2482 28.487 22.3761C28.6176 22.504 28.6909 22.6774 28.6909 22.8583C28.6909 23.0392 28.6176 23.2126 28.487 23.3405C28.3564 23.4684 28.1792 23.5403 27.9945 23.5403H27.3285C27.1438 23.5403 26.9666 23.4684 26.836 23.3405C26.7054 23.2126 26.632 23.0392 26.632 22.8583C26.632 22.6774 26.7054 22.504 26.836 22.3761C26.9666 22.2482 27.1438 22.1763 27.3285 22.1763H27.9945ZM13.0324 15.3388C13.1226 15.3059 13.2174 15.2869 13.3135 15.2827C13.5301 15.248 13.7522 15.2917 13.9383 15.4056C14.1244 15.5195 14.2619 15.6957 14.3251 15.9015L15.0681 18.2666C15.1066 18.3794 15.1217 18.4985 15.1124 18.6171C15.1031 18.7356 15.0696 18.8511 15.0139 18.9568C14.9582 19.0624 14.8814 19.156 14.7881 19.2321C14.6948 19.3082 14.5868 19.3651 14.4706 19.3996C14.3545 19.4341 14.2324 19.4454 14.1116 19.4329C13.9909 19.4203 13.874 19.3842 13.7677 19.3266C13.6615 19.2691 13.5682 19.1912 13.4932 19.0977C13.4183 19.0041 13.3633 18.8968 13.3314 18.7821L13.2132 18.4051C12.1152 20.3295 11.7652 22.5778 12.2277 24.7351C12.6903 26.8925 13.9342 28.8131 15.7298 30.1425C17.5255 31.4718 19.7517 32.1202 21.9973 31.9679C24.243 31.8155 26.3566 30.8728 27.9479 29.3136C29.3479 27.9429 30.2662 26.1714 30.5697 24.2557C30.8732 22.3399 30.5463 20.3793 29.6363 18.6576C29.9478 18.2649 30.2665 17.8774 30.5834 17.5092C31.4235 18.8993 31.9248 20.4605 32.0482 22.0713C32.1717 23.6821 31.914 25.299 31.2951 26.7963C30.6763 28.2936 29.713 29.631 28.4802 30.7042C27.2475 31.7775 25.7784 32.5578 24.1875 32.9843C22.5965 33.4109 20.9265 33.4723 19.3073 33.1637C17.6882 32.8551 16.1636 32.1848 14.8521 31.2051C13.5406 30.2253 12.4777 28.9625 11.746 27.5148C11.0143 26.0671 10.6335 24.4736 10.6333 22.8583C10.6335 21.0111 11.1319 19.1967 12.0782 17.5987L11.3119 17.8827C11.0861 17.9666 10.8355 17.9593 10.6153 17.8623C10.395 17.7653 10.2231 17.5866 10.1374 17.3655C10.0517 17.1444 10.0592 16.899 10.1582 16.6833C10.2573 16.4676 10.4398 16.2993 10.6656 16.2154L13.0324 15.3388Z" fill="#43C4D8"/>
</g>
<defs>
<clipPath id="clip0_2008_108">
<rect width="22" height="21" fill="white" transform="translate(10.0781 12.3574)"/>
</clipPath>
</defs>
</svg>
