<svg width="44" height="44" viewBox="0 0 44 44" fill="none" xmlns="http://www.w3.org/2000/svg">
<circle cx="21.8644" cy="21.9015" r="21.1144" fill="white" stroke="#43C4D8" stroke-width="1.5"/>
<path d="M26.7095 23.3037C27.8589 23.3037 28.9009 23.7784 29.656 24.5422C30.4108 25.3089 30.8753 26.3642 30.8753 27.5343C30.8753 28.3881 30.6248 29.1858 30.1969 29.8501L32.0002 31.8459L30.7564 33.0005L29.0171 31.0576C28.3569 31.5043 27.5623 31.7652 26.7095 31.7652C25.5603 31.7652 24.5184 31.2903 23.7633 30.5266C23.0085 29.76 22.5438 28.7045 22.5438 27.5343C22.5438 26.3673 23.0114 25.3089 23.7633 24.5422C24.5184 23.7754 25.5573 23.3037 26.7095 23.3037ZM23.1792 23.4781C22.9792 23.2245 22.7692 22.9782 22.5496 22.7368C22.8952 22.8725 23.2426 23.0079 23.5858 23.145C23.4448 23.2495 23.3091 23.3606 23.1792 23.4781ZM21.5368 28.8661H11C11.1065 27.6989 11.2998 26.5443 11.735 25.7152C12.0022 25.2063 12.3436 24.8897 13.0038 24.469C14.0417 23.808 15.441 23.2757 16.8133 22.737C16.0851 23.538 15.4598 24.3905 14.9668 25.3958L16.3951 25.3602L19.6815 28.2626L21.443 26.707C21.401 26.9817 21.3789 27.2636 21.3789 27.5503C21.3789 28.004 21.434 28.4447 21.5368 28.8661ZM15.2583 21.1615L16.132 21.1382L16.8567 21.119C16.0101 18.4738 16.2941 16.0432 18.3306 13.9769C18.6763 15.1115 19.4508 16.048 20.7686 16.74C21.3993 17.2156 22.0082 17.79 22.5986 18.4486C22.7031 18.0119 22.3042 17.4801 21.8204 16.9322C22.2679 17.1571 22.6793 17.4706 22.971 18.076C23.3087 18.7776 23.305 19.3687 23.1934 20.1303C23.1411 20.4846 23.0561 20.8145 22.9351 21.1188H24.1402C25.411 18.3544 24.6055 14.2514 22.0051 12.5128C21.2077 11.9793 20.6338 11.9994 19.6983 12.0003C18.6269 12.0012 18.0795 12.0352 17.162 12.6512C15.8088 13.5607 14.9774 15.1332 14.6274 17.3168C14.5557 18.4035 14.5084 20.2855 15.258 21.1615H15.2583ZM18.575 26.1901L19.2261 23.8957L18.9069 23.5411C18.7628 23.328 18.7317 23.1415 18.8115 22.981C18.9841 22.6337 19.342 22.6984 19.6759 22.6984C20.0263 22.6984 20.4583 22.6307 20.568 23.0761C20.6044 23.2247 20.5583 23.3809 20.4557 23.5411L20.1367 23.8957L20.7874 26.1901L19.6815 27.0779L18.575 26.1901ZM28.7741 25.4375C28.2459 24.9012 27.5153 24.5679 26.7095 24.5679C25.904 24.5679 25.1732 24.9012 24.645 25.4375C24.1169 25.974 23.7888 26.7163 23.7888 27.5343C23.7888 28.3525 24.1169 29.0945 24.645 29.6312C25.1732 30.1677 25.904 30.5008 26.7096 30.5008C27.5153 30.5008 28.2459 30.1677 28.7741 29.6312C29.3024 29.0945 29.6303 28.3525 29.6303 27.5343C29.6303 26.7163 29.3024 25.974 28.7741 25.4375Z" fill="#43C4D8"/>
</svg>
