<svg width="44" height="45" viewBox="0 0 44 45" fill="none" xmlns="http://www.w3.org/2000/svg">
<circle cx="21.8644" cy="22.5949" r="21.1144" fill="white" stroke="#43C4D8" stroke-width="1.5"/>
<g clip-path="url(#clip0_2008_87)">
<mask id="path-2-inside-1_2008_87" fill="white">
<path fill-rule="evenodd" clip-rule="evenodd" d="M16.0106 22.4852C19.9156 22.4852 23.8205 22.4852 27.7255 22.4852C27.764 22.4852 27.7952 22.5157 27.7952 22.5534V23.5316C27.7952 23.5693 27.7631 23.6004 27.7255 23.6004C25.9359 23.6004 24.1468 23.6004 22.3572 23.6004V29.5036C22.3572 29.5532 22.3157 29.5938 22.265 29.5938H22.264H22.2621H21.4741H21.4721H21.4711C21.4204 29.5938 21.379 29.5532 21.379 29.5036V23.6004H16.0106C15.9731 23.6004 15.9409 23.5693 15.9409 23.5316V22.5534C15.9409 22.5157 15.9721 22.4852 16.0106 22.4852ZM25.5614 21.4779C25.7511 21.4779 25.9052 21.6287 25.9052 21.8148C25.9052 22.0004 25.7511 22.1512 25.5614 22.1512H23.0228C22.855 22.1512 22.7156 22.0338 22.6849 21.8787L22.0353 19.3482C21.989 19.1683 22.1012 18.9855 22.285 18.9407C22.4688 18.8954 22.6556 19.0051 22.7014 19.185L23.2905 21.4779H25.5614ZM33.7063 28.3903C33.7005 28.3435 33.679 28.2977 33.6419 28.2615C33.3703 27.9938 33.0266 27.7752 32.6355 27.6259C32.3609 27.5209 32.0635 27.4498 31.7514 27.4197L31.8109 26.5045H33.9399C34.1613 26.5045 34.3432 26.327 34.3432 26.1099C34.3432 24.475 33.9496 23.2458 34.3432 21.3839C34.4597 20.8322 33.2967 20.7525 33.2967 21.413V25.6031H29.2708C29.0489 25.6031 28.8671 25.8927 28.8671 26.1099V26.4176C28.8671 26.4654 28.9075 26.5045 28.9563 26.5045H31.0921L31.1755 27.4102C30.8444 27.4312 30.5284 27.4975 30.2373 27.602C29.8628 27.7356 29.5297 27.9317 29.2591 28.1737C29.1943 28.2314 29.1713 28.3173 29.1918 28.3951C29.087 28.4714 29.0197 28.5936 29.0197 28.7315C29.0197 28.9634 29.2113 29.1514 29.4483 29.1514C29.6853 29.1514 29.8774 28.9634 29.8774 28.7315C29.8774 28.5926 29.8087 28.47 29.7029 28.3932C29.9033 28.2405 30.1364 28.1145 30.3929 28.0229C30.6689 27.9241 30.9722 27.8644 31.293 27.8535L31.3403 28.3073L31.3423 28.3268C31.1609 28.376 31.0282 28.5387 31.0282 28.7315C31.0282 28.9634 31.2204 29.1514 31.4574 29.1514C31.6943 29.1514 31.8865 28.9634 31.8865 28.7315C31.8865 28.5397 31.7548 28.3784 31.5758 28.3278L31.5773 28.3068L31.6105 27.8582C31.9167 27.8783 32.2059 27.9427 32.4692 28.0429H32.4697C32.7267 28.1407 32.9583 28.2729 33.1553 28.4323C33.0763 28.5082 33.027 28.6141 33.027 28.7315C33.027 28.9634 33.2192 29.1514 33.4562 29.1514C33.6931 29.1514 33.8853 28.9634 33.8853 28.7315C33.8853 28.5912 33.8146 28.4666 33.7063 28.3903ZM30.2714 15.5938C29.3644 15.5938 28.6296 16.3133 28.6296 17.2004C28.6296 18.088 29.3644 18.8076 30.2714 18.8076C31.1784 18.8076 31.9133 18.088 31.9133 17.2004C31.9133 16.3133 31.1784 15.5938 30.2714 15.5938ZM29.5887 21.8964L29.62 23.8017H27.5817C27.1496 23.8017 26.7966 24.1477 26.7966 24.57V25.3383H26.8049V28.3412C26.8049 28.763 27.1579 29.1089 27.5895 29.1089H28.3745V25.5587C28.3745 25.2223 28.5038 25.3383 28.8929 25.3383H30.645V25.333H31.6514C32.3005 25.333 32.832 24.8134 32.832 24.1782V20.1718C32.832 19.5252 32.2917 18.997 31.6314 18.997H31.0375C29.8009 18.997 29.9984 19.8302 29.4507 20.3536C28.9109 20.8704 29.0465 20.9301 28.3092 20.9301H26.7185C25.4019 20.9301 26.11 22.1827 26.8892 22.144H28.3467C28.9968 22.144 29.0514 22.2456 29.5887 21.8964ZM18.1747 22.1512C17.9851 22.1512 17.831 22.0004 17.831 21.8148C17.831 21.6287 17.9851 21.4779 18.1747 21.4779H20.4456L21.0347 19.185C21.0805 19.0051 21.2673 18.8954 21.4511 18.9407C21.635 18.9855 21.7471 19.1683 21.7008 19.3482L21.0513 21.8787C21.0206 22.0338 20.8811 22.1512 20.7134 22.1512H18.1747ZM10.0298 28.3903C10.0357 28.3435 10.0571 28.2977 10.0942 28.2615C10.3658 27.9938 10.7096 27.7752 11.1007 27.6259C11.3752 27.5209 11.6727 27.4498 11.9847 27.4197L11.9252 26.5045H9.79625C9.57486 26.5045 9.39297 26.327 9.39297 26.1099C9.39297 24.475 9.78649 23.2458 9.39297 21.3839C9.27643 20.8322 10.4394 20.7525 10.4394 21.413V25.6031H14.4653C14.6872 25.6031 14.8691 25.8927 14.8691 26.1099V26.4176C14.8691 26.4654 14.8286 26.5045 14.7798 26.5045H12.644L12.5606 27.4102C12.8917 27.4312 13.2077 27.4975 13.4988 27.602C13.8733 27.7356 14.2064 27.9317 14.477 28.1737C14.5419 28.2314 14.5648 28.3173 14.5443 28.3951C14.6492 28.4714 14.7165 28.5936 14.7165 28.7315C14.7165 28.9634 14.5248 29.1514 14.2878 29.1514C14.0508 29.1514 13.8587 28.9634 13.8587 28.7315C13.8587 28.5926 13.9275 28.4695 14.0333 28.3932C13.8329 28.2405 13.5998 28.1145 13.3433 28.0229C13.0673 27.9241 12.764 27.8644 12.4431 27.8535L12.3958 28.3073L12.3939 28.3268C12.5753 28.376 12.7079 28.5387 12.7079 28.7315C12.7079 28.9634 12.5158 29.1514 12.2788 29.1514C12.0418 29.1514 11.8497 28.9634 11.8497 28.7315C11.8497 28.5397 11.9813 28.3779 12.1603 28.3278L12.1588 28.3063L12.1257 27.8582C11.8194 27.8783 11.5303 27.9427 11.2669 28.0429H11.2665C11.0095 28.1407 10.7778 28.2729 10.5808 28.4323C10.6598 28.5082 10.7091 28.6141 10.7091 28.7315C10.7091 28.9634 10.517 29.1514 10.28 29.1514C10.043 29.1514 9.85086 28.9634 9.85086 28.7315C9.85086 28.5912 9.92157 28.4666 10.0298 28.3903ZM13.4647 15.5938C14.3717 15.5938 15.1066 16.3133 15.1066 17.2004C15.1066 18.088 14.3717 18.8076 13.4647 18.8076C12.5577 18.8076 11.8228 18.088 11.8228 17.2004C11.8228 16.3133 12.5577 15.5938 13.4647 15.5938ZM14.1474 21.8964L14.1162 23.8017H16.1545C16.5865 23.8017 16.9396 24.1477 16.9396 24.57V25.3383H16.9313V28.3412C16.9313 28.763 16.5782 29.1089 16.1467 29.1089H15.3616V25.5587C15.3616 25.2223 15.2324 25.3383 14.8432 25.3383H13.0912V25.333H12.0847C11.4357 25.333 10.9041 24.8134 10.9041 24.1782V20.1718C10.9041 19.5252 11.4444 18.997 12.1047 18.997H12.6986C13.9353 18.997 13.7378 19.8302 14.2854 20.3536C14.8252 20.8704 14.6896 20.9301 15.4269 20.9301H17.0176C18.3342 20.9301 17.6262 22.1827 16.8469 22.144H15.3894C14.7394 22.144 14.6848 22.2456 14.1474 21.8964Z"/>
</mask>
<path fill-rule="evenodd" clip-rule="evenodd" d="M16.0106 22.4852C19.9156 22.4852 23.8205 22.4852 27.7255 22.4852C27.764 22.4852 27.7952 22.5157 27.7952 22.5534V23.5316C27.7952 23.5693 27.7631 23.6004 27.7255 23.6004C25.9359 23.6004 24.1468 23.6004 22.3572 23.6004V29.5036C22.3572 29.5532 22.3157 29.5938 22.265 29.5938H22.264H22.2621H21.4741H21.4721H21.4711C21.4204 29.5938 21.379 29.5532 21.379 29.5036V23.6004H16.0106C15.9731 23.6004 15.9409 23.5693 15.9409 23.5316V22.5534C15.9409 22.5157 15.9721 22.4852 16.0106 22.4852ZM25.5614 21.4779C25.7511 21.4779 25.9052 21.6287 25.9052 21.8148C25.9052 22.0004 25.7511 22.1512 25.5614 22.1512H23.0228C22.855 22.1512 22.7156 22.0338 22.6849 21.8787L22.0353 19.3482C21.989 19.1683 22.1012 18.9855 22.285 18.9407C22.4688 18.8954 22.6556 19.0051 22.7014 19.185L23.2905 21.4779H25.5614ZM33.7063 28.3903C33.7005 28.3435 33.679 28.2977 33.6419 28.2615C33.3703 27.9938 33.0266 27.7752 32.6355 27.6259C32.3609 27.5209 32.0635 27.4498 31.7514 27.4197L31.8109 26.5045H33.9399C34.1613 26.5045 34.3432 26.327 34.3432 26.1099C34.3432 24.475 33.9496 23.2458 34.3432 21.3839C34.4597 20.8322 33.2967 20.7525 33.2967 21.413V25.6031H29.2708C29.0489 25.6031 28.8671 25.8927 28.8671 26.1099V26.4176C28.8671 26.4654 28.9075 26.5045 28.9563 26.5045H31.0921L31.1755 27.4102C30.8444 27.4312 30.5284 27.4975 30.2373 27.602C29.8628 27.7356 29.5297 27.9317 29.2591 28.1737C29.1943 28.2314 29.1713 28.3173 29.1918 28.3951C29.087 28.4714 29.0197 28.5936 29.0197 28.7315C29.0197 28.9634 29.2113 29.1514 29.4483 29.1514C29.6853 29.1514 29.8774 28.9634 29.8774 28.7315C29.8774 28.5926 29.8087 28.47 29.7029 28.3932C29.9033 28.2405 30.1364 28.1145 30.3929 28.0229C30.6689 27.9241 30.9722 27.8644 31.293 27.8535L31.3403 28.3073L31.3423 28.3268C31.1609 28.376 31.0282 28.5387 31.0282 28.7315C31.0282 28.9634 31.2204 29.1514 31.4574 29.1514C31.6943 29.1514 31.8865 28.9634 31.8865 28.7315C31.8865 28.5397 31.7548 28.3784 31.5758 28.3278L31.5773 28.3068L31.6105 27.8582C31.9167 27.8783 32.2059 27.9427 32.4692 28.0429H32.4697C32.7267 28.1407 32.9583 28.2729 33.1553 28.4323C33.0763 28.5082 33.027 28.6141 33.027 28.7315C33.027 28.9634 33.2192 29.1514 33.4562 29.1514C33.6931 29.1514 33.8853 28.9634 33.8853 28.7315C33.8853 28.5912 33.8146 28.4666 33.7063 28.3903ZM30.2714 15.5938C29.3644 15.5938 28.6296 16.3133 28.6296 17.2004C28.6296 18.088 29.3644 18.8076 30.2714 18.8076C31.1784 18.8076 31.9133 18.088 31.9133 17.2004C31.9133 16.3133 31.1784 15.5938 30.2714 15.5938ZM29.5887 21.8964L29.62 23.8017H27.5817C27.1496 23.8017 26.7966 24.1477 26.7966 24.57V25.3383H26.8049V28.3412C26.8049 28.763 27.1579 29.1089 27.5895 29.1089H28.3745V25.5587C28.3745 25.2223 28.5038 25.3383 28.8929 25.3383H30.645V25.333H31.6514C32.3005 25.333 32.832 24.8134 32.832 24.1782V20.1718C32.832 19.5252 32.2917 18.997 31.6314 18.997H31.0375C29.8009 18.997 29.9984 19.8302 29.4507 20.3536C28.9109 20.8704 29.0465 20.9301 28.3092 20.9301H26.7185C25.4019 20.9301 26.11 22.1827 26.8892 22.144H28.3467C28.9968 22.144 29.0514 22.2456 29.5887 21.8964ZM18.1747 22.1512C17.9851 22.1512 17.831 22.0004 17.831 21.8148C17.831 21.6287 17.9851 21.4779 18.1747 21.4779H20.4456L21.0347 19.185C21.0805 19.0051 21.2673 18.8954 21.4511 18.9407C21.635 18.9855 21.7471 19.1683 21.7008 19.3482L21.0513 21.8787C21.0206 22.0338 20.8811 22.1512 20.7134 22.1512H18.1747ZM10.0298 28.3903C10.0357 28.3435 10.0571 28.2977 10.0942 28.2615C10.3658 27.9938 10.7096 27.7752 11.1007 27.6259C11.3752 27.5209 11.6727 27.4498 11.9847 27.4197L11.9252 26.5045H9.79625C9.57486 26.5045 9.39297 26.327 9.39297 26.1099C9.39297 24.475 9.78649 23.2458 9.39297 21.3839C9.27643 20.8322 10.4394 20.7525 10.4394 21.413V25.6031H14.4653C14.6872 25.6031 14.8691 25.8927 14.8691 26.1099V26.4176C14.8691 26.4654 14.8286 26.5045 14.7798 26.5045H12.644L12.5606 27.4102C12.8917 27.4312 13.2077 27.4975 13.4988 27.602C13.8733 27.7356 14.2064 27.9317 14.477 28.1737C14.5419 28.2314 14.5648 28.3173 14.5443 28.3951C14.6492 28.4714 14.7165 28.5936 14.7165 28.7315C14.7165 28.9634 14.5248 29.1514 14.2878 29.1514C14.0508 29.1514 13.8587 28.9634 13.8587 28.7315C13.8587 28.5926 13.9275 28.4695 14.0333 28.3932C13.8329 28.2405 13.5998 28.1145 13.3433 28.0229C13.0673 27.9241 12.764 27.8644 12.4431 27.8535L12.3958 28.3073L12.3939 28.3268C12.5753 28.376 12.7079 28.5387 12.7079 28.7315C12.7079 28.9634 12.5158 29.1514 12.2788 29.1514C12.0418 29.1514 11.8497 28.9634 11.8497 28.7315C11.8497 28.5397 11.9813 28.3779 12.1603 28.3278L12.1588 28.3063L12.1257 27.8582C11.8194 27.8783 11.5303 27.9427 11.2669 28.0429H11.2665C11.0095 28.1407 10.7778 28.2729 10.5808 28.4323C10.6598 28.5082 10.7091 28.6141 10.7091 28.7315C10.7091 28.9634 10.517 29.1514 10.28 29.1514C10.043 29.1514 9.85086 28.9634 9.85086 28.7315C9.85086 28.5912 9.92157 28.4666 10.0298 28.3903ZM13.4647 15.5938C14.3717 15.5938 15.1066 16.3133 15.1066 17.2004C15.1066 18.088 14.3717 18.8076 13.4647 18.8076C12.5577 18.8076 11.8228 18.088 11.8228 17.2004C11.8228 16.3133 12.5577 15.5938 13.4647 15.5938ZM14.1474 21.8964L14.1162 23.8017H16.1545C16.5865 23.8017 16.9396 24.1477 16.9396 24.57V25.3383H16.9313V28.3412C16.9313 28.763 16.5782 29.1089 16.1467 29.1089H15.3616V25.5587C15.3616 25.2223 15.2324 25.3383 14.8432 25.3383H13.0912V25.333H12.0847C11.4357 25.333 10.9041 24.8134 10.9041 24.1782V20.1718C10.9041 19.5252 11.4444 18.997 12.1047 18.997H12.6986C13.9353 18.997 13.7378 19.8302 14.2854 20.3536C14.8252 20.8704 14.6896 20.9301 15.4269 20.9301H17.0176C18.3342 20.9301 17.6262 22.1827 16.8469 22.144H15.3894C14.7394 22.144 14.6848 22.2456 14.1474 21.8964Z" stroke="#43C4D8" stroke-width="2" mask="url(#path-2-inside-1_2008_87)"/>
</g>
<defs>
<clipPath id="clip0_2008_87">
<rect width="25" height="14" fill="white" transform="translate(9.36719 15.5938)"/>
</clipPath>
</defs>
</svg>
