<svg width="44" height="44" viewBox="0 0 44 44" fill="none" xmlns="http://www.w3.org/2000/svg">
<circle cx="21.8644" cy="21.8644" r="21.1144" fill="white" stroke="#43C4D8" stroke-width="1.5"/>
<g clip-path="url(#clip0_2008_94)">
<path d="M13.9868 30.6277C14.1704 30.8547 14.1489 31.1893 13.9302 31.3799C13.7114 31.5704 13.3892 31.5481 13.2056 31.3211C10.9849 28.6286 9.84032 25.5792 9.86767 22.4934C9.89696 19.4806 11.0278 16.4515 13.354 13.688C13.5376 13.4691 13.8599 13.4468 14.0786 13.6373C14.2895 13.8279 14.311 14.1625 14.1274 14.3895C11.9692 16.9482 10.9145 19.7421 10.895 22.4995C10.8735 25.3298 11.9282 28.1318 13.9868 30.6277ZM16.6704 28.0365C16.8599 28.2555 16.8384 28.59 16.6274 28.7887C16.4165 28.9854 16.0942 28.9631 15.9028 28.7441C14.1958 26.7389 13.3169 24.6141 13.352 22.463C13.3872 20.3686 14.2798 18.2681 16.1001 16.2629C16.2974 16.0521 16.6196 16.0359 16.8247 16.2406C17.0298 16.4454 17.0434 16.7799 16.8462 16.9928C15.2095 18.8013 14.4009 20.6545 14.3716 22.4792C14.3442 24.3607 15.1313 26.2442 16.6626 28.0446L16.6704 28.0365ZM19.0454 25.5711C19.2212 25.7982 19.1938 26.1327 18.9673 26.3152C18.7485 26.4977 18.4263 26.4693 18.2505 26.2341C17.3306 25.0602 16.852 23.7829 16.8442 22.4853C16.8364 21.2242 17.2934 19.953 18.229 18.7648C18.4048 18.5378 18.727 18.5013 18.9458 18.6838C19.1645 18.8662 19.1997 19.2008 19.0239 19.4278C18.2446 20.4193 17.8638 21.4634 17.8638 22.4772C17.8638 23.5213 18.272 24.5716 19.0376 25.5549L19.0454 25.5711ZM30.5298 31.319C30.3462 31.5461 30.0239 31.5664 29.8052 31.3778C29.5864 31.1872 29.5669 30.8527 29.7485 30.6256C31.8071 28.1298 32.8696 25.3217 32.8403 22.4995C32.8188 19.7421 31.7642 16.9482 29.6079 14.3875C29.4243 14.1685 29.4458 13.834 29.6567 13.6353C29.8677 13.4447 30.1899 13.467 30.3813 13.686C32.7075 16.4515 33.8384 19.4785 33.8677 22.4914C33.895 25.5792 32.7505 28.6286 30.5298 31.319ZM27.8384 28.738C27.6489 28.957 27.3247 28.9793 27.1138 28.7826C26.9028 28.586 26.8813 28.2494 27.0708 28.0304C28.6099 26.228 29.3892 24.3465 29.3618 22.465C29.3345 20.6322 28.5259 18.779 26.8892 16.9786C26.6919 16.7678 26.7056 16.4312 26.9106 16.2264C27.1138 16.0217 27.438 16.0359 27.6352 16.2487C29.4556 18.2539 30.3481 20.3483 30.3833 22.4488C30.4184 24.5999 29.5474 26.7227 27.8325 28.7299L27.8384 28.738ZM25.4907 26.2361C25.3149 26.4632 24.9927 26.4997 24.7739 26.3172C24.5552 26.1348 24.52 25.8002 24.6958 25.5731C25.4692 24.5878 25.8696 23.5375 25.8696 22.4954C25.8696 21.4736 25.4966 20.4375 24.7095 19.4461C24.5337 19.219 24.561 18.8845 24.7876 18.702C25.0063 18.5195 25.3286 18.5479 25.5044 18.7831C26.4399 19.9732 26.895 21.2424 26.8892 22.5035C26.8813 23.8011 26.4048 25.0724 25.4829 26.2523L25.4907 26.2361ZM21.8579 24.4702C21.6919 24.4702 21.5239 24.456 21.3579 24.4256C21.0962 24.3485 20.852 24.2188 20.645 24.0424C20.5981 24.0018 20.5513 23.9593 20.5083 23.9147C20.1567 23.5497 19.9458 23.053 19.9458 22.4995C19.9458 21.946 20.1645 21.4492 20.5083 21.0843C20.8599 20.7193 21.3384 20.5004 21.8716 20.5004C22.4048 20.5004 22.8833 20.7275 23.2349 21.0843C23.5864 21.4492 23.7974 21.946 23.7974 22.4995C23.7974 22.8056 23.7309 23.0956 23.6118 23.3551C23.2739 24.0951 22.645 24.4722 21.8579 24.4702Z" fill="#43C4D8"/>
</g>
<defs>
<clipPath id="clip0_2008_94">
<rect width="24" height="18" fill="white" transform="translate(9.86719 13.5078)"/>
</clipPath>
</defs>
</svg>
