<svg width="44" height="44" viewBox="0 0 44 44" fill="none" xmlns="http://www.w3.org/2000/svg">
<circle cx="21.8644" cy="21.8644" r="21.1144" fill="white" stroke="#43C4D8" stroke-width="1.5"/>
<g clip-path="url(#clip0_2008_101)">
<path d="M21.1283 20.8641H22.6061C22.8226 20.8641 23.0212 20.9554 23.1628 21.1043C23.306 21.2531 23.3939 21.4577 23.3939 21.6826V24.9192C23.3939 25.1441 23.306 25.3488 23.1628 25.4976C23.0195 25.6464 22.8226 25.7377 22.6061 25.7377H21.1283C20.9118 25.7377 20.7148 25.6464 20.5716 25.4976C20.4284 25.3488 20.3405 25.1441 20.3405 24.9192V21.6843C20.3405 21.4594 20.4284 21.2531 20.5716 21.1059C20.7148 20.9571 20.9118 20.8641 21.1283 20.8641ZM13.0016 14.724H18.1286V13.1987C18.1286 12.9687 18.2181 12.7607 18.3646 12.6085C18.5094 12.4563 18.7113 12.3633 18.9326 12.3633H24.8018C25.0231 12.3633 25.2233 12.4563 25.3698 12.6085C25.5146 12.759 25.6058 12.9687 25.6058 13.1987V14.7257H30.7327C31.0452 14.7257 31.3285 14.8576 31.5352 15.0723C31.7402 15.2854 31.8688 15.5813 31.8688 15.906V28.1863C31.8688 28.511 31.7419 28.8052 31.5352 29.02C31.3301 29.2331 31.0452 29.3667 30.7327 29.3667H13.0016C12.6891 29.3667 12.4059 29.2348 12.1992 29.02C11.9941 28.8035 11.8672 28.5093 11.8672 28.1846V15.9043C11.8672 15.5796 11.9941 15.2854 12.2008 15.0706C12.4059 14.8576 12.6891 14.724 13.0016 14.724ZM24.8018 13.0955H18.9326C18.9049 13.0955 18.8805 13.1073 18.8626 13.1259C18.8447 13.1445 18.8333 13.1699 18.8333 13.1987V14.7088H24.901V13.1987C24.901 13.1699 24.8896 13.1445 24.8717 13.1259C24.8538 13.1056 24.8294 13.0955 24.8018 13.0955ZM12.5703 21.7705C15.1631 22.545 17.0804 22.8782 19.6748 23.0033V23.7355C17.082 23.6121 15.1647 23.2874 12.5703 22.5281V28.1829C12.5703 28.3064 12.6191 28.418 12.6973 28.4992C12.7754 28.5803 12.8828 28.6311 13.0016 28.6311H30.7311C30.8499 28.6311 30.9574 28.5803 31.0355 28.4992C31.1136 28.418 31.1624 28.3064 31.1624 28.1829V22.5298C28.5729 23.2874 26.7712 23.6121 24.1833 23.7355V23.0033C26.7728 22.8765 28.5745 22.5433 31.1624 21.7705V15.9043C31.1624 15.7809 31.1136 15.6693 31.0355 15.5881C30.9574 15.5069 30.8499 15.4562 30.7311 15.4562H13.0016C12.8828 15.4562 12.7754 15.5069 12.6973 15.5881C12.6191 15.6693 12.5703 15.7809 12.5703 15.9043V21.7705ZM22.6061 21.5963H21.1283C21.1055 21.5963 21.0843 21.6065 21.0697 21.6217C21.055 21.6369 21.0452 21.6589 21.0452 21.6826V24.9192C21.0452 24.9429 21.055 24.9649 21.0697 24.9801C21.0843 24.997 21.1055 25.0055 21.1283 25.0055H22.6061C22.6289 25.0055 22.6501 24.9953 22.6647 24.9801C22.6794 24.9649 22.6891 24.9429 22.6891 24.9192V21.6843C22.6891 21.6606 22.6794 21.6386 22.6647 21.6234C22.6501 21.6065 22.6289 21.5963 22.6061 21.5963Z" fill="#43C4D8"/>
</g>
<defs>
<clipPath id="clip0_2008_101">
<rect width="20" height="17" fill="white" transform="translate(11.8672 12.3633)"/>
</clipPath>
</defs>
</svg>
