<svg width="44" height="44" viewBox="0 0 44 44" fill="none" xmlns="http://www.w3.org/2000/svg">
<circle cx="21.8644" cy="21.8644" r="21.1144" fill="white" stroke="#43C4D8" stroke-width="1.5"/>
<g clip-path="url(#clip0_2008_81)">
<path d="M25.3264 13.9795C25.2761 13.9795 25.2274 13.9714 25.1821 13.9551C24.9438 13.9551 24.7491 13.7663 24.7491 13.5352V12.7051H20.5364V13.5352C20.5364 13.7533 20.3652 13.9323 20.1454 13.9535C20.0984 13.9697 20.048 13.9795 19.996 13.9795H18.4116V15.6934H26.7295V13.9795H25.3264ZM25.9222 31.7546C25.845 31.8229 25.7427 31.8652 25.6302 31.8652C25.6067 31.8652 25.5849 31.8636 25.5631 31.8604H15.0415V31.862C14.7797 31.862 14.538 31.7562 14.3618 31.5869V31.5853H14.3601L14.3584 31.5837C14.1855 31.4144 14.0781 31.1816 14.0781 30.9277V15.1595C14.0781 14.9023 14.1872 14.668 14.3618 14.4987C14.5363 14.3294 14.778 14.2236 15.0432 14.2236H17.5473V13.7646C17.5473 13.5938 17.6194 13.4375 17.7369 13.3236L17.7386 13.3219L17.7403 13.3203C17.8578 13.208 18.0189 13.138 18.1951 13.138H19.6737V12.5602C19.6737 12.3698 19.7543 12.1973 19.8835 12.0703L19.8852 12.0687C20.0128 11.9434 20.1907 11.8652 20.387 11.8652H24.9001C25.0965 11.8652 25.2744 11.9434 25.4053 12.0703L25.407 12.0687C25.5362 12.194 25.6168 12.3682 25.6168 12.5602V13.1396H26.9494C27.1256 13.1396 27.2867 13.2096 27.4042 13.3236L27.4059 13.3252L27.4076 13.3268L27.4093 13.3285C27.5251 13.4424 27.5972 13.5986 27.5972 13.7695V14.2285H30.1013C30.3648 14.2285 30.6065 14.3343 30.7811 14.5036L30.7827 14.502C30.9573 14.6712 31.0664 14.9056 31.0664 15.1628V26.4225C31.0748 26.4567 31.0798 26.4909 31.0798 26.5267C31.0798 26.6536 31.0227 26.766 30.9304 26.8441L25.9592 31.7269C25.9474 31.735 25.934 31.7448 25.9222 31.7546ZM25.1972 31.0238V27.3714C25.1972 27.0231 25.3449 26.7057 25.5815 26.4762C25.8182 26.2467 26.1455 26.1035 26.5046 26.1035H30.1987V15.1595C30.1987 15.1335 30.1869 15.1107 30.1701 15.0928L30.1718 15.0911H30.1701C30.1534 15.0749 30.1282 15.0651 30.1013 15.0651H27.5972V15.9066C27.5972 16.0775 27.5251 16.2337 27.4076 16.3477H27.4059L27.4042 16.3493L27.4025 16.3509C27.2851 16.4632 27.1239 16.5332 26.9477 16.5332H18.1934C18.0155 16.5332 17.8527 16.4632 17.7369 16.3493C17.7235 16.3363 17.7101 16.3216 17.7 16.307C17.606 16.1979 17.5473 16.0563 17.5473 15.9049V15.0635H15.0415C15.0146 15.0635 14.9911 15.0749 14.9727 15.0911C14.9542 15.109 14.9442 15.1318 14.9442 15.1579V30.9245C14.9442 30.9505 14.9542 30.9749 14.9727 30.9912L14.9744 30.9928C14.9911 31.0091 15.0163 31.0205 15.0432 31.0205V31.0221L25.1972 31.0238ZM26.0632 27.3714V30.4281L29.6112 26.9434H26.5029C26.3821 26.9434 26.2713 26.9922 26.1924 27.0687C26.1119 27.1468 26.0632 27.2542 26.0632 27.3714ZM17.648 25.6429C17.408 25.6429 17.215 25.4541 17.215 25.223C17.215 24.9902 17.4096 24.8031 17.648 24.8031H25.2677C25.506 24.8031 25.7007 24.9919 25.7007 25.223C25.7007 25.4541 25.506 25.6429 25.2677 25.6429H17.648ZM17.648 20.0163C17.408 20.0163 17.215 19.8275 17.215 19.5964C17.215 19.3652 17.4096 19.1764 17.648 19.1764H27.4948C27.7349 19.1764 27.9279 19.3652 27.9279 19.5964C27.9279 19.8275 27.7332 20.0163 27.4948 20.0163H17.648ZM17.648 22.8288C17.408 22.8288 17.215 22.64 17.215 22.4089C17.215 22.1777 17.4096 21.9889 17.648 21.9889H27.4948C27.7349 21.9889 27.9279 22.1777 27.9279 22.4089C27.9279 22.6416 27.7332 22.8288 27.4948 22.8288H17.648Z" fill="#43C4D8"/>
</g>
<defs>
<clipPath id="clip0_2008_81">
<rect width="17" height="20" fill="white" transform="translate(14.0781 11.8652)"/>
</clipPath>
</defs>
</svg>
