<svg width="32" height="32" viewBox="0 0 32 32" fill="none" xmlns="http://www.w3.org/2000/svg">
<g id="devicon:linkedin">
<path id="Vector" d="M5.44124 12.4655H9.86669V26.7046H5.44124V12.4655ZM7.65519 5.37891C8.16276 5.37891 8.65894 5.52945 9.08094 5.8115C9.50294 6.09354 9.83181 6.49441 10.0259 6.9634C10.2201 7.43239 10.2707 7.94842 10.1715 8.4462C10.0723 8.94399 9.82772 9.40118 9.46864 9.75992C9.10955 10.1187 8.65214 10.3628 8.15426 10.4616C7.65637 10.5603 7.14039 10.5091 6.67159 10.3146C6.20279 10.12 5.80223 9.79073 5.52059 9.36846C5.23895 8.94619 5.08887 8.44987 5.08936 7.94229C5.09 7.26222 5.36062 6.61021 5.84173 6.12956C6.32285 5.6489 6.97511 5.37891 7.65519 5.37891ZM12.6427 12.4655H16.8848V14.4204H16.9435C17.5349 13.3012 18.9766 12.1209 21.1295 12.1209C25.6111 12.1112 26.4419 15.0606 26.4419 18.8849V26.7046H22.0165V19.7769C22.0165 18.1274 21.9872 16.0039 19.717 16.0039C17.4469 16.0039 17.0608 17.8024 17.0608 19.6694V26.7046H12.6427V12.4655Z" fill="white"/>
</g>
</svg>
