<svg width="14" height="15" viewBox="0 0 14 15" fill="none" xmlns="http://www.w3.org/2000/svg">
<g id="envelope-open-line-icon 1" clip-path="url(#clip0_1656_1193)">
<g id="Group">
<path id="Vector" d="M9.26247 0.700922V3.76743H12.1514L9.26247 0.700922ZM1.47787 5.61958L5.54155 9.351C5.5476 9.356 5.55354 9.3615 5.55924 9.36723L6.93153 10.6272L12.4642 5.65926V4.43722H8.93659C8.75667 4.43722 8.61083 4.2872 8.61083 4.10238V0.669794H1.47787V5.61958ZM13.1158 5.07406C13.2045 4.99532 13.303 4.96078 13.4052 4.96078C13.4917 4.96078 13.5738 4.98726 13.6491 5.03365C13.7043 5.06759 13.755 5.11263 13.7992 5.16463C13.9147 5.30062 14 5.51045 14 5.68465V14.3082C14 14.4973 13.9243 14.6699 13.8026 14.7958L13.8019 14.7965L13.8012 14.797L13.8005 14.798C13.678 14.9226 13.5106 15.0001 13.327 15.0001H0.673023C0.489061 15.0001 0.321251 14.9224 0.198689 14.797L0.198095 14.7965L0.197501 14.7958L0.196788 14.795C0.075295 14.6691 0 14.4967 0 14.3081V5.68452C0 5.5074 0.0878837 5.29354 0.205458 5.15804C0.24845 5.10848 0.299042 5.06478 0.355335 5.03072C0.42968 4.9858 0.51032 4.96016 0.594759 4.96016C0.67528 4.96016 0.753306 4.98189 0.826226 5.02974V0.334958C0.826226 0.150023 0.972184 0 1.15211 0H9.36995C9.47066 0 9.56056 0.0468746 9.6203 0.120604L13.0229 3.73239C13.0843 3.79733 13.1149 3.88132 13.1149 3.9653H13.1158V4.06149C13.1175 4.07492 13.1183 4.08859 13.1183 4.10251C13.1183 4.1163 13.1175 4.13009 13.1158 4.1434V5.07406ZM6.71301 11.321L5.33264 10.0535L0.651646 14.2699V14.3081C0.651646 14.3148 0.653665 14.3201 0.656872 14.3234L0.658178 14.3246C0.661385 14.3279 0.66661 14.3301 0.673023 14.3301H13.327C13.3334 14.3301 13.3386 14.3279 13.3418 14.3246V14.3248L13.3431 14.3234C13.3463 14.3201 13.3484 14.3148 13.3484 14.3081V14.2854L8.60394 10.0118L7.14317 11.3236L7.14305 11.3234C7.02144 11.433 6.83652 11.4345 6.71301 11.321ZM4.84465 9.60539L0.651646 5.75532V13.3822L4.84465 9.60539ZM13.3484 13.3978V5.75178L9.09739 9.56889L13.3484 13.3978Z" fill="white"/>
</g>
</g>
<defs>
<clipPath id="clip0_1656_1193">
<rect width="14" height="15" fill="white"/>
</clipPath>
</defs>
</svg>
