<svg width="133" height="27" viewBox="0 0 133 27" fill="none" xmlns="http://www.w3.org/2000/svg">
<path d="M10.5974 3.601C10.8758 2.6379 12.2404 2.6379 12.5188 3.601L13.9197 8.44787C14.0434 8.87569 14.4351 9.17019 14.8804 9.17019L19.6412 9.17019C20.5815 9.17019 21.002 10.35 20.2738 10.9447L16.2286 14.2485C15.9184 14.5019 15.7893 14.9159 15.9005 15.3007L17.3971 20.4785C17.6694 21.4208 16.5635 22.1511 15.8038 21.5306L12.1907 18.5797C11.8226 18.279 11.2937 18.279 10.9256 18.5797L7.31239 21.5306C6.5527 22.1511 5.44679 21.4208 5.71916 20.4785L7.21574 15.3007C7.32696 14.9159 7.19785 14.5019 6.88763 14.2485L2.84242 10.9447C2.11421 10.35 2.53477 9.17019 3.47499 9.17019L8.23582 9.17019C8.68116 9.17019 9.07283 8.8757 9.19649 8.44787L10.5974 3.601Z" fill="#0CAA41"/>
<path d="M38.1795 3.601C38.4578 2.6379 39.8224 2.6379 40.1008 3.601L41.5018 8.44787C41.6254 8.87569 42.0171 9.17019 42.4624 9.17019L47.2233 9.17019C48.1635 9.17019 48.584 10.35 47.8558 10.9447L43.8106 14.2485C43.5004 14.5019 43.3713 14.9159 43.4825 15.3007L44.9791 20.4785C45.2515 21.4208 44.1456 22.1511 43.3859 21.5306L39.7727 18.5797C39.4046 18.279 38.8757 18.279 38.5076 18.5797L34.8944 21.5306C34.1347 22.1511 33.0288 21.4208 33.3012 20.4785L34.7978 15.3007C34.909 14.9159 34.7799 14.5019 34.4697 14.2485L30.4245 10.9447C29.6962 10.35 30.1168 9.17019 31.057 9.17019L35.8179 9.17019C36.2632 9.17019 36.6549 8.8757 36.7785 8.44787L38.1795 3.601Z" fill="#0CAA41"/>
<path d="M64.7185 3.601C64.9969 2.6379 66.3615 2.6379 66.6399 3.601L68.0408 8.44787C68.1645 8.87569 68.5562 9.17019 69.0015 9.17019L73.7623 9.17019C74.7026 9.17019 75.1231 10.35 74.3949 10.9447L70.3497 14.2485C70.0395 14.5019 69.9104 14.9159 70.0216 15.3007L71.5182 20.4785C71.7905 21.4208 70.6846 22.1511 69.9249 21.5306L66.3118 18.5797C65.9436 18.279 65.4148 18.279 65.0466 18.5797L61.4335 21.5306C60.6738 22.1511 59.5679 21.4208 59.8402 20.4785L61.3368 15.3007C61.4481 14.9159 61.3189 14.5019 61.0087 14.2485L56.9635 10.9447C56.2353 10.35 56.6559 9.17019 57.5961 9.17019L62.3569 9.17019C62.8023 9.17019 63.1939 8.8757 63.3176 8.44787L64.7185 3.601Z" fill="#0CAA41"/>
<path d="M92.2986 3.601C92.577 2.6379 93.9416 2.6379 94.22 3.601L95.6209 8.44787C95.7446 8.87569 96.1362 9.17019 96.5816 9.17019L101.342 9.17019C102.283 9.17019 102.703 10.35 101.975 10.9447L97.9298 14.2485C97.6196 14.5019 97.4904 14.9159 97.6017 15.3007L99.0982 20.4785C99.3706 21.4208 98.2647 22.1511 97.505 21.5306L93.8918 18.5797C93.5237 18.279 92.9948 18.279 92.6267 18.5797L89.0136 21.5306C88.2539 22.1511 87.148 21.4208 87.4203 20.4785L88.9169 15.3007C89.0281 14.9159 88.899 14.5019 88.5888 14.2485L84.5436 10.9447C83.8154 10.35 84.2359 9.17019 85.1762 9.17019L89.937 9.17019C90.3823 9.17019 90.774 8.8757 90.8977 8.44787L92.2986 3.601Z" fill="#0CAA41"/>
<path d="M119.881 3.601C120.159 2.6379 121.524 2.6379 121.802 3.601L123.203 8.44787C123.327 8.87569 123.718 9.17019 124.164 9.17019L128.924 9.17019C129.865 9.17019 130.285 10.35 129.557 10.9447L125.512 14.2485C125.202 14.5019 125.072 14.9159 125.184 15.3007L126.68 20.4785C126.953 21.4208 125.847 22.1511 125.087 21.5306L121.474 18.5797C121.106 18.279 120.577 18.279 120.209 18.5797L116.596 21.5306C115.836 22.1511 114.73 21.4208 115.002 20.4785L116.499 15.3007C116.61 14.9159 116.481 14.5019 116.171 14.2485L112.126 10.9447C111.397 10.35 111.818 9.17019 112.758 9.17019L117.519 9.17019C117.964 9.17019 118.356 8.8757 118.48 8.44787L119.881 3.601Z" fill="#0CAA41"/>
</svg>
