<svg width="23" height="20" viewBox="0 0 23 20" fill="none" xmlns="http://www.w3.org/2000/svg">
<g id="history-line-icon 2" clip-path="url(#clip0_1549_17636)">
<path id="Vector" d="M2.62352 9.85433C2.59277 8.03243 3.09727 6.24008 4.07729 4.68952C5.09758 3.0719 6.60538 1.80219 8.39386 1.05457C9.03413 0.785241 9.69969 0.577367 10.3812 0.433882C12.5516 -0.0450015 14.8255 0.239598 16.8021 1.23753C18.7787 2.23546 20.3312 3.88268 21.186 5.88893C21.4592 6.51254 21.6691 7.16081 21.8126 7.82442C22.1571 9.39106 22.0762 11.0184 21.5781 12.5451C21.0724 14.0774 20.168 15.4553 18.9534 16.5438C17.7982 17.6128 16.4054 18.4062 14.8839 18.8622C13.4289 19.285 11.8861 19.3296 10.408 18.9915C9.92458 18.8817 9.45191 18.7308 8.99543 18.5404C8.52441 18.346 8.07154 18.112 7.64191 17.8411C7.48973 17.7446 7.38301 17.5931 7.34524 17.4198C7.30746 17.2465 7.34173 17.0657 7.4405 16.917C7.53926 16.7684 7.69444 16.6642 7.87188 16.6273C8.04933 16.5904 8.23452 16.6239 8.3867 16.7203C8.7497 16.9525 9.13316 17.1526 9.53254 17.3183C9.91562 17.4776 10.3122 17.604 10.7178 17.696C11.9664 17.9819 13.27 17.9439 14.499 17.5858C15.8194 17.1922 17.0285 16.5051 18.0314 15.5786C19.0719 14.6449 19.8467 13.4635 20.2801 12.15C20.7064 10.8431 20.7743 9.44992 20.477 8.10941C20.3542 7.53025 20.1743 6.96405 19.9399 6.4187C19.2106 4.69333 17.8781 3.27658 16.1796 2.42049C14.4811 1.5644 12.5267 1.32449 10.664 1.74344C10.0698 1.86835 9.48941 2.04929 8.93097 2.2837C7.40213 2.92263 6.11319 4.00791 5.24103 5.39063C4.37825 6.75414 3.94261 8.33428 3.98778 9.93651L5.55435 8.23705C5.61465 8.17138 5.68761 8.11796 5.76906 8.07983C5.85051 8.0417 5.93885 8.0196 6.02904 8.01482C6.11924 8.01003 6.20951 8.02263 6.29471 8.05191C6.37991 8.08119 6.45838 8.12658 6.52562 8.18547C6.59286 8.24436 6.64757 8.31561 6.68661 8.39515C6.72566 8.4747 6.74828 8.56097 6.75318 8.64904C6.75809 8.73712 6.74518 8.82528 6.7152 8.90849C6.68521 8.99169 6.63874 9.06832 6.57843 9.13398L3.94302 11.9961C3.82129 12.1276 3.65119 12.2065 3.46998 12.2157C3.28876 12.2249 3.11121 12.1635 2.97622 12.0451L0.233382 9.45919C0.102565 9.33631 0.0270922 9.16771 0.0235668 8.99048C0.0200413 8.81326 0.0887519 8.64192 0.214583 8.51417C0.340414 8.38642 0.513058 8.31272 0.694536 8.30927C0.876013 8.30583 1.05146 8.37293 1.18228 8.49581L2.62352 9.85433ZM11.2513 5.96761C11.2513 5.79001 11.3235 5.61968 11.4521 5.4941C11.5807 5.36852 11.7551 5.29797 11.937 5.29797C12.1189 5.29797 12.2933 5.36852 12.4219 5.4941C12.5505 5.61968 12.6227 5.79001 12.6227 5.96761V9.79663L15.7147 11.4734C15.8646 11.5636 15.9731 11.7068 16.0176 11.8732C16.0621 12.0396 16.0391 12.2163 15.9535 12.3666C15.8679 12.5169 15.7263 12.6291 15.558 12.68C15.3898 12.7308 15.208 12.7163 15.0504 12.6396L11.6613 10.7985C11.539 10.746 11.435 10.6598 11.3622 10.5505C11.2894 10.4412 11.2508 10.3135 11.2513 10.183V5.96761Z" fill="#43C4D8"/>
</g>
<defs>
<clipPath id="clip0_1549_17636">
<rect width="22" height="19" fill="white" transform="translate(0.0234375 0.216797)"/>
</clipPath>
</defs>
</svg>
