<svg width="25" height="19" viewBox="0 0 25 19" fill="none" xmlns="http://www.w3.org/2000/svg">
<g id="hotspot-tower-icon 1" clip-path="url(#clip0_1549_17649)">
<g id="Group">
<path id="Vector" d="M4.85399 17.4773C5.03759 17.7043 5.0161 18.0389 4.79735 18.2295C4.5786 18.42 4.25634 18.3977 4.07274 18.1707C1.85204 15.4782 0.70751 12.4288 0.734854 9.343C0.764151 6.33016 1.89501 3.3011 4.22118 0.53764C4.40478 0.318671 4.72704 0.296369 4.94579 0.486953C5.15673 0.677536 5.17821 1.01207 4.99462 1.23915C2.83642 3.79783 1.78173 6.59171 1.7622 9.34908C1.74071 12.1795 2.7954 14.9814 4.85399 17.4773ZM7.53759 14.8861C7.72704 15.1051 7.70556 15.4396 7.49462 15.6383C7.28368 15.835 6.96142 15.8127 6.77001 15.5937C5.06298 13.5886 4.18407 11.4637 4.21923 9.31259C4.25439 7.2182 5.14696 5.11773 6.96728 3.11254C7.16454 2.90169 7.48681 2.88547 7.69188 3.09024C7.89696 3.29502 7.91063 3.62955 7.71337 3.84244C6.07665 5.65095 5.26806 7.50407 5.23876 9.32881C5.21142 11.2103 5.99853 13.0938 7.52978 14.8943L7.53759 14.8861ZM9.91259 12.4207C10.0884 12.6478 10.061 12.9823 9.83446 13.1648C9.61571 13.3473 9.29345 13.3189 9.11767 13.0837C8.19774 11.9098 7.71923 10.6325 7.71142 9.33489C7.7036 8.0738 8.16064 6.80256 9.09618 5.61446C9.27196 5.38738 9.59423 5.35089 9.81298 5.53336C10.0317 5.71583 10.0669 6.05037 9.8911 6.27745C9.11181 7.26889 8.73095 8.31304 8.73095 9.32678C8.73095 10.3709 9.13915 11.4212 9.90478 12.4045L9.91259 12.4207ZM21.397 18.1686C21.2134 18.3957 20.8911 18.416 20.6724 18.2274C20.4536 18.0369 20.4341 17.7023 20.6157 17.4752C22.6743 14.9794 23.7368 12.1713 23.7075 9.34908C23.686 6.59171 22.6313 3.79783 20.4751 1.23712C20.2915 1.01815 20.313 0.683619 20.5239 0.484925C20.7349 0.294342 21.0571 0.316644 21.2485 0.535612C23.5747 3.3011 24.7056 6.32813 24.7349 9.34097C24.7622 12.4288 23.6177 15.4782 21.397 18.1686ZM18.7056 15.5877C18.5161 15.8066 18.1919 15.8289 17.9809 15.6323C17.77 15.4356 17.7485 15.099 17.938 14.8801C19.477 13.0776 20.2563 11.1961 20.229 9.31462C20.2017 7.48177 19.3931 5.62865 17.7563 3.82825C17.5591 3.61739 17.5727 3.28083 17.7778 3.07605C17.9809 2.87127 18.3052 2.88547 18.5024 3.09835C20.3227 5.10353 21.2153 7.19792 21.2505 9.2984C21.2856 11.4496 20.4145 13.5723 18.6997 15.5795L18.7056 15.5877ZM16.3579 13.0857C16.1821 13.3128 15.8599 13.3493 15.6411 13.1668C15.4224 12.9844 15.3872 12.6498 15.563 12.4227C16.3364 11.4374 16.7368 10.3872 16.7368 9.34503C16.7368 8.32318 16.3638 7.28713 15.5767 6.29569C15.4009 6.06862 15.4282 5.73408 15.6548 5.55161C15.8735 5.36913 16.1958 5.39752 16.3716 5.63271C17.3071 6.82284 17.7622 8.09204 17.7563 9.35314C17.7485 10.6507 17.272 11.922 16.3501 13.102L16.3579 13.0857ZM12.7251 11.3198C12.5591 11.3198 12.3911 11.3056 12.2251 11.2752C11.9634 11.1981 11.7192 11.0684 11.5122 10.892C11.4653 10.8514 11.4184 10.8089 11.3755 10.7643C11.0239 10.3993 10.813 9.90259 10.813 9.34908C10.813 8.79558 11.0317 8.29885 11.3755 7.9339C11.727 7.56895 12.2056 7.34999 12.7388 7.34999C13.272 7.34999 13.7505 7.57706 14.102 7.9339C14.4536 8.29885 14.6645 8.79558 14.6645 9.34908C14.6645 9.65523 14.5981 9.94516 14.479 10.2047C14.1411 10.9447 13.5122 11.3218 12.7251 11.3198Z" fill="#43C4D8"/>
</g>
</g>
<defs>
<clipPath id="clip0_1549_17649">
<rect width="24" height="18" fill="white" transform="translate(0.734375 0.357422)"/>
</clipPath>
</defs>
</svg>
