<svg width="23" height="22" viewBox="0 0 23 22" fill="none" xmlns="http://www.w3.org/2000/svg">
<g clip-path="url(#clip0_1298_3210)">
<path d="M11.5215 0.00976562C14.5589 0.00976562 17.3094 1.24125 19.2997 3.23156C21.29 5.2223 22.5215 7.9723 22.5215 11.0098C22.5215 14.0472 21.29 16.7977 19.2997 18.788C17.3094 20.7783 14.5589 22.0098 11.5215 22.0098C8.48402 22.0098 5.73359 20.7783 3.74328 18.788C1.75297 16.7977 0.521484 14.0472 0.521484 11.0098C0.521484 7.9723 1.75297 5.2223 3.74328 3.23156C5.73359 1.24125 8.48402 0.00976562 11.5215 0.00976562ZM12.2842 14.7158H13.5367V15.9757H9.50668V14.7158H10.7425V10.7481H9.50668V9.48824H12.2842V14.7158ZM11.0836 8.25461C10.7794 8.25246 10.5199 8.1459 10.3016 7.92977C10.0833 7.71449 9.97676 7.45238 9.97676 7.14559C9.97676 6.84438 10.0833 6.58441 10.3016 6.36871C10.5199 6.15301 10.7794 6.0443 11.0836 6.0443C11.3823 6.0443 11.6418 6.15301 11.8605 6.36871C12.0809 6.58441 12.1901 6.84438 12.1901 7.14559C12.1901 7.3484 12.1385 7.53531 12.0371 7.7016C11.9357 7.87047 11.8029 8.00539 11.6371 8.10422C11.4708 8.20305 11.286 8.25246 11.0836 8.25461ZM18.47 4.06129C16.6919 2.28367 14.235 1.18367 11.5215 1.18367C8.80801 1.18367 6.35105 2.28367 4.57301 4.06129C2.79539 5.83977 1.69539 8.29629 1.69539 11.0098C1.69539 13.7232 2.79539 16.1802 4.57301 17.9582C6.35105 19.7359 8.80801 20.8359 11.5215 20.8359C14.235 20.8359 16.6919 19.7359 18.47 17.9582C20.2476 16.1802 21.3476 13.7232 21.3476 11.0098C21.3476 8.29629 20.2476 5.83977 18.47 4.06129Z" fill="white"/>
</g>
<defs>
<clipPath id="clip0_1298_3210">
<rect width="22" height="22" fill="white" transform="translate(0.521484 0.00976562)"/>
</clipPath>
</defs>
</svg>
