<svg width="23" height="23" viewBox="0 0 23 23" fill="none" xmlns="http://www.w3.org/2000/svg">
<g id="information-mark-circle-outline-icon 3" clip-path="url(#clip0_1476_8776)">
<path id="Vector" d="M11.3457 0.152344C14.3832 0.152344 17.1336 1.38383 19.1239 3.37414C21.1142 5.36488 22.3457 8.11488 22.3457 11.1523C22.3457 14.1898 21.1142 16.9402 19.1239 18.9305C17.1336 20.9209 14.3832 22.1523 11.3457 22.1523C8.30824 22.1523 5.55781 20.9209 3.5675 18.9305C1.57719 16.9402 0.345703 14.1898 0.345703 11.1523C0.345703 8.11488 1.57719 5.36488 3.5675 3.37414C5.55781 1.38383 8.30824 0.152344 11.3457 0.152344ZM12.1084 14.8584H13.3609V16.1182H9.3309V14.8584H10.5667V10.8907H9.3309V9.63082H12.1084V14.8584ZM10.9079 8.39719C10.6036 8.39504 10.3441 8.28848 10.1258 8.07234C9.90754 7.85707 9.80098 7.59496 9.80098 7.28816C9.80098 6.98695 9.90754 6.72699 10.1258 6.51129C10.3441 6.29559 10.6036 6.18688 10.9079 6.18688C11.2065 6.18688 11.466 6.29559 11.6847 6.51129C11.9052 6.72699 12.0143 6.98695 12.0143 7.28816C12.0143 7.49098 11.9627 7.67789 11.8613 7.84418C11.7599 8.01305 11.6271 8.14797 11.4613 8.2468C11.295 8.34562 11.1102 8.39504 10.9079 8.39719ZM18.2942 4.20387C16.5161 2.42625 14.0592 1.32625 11.3457 1.32625C8.63223 1.32625 6.17527 2.42625 4.39723 4.20387C2.61961 5.98234 1.51961 8.43887 1.51961 11.1523C1.51961 13.8658 2.61961 16.3228 4.39723 18.1008C6.17527 19.8784 8.63223 20.9784 11.3457 20.9784C14.0592 20.9784 16.5161 19.8784 18.2942 18.1008C20.0718 16.3228 21.1718 13.8658 21.1718 11.1523C21.1718 8.43887 20.0718 5.98234 18.2942 4.20387Z" fill="black"/>
</g>
<defs>
<clipPath id="clip0_1476_8776">
<rect width="22" height="22" fill="white" transform="translate(0.345703 0.152344)"/>
</clipPath>
</defs>
</svg>
