<svg width="20" height="19" viewBox="0 0 20 19" fill="none" xmlns="http://www.w3.org/2000/svg">
<path d="M19.1488 5.55921C19.1039 4.55452 18.9392 3.8638 18.7033 3.26528C18.4599 2.62998 18.0854 2.06118 17.5949 1.58835C17.1155 1.10815 16.5351 0.735014 15.8986 0.498666C15.2883 0.265927 14.5918 0.103456 13.5733 0.0591589C12.5473 0.0111103 12.2215 0 9.6191 0C7.01668 0 6.69094 0.0111103 5.66866 0.0554074C4.65019 0.0997044 3.95 0.262319 3.34342 0.494915C2.69925 0.735014 2.12266 1.1044 1.64333 1.58835C1.15655 2.06118 0.778444 2.63373 0.538709 3.26168C0.302777 3.8638 0.138078 4.55076 0.0931735 5.55546C0.0444658 6.56765 0.0332031 6.88899 0.0332031 9.45619C0.0332031 12.0234 0.0444658 12.3447 0.0893705 13.3532C0.134275 14.3579 0.29912 15.0486 0.535053 15.6471C0.778444 16.2824 1.15655 16.8512 1.64333 17.324C2.12266 17.8042 2.70305 18.1774 3.33962 18.4137C3.95 18.6465 4.64639 18.8089 5.665 18.8532C6.68713 18.8977 7.01302 18.9086 9.61544 18.9086C12.2179 18.9086 12.5436 18.8977 13.5659 18.8532C14.5844 18.8089 15.2845 18.6465 15.8911 18.4137C17.1793 17.9224 18.1978 16.9177 18.6958 15.6471C18.9316 15.045 19.0965 14.3579 19.1414 13.3532C19.1863 12.3447 19.1975 12.0234 19.1975 9.45619C19.1975 6.88899 19.1937 6.56765 19.1488 5.55921ZM17.4227 13.2793C17.3815 14.2028 17.2242 14.7014 17.0932 15.0339C16.7711 15.8576 16.1083 16.5114 15.2733 16.8291C14.9363 16.9584 14.4271 17.1135 13.4946 17.1541C12.4836 17.1985 12.1804 17.2095 9.6229 17.2095C7.06538 17.2095 6.75837 17.1985 5.75101 17.1541C4.81489 17.1135 4.30938 16.9584 3.97238 16.8291C3.55683 16.6776 3.17857 16.4375 2.87156 16.1235C2.55327 15.8169 2.30988 15.4476 2.1563 15.0376C2.02524 14.7052 1.868 14.2028 1.8269 13.2831C1.78185 12.2857 1.77073 11.9865 1.77073 9.46355C1.77073 6.94064 1.78185 6.63778 1.8269 5.64419C1.868 4.72074 2.02524 4.22207 2.1563 3.88963C2.30988 3.47956 2.55327 3.10657 2.87536 2.80356C3.18603 2.48958 3.56048 2.24948 3.97618 2.09812C4.31318 1.96884 4.82249 1.81373 5.75481 1.77304C6.76583 1.72874 7.06919 1.71763 9.62656 1.71763C12.1879 1.71763 12.4911 1.72874 13.4984 1.77304C14.4346 1.81373 14.9401 1.96884 15.2771 2.09812C15.6926 2.24948 16.0709 2.48958 16.3779 2.80356C16.6962 3.11017 16.9396 3.47956 17.0932 3.88963C17.2242 4.22207 17.3815 4.72435 17.4227 5.64419C17.4676 6.64153 17.4789 6.94064 17.4789 9.46355C17.4789 11.9865 17.4676 12.282 17.4227 13.2793Z" fill="white"/>
<path d="M9.61932 4.59961C6.90091 4.59961 4.69531 6.77522 4.69531 9.45699C4.69531 12.1388 6.90091 14.3144 9.61932 14.3144C12.3379 14.3144 14.5433 12.1388 14.5433 9.45699C14.5433 6.77522 12.3379 4.59961 9.61932 4.59961ZM9.61932 12.6079C7.85575 12.6079 6.42524 11.1968 6.42524 9.45699C6.42524 7.71714 7.85575 6.30613 9.61932 6.30613C11.383 6.30613 12.8134 7.71714 12.8134 9.45699C12.8134 11.1968 11.383 12.6079 9.61932 12.6079V12.6079Z" fill="white"/>
<path d="M15.8871 4.40741C15.8871 5.03363 15.3724 5.54139 14.7374 5.54139C14.1026 5.54139 13.5879 5.03363 13.5879 4.40741C13.5879 3.78105 14.1026 3.27344 14.7374 3.27344C15.3724 3.27344 15.8871 3.78105 15.8871 4.40741V4.40741Z" fill="white"/>
</svg>
