<svg width="20" height="19" viewBox="0 0 20 19" fill="none" xmlns="http://www.w3.org/2000/svg">
<path d="M19.1627 18.9082V18.9074H19.1675V11.9727C19.1675 8.58014 18.4271 5.9668 14.4066 5.9668C12.4738 5.9668 11.1768 7.01308 10.6473 8.005H10.5913V6.28352H6.7793V18.9074H10.7487V12.6565C10.7487 11.0107 11.065 9.41921 13.1311 9.41921C15.1669 9.41921 15.1973 11.2975 15.1973 12.7621V18.9082H19.1627Z" fill="white"/>
<path d="M0.316406 6.28516H4.29059V18.9091H0.316406V6.28516Z" fill="white"/>
<path d="M2.30177 0C1.03108 0 0 1.01713 0 2.27062C0 3.52411 1.03108 4.56251 2.30177 4.56251C3.57245 4.56251 4.60353 3.52411 4.60353 2.27062C4.60273 1.01713 3.57165 0 2.30177 0V0Z" fill="white"/>
</svg>
