<svg width="56" height="57" viewBox="0 0 56 57" fill="none" xmlns="http://www.w3.org/2000/svg">
<g id="computer (4) 4">
<g id="Group">
<path id="Vector" d="M52.948 18.767H49.8097V8.16095C49.8097 5.72977 47.8318 3.75195 45.4006 3.75195H7.41078C4.9796 3.75195 3.00179 5.72977 3.00179 8.16095V35.0791C3.00179 36.0918 3.35878 37.0438 3.95848 37.8022H1.41957C0.636779 37.8021 0 38.4416 0 39.2275V41.3087C0 43.3091 1.61535 44.9365 3.60083 44.9365H23.9448C24.398 44.9365 24.7651 44.5692 24.7651 44.1162C24.7651 43.6632 24.398 43.2959 23.9448 43.2959H3.60083C2.51999 43.2959 1.64062 42.4045 1.64062 41.3087V39.4427H36.1987V43.2959H27.7729C27.3198 43.2959 26.9526 43.6632 26.9526 44.1162C26.9526 44.5692 27.3198 44.9365 27.7729 44.9365H36.1987V49.8899C36.1987 51.5728 37.5679 52.942 39.2507 52.942H52.9479C54.6308 52.942 55.9999 51.5728 55.9999 49.8899C55.9999 48.6362 55.9999 22.716 55.9999 21.8191C56 20.1362 54.6308 18.767 52.948 18.767ZM36.1987 37.8021H6.91466C5.61507 37.5638 4.64251 36.4039 4.64251 35.079V8.16095C4.64251 6.63441 5.88435 5.39257 7.41089 5.39257H45.4007C46.9273 5.39257 48.1692 6.63441 48.1692 8.16095V18.7671H46.5858C46.5858 17.6199 46.5858 9.67491 46.5858 8.4159C46.5858 7.60861 45.929 6.95171 45.1217 6.95171C44.8983 6.95171 8.83047 6.95171 7.69002 6.95171C6.88261 6.95171 6.22582 7.6085 6.22582 8.4159V34.7839C6.22582 35.5912 6.88261 36.2481 7.69002 36.2481H36.1988V37.8021H36.1987ZM44.9451 8.59222V10.7702H12.0518V8.59222H44.9451ZM10.4111 8.59222V10.7702H7.86633V8.59222H10.4111ZM36.1987 21.819V34.6074H7.86633V12.4108H44.9451V18.767H39.2508C37.5679 18.767 36.1987 20.1362 36.1987 21.819ZM37.8393 25.0395H39.4888V26.6821H37.8393V25.0395ZM54.3594 49.8899C54.3594 50.6682 53.7262 51.3013 52.948 51.3013H39.2507C38.4725 51.3013 37.8393 50.6682 37.8393 49.8899V47.5389H54.3594V49.8899ZM54.3594 45.8982H37.8393C37.8393 39.2018 37.8393 35.0122 37.8393 28.3227H54.3594V45.8982ZM54.3594 26.6821H41.1294V25.0395H54.3594V26.6821ZM54.3594 23.3989C53.5221 23.3989 38.5859 23.3989 37.8393 23.3989V21.819C37.8393 21.0408 38.4725 20.4076 39.2507 20.4076H52.9479C53.7261 20.4076 54.3593 21.0408 54.3593 21.819V23.3989H54.3594Z" fill="#10D1E3"/>
<path id="Vector_2" d="M45.2285 50.0684H46.9723C47.4254 50.0684 47.7926 49.7011 47.7926 49.248C47.7926 48.795 47.4254 48.4277 46.9723 48.4277H45.2285C44.7754 48.4277 44.4082 48.795 44.4082 49.248C44.4082 49.7011 44.7754 50.0684 45.2285 50.0684Z" fill="#10D1E3"/>
<path id="Vector_3" d="M29.1119 22.1203L25.5917 19.7201C24.4777 18.9604 22.9648 19.7597 22.9648 21.1082V25.9088C22.9648 27.2569 24.4772 28.0567 25.5917 27.2968L29.1119 24.8966C30.0892 24.2302 30.089 22.7866 29.1119 22.1203ZM28.1875 23.5411L24.6674 25.9415C24.6568 25.9486 24.6477 25.9549 24.6266 25.9438C24.6056 25.9326 24.6056 25.9216 24.6056 25.9088V21.1082C24.6056 21.0954 24.6056 21.0843 24.6266 21.0732C24.6349 21.0688 24.6414 21.0671 24.6468 21.0671C24.6551 21.0671 24.661 21.0711 24.6674 21.0755L28.1875 23.4757C28.1948 23.4808 28.2048 23.4875 28.2048 23.5084C28.2048 23.5294 28.1948 23.5362 28.1875 23.5411Z" fill="#10D1E3"/>
<path id="Vector_4" d="M25.8598 15.8301C21.625 15.8301 18.1797 19.2754 18.1797 23.5101C18.1797 27.7447 21.625 31.19 25.8598 31.19C30.0946 31.19 33.5398 27.7448 33.5398 23.5101C33.5398 19.2753 30.0946 15.8301 25.8598 15.8301ZM25.8598 29.5495C22.5296 29.5495 19.8203 26.8403 19.8203 23.5102C19.8203 20.18 22.5296 17.4708 25.8598 17.4708C29.1898 17.4708 31.8991 20.1801 31.8991 23.5102C31.8991 26.8402 29.1898 29.5495 25.8598 29.5495Z" fill="#10D1E3"/>
<path id="Vector_5" d="M45.927 33.6166C44.885 32.9061 43.4746 33.6568 43.4746 34.9127V39.0908C43.4746 40.3571 44.8936 41.0915 45.9271 40.3868L48.9907 38.2978C49.9033 37.6756 49.9031 36.3278 48.9908 35.7057L45.927 33.6166ZM45.1152 38.9547V35.0488L47.9793 37.0018L45.1152 38.9547Z" fill="#10D1E3"/>
<path id="Vector_6" d="M46.0991 43.7919C48.9537 43.7919 51.5215 41.9879 52.4888 39.3028C52.6424 38.8766 52.4215 38.4066 51.9951 38.2531C51.569 38.0997 51.0989 38.3205 50.9453 38.7468C50.2116 40.7831 48.264 42.1513 46.099 42.1513C43.2593 42.1513 40.9491 39.841 40.9491 37.0014C40.9491 34.1618 43.2593 31.8515 46.099 31.8515C48.355 31.8515 50.3281 33.2954 51.0091 35.4445C51.1458 35.8765 51.6072 36.1157 52.0388 35.9788C52.4707 35.842 52.7099 35.381 52.5731 34.9491C51.6753 32.115 49.0736 30.2109 46.0991 30.2109C42.3549 30.2109 39.3086 33.2573 39.3086 37.0015C39.3086 40.7457 42.3549 43.7919 46.0991 43.7919Z" fill="#10D1E3"/>
</g>
</g>
</svg>
