<svg width="56" height="57" viewBox="0 0 56 57" fill="none" xmlns="http://www.w3.org/2000/svg">
<g id="digital 1" clip-path="url(#clip0_1556_46018)">
<path id="Vector" d="M54.2093 38.9509L50.2871 45.7445C50.0537 46.1485 49.5582 46.3192 49.1256 46.1445L43.352 43.8138C42.8725 43.6203 42.6406 43.0747 42.8342 42.5951C43.0278 42.1153 43.5733 41.8835 44.053 42.0773L49.072 44.1034L52.1805 38.7192L47.9217 35.3899C47.616 35.1509 47.4894 34.7483 47.6033 34.3773C48.7829 30.5373 48.828 26.3049 47.6033 22.3182C47.4894 21.9473 47.616 21.5447 47.9217 21.3057L52.1805 17.9764L49.072 12.5922L44.053 14.6182C43.6931 14.7637 43.2811 14.6718 43.0168 14.3877C40.198 11.3568 36.5892 9.27135 32.5808 8.35675C32.2022 8.27037 31.9161 7.95915 31.8619 7.57442L31.1079 2.22039H24.8908L24.1368 7.57418C24.0826 7.9588 23.7966 8.27002 23.4179 8.35652C19.4094 9.27112 15.8008 11.3566 12.982 14.3874C12.7177 14.6716 12.3057 14.7635 11.9458 14.618L6.92673 12.5919L3.81811 17.9762L8.07694 21.3054C8.38267 21.5444 8.50919 21.9471 8.39531 22.318C7.21572 26.158 7.17066 30.3904 8.39531 34.3771C8.50919 34.748 8.38267 35.1507 8.07694 35.3897L3.81811 38.7189L6.92673 44.1031L11.9458 42.0771C12.3057 41.9316 12.7178 42.0235 12.982 42.3077C15.8008 45.3386 19.4096 47.424 23.4179 48.3386C23.7966 48.4249 24.0826 48.7362 24.1368 49.1209L24.8908 54.4747H31.1079L31.8619 49.1209C31.9161 48.7363 32.2022 48.4251 32.5808 48.3386C34.7757 47.8378 36.862 46.9806 38.7816 45.7912C39.2216 45.519 39.7985 45.6546 40.0707 46.094C40.3431 46.5336 40.2075 47.1109 39.768 47.3832C37.8569 48.5674 35.7941 49.4498 33.6279 50.0109L32.849 55.5417C32.7839 56.0037 32.3884 56.3474 31.9218 56.3474H24.0772C23.6106 56.3474 23.2151 56.0037 23.15 55.5417L22.371 50.0109C18.4549 48.9975 14.9123 46.9503 12.0586 44.0511L6.87336 46.1442C6.44064 46.319 5.9453 46.1483 5.71191 45.7441L1.78959 38.9505C1.5562 38.5464 1.65616 38.0321 2.0238 37.7446L6.42414 34.3046C5.35364 30.4201 5.3534 26.2754 6.42414 22.39L2.0238 18.95C1.65616 18.6625 1.5562 18.1482 1.78959 17.7441L5.71191 10.9505C5.9453 10.5463 6.44052 10.3757 6.87336 10.5504L12.0586 12.6436C14.9123 9.74433 18.4549 7.69708 22.371 6.6837L23.15 1.15293C23.215 0.69142 23.6104 0.347656 24.0771 0.347656H31.9216C32.3883 0.347656 32.7838 0.69142 32.8489 1.1534L33.6278 6.68417C37.5439 7.69755 41.0866 9.7448 43.9403 12.644L49.1256 10.5509C49.5583 10.3764 50.0538 10.5467 50.2871 10.951L54.2093 17.7445C54.4427 18.1487 54.3427 18.663 53.9751 18.9505L49.5747 22.3904C50.6452 26.275 50.6455 30.4197 49.5747 34.3051L53.9751 37.7451C54.3427 38.0324 54.4427 38.5466 54.2093 38.9509ZM26.4655 32.802L31.1474 24.8429C31.4096 24.3971 31.2608 23.8232 30.8151 23.561C30.3695 23.2989 29.7955 23.4476 29.5332 23.8933L24.8514 31.8524C24.5892 32.2982 24.738 32.8721 25.1837 33.1343C25.6296 33.3965 26.2035 33.2476 26.4655 32.802ZM22.8092 24.758C22.4436 24.3926 21.8508 24.3925 21.485 24.758L18.5575 27.6856C18.192 28.0511 18.1918 28.6441 18.5575 29.0098L21.485 31.9374C21.8508 32.303 22.4435 32.3029 22.8092 31.9374C23.1749 31.5716 23.1749 30.9788 22.8092 30.6131L20.5437 28.3478L22.8092 26.0825C23.1749 25.7166 23.1749 25.1238 22.8092 24.758ZM33.7347 32.2116C33.9743 32.2116 34.214 32.1202 34.3968 31.9374L37.3244 29.0097C37.6898 28.6442 37.69 28.0512 37.3244 27.6855L34.3968 24.7579C34.0312 24.3924 33.4383 24.3924 33.0727 24.7579C32.7069 25.1237 32.7069 25.7165 33.0727 26.0822L35.3381 28.3475L33.0727 30.6129C32.4808 31.205 32.908 32.2116 33.7347 32.2116ZM22.5196 43.2929C24.3069 43.9483 26.1599 44.2745 28.0084 44.2744C39.5755 44.2738 47.3278 32.1959 42.4418 21.654C38.751 13.6906 29.2695 10.2144 21.3057 13.9051C11.1813 18.5974 8.88585 32.0886 16.9832 39.8438C17.3567 40.2016 17.9495 40.1888 18.3071 39.8153C18.6648 39.4419 18.652 38.8491 18.2785 38.4914C11.1386 31.6529 13.1552 19.7466 22.0931 15.6042C29.1201 12.3477 37.486 15.4147 40.7426 22.4415C43.9993 29.4681 40.9321 37.8343 33.9053 41.091C30.5013 42.6686 26.6866 42.8262 23.1639 41.5347C22.6785 41.3569 22.1405 41.6061 21.9624 42.0915C21.7847 42.5771 22.034 43.115 22.5196 43.2929Z" fill="white"/>
</g>
<defs>
<clipPath id="clip0_1556_46018">
<rect width="56" height="56" fill="white" transform="translate(0 0.347656)"/>
</clipPath>
</defs>
</svg>
