<svg width="56" height="57" viewBox="0 0 56 57" fill="none" xmlns="http://www.w3.org/2000/svg">
<g id="code (1) 2">
<path id="Vector" d="M22.0956 39.5906C21.884 39.5906 21.671 39.5179 21.4971 39.3698L15.5145 34.2756C15.3081 34.0997 15.1895 33.8428 15.1895 33.5714C15.1895 33.3005 15.3086 33.0436 15.5145 32.8677L21.4971 27.7735C21.8856 27.4423 22.4691 27.4892 22.8003 27.8777C23.131 28.2667 23.0846 28.8502 22.6956 29.1809L17.54 33.5714L22.6956 37.9619C23.0846 38.2931 23.131 38.8766 22.8003 39.2651C22.6172 39.4802 22.3571 39.5906 22.0956 39.5906Z" fill="#10D1E3"/>
<path id="Vector_2" d="M33.9055 39.5906C33.6439 39.5906 33.3839 39.4802 33.2012 39.2651C32.87 38.8766 32.917 38.2931 33.3054 37.9619L38.461 33.5714L33.3054 29.1809C32.917 28.8502 32.87 28.2667 33.2012 27.8777C33.5319 27.4892 34.116 27.4423 34.5039 27.7735L40.4865 32.8677C40.6929 33.0436 40.8116 33.3005 40.8116 33.5714C40.8116 33.8428 40.6929 34.0997 40.4865 34.2756L34.5039 39.3698C34.3301 39.5179 34.117 39.5906 33.9055 39.5906Z" fill="#10D1E3"/>
<path id="Vector_3" d="M25.883 43.4116C25.8196 43.4116 25.7556 43.4049 25.6911 43.3915C25.1917 43.2862 24.8718 42.7956 24.9771 42.2962L28.7056 24.5934C28.8109 24.094 29.301 23.7742 29.8009 23.8794C30.3004 23.9847 30.6202 24.4748 30.515 24.9747L26.7864 42.6774C26.6946 43.1129 26.3107 43.4116 25.883 43.4116Z" fill="#10D1E3"/>
<path id="Vector_4" d="M49.7925 53.058H6.20755C2.78494 53.058 0 50.2736 0 46.8504V9.85794C0 6.43533 2.78494 3.65039 6.20755 3.65039H49.7925C53.2151 3.65039 56 6.43533 56 9.85794V46.8504C56 50.2736 53.2151 53.058 49.7925 53.058ZM6.20755 5.49945C3.80439 5.49945 1.84906 7.45478 1.84906 9.85794V46.8504C1.84906 49.2536 3.80439 51.2089 6.20755 51.2089H49.7925C52.1956 51.2089 54.1509 49.2536 54.1509 46.8504V9.85794C54.1509 7.45478 52.1956 5.49945 49.7925 5.49945H6.20755Z" fill="#10D1E3"/>
<path id="Vector_5" d="M55.0755 18.4545H0.924528C0.413768 18.4545 0 18.0408 0 17.53C0 17.0198 0.413768 16.6055 0.924528 16.6055H55.0755C55.5862 16.6055 56 17.0198 56 17.53C56 18.0408 55.5862 18.4545 55.0755 18.4545Z" fill="#10D1E3"/>
<path id="Vector_6" d="M15.7969 14.0293C14.1841 14.0293 12.8711 12.7163 12.8711 11.1035C12.8711 9.49023 14.1841 8.17773 15.7969 8.17773C17.4102 8.17773 18.7227 9.49023 18.7227 11.1035C18.7227 12.7163 17.4102 14.0293 15.7969 14.0293ZM15.7969 10.0268C15.2036 10.0268 14.7201 10.5097 14.7201 11.1035C14.7201 11.6973 15.2036 12.1802 15.7969 12.1802C16.3907 12.1802 16.8736 11.6973 16.8736 11.1035C16.8736 10.5097 16.3907 10.0268 15.7969 10.0268Z" fill="#10D1E3"/>
<path id="Vector_7" d="M6.80664 14.002C5.19336 14.002 3.88086 12.6895 3.88086 11.0762C3.88086 9.46289 5.19336 8.15039 6.80664 8.15039C8.41992 8.15039 9.73242 9.46289 9.73242 11.0762C9.73242 12.6895 8.41992 14.002 6.80664 14.002ZM6.80664 9.99945C6.21333 9.99945 5.72991 10.4829 5.72991 11.0762C5.72991 11.67 6.21333 12.1529 6.80664 12.1529C7.40046 12.1529 7.88336 11.67 7.88336 11.0762C7.88336 10.4829 7.40046 9.99945 6.80664 9.99945Z" fill="#10D1E3"/>
<path id="Vector_8" d="M24.7866 14.0581C23.1738 14.0581 21.8613 12.7456 21.8613 11.1323C21.8613 9.51953 23.1738 8.20703 24.7866 8.20703C26.3999 8.20703 27.7124 9.51953 27.7124 11.1323C27.7124 12.7456 26.3999 14.0581 24.7866 14.0581ZM24.7866 10.0556C24.1933 10.0556 23.7104 10.5385 23.7104 11.1323C23.7104 11.7261 24.1933 12.209 24.7866 12.209C25.3804 12.209 25.8633 11.7261 25.8633 11.1323C25.8633 10.5385 25.3804 10.0556 24.7866 10.0556Z" fill="#10D1E3"/>
</g>
</svg>
