<svg width="56" height="57" viewBox="0 0 56 57" fill="none" xmlns="http://www.w3.org/2000/svg">
<g id="database (1) 3">
<g id="database">
<path id="Vector" d="M5.25 47.5977H7C7 47.1335 7.18437 46.6884 7.51256 46.3602C7.84075 46.032 8.28587 45.8477 8.75 45.8477V44.0977C7.82174 44.0977 6.9315 44.4664 6.27513 45.1228C5.61875 45.7792 5.25 46.6694 5.25 47.5977Z" fill="#10D1E3"/>
<path id="Vector_2" d="M11.375 37.9727C11.3737 38.8145 11.5487 39.6473 11.8886 40.4174L13.4908 39.7174C13.2486 39.1677 13.124 38.5734 13.125 37.9727C13.1264 36.8128 13.5878 35.7008 14.408 34.8806C15.2281 34.0604 16.3401 33.599 17.5 33.5977V31.8477C15.8761 31.8495 14.3193 32.4954 13.171 33.6437C12.0228 34.7919 11.3769 36.3488 11.375 37.9727Z" fill="#10D1E3"/>
<path id="Vector_3" d="M54.2493 27.4727V23.9727C54.2492 23.7772 54.1836 23.5875 54.0631 23.4337C53.9426 23.2799 53.774 23.1708 53.5843 23.1239L52.4556 22.8439L53.0593 21.8377C53.1574 21.6699 53.1976 21.4746 53.1739 21.2818C53.1502 21.0889 53.0638 20.9092 52.9281 20.7702L50.4518 18.2939C50.3128 18.1582 50.1331 18.0718 49.9402 18.0481C49.7474 18.0244 49.5521 18.0646 49.3843 18.1627L48.3781 18.7664L48.0981 17.6377C48.0512 17.448 47.9421 17.2794 47.7883 17.1589C47.6345 17.0384 47.4448 16.9728 47.2493 16.9727H43.7493C43.5539 16.9728 43.3642 17.0384 43.2104 17.1589C43.0565 17.2794 42.9475 17.448 42.9006 17.6377L42.6206 18.7664L41.6143 18.1627C41.4466 18.0646 41.2513 18.0244 41.0584 18.0481C40.8656 18.0718 40.6859 18.1582 40.5468 18.2939L38.0706 20.7702C37.9348 20.9092 37.8485 21.0889 37.8248 21.2818C37.8011 21.4746 37.8413 21.6699 37.9393 21.8377L38.3243 22.4764C37.5185 22.308 36.6975 22.223 35.8743 22.2227C35.5768 22.2227 35.2881 22.2402 34.9993 22.2577V6.47266H34.7893C33.4943 3.60266 25.8993 2.09766 18.3743 2.09766C10.1143 2.09766 1.74934 3.90016 1.74934 7.34766V33.5977C1.74934 35.7939 4.93434 37.0627 7.88309 37.7627C7.88309 37.8327 7.87434 37.9027 7.87434 37.9727C7.87308 38.8663 7.99678 39.7558 8.24184 40.6152C6.43157 40.7434 4.74184 41.5696 3.52903 42.9196C2.31621 44.2697 1.67511 46.038 1.74094 47.8516C1.80676 49.6652 2.57437 51.3823 3.88186 52.6409C5.18936 53.8995 6.93454 54.601 8.74934 54.5977H47.2493C49.1059 54.5977 50.8863 53.8602 52.1991 52.5474C53.5118 51.2346 54.2493 49.4542 54.2493 47.5977C54.2493 45.7411 53.5118 43.9607 52.1991 42.6479C50.8863 41.3352 49.1059 40.5977 47.2493 40.5977H46.4793C47.5605 38.7377 48.1282 36.624 48.1243 34.4727C48.1243 34.2452 48.1068 34.0264 48.0981 33.8077L48.3781 32.6789L49.3843 33.2827C49.5521 33.3807 49.7474 33.4209 49.9402 33.3972C50.1331 33.3735 50.3128 33.2872 50.4518 33.1514L52.9281 30.6752C53.0638 30.5361 53.1502 30.3564 53.1739 30.1636C53.1976 29.9707 53.1574 29.7754 53.0593 29.6077L52.4556 28.6014L53.5843 28.3214C53.774 28.2745 53.9426 28.1655 54.0631 28.0116C54.1836 27.8578 54.2492 27.6681 54.2493 27.4727ZM18.3743 3.84766C27.9993 3.84766 33.2493 6.15766 33.2493 7.34766C33.2493 8.53766 27.9993 10.8477 18.3743 10.8477C8.74934 10.8477 3.49934 8.53766 3.49934 7.34766C3.49934 6.15766 8.74934 3.84766 18.3743 3.84766ZM3.49934 9.81516C6.37809 11.6439 12.3893 12.5977 18.3743 12.5977C24.3593 12.5977 30.3706 11.6439 33.2493 9.81516V16.0977C33.2493 17.2877 27.9993 19.5977 18.3743 19.5977C8.74934 19.5977 3.49934 17.2877 3.49934 16.0977V9.81516ZM3.49934 18.5652C6.37809 20.3939 12.3893 21.3477 18.3743 21.3477C24.3593 21.3477 30.3706 20.3939 33.2493 18.5652V22.5202C30.1036 23.2224 27.3601 25.1332 25.6106 27.8402C23.2143 28.1872 20.7956 28.3569 18.3743 28.3477C8.74934 28.3477 3.49934 26.0377 3.49934 24.8477V18.5652ZM24.5956 29.7477C24.4219 30.1594 24.27 30.58 24.1406 31.0077C23.7114 30.6074 23.2489 30.2444 22.7581 29.9227C23.3881 29.8702 24.0006 29.8177 24.5956 29.7477ZM8.07559 36.0039C4.74184 35.1814 3.49934 34.1402 3.49934 33.5977V27.3152C5.41559 28.5314 8.70559 29.3627 12.4768 29.7827C11.3591 30.4663 10.3924 31.3706 9.63573 32.4402C8.87903 33.5098 8.34818 34.7224 8.07559 36.0039ZM47.2493 42.3477C48.6417 42.3477 49.9771 42.9008 50.9617 43.8853C51.9462 44.8699 52.4993 46.2053 52.4993 47.5977C52.4993 48.99 51.9462 50.3254 50.9617 51.31C49.9771 52.2945 48.6417 52.8477 47.2493 52.8477H8.74934C7.35695 52.8477 6.02159 52.2945 5.03703 51.31C4.05246 50.3254 3.49934 48.99 3.49934 47.5977C3.49934 46.2053 4.05246 44.8699 5.03703 43.8853C6.02159 42.9008 7.35695 42.3477 8.74934 42.3477H9.48434C9.62975 42.3474 9.77285 42.3113 9.90103 42.2426C10.0292 42.1739 10.1385 42.0748 10.2193 41.9539C10.2968 41.8311 10.3437 41.6915 10.3559 41.5468C10.368 41.4022 10.3452 41.2567 10.2893 41.1227C9.84684 40.1317 9.62016 39.0579 9.62434 37.9727C9.62474 36.3035 10.1555 34.6777 11.1399 33.3298C12.1244 31.9819 13.5117 30.9817 15.1016 30.4735C16.6914 29.9653 18.4017 29.9753 19.9854 30.5023C21.5692 31.0292 22.9446 32.0457 23.9131 33.4052C24.0139 33.5481 24.1557 33.6571 24.3196 33.718C24.4836 33.7789 24.6621 33.7888 24.8318 33.7464C25.0011 33.7045 25.1541 33.613 25.271 33.4836C25.3879 33.3542 25.4635 33.1928 25.4881 33.0202C25.8436 30.5159 27.0889 28.2233 28.9961 26.5619C30.9033 24.9005 33.345 23.9814 35.8743 23.9727C36.1718 23.9727 36.4606 23.9902 36.7493 24.0077V27.4727C36.7495 27.6681 36.8151 27.8578 36.9356 28.0116C37.0561 28.1655 37.2246 28.2745 37.4143 28.3214L38.5431 28.6014L37.9393 29.6077C37.8413 29.7754 37.8011 29.9707 37.8248 30.1636C37.8485 30.3564 37.9348 30.5361 38.0706 30.6752L40.5468 33.1514C40.6859 33.2872 40.8656 33.3735 41.0584 33.3972C41.2513 33.4209 41.4466 33.3807 41.6143 33.2827L42.6206 32.6789L42.9006 33.8077C42.9475 33.9974 43.0565 34.1659 43.2104 34.2864C43.3642 34.4069 43.5539 34.4725 43.7493 34.4727H46.3743C46.3812 36.8168 45.5914 39.0938 44.1343 40.9302C44.0322 41.0594 43.9686 41.2149 43.9509 41.3788C43.9332 41.5426 43.9622 41.7081 44.0344 41.8562C44.1066 42.0043 44.2192 42.129 44.3592 42.216C44.4991 42.3029 44.6608 42.3485 44.8256 42.3477H47.2493ZM52.4993 26.7902L50.8893 27.1927C50.7564 27.2278 50.633 27.2924 50.5285 27.3818C50.4239 27.4712 50.3409 27.583 50.2856 27.7089C50.2349 27.8361 50.214 27.9733 50.2247 28.1098C50.2353 28.2463 50.2771 28.3786 50.3468 28.4964L51.2043 29.9139L49.6906 31.4277L48.2731 30.5702C48.1553 30.5004 48.023 30.4586 47.8865 30.448C47.7499 30.4374 47.6128 30.4582 47.4856 30.5089C47.3597 30.5642 47.2479 30.6473 47.1585 30.7518C47.0691 30.8563 47.0044 30.9797 46.9693 31.1127L46.5668 32.7227H44.4318L44.0293 31.1127C43.9942 30.9797 43.9296 30.8563 43.8402 30.7518C43.7508 30.6473 43.639 30.5642 43.5131 30.5089C43.3859 30.4582 43.2487 30.4374 43.1122 30.448C42.9757 30.4586 42.8434 30.5004 42.7256 30.5702L41.3081 31.4277L39.7943 29.9139L40.6518 28.4964C40.7216 28.3786 40.7634 28.2463 40.774 28.1098C40.7846 27.9733 40.7638 27.8361 40.7131 27.7089C40.6578 27.583 40.5747 27.4712 40.4702 27.3818C40.3657 27.2924 40.2423 27.2278 40.1093 27.1927L38.4993 26.7902V24.6552L40.1093 24.2527C40.2423 24.2176 40.3657 24.1529 40.4702 24.0635C40.5747 23.9741 40.6578 23.8623 40.7131 23.7364C40.7638 23.6092 40.7846 23.4721 40.774 23.3355C40.7634 23.199 40.7216 23.0667 40.6518 22.9489L39.7943 21.5314L41.3081 20.0177L42.7256 20.8752C42.8434 20.9449 42.9757 20.9867 43.1122 20.9973C43.2487 21.008 43.3859 20.9871 43.5131 20.9364C43.639 20.8811 43.7508 20.7981 43.8402 20.6935C43.9296 20.589 43.9942 20.4656 44.0293 20.3327L44.4318 18.7227H46.5668L46.9693 20.3327C47.0044 20.4656 47.0691 20.589 47.1585 20.6935C47.2479 20.7981 47.3597 20.8811 47.4856 20.9364C47.6128 20.9871 47.7499 21.008 47.8865 20.9973C48.023 20.9867 48.1553 20.9449 48.2731 20.8752L49.6906 20.0177L51.2043 21.5314L50.3468 22.9489C50.2771 23.0667 50.2353 23.199 50.2247 23.3355C50.214 23.4721 50.2349 23.6092 50.2856 23.7364C50.3409 23.8623 50.4239 23.9741 50.5285 24.0635C50.633 24.1529 50.7564 24.2176 50.8893 24.2527L52.4993 24.6552V26.7902Z" fill="#10D1E3"/>
<path id="Vector_4" d="M45.5 22.2227C44.8078 22.2227 44.1311 22.4279 43.5555 22.8125C42.9799 23.1971 42.5313 23.7437 42.2664 24.3833C42.0015 25.0228 41.9322 25.7265 42.0673 26.4055C42.2023 27.0844 42.5356 27.708 43.0251 28.1975C43.5146 28.687 44.1383 29.0204 44.8172 29.1554C45.4961 29.2905 46.1999 29.2211 46.8394 28.9562C47.4789 28.6913 48.0256 28.2427 48.4102 27.6672C48.7947 27.0916 49 26.4149 49 25.7227C49 24.7944 48.6313 23.9042 47.9749 23.2478C47.3185 22.5914 46.4283 22.2227 45.5 22.2227ZM45.5 27.4727C45.1539 27.4727 44.8155 27.37 44.5278 27.1777C44.24 26.9854 44.0157 26.7121 43.8832 26.3924C43.7508 26.0726 43.7161 25.7207 43.7836 25.3812C43.8512 25.0418 44.0178 24.73 44.2626 24.4852C44.5073 24.2405 44.8191 24.0738 45.1586 24.0063C45.4981 23.9388 45.8499 23.9734 46.1697 24.1059C46.4895 24.2383 46.7628 24.4626 46.9551 24.7504C47.1474 25.0382 47.25 25.3765 47.25 25.7227C47.25 26.1868 47.0656 26.6319 46.7374 26.9601C46.4093 27.2883 45.9641 27.4727 45.5 27.4727Z" fill="#10D1E3"/>
</g>
</g>
</svg>
