<svg width="57" height="38" viewBox="0 0 57 38" fill="none" xmlns="http://www.w3.org/2000/svg">
<g id="cloud-icon 1" clip-path="url(#clip0_1670_1251)">
<g id="Group">
<path id="Vector" d="M40.0552 14.4526C39.7073 14.6256 39.3548 14.8173 39.0069 15.0184C37.9632 15.6356 36.9334 16.3884 35.8804 17.2534L33.6353 14.663C34.41 13.9383 35.2496 13.279 36.1402 12.6945C36.8499 12.2269 37.5921 11.8108 38.3575 11.4554C38.6636 11.3011 38.9698 11.1561 39.2852 11.0205C37.8055 8.37868 35.6763 6.48496 33.2642 5.316C30.8521 4.15172 28.1524 3.70283 25.5223 3.96001C22.9107 4.2125 20.3734 5.17105 18.2767 6.81227C15.8507 8.70599 14.0091 11.5396 13.2994 15.2943L13.0767 16.4679L11.9171 16.6736C10.7806 16.8747 9.76471 17.1506 8.87409 17.5013C8.01129 17.8379 7.24128 18.2541 6.56867 18.745C6.03058 19.1378 5.56672 19.5773 5.17243 20.0543C3.95246 21.5272 3.38654 23.3741 3.40046 25.2445C3.41437 27.1429 4.02668 29.06 5.15851 30.6357C5.58063 31.2202 6.06769 31.7579 6.62433 32.2255C7.19025 32.6978 7.82575 33.0905 8.5401 33.3851C9.24982 33.6797 10.0338 33.8901 10.9012 34.0117H44.5548C46.1922 33.6142 47.6395 33.0765 48.8687 32.3845C50.0887 31.6971 51.086 30.8602 51.8328 29.8549C52.9925 28.2978 53.563 26.0955 53.5862 23.837C53.6141 21.4664 53.0389 19.0864 51.921 17.3563C51.6009 16.856 51.2484 16.4071 50.8773 16.005C49.2027 14.1861 47.0782 13.3912 44.8702 13.3772C43.2791 13.3631 41.6231 13.7512 40.0552 14.4526ZM42.6714 10.1134C43.4136 9.99653 44.1558 9.93574 44.8934 9.9451C48.0106 9.96847 51.0164 11.0907 53.3821 13.6624C53.8785 14.2001 54.347 14.808 54.7877 15.486C56.272 17.7865 57.0328 20.8585 57.0003 23.8651C56.9678 26.8156 56.1793 29.752 54.565 31.9122C53.512 33.3197 52.1622 34.4699 50.5433 35.3817C48.9847 36.2608 47.1663 36.9294 45.1253 37.4064L44.7449 37.4531H10.8455L10.6321 37.4344C9.39362 37.2754 8.27106 36.9809 7.25055 36.5554C6.19758 36.1158 5.2652 35.55 4.44416 34.858C3.66486 34.2034 2.98298 33.4599 2.40314 32.651C0.853825 30.5001 0.0188638 27.8723 0.000309092 25.2538C-0.0182456 22.6073 0.798161 19.9748 2.56086 17.8426C3.13141 17.1506 3.80402 16.5147 4.57404 15.9536C5.4693 15.2989 6.49445 14.7472 7.65412 14.2936C8.45197 13.9804 9.30548 13.7185 10.2054 13.5081C11.2259 9.4214 13.4014 6.27455 16.1986 4.09093C18.8148 2.04758 21.9644 0.855242 25.2069 0.54196C28.4354 0.228678 31.7567 0.780428 34.7393 2.22527C37.991 3.80103 40.8299 6.42418 42.6714 10.1134Z" fill="#10D1E3"/>
</g>
</g>
<defs>
<clipPath id="clip0_1670_1251">
<rect width="57" height="37" fill="white" transform="translate(0 0.457031)"/>
</clipPath>
</defs>
</svg>
