<svg width="31" height="46" viewBox="0 0 31 46" fill="none" xmlns="http://www.w3.org/2000/svg">
<path id="Vector" d="M26.9045 24.943V20.3691H19.9189V24.943H26.9045ZM19.6356 26.9709C19.6761 26.8981 19.7317 26.8355 19.7984 26.7874C19.8651 26.7394 19.9413 26.7072 20.0214 26.693C20.1016 26.6789 20.1838 26.6832 20.2622 26.7056C20.3405 26.7281 20.4131 26.7681 20.4748 26.8229C20.6052 26.9459 20.6893 27.1125 20.7123 27.2933C20.7352 27.474 20.6956 27.6574 20.6003 27.8109L19.546 29.4873C19.5051 29.5601 19.4492 29.6228 19.3821 29.6709C19.3151 29.7189 19.2387 29.7511 19.1583 29.7653C19.0778 29.7794 18.9954 29.7751 18.9167 29.7526C18.8381 29.7301 18.7652 29.6901 18.7033 29.6353C18.5732 29.5113 18.4894 29.3441 18.4664 29.1629C18.4435 28.9817 18.4829 28.7979 18.5778 28.6435L19.6356 26.9672V26.9709ZM26.0905 27.8479C25.9777 27.7067 25.916 27.5295 25.916 27.3465C25.916 27.1635 25.9777 26.9862 26.0905 26.8451C26.1423 26.78 26.2074 26.7276 26.2812 26.6916C26.355 26.6556 26.4356 26.6369 26.5172 26.6369C26.5988 26.6369 26.6794 26.6556 26.7532 26.6916C26.827 26.7276 26.8921 26.78 26.9439 26.8451L28.2457 28.3771C28.36 28.5182 28.4227 28.6964 28.4227 28.8804C28.4227 29.0644 28.36 29.2425 28.2457 29.3837C28.1938 29.4487 28.1287 29.5012 28.0549 29.5372C27.9811 29.5732 27.9005 29.5918 27.8189 29.5918C27.7373 29.5918 27.6567 29.5732 27.5829 29.5372C27.5091 29.5012 27.444 29.4487 27.3922 29.3837L26.0869 27.8479H26.0905ZM22.6945 27.8109C22.683 27.7226 22.69 27.6327 22.7149 27.5473C22.7398 27.462 22.7822 27.3831 22.839 27.316C22.8959 27.2489 22.966 27.1951 23.0447 27.1583C23.1234 27.1214 23.2088 27.1024 23.2952 27.1024C23.3816 27.1024 23.4669 27.1214 23.5456 27.1583C23.6243 27.1951 23.6944 27.2489 23.7513 27.316C23.8082 27.3831 23.8505 27.462 23.8754 27.5473C23.9003 27.6327 23.9073 27.7226 23.8958 27.8109V29.6945C23.9073 29.7829 23.9003 29.8727 23.8754 29.9581C23.8505 30.0435 23.8082 30.1223 23.7513 30.1894C23.6944 30.2565 23.6243 30.3103 23.5456 30.3471C23.4669 30.384 23.3816 30.403 23.2952 30.403C23.2088 30.403 23.1234 30.384 23.0447 30.3471C22.966 30.3103 22.8959 30.2565 22.839 30.1894C22.7822 30.1223 22.7398 30.0435 22.7149 29.9581C22.69 29.8727 22.683 29.7829 22.6945 29.6945V27.8109ZM3.50217 26.9709C3.54268 26.8981 3.59827 26.8355 3.66496 26.7874C3.73165 26.7394 3.8078 26.7072 3.88797 26.693C3.96813 26.6789 4.05033 26.6832 4.1287 26.7056C4.20706 26.7281 4.27966 26.7681 4.34129 26.8229C4.47172 26.9459 4.55584 27.1125 4.5788 27.2933C4.60177 27.474 4.5621 27.6574 4.4668 27.8109L3.40893 29.491C3.36842 29.5637 3.31283 29.6264 3.24614 29.6744C3.17945 29.7225 3.1033 29.7547 3.02313 29.7688C2.94297 29.783 2.86077 29.7787 2.7824 29.7562C2.70404 29.7338 2.63144 29.6938 2.5698 29.639C2.43848 29.5158 2.35378 29.3485 2.3308 29.1669C2.30781 28.9853 2.34803 28.8011 2.44429 28.6472L3.5201 26.9709H3.50217ZM9.95699 27.8479C9.84419 27.7067 9.78251 27.5295 9.78251 27.3465C9.78251 27.1635 9.84419 26.9862 9.95699 26.8451C10.0088 26.78 10.0739 26.7276 10.1477 26.6916C10.2215 26.6556 10.3021 26.6369 10.3837 26.6369C10.4653 26.6369 10.5459 26.6556 10.6197 26.6916C10.6935 26.7276 10.7587 26.78 10.8105 26.8451L12.1122 28.3771C12.2266 28.5182 12.2892 28.6964 12.2892 28.8804C12.2892 29.0644 12.2266 29.2425 12.1122 29.3837C12.0604 29.4487 11.9952 29.5012 11.9215 29.5372C11.8477 29.5732 11.7671 29.5918 11.6854 29.5918C11.6038 29.5918 11.5232 29.5732 11.4494 29.5372C11.3757 29.5012 11.3105 29.4487 11.2587 29.3837L9.9534 27.8479H9.95699ZM6.56104 27.8109C6.55369 27.7228 6.56343 27.6341 6.58967 27.5499C6.61591 27.4657 6.65813 27.3877 6.71388 27.3206C6.76963 27.2534 6.83777 27.1983 6.91435 27.1586C6.99093 27.1189 7.0744 27.0954 7.1599 27.0893C7.24554 27.0954 7.32916 27.1189 7.40592 27.1586C7.48268 27.1983 7.55106 27.2532 7.60709 27.3203C7.66312 27.3875 7.70569 27.4654 7.73234 27.5496C7.75899 27.6338 7.76919 27.7226 7.76235 27.8109V29.6945C7.7716 29.8667 7.71651 30.0359 7.60843 30.1674C7.50035 30.2989 7.34752 30.3826 7.18142 30.4013C7.09676 30.3966 7.01384 30.3746 6.93746 30.3367C6.86107 30.2987 6.79273 30.2455 6.73639 30.1801C6.68004 30.1147 6.6368 30.0385 6.60916 29.9558C6.58153 29.8731 6.57005 29.7855 6.57538 29.6982V27.8146L6.56104 27.8109ZM20.9051 39.5639C20.6828 39.1939 20.2668 38.7054 20.2668 38.2798C20.2717 38.1411 20.3171 38.0071 20.3971 37.8955C20.4771 37.7839 20.5879 37.6999 20.715 37.6544C20.6935 37.2844 20.6792 36.9143 20.6792 36.5665C20.6792 36.3518 20.6792 36.1372 20.6792 35.9263C20.692 35.7912 20.716 35.6575 20.7509 35.5266C20.9129 34.9827 21.2658 34.5208 21.7406 34.2314C21.91 34.1227 22.0904 34.0334 22.2785 33.965C22.6192 33.8391 22.4542 33.2471 22.8272 33.2248C23.6986 33.2026 25.1294 34.0242 25.696 34.6496C26.0518 35.0565 26.2541 35.5818 26.2662 36.1298L26.2303 37.7025C26.3113 37.7224 26.3864 37.7625 26.4489 37.8193C26.5114 37.8761 26.5595 37.9478 26.5889 38.0282C26.7073 38.5241 26.2088 39.1384 25.9757 39.538C25.7426 39.9377 24.9429 41.0812 24.9429 41.0923C24.9482 41.1589 24.9733 41.2222 25.0147 41.2736C26.2877 43.0758 30.0351 41.9397 30.0351 45.5255H16.8421C16.8421 41.9397 20.5788 43.0758 21.8625 41.2736C21.9271 41.1811 21.9558 41.1293 21.9522 41.0849C21.9486 41.0405 21.0127 39.6897 20.9302 39.5528L20.9051 39.5639ZM4.76803 39.5639C4.5457 39.1939 4.12972 38.7054 4.12972 38.2798C4.13461 38.1411 4.18003 38.0071 4.26003 37.8955C4.34002 37.7839 4.45085 37.6999 4.57797 37.6544C4.55646 37.2844 4.54211 36.9143 4.54211 36.5665C4.54211 36.3518 4.54211 36.1372 4.54211 35.9263C4.55493 35.7912 4.57892 35.6575 4.61383 35.5266C4.77582 34.9827 5.12879 34.5208 5.60357 34.2314C5.77296 34.1227 5.95333 34.0334 6.14147 33.965C6.50007 33.8391 6.31719 33.2471 6.69013 33.2248C7.55795 33.2026 8.99235 34.0242 9.55894 34.6496C9.91475 35.0565 10.1171 35.5818 10.1291 36.1298L10.0933 37.7025C10.1743 37.7224 10.2493 37.7625 10.3119 37.8193C10.3744 37.8761 10.4224 37.9478 10.4519 38.0282C10.5702 38.5241 10.0717 39.1384 9.83865 39.538C9.60556 39.9377 8.80588 41.0812 8.80588 41.0923C8.81119 41.1589 8.83623 41.2222 8.8776 41.2736C10.1506 43.0758 13.898 41.9397 13.898 45.5255H0.705078C0.705078 41.9397 4.4417 43.0758 5.7255 41.2736C5.79004 41.1811 5.81873 41.1293 5.81515 41.0849C5.81156 41.0405 4.87561 39.6897 4.79313 39.5528L4.76803 39.5639ZM26.8937 16.4761V11.4766C26.8955 9.9781 26.6103 8.49401 26.0546 7.10958C25.4989 5.72515 24.6836 4.46767 23.6556 3.40936C21.6402 1.34444 18.3124 0.0566406 15.2786 0.0566406C12.2449 0.0566406 8.9278 1.34074 6.91605 3.40936C5.88395 4.4659 5.06434 5.72249 4.50432 7.10694C3.9443 8.49138 3.65491 9.97638 3.65278 11.4766V16.4687H10.6383V11.4766C10.6384 10.9266 10.7435 10.382 10.9478 9.87398C11.1521 9.36598 11.4515 8.90456 11.8289 8.51614C12.564 7.77603 14.1419 7.29125 15.2679 7.29125C16.3939 7.29125 17.9753 7.76123 18.7069 8.51614C19.0857 8.90401 19.3868 9.36509 19.5929 9.87305C19.799 10.381 19.9061 10.9259 19.9082 11.4766V16.4687L26.8937 16.4761ZM3.65278 20.3691V24.9763H10.6383V20.3691H3.65278Z" fill="white"/>
</svg>
