<svg width="15" height="15" viewBox="0 0 15 15" fill="none" xmlns="http://www.w3.org/2000/svg">
<path d="M6.9461 7.50242H8.05455C8.21691 7.50242 8.36584 7.58301 8.47205 7.71435C8.57948 7.84568 8.6454 8.02626 8.6454 8.22476V11.0813C8.6454 11.2798 8.57948 11.4603 8.47205 11.5917C8.36462 11.723 8.21691 11.8036 8.05455 11.8036H6.9461C6.78374 11.8036 6.63603 11.723 6.5286 11.5917C6.42118 11.4603 6.35526 11.2798 6.35526 11.0813V8.22625C6.35526 8.02776 6.42118 7.84568 6.5286 7.71584C6.63603 7.58451 6.78374 7.50242 6.9461 7.50242ZM0.850867 2.08343H4.69625V0.737258C4.69625 0.534288 4.76339 0.35072 4.87326 0.216402C4.98191 0.0820834 5.13328 0 5.2993 0H9.70135C9.86737 0 10.0175 0.0820834 10.1274 0.216402C10.236 0.349228 10.3044 0.534288 10.3044 0.737258V2.08492H14.1498C14.3842 2.08492 14.5966 2.20133 14.7516 2.39087C14.9054 2.57891 15.0019 2.84009 15.0019 3.12663V13.9646C15.0019 14.2512 14.9067 14.5109 14.7516 14.7004C14.5978 14.8884 14.3842 15.0063 14.1498 15.0063H0.850867C0.616482 15.0063 0.40407 14.8899 0.249034 14.7004C0.095219 14.5094 0 14.2497 0 13.9631V3.12514C0 2.83859 0.095219 2.57891 0.250255 2.38937C0.40407 2.20133 0.616482 2.08343 0.850867 2.08343ZM9.70135 0.64622H5.2993C5.27855 0.64622 5.26024 0.656667 5.24681 0.673084C5.23338 0.689501 5.22484 0.711887 5.22484 0.737258V2.06999H9.77582V0.737258C9.77582 0.711887 9.76727 0.689501 9.75384 0.673084C9.74041 0.655175 9.7221 0.64622 9.70135 0.64622ZM0.527367 8.30236C2.47203 8.98589 3.91008 9.2799 5.85597 9.39034V10.0366C3.9113 9.92761 2.47325 9.64107 0.527367 8.97097V13.9616C0.527367 14.0706 0.563989 14.1691 0.622586 14.2407C0.681182 14.3124 0.761752 14.3571 0.850867 14.3571H14.1486C14.2377 14.3571 14.3182 14.3124 14.3768 14.2407C14.4354 14.1691 14.4721 14.0706 14.4721 13.9616V8.97246C12.5298 9.64107 11.1785 9.92761 9.23746 10.0366V9.39034C11.1797 9.27841 12.5311 8.9844 14.4721 8.30236V3.12514C14.4721 3.01619 14.4354 2.91769 14.3768 2.84606C14.3182 2.77442 14.2377 2.72965 14.1486 2.72965H0.850867C0.761752 2.72965 0.681182 2.77442 0.622586 2.84606C0.563989 2.91769 0.527367 3.01619 0.527367 3.12514V8.30236ZM8.05455 8.14864H6.9461C6.92901 8.14864 6.91314 8.1576 6.90216 8.17103C6.89117 8.18446 6.88384 8.20386 6.88384 8.22476V11.0813C6.88384 11.1022 6.89117 11.1216 6.90216 11.135C6.91314 11.1499 6.92901 11.1574 6.9461 11.1574H8.05455C8.07164 11.1574 8.08751 11.1484 8.0985 11.135C8.10948 11.1216 8.11681 11.1022 8.11681 11.0813V8.22625C8.11681 8.20535 8.10948 8.18595 8.0985 8.17252C8.08751 8.1576 8.07164 8.14864 8.05455 8.14864Z" fill="white"/>
</svg>
