<svg width="17" height="15" viewBox="0 0 17 15" fill="none" xmlns="http://www.w3.org/2000/svg">
<path d="M7.60469 7.16773C7.53821 7.20674 7.4621 7.21525 7.39287 7.1974C7.32364 7.1794 7.26127 7.13489 7.22212 7.06855C7.18311 7.00206 7.17459 6.92568 7.19259 6.85659C7.21045 6.78749 7.25482 6.72499 7.32117 6.68598L12.2764 3.72488L12.7153 2.35656C12.7262 2.32263 12.7428 2.29214 12.7638 2.26604C12.7858 2.23884 12.8124 2.21631 12.842 2.19914L15.3687 0.739745C15.4357 0.701007 15.5124 0.69304 15.5815 0.711584C15.6509 0.730129 15.7131 0.775186 15.7518 0.842221C15.7713 0.876014 15.783 0.911866 15.7874 0.947994C15.7919 0.985083 15.7891 1.02245 15.7792 1.05789L15.5546 2.1979L16.6944 2.60836C16.7671 2.63446 16.8226 2.68776 16.853 2.75246C16.8835 2.81716 16.8892 2.89367 16.8631 2.96634C16.8516 2.99834 16.835 3.02678 16.8145 3.05123C16.8009 3.06744 16.7855 3.08214 16.7688 3.09464L16.7703 3.09697L16.7398 3.11456L14.2128 4.57354C14.1765 4.59442 14.1373 4.60637 14.0981 4.61008C14.0573 4.61379 14.0165 4.60857 13.9787 4.5951L12.5578 4.20773L7.60497 7.16759L7.60469 7.16773ZM8.91793 0.242886C9.55779 0.414458 10.1537 0.668314 10.6971 0.990166C11.2587 1.32273 11.7645 1.72783 12.205 2.18966C12.2251 2.21054 12.2241 2.24378 12.2031 2.2637C12.2017 2.26507 12.2002 2.26645 12.1987 2.26755L11.8042 2.56591C11.7822 2.58253 11.751 2.5791 11.7331 2.55849C11.333 2.14666 10.8756 1.78539 10.3691 1.4884C9.87826 1.20048 9.34061 0.972995 8.76366 0.818319C7.91487 0.590976 7.0603 0.542897 6.24022 0.650868C5.38827 0.763097 4.57354 1.04374 3.84096 1.46669C3.10824 1.88979 2.4578 2.45505 1.93471 3.13667C1.43112 3.79288 1.04553 4.55692 0.818182 5.40571C0.590838 6.25451 0.54276 7.10907 0.650731 7.92902C0.76296 8.7807 1.0436 9.5957 1.46669 10.3283L1.46807 10.331C1.89089 11.0625 2.4556 11.7121 3.13654 12.2347C3.7926 12.7383 4.55664 13.124 5.4053 13.3513C6.25396 13.5787 7.10852 13.6268 7.92847 13.5188C8.78015 13.4066 9.59501 13.1259 10.3277 12.7028C11.0604 12.2799 11.711 11.7145 12.2341 11.033C12.7377 10.3768 13.1234 9.61259 13.3506 8.76407C13.5022 8.19881 13.5741 7.6312 13.5733 7.07322C13.5726 6.49751 13.4945 5.931 13.3462 5.38717C13.3391 5.36107 13.3531 5.33428 13.3777 5.32453L13.8296 5.12424C13.8562 5.11257 13.8872 5.12466 13.8987 5.15103C13.9001 5.15405 13.9012 5.15707 13.9018 5.1601C14.0726 5.763 14.1645 6.39283 14.1688 7.03462C14.1729 7.65648 14.0946 8.28892 13.9261 8.91793C13.6777 9.84447 13.2567 10.6787 12.7068 11.3952C12.1356 12.1396 11.4254 12.7568 10.6258 13.2186L10.6229 13.2203C9.82387 13.681 8.93524 13.9869 8.00622 14.1092C7.11058 14.2272 6.17758 14.1748 5.25131 13.9266C4.3249 13.6784 3.49081 13.2574 2.77416 12.7075C2.03004 12.1363 1.41271 11.4261 0.950879 10.6264C0.489186 9.82634 0.182719 8.93675 0.0601872 8.00635C-0.0576743 7.11072 -0.0053372 6.17772 0.242886 5.25145C0.491109 4.3249 0.912279 3.49067 1.46202 2.77416C2.0332 2.02976 2.74339 1.41243 3.54301 0.950741C4.3429 0.489049 5.23249 0.182719 6.16274 0.0601872C7.05838 -0.0576743 7.99152 -0.0053372 8.91793 0.242886ZM7.66898 4.99677C7.75923 5.02204 7.84687 5.05268 7.93163 5.08853C8.01872 5.12534 8.10251 5.16738 8.18246 5.21422C8.20732 5.22878 8.2157 5.26079 8.20114 5.28579C8.19757 5.29197 8.1929 5.29705 8.18754 5.30104L7.7525 5.63017C7.73629 5.6424 7.71527 5.64377 7.6981 5.63553C7.66747 5.62248 7.63642 5.61053 7.60552 5.59967C7.57447 5.58868 7.54219 5.57866 7.50881 5.56918L7.49356 5.56574L7.49164 5.56519C7.28572 5.51011 7.07844 5.49843 6.8798 5.52453C6.67334 5.55173 6.4758 5.61987 6.29819 5.72234C6.12057 5.82496 5.96274 5.96205 5.83595 6.1273C5.71383 6.28637 5.62028 6.47168 5.56506 6.67746C5.50997 6.88337 5.4983 7.09066 5.5244 7.28943C5.5516 7.4959 5.61959 7.69343 5.72221 7.87118C5.82482 8.0488 5.96191 8.2065 6.12703 8.33329C6.28624 8.45555 6.47155 8.54896 6.67719 8.60418C6.6798 8.60487 6.68254 8.60583 6.68488 8.60693C6.88805 8.66022 7.09259 8.67108 7.28875 8.64511C7.49521 8.61778 7.69288 8.54964 7.87064 8.44703C8.04867 8.34428 8.2065 8.20705 8.33329 8.04221L8.33315 8.04207C8.45541 7.88314 8.54882 7.6981 8.60418 7.49274L8.61325 7.45661C8.6175 7.43999 8.62932 7.42707 8.64429 7.42103L9.17412 7.18627C9.20063 7.17459 9.23154 7.18668 9.24335 7.21306C9.24692 7.22144 9.2483 7.23023 9.24747 7.23874C9.24266 7.30633 9.23428 7.37446 9.22288 7.44273C9.21134 7.51046 9.19678 7.57804 9.17879 7.64521L9.17865 7.64549L9.17838 7.64686L9.17769 7.6492C9.10159 7.93176 8.97301 8.18631 8.80515 8.40499C8.63042 8.63289 8.4131 8.82177 8.16859 8.96312L8.1657 8.96477C7.92174 9.10502 7.65057 9.19816 7.36705 9.23552C7.0952 9.27124 6.81208 9.25571 6.53116 9.18153C6.52842 9.18126 6.52567 9.18071 6.52306 9.18002C6.23953 9.10406 5.98389 8.97507 5.76452 8.80666C5.53662 8.63179 5.34747 8.41434 5.20612 8.16914C5.06476 7.92421 4.97081 7.65167 4.93344 7.36705C4.89731 7.09259 4.91325 6.80686 4.98921 6.52333C5.06518 6.23981 5.19416 5.9843 5.36258 5.76493C5.53745 5.5369 5.75504 5.34788 5.99996 5.20653L6.00285 5.20488C6.24695 5.06449 6.51839 4.97122 6.80219 4.93385C7.07651 4.89773 7.36224 4.91366 7.64563 4.98962L7.64796 4.99031C7.65153 4.99127 7.65483 4.99223 7.65758 4.9932C7.6617 4.99416 7.66555 4.99539 7.66898 4.99677ZM8.28947 2.58761C8.66201 2.68748 9.01202 2.82979 9.33539 3.0081C9.66878 3.19189 9.97373 3.41388 10.2465 3.66664C10.2677 3.68642 10.2689 3.71952 10.2493 3.74068C10.2471 3.74288 10.245 3.74494 10.2426 3.74672L9.84392 4.04824C9.82263 4.06432 9.7931 4.06171 9.77496 4.04316C9.54405 3.83848 9.28772 3.65867 9.00928 3.50894C8.73798 3.36319 8.44579 3.24615 8.13548 3.16305C7.60428 3.02073 7.06937 2.99065 6.55617 3.05824C6.02332 3.12843 5.51341 3.30399 5.05487 3.56869L5.05213 3.57007C4.59483 3.8345 4.18877 4.18781 3.86184 4.61365C3.54672 5.02424 3.30536 5.50255 3.16318 6.03362C3.02087 6.56482 2.99079 7.09959 3.05824 7.61266C3.12843 8.14578 3.30412 8.65583 3.56869 9.11422C3.8334 9.57262 4.18712 9.97978 4.61365 10.307C5.02438 10.6222 5.50256 10.8636 6.03362 11.0059C6.56468 11.1484 7.09959 11.1784 7.61252 11.1109C8.14565 11.0405 8.65569 10.865 9.11423 10.6003C9.57276 10.3354 9.97978 9.9817 10.3071 9.55531C10.6221 9.14472 10.8636 8.66654 11.0058 8.13548C11.0839 7.84385 11.1283 7.55153 11.1411 7.26265C11.1544 6.96524 11.1344 6.67087 11.0839 6.38391C11.0797 6.35904 11.0936 6.33528 11.1159 6.32621L11.5757 6.12249C11.6021 6.11082 11.6331 6.12291 11.6448 6.14928C11.647 6.15409 11.6481 6.1589 11.6488 6.1637C11.7189 6.5096 11.75 6.86607 11.7386 7.22707C11.7276 7.57914 11.6763 7.93534 11.5813 8.28961C11.4182 8.89856 11.1414 9.44679 10.7799 9.91782C10.4047 10.4069 9.93774 10.8126 9.4119 11.1162L9.41204 11.1164C8.88633 11.4198 8.30142 11.6213 7.69 11.7018C7.10124 11.7793 6.48803 11.745 5.87935 11.5819C5.2704 11.4187 4.72217 11.1418 4.251 10.7804C3.76183 10.4049 3.35605 9.93816 3.0526 9.41259L3.05096 9.40956C2.74833 8.88468 2.5475 8.30087 2.46714 7.69055C2.38967 7.10179 2.42401 6.48858 2.5872 5.87977C2.75039 5.27095 3.02705 4.72258 3.3886 4.25155C3.76403 3.76224 4.23081 3.35646 4.75651 3.05302L4.7594 3.05137C5.28442 2.74875 5.86809 2.54791 6.47828 2.46769C7.06745 2.39008 7.68079 2.42456 8.28947 2.58761ZM14.9592 2.32565L15.1154 1.53359L13.2153 2.63061L12.8685 3.71238L14.0329 4.02984L15.937 2.93048L15.1392 2.64297C15.0746 2.6199 15.0225 2.57429 14.9904 2.51742C14.9584 2.46124 14.9458 2.39379 14.9592 2.32565Z" fill="white"/>
</svg>
