<svg width="48" height="40" viewBox="0 0 48 40" fill="none" xmlns="http://www.w3.org/2000/svg">
<g id="newspaper-jobs-icon 1" clip-path="url(#clip0_1549_17657)">
<g id="Group">
<path id="Vector" fill-rule="evenodd" clip-rule="evenodd" d="M14.0386 6.86121H41.8645V18.7085H14.0386V6.86121ZM19.1524 9.89531H20.866V13.0412C20.866 13.7005 20.8124 14.2055 20.6977 14.5525C20.5868 14.8956 20.3611 15.1886 20.0207 15.4276C19.6803 15.6667 19.248 15.7862 18.7202 15.7862C18.1618 15.7862 17.7296 15.7052 17.4236 15.5472C17.1176 15.3891 16.8805 15.1578 16.7122 14.8532C16.5439 14.5486 16.4444 14.1747 16.4176 13.7236L18.047 13.4923C18.0509 13.7467 18.07 13.9356 18.1121 14.059C18.1503 14.1824 18.2192 14.2826 18.3148 14.3597C18.3798 14.4098 18.4716 14.433 18.594 14.433C18.7852 14.433 18.9268 14.3597 19.0147 14.2094C19.1027 14.059 19.1486 13.8084 19.1486 13.4576V9.89531H19.1524ZM21.673 12.7983C21.673 11.8538 21.9255 11.1174 22.4265 10.5893C22.9314 10.0611 23.6313 9.79893 24.5302 9.79893C25.452 9.79893 26.1596 10.0572 26.6568 10.5738C27.1541 11.0904 27.4027 11.8191 27.4027 12.7482C27.4027 13.4267 27.2956 13.9781 27.0776 14.4137C26.8595 14.8455 26.5459 15.1848 26.1328 15.4238C25.7197 15.6667 25.2072 15.7862 24.5952 15.7862C23.9718 15.7862 23.4554 15.6821 23.0461 15.4739C22.6369 15.2657 22.3041 14.9342 22.0517 14.4831C21.7992 14.0397 21.673 13.473 21.673 12.7983ZM23.3789 12.8022C23.3789 13.3882 23.4822 13.8084 23.6887 14.0629C23.8991 14.3173 24.1821 14.4445 24.5378 14.4445C24.905 14.4445 25.1919 14.3173 25.3908 14.0706C25.5935 13.82 25.693 13.3728 25.693 12.7212C25.693 12.1776 25.5859 11.7767 25.3793 11.5261C25.1689 11.2755 24.8821 11.1483 24.5225 11.1483C24.1783 11.1483 23.8991 11.2755 23.6925 11.53C23.4822 11.7883 23.3789 12.2123 23.3789 12.8022ZM28.2135 9.89531H31.415C31.9466 9.89531 32.3559 10.0341 32.6427 10.3117C32.9296 10.5893 33.0711 10.9324 33.0711 11.341C33.0711 11.6842 32.9679 11.9772 32.7651 12.22C32.6313 12.3858 32.4285 12.513 32.1685 12.6094C32.5662 12.7097 32.8569 12.8793 33.0444 13.126C33.2318 13.3689 33.3236 13.6773 33.3236 14.0436C33.3236 14.3443 33.2585 14.6142 33.1247 14.8532C32.9908 15.0922 32.8072 15.2811 32.5777 15.4238C32.4324 15.5086 32.2182 15.5741 31.9275 15.6127C31.5412 15.6667 31.2887 15.6937 31.1625 15.6937H28.2135V9.89531ZM29.9347 12.1699H30.6806C30.9483 12.1699 31.1319 12.1198 31.239 12.0273C31.3423 11.9309 31.3958 11.7921 31.3958 11.6071C31.3958 11.4374 31.3423 11.3063 31.239 11.21C31.1357 11.1136 30.9521 11.0673 30.6921 11.0673H29.9347V12.1699ZM29.9347 14.4445H30.8068C31.1013 14.4445 31.3079 14.3906 31.4303 14.2788C31.5527 14.1708 31.61 14.0243 31.61 13.8393C31.61 13.6696 31.5527 13.5308 31.4303 13.4267C31.3117 13.3227 31.1013 13.2687 30.7992 13.2687H29.9347V14.4445ZM33.8055 13.7737L35.4272 13.6658C35.4617 13.9395 35.5343 14.1515 35.6414 14.2942C35.8174 14.5294 36.0698 14.645 36.3949 14.645C36.6397 14.645 36.8272 14.5872 36.9572 14.4638C37.0911 14.3443 37.1561 14.2055 37.1561 14.0474C37.1561 13.8971 37.0949 13.7622 36.9687 13.6426C36.8424 13.5231 36.5518 13.4152 36.0966 13.3072C35.3469 13.1337 34.8153 12.8986 34.494 12.6056C34.1727 12.3126 34.012 11.9425 34.012 11.4875C34.012 11.1907 34.0962 10.9093 34.2607 10.6471C34.4251 10.3811 34.6737 10.1729 35.0027 10.0225C35.3316 9.87218 35.7868 9.79508 36.3605 9.79508C37.0681 9.79508 37.6036 9.93387 37.9746 10.2076C38.3456 10.4813 38.5636 10.9208 38.6363 11.5222L37.0299 11.6225C36.9878 11.3603 36.896 11.1676 36.7621 11.048C36.6244 10.9285 36.437 10.8668 36.196 10.8668C35.9972 10.8668 35.848 10.9131 35.7485 10.9979C35.6491 11.0866 35.5994 11.1945 35.5994 11.3218C35.5994 11.4143 35.6414 11.4953 35.7218 11.5685C35.8021 11.6456 35.9895 11.715 36.2917 11.7805C37.0375 11.9502 37.573 12.1198 37.8943 12.2933C38.2156 12.4668 38.4527 12.6788 38.5981 12.9371C38.7434 13.1916 38.8199 13.4769 38.8199 13.7969C38.8199 14.167 38.7205 14.5101 38.5254 14.8262C38.3303 15.1385 38.0549 15.3775 37.703 15.5394C37.3512 15.7014 36.9075 15.7823 36.372 15.7823C35.4311 15.7823 34.7808 15.5934 34.4213 15.2117C34.0579 14.8416 33.8514 14.3597 33.8055 13.7737ZM9.47933 35.8529C9.22306 36.7165 8.85588 37.4143 8.40837 37.9579H42.247H42.2623C43.4824 37.8885 44.3927 37.5608 45.0009 36.9786C45.5976 36.4081 45.9303 35.556 46.003 34.4265V2.03055H9.83887V7.26601V32.8959C9.83887 34.2067 9.85417 34.5884 9.47933 35.8529ZM5.55119 39.4884C5.37907 39.5 5.20312 39.5 5.03101 39.4923C4.33488 39.4499 3.65023 39.234 3.0306 38.8677C1.67277 38.062 0.624756 36.5199 0.529134 34.5036C0.525309 34.4727 0.521484 34.438 0.521484 34.4072V7.26601C0.521484 6.84193 0.861898 6.50267 1.27881 6.50267H8.32422V1.26335C8.32422 0.839265 8.66463 0.5 9.08154 0.5H46.7642C47.1849 0.5 47.5215 0.84312 47.5215 1.26335V34.4457C47.5215 34.4843 47.5177 34.5267 47.5138 34.5652C47.4106 36.0688 46.921 37.2447 46.0451 38.0851C45.173 38.9217 43.9414 39.3882 42.3464 39.4807C42.3158 39.4846 42.2814 39.4884 42.247 39.4884H5.55119ZM5.13045 37.9695C5.1687 37.9617 5.21077 37.9579 5.25285 37.9579H5.52824C5.8304 37.927 6.12492 37.8422 6.40031 37.6957C8.08708 36.8052 8.32039 34.6308 8.32039 32.9075V8.02936H2.03996V34.4033C2.03996 34.411 2.03996 34.4226 2.03996 34.4303C2.11263 35.8799 2.85083 36.9825 3.80322 37.5492C4.21631 37.796 4.66764 37.9386 5.11515 37.9656L5.13045 37.9695ZM14.2145 23.9594C13.7938 23.9594 13.4572 23.6162 13.4572 23.196C13.4572 22.7719 13.7976 22.4327 14.2145 22.4327H25.7886C26.2093 22.4327 26.5459 22.7758 26.5459 23.196C26.5459 23.6201 26.2055 23.9594 25.7886 23.9594H14.2145ZM29.1047 23.9594C28.684 23.9594 28.3436 23.6163 28.3436 23.1922C28.3436 22.7681 28.684 22.425 29.1047 22.425H41.5853C42.006 22.425 42.3464 22.7681 42.3464 23.1922C42.3464 23.6163 42.006 23.9594 41.5853 23.9594H29.1047ZM29.1047 28.3968C28.684 28.3968 28.3436 28.0537 28.3436 27.6296C28.3436 27.2055 28.684 26.8624 29.1047 26.8624H41.5853C42.006 26.8624 42.3464 27.2055 42.3464 27.6296C42.3464 28.0537 42.006 28.3968 41.5853 28.3968H29.1047ZM29.1047 32.8342C28.684 32.8342 28.3436 32.4911 28.3436 32.067C28.3436 31.6429 28.684 31.2998 29.1047 31.2998H41.5853C42.006 31.2998 42.3464 31.6429 42.3464 32.067C42.3464 32.4911 42.006 32.8342 41.5853 32.8342H29.1047ZM14.2145 32.8342C13.7938 32.8342 13.4572 32.4911 13.4572 32.0709C13.4572 31.6468 13.7976 31.3075 14.2145 31.3075H25.7886C26.2093 31.3075 26.5459 31.6507 26.5459 32.0709C26.5459 32.495 26.2055 32.8342 25.7886 32.8342H14.2145ZM14.5817 28.3968C14.161 28.3968 13.8244 28.0537 13.8244 27.6334C13.8244 27.2094 14.1648 26.8701 14.5817 26.8701H26.1558C26.5765 26.8701 26.9131 27.2132 26.9131 27.6334C26.9131 28.0575 26.5727 28.3968 26.1558 28.3968H14.5817Z" fill="white"/>
</g>
</g>
<defs>
<clipPath id="clip0_1549_17657">
<rect width="47" height="39" fill="white" transform="translate(0.521484 0.5)"/>
</clipPath>
</defs>
</svg>
