<svg width="26" height="15" viewBox="0 0 26 15" fill="none" xmlns="http://www.w3.org/2000/svg">
<g id="office-space-icon 1" clip-path="url(#clip0_1549_17646)">
<g id="Layer_x0020_1">
<g id="Vector">
<mask id="path-1-inside-1_1549_17646" fill="white">
<path fill-rule="evenodd" clip-rule="evenodd" d="M6.87782 7.87777C10.7828 7.87777 14.6877 7.87777 18.5927 7.87777C18.6312 7.87777 18.6624 7.90831 18.6624 7.94601V8.92423C18.6624 8.96192 18.6302 8.99294 18.5927 8.99294C16.8031 8.99294 15.014 8.99294 13.2243 8.99294V14.8961C13.2243 14.9458 13.1829 14.9863 13.1322 14.9863H13.1312H13.1293H12.3412H12.3393H12.3383C12.2876 14.9863 12.2462 14.9458 12.2462 14.8961V8.99294H6.87782C6.84027 8.99294 6.80809 8.96192 6.80809 8.92423V7.94601C6.80809 7.90831 6.8393 7.87777 6.87782 7.87777ZM16.4286 6.87044C16.6183 6.87044 16.7724 7.02123 16.7724 7.20733C16.7724 7.39295 16.6183 7.54374 16.4286 7.54374H13.89C13.7222 7.54374 13.5828 7.42636 13.552 7.27127L12.9025 4.74078C12.8562 4.56089 12.9683 4.37813 13.1522 4.33327C13.336 4.28794 13.5228 4.39769 13.5686 4.57759L14.1577 6.87044H16.4286ZM24.5735 13.7829C24.5676 13.7361 24.5462 13.6903 24.5091 13.654C24.2375 13.3863 23.8937 13.1678 23.5027 13.0184C23.2281 12.9135 22.9307 12.8424 22.6186 12.8123L22.6781 11.8971H24.8071C25.0285 11.8971 25.2104 11.7196 25.2104 11.5024C25.2104 9.86761 24.8168 8.63839 25.2104 6.77644C25.3269 6.22482 24.1639 6.14513 24.1639 6.80554V10.9957H20.138C19.9161 10.9957 19.7342 11.2853 19.7342 11.5024V11.8102C19.7342 11.8579 19.7747 11.8971 19.8235 11.8971H21.9593L22.0427 12.8027C21.7116 12.8237 21.3956 12.8901 21.1045 12.9946C20.73 13.1282 20.3969 13.3243 20.1263 13.5662C20.0614 13.624 20.0385 13.7099 20.059 13.7876C19.9542 13.864 19.8869 13.9862 19.8869 14.1241C19.8869 14.356 20.0785 14.544 20.3155 14.544C20.5525 14.544 20.7446 14.356 20.7446 14.1241C20.7446 13.9852 20.6759 13.8626 20.57 13.7857C20.7705 13.633 21.0035 13.5071 21.26 13.4154C21.536 13.3167 21.8393 13.257 22.1602 13.2461L22.2075 13.6998L22.2095 13.7194C22.0281 13.7686 21.8954 13.9313 21.8954 14.1241C21.8954 14.356 22.0876 14.544 22.3245 14.544C22.5615 14.544 22.7537 14.356 22.7537 14.1241C22.7537 13.9322 22.622 13.7709 22.443 13.7204L22.4445 13.6994L22.4777 13.2508C22.7839 13.2709 23.0731 13.3353 23.3364 13.4355H23.3369C23.5938 13.5333 23.8255 13.6655 24.0225 13.8249C23.9435 13.9007 23.8942 14.0067 23.8942 14.1241C23.8942 14.356 24.0864 14.544 24.3233 14.544C24.5603 14.544 24.7525 14.356 24.7525 14.1241C24.7525 13.9838 24.6818 13.8592 24.5735 13.7829ZM21.1386 0.986328C20.2316 0.986328 19.4968 1.70592 19.4968 2.59299C19.4968 3.48055 20.2316 4.20014 21.1386 4.20014C22.0456 4.20014 22.7805 3.48055 22.7805 2.59299C22.7805 1.70592 22.0456 0.986328 21.1386 0.986328ZM20.4559 7.28893L20.4871 9.19431H18.4488C18.0168 9.19431 17.6638 9.54027 17.6638 9.96257V10.7308H17.672V13.7337C17.672 14.1556 18.0251 14.5015 18.4566 14.5015H19.2417V10.9513C19.2417 10.6149 19.371 10.7308 19.7601 10.7308H21.5121V10.7256H22.5186C23.1677 10.7256 23.6992 10.2059 23.6992 9.57081V5.5644C23.6992 4.91782 23.1589 4.38958 22.4986 4.38958H21.9047C20.6681 4.38958 20.8655 5.22274 20.3179 5.7462C19.7781 6.26299 19.9137 6.32264 19.1764 6.32264H17.5857C16.2691 6.32264 16.9772 7.57524 17.7564 7.53659H19.2139C19.8639 7.53659 19.9186 7.63822 20.4559 7.28893ZM9.04193 7.54374C8.85224 7.54374 8.69815 7.39295 8.69815 7.20733C8.69815 7.02123 8.85224 6.87044 9.04193 6.87044H11.3128L11.9019 4.57759C11.9477 4.39769 12.1345 4.28794 12.3183 4.33327C12.5022 4.37813 12.6143 4.56089 12.568 4.74078L11.9185 7.27127C11.8878 7.42636 11.7483 7.54374 11.5805 7.54374H9.04193ZM0.897009 13.7829C0.902861 13.7361 0.924317 13.6903 0.961377 13.654C1.23299 13.3863 1.57677 13.1678 1.96785 13.0184C2.24239 12.9135 2.53984 12.8424 2.85193 12.8123L2.79244 11.8971H0.663433C0.442048 11.8971 0.260162 11.7196 0.260162 11.5024C0.260162 9.86761 0.653681 8.63839 0.260162 6.77644C0.143618 6.22482 1.30662 6.14513 1.30662 6.80554V10.9957H5.33251C5.55438 10.9957 5.73627 11.2853 5.73627 11.5024V11.8102C5.73627 11.8579 5.6958 11.8971 5.64703 11.8971H3.51121L3.42782 12.8027C3.75892 12.8237 4.07491 12.8901 4.36602 12.9946C4.74053 13.1282 5.07358 13.3243 5.34421 13.5662C5.40907 13.624 5.43199 13.7099 5.41151 13.7876C5.51635 13.864 5.58364 13.9862 5.58364 14.1241C5.58364 14.356 5.392 14.544 5.15501 14.544C4.91802 14.544 4.7259 14.356 4.7259 14.1241C4.7259 13.9852 4.79465 13.8621 4.90047 13.7857C4.70005 13.633 4.46696 13.5071 4.21047 13.4154C3.93447 13.3167 3.63116 13.257 3.3103 13.2461L3.263 13.6998L3.26105 13.7194C3.44245 13.7686 3.57509 13.9313 3.57509 14.1241C3.57509 14.356 3.38296 14.544 3.14597 14.544C2.90898 14.544 2.71685 14.356 2.71685 14.1241C2.71685 13.9322 2.84851 13.7705 3.02747 13.7204L3.02601 13.6989L2.99285 13.2508C2.68662 13.2709 2.39745 13.3353 2.13413 13.4355H2.13364C1.87666 13.5333 1.64504 13.6655 1.44803 13.8249C1.52703 13.9007 1.57628 14.0067 1.57628 14.1241C1.57628 14.356 1.38415 14.544 1.14716 14.544C0.910175 14.544 0.718048 14.356 0.718048 14.1241C0.718048 13.9838 0.788755 13.8592 0.897009 13.7829ZM4.33189 0.986328C5.23889 0.986328 5.97375 1.70592 5.97375 2.59299C5.97375 3.48055 5.23889 4.20014 4.33189 4.20014C3.42489 4.20014 2.69003 3.48055 2.69003 2.59299C2.69003 1.70592 3.42489 0.986328 4.33189 0.986328ZM5.01458 7.28893L4.98337 9.19431H7.02167C7.45371 9.19431 7.80676 9.54027 7.80676 9.96257V10.7308H7.79847V13.7337C7.79847 14.1556 7.44542 14.5015 7.01387 14.5015H6.22878V10.9513C6.22878 10.6149 6.09956 10.7308 5.71043 10.7308H3.95836V10.7256H2.95189C2.30285 10.7256 1.77133 10.2059 1.77133 9.57081V5.5644C1.77133 4.91782 2.31163 4.38958 2.97188 4.38958H3.56582C4.80246 4.38958 4.60496 5.22274 5.15258 5.7462C5.69238 6.26299 5.55682 6.32264 6.29412 6.32264H7.88478C9.20139 6.32264 8.49334 7.57524 7.71411 7.53659H6.25657C5.60656 7.53659 5.55195 7.63822 5.01458 7.28893Z"/>
</mask>
<path fill-rule="evenodd" clip-rule="evenodd" d="M6.87782 7.87777C10.7828 7.87777 14.6877 7.87777 18.5927 7.87777C18.6312 7.87777 18.6624 7.90831 18.6624 7.94601V8.92423C18.6624 8.96192 18.6302 8.99294 18.5927 8.99294C16.8031 8.99294 15.014 8.99294 13.2243 8.99294V14.8961C13.2243 14.9458 13.1829 14.9863 13.1322 14.9863H13.1312H13.1293H12.3412H12.3393H12.3383C12.2876 14.9863 12.2462 14.9458 12.2462 14.8961V8.99294H6.87782C6.84027 8.99294 6.80809 8.96192 6.80809 8.92423V7.94601C6.80809 7.90831 6.8393 7.87777 6.87782 7.87777ZM16.4286 6.87044C16.6183 6.87044 16.7724 7.02123 16.7724 7.20733C16.7724 7.39295 16.6183 7.54374 16.4286 7.54374H13.89C13.7222 7.54374 13.5828 7.42636 13.552 7.27127L12.9025 4.74078C12.8562 4.56089 12.9683 4.37813 13.1522 4.33327C13.336 4.28794 13.5228 4.39769 13.5686 4.57759L14.1577 6.87044H16.4286ZM24.5735 13.7829C24.5676 13.7361 24.5462 13.6903 24.5091 13.654C24.2375 13.3863 23.8937 13.1678 23.5027 13.0184C23.2281 12.9135 22.9307 12.8424 22.6186 12.8123L22.6781 11.8971H24.8071C25.0285 11.8971 25.2104 11.7196 25.2104 11.5024C25.2104 9.86761 24.8168 8.63839 25.2104 6.77644C25.3269 6.22482 24.1639 6.14513 24.1639 6.80554V10.9957H20.138C19.9161 10.9957 19.7342 11.2853 19.7342 11.5024V11.8102C19.7342 11.8579 19.7747 11.8971 19.8235 11.8971H21.9593L22.0427 12.8027C21.7116 12.8237 21.3956 12.8901 21.1045 12.9946C20.73 13.1282 20.3969 13.3243 20.1263 13.5662C20.0614 13.624 20.0385 13.7099 20.059 13.7876C19.9542 13.864 19.8869 13.9862 19.8869 14.1241C19.8869 14.356 20.0785 14.544 20.3155 14.544C20.5525 14.544 20.7446 14.356 20.7446 14.1241C20.7446 13.9852 20.6759 13.8626 20.57 13.7857C20.7705 13.633 21.0035 13.5071 21.26 13.4154C21.536 13.3167 21.8393 13.257 22.1602 13.2461L22.2075 13.6998L22.2095 13.7194C22.0281 13.7686 21.8954 13.9313 21.8954 14.1241C21.8954 14.356 22.0876 14.544 22.3245 14.544C22.5615 14.544 22.7537 14.356 22.7537 14.1241C22.7537 13.9322 22.622 13.7709 22.443 13.7204L22.4445 13.6994L22.4777 13.2508C22.7839 13.2709 23.0731 13.3353 23.3364 13.4355H23.3369C23.5938 13.5333 23.8255 13.6655 24.0225 13.8249C23.9435 13.9007 23.8942 14.0067 23.8942 14.1241C23.8942 14.356 24.0864 14.544 24.3233 14.544C24.5603 14.544 24.7525 14.356 24.7525 14.1241C24.7525 13.9838 24.6818 13.8592 24.5735 13.7829ZM21.1386 0.986328C20.2316 0.986328 19.4968 1.70592 19.4968 2.59299C19.4968 3.48055 20.2316 4.20014 21.1386 4.20014C22.0456 4.20014 22.7805 3.48055 22.7805 2.59299C22.7805 1.70592 22.0456 0.986328 21.1386 0.986328ZM20.4559 7.28893L20.4871 9.19431H18.4488C18.0168 9.19431 17.6638 9.54027 17.6638 9.96257V10.7308H17.672V13.7337C17.672 14.1556 18.0251 14.5015 18.4566 14.5015H19.2417V10.9513C19.2417 10.6149 19.371 10.7308 19.7601 10.7308H21.5121V10.7256H22.5186C23.1677 10.7256 23.6992 10.2059 23.6992 9.57081V5.5644C23.6992 4.91782 23.1589 4.38958 22.4986 4.38958H21.9047C20.6681 4.38958 20.8655 5.22274 20.3179 5.7462C19.7781 6.26299 19.9137 6.32264 19.1764 6.32264H17.5857C16.2691 6.32264 16.9772 7.57524 17.7564 7.53659H19.2139C19.8639 7.53659 19.9186 7.63822 20.4559 7.28893ZM9.04193 7.54374C8.85224 7.54374 8.69815 7.39295 8.69815 7.20733C8.69815 7.02123 8.85224 6.87044 9.04193 6.87044H11.3128L11.9019 4.57759C11.9477 4.39769 12.1345 4.28794 12.3183 4.33327C12.5022 4.37813 12.6143 4.56089 12.568 4.74078L11.9185 7.27127C11.8878 7.42636 11.7483 7.54374 11.5805 7.54374H9.04193ZM0.897009 13.7829C0.902861 13.7361 0.924317 13.6903 0.961377 13.654C1.23299 13.3863 1.57677 13.1678 1.96785 13.0184C2.24239 12.9135 2.53984 12.8424 2.85193 12.8123L2.79244 11.8971H0.663433C0.442048 11.8971 0.260162 11.7196 0.260162 11.5024C0.260162 9.86761 0.653681 8.63839 0.260162 6.77644C0.143618 6.22482 1.30662 6.14513 1.30662 6.80554V10.9957H5.33251C5.55438 10.9957 5.73627 11.2853 5.73627 11.5024V11.8102C5.73627 11.8579 5.6958 11.8971 5.64703 11.8971H3.51121L3.42782 12.8027C3.75892 12.8237 4.07491 12.8901 4.36602 12.9946C4.74053 13.1282 5.07358 13.3243 5.34421 13.5662C5.40907 13.624 5.43199 13.7099 5.41151 13.7876C5.51635 13.864 5.58364 13.9862 5.58364 14.1241C5.58364 14.356 5.392 14.544 5.15501 14.544C4.91802 14.544 4.7259 14.356 4.7259 14.1241C4.7259 13.9852 4.79465 13.8621 4.90047 13.7857C4.70005 13.633 4.46696 13.5071 4.21047 13.4154C3.93447 13.3167 3.63116 13.257 3.3103 13.2461L3.263 13.6998L3.26105 13.7194C3.44245 13.7686 3.57509 13.9313 3.57509 14.1241C3.57509 14.356 3.38296 14.544 3.14597 14.544C2.90898 14.544 2.71685 14.356 2.71685 14.1241C2.71685 13.9322 2.84851 13.7705 3.02747 13.7204L3.02601 13.6989L2.99285 13.2508C2.68662 13.2709 2.39745 13.3353 2.13413 13.4355H2.13364C1.87666 13.5333 1.64504 13.6655 1.44803 13.8249C1.52703 13.9007 1.57628 14.0067 1.57628 14.1241C1.57628 14.356 1.38415 14.544 1.14716 14.544C0.910175 14.544 0.718048 14.356 0.718048 14.1241C0.718048 13.9838 0.788755 13.8592 0.897009 13.7829ZM4.33189 0.986328C5.23889 0.986328 5.97375 1.70592 5.97375 2.59299C5.97375 3.48055 5.23889 4.20014 4.33189 4.20014C3.42489 4.20014 2.69003 3.48055 2.69003 2.59299C2.69003 1.70592 3.42489 0.986328 4.33189 0.986328ZM5.01458 7.28893L4.98337 9.19431H7.02167C7.45371 9.19431 7.80676 9.54027 7.80676 9.96257V10.7308H7.79847V13.7337C7.79847 14.1556 7.44542 14.5015 7.01387 14.5015H6.22878V10.9513C6.22878 10.6149 6.09956 10.7308 5.71043 10.7308H3.95836V10.7256H2.95189C2.30285 10.7256 1.77133 10.2059 1.77133 9.57081V5.5644C1.77133 4.91782 2.31163 4.38958 2.97188 4.38958H3.56582C4.80246 4.38958 4.60496 5.22274 5.15258 5.7462C5.69238 6.26299 5.55682 6.32264 6.29412 6.32264H7.88478C9.20139 6.32264 8.49334 7.57524 7.71411 7.53659H6.25657C5.60656 7.53659 5.55195 7.63822 5.01458 7.28893Z" stroke="#43C4D8" stroke-width="2" mask="url(#path-1-inside-1_1549_17646)"/>
</g>
</g>
</g>
<defs>
<clipPath id="clip0_1549_17646">
<rect width="25" height="14" fill="white" transform="translate(0.234375 0.986328)"/>
</clipPath>
</defs>
</svg>
