<svg width="34" height="24" viewBox="0 0 34 24" fill="none" xmlns="http://www.w3.org/2000/svg">
<path d="M12.4137 0.374218C12.8137 2.24089 13.0137 4.64089 13.0137 7.57422C13.0137 10.5076 11.847 13.6742 9.51367 17.0742C7.24701 20.4742 5.14701 22.7742 3.21367 23.9742C2.08034 23.5076 1.01367 22.7409 0.0136719 21.6742C0.747005 19.4742 2.84701 16.3742 6.31367 12.3742C7.11367 11.4409 7.58034 10.9076 7.71367 10.7742C5.38034 10.7742 3.78034 10.7076 2.91367 10.5742C2.51367 9.24089 2.31367 7.50755 2.31367 5.37422C2.31367 3.17422 2.38034 1.60755 2.51367 0.674218C3.98034 0.340885 5.51367 0.174219 7.11367 0.174219C8.78034 0.174219 10.547 0.240885 12.4137 0.374218ZM33.4098 0.374218C33.8098 2.24089 34.0098 4.64089 34.0098 7.57422C34.0098 10.5076 32.8431 13.6742 30.5098 17.0742C28.2431 20.4742 26.1431 22.7742 24.2098 23.9742C23.0764 23.5076 22.0098 22.7409 21.0098 21.6742C21.7431 19.4742 23.8431 16.3742 27.3098 12.3742C28.1098 11.4409 28.5764 10.9076 28.7098 10.7742C26.3764 10.7742 24.7764 10.7076 23.9098 10.5742C23.5098 9.24089 23.3098 7.50755 23.3098 5.37422C23.3098 3.17422 23.3764 1.60755 23.5098 0.674218C24.9764 0.340885 26.5098 0.174219 28.1098 0.174219C29.7764 0.174219 31.5431 0.240885 33.4098 0.374218Z" fill="black"/>
</svg>
