<svg width="35" height="24" viewBox="0 0 35 24" fill="none" xmlns="http://www.w3.org/2000/svg">
<path d="M21.6137 0.374218C21.2137 2.24089 21.0137 4.64089 21.0137 7.57422C21.0137 10.5076 22.1803 13.6742 24.5137 17.0742C26.7803 20.4742 28.8803 22.7742 30.8137 23.9742C31.947 23.5076 33.0137 22.7409 34.0137 21.6742C33.2803 19.4742 31.1803 16.3742 27.7137 12.3742C26.9137 11.4409 26.447 10.9076 26.3137 10.7742C28.647 10.7742 30.247 10.7076 31.1137 10.5742C31.5137 9.24089 31.7137 7.50755 31.7137 5.37422C31.7137 3.17422 31.647 1.60755 31.5137 0.674218C30.047 0.340885 28.5137 0.174219 26.9137 0.174219C25.247 0.174219 23.4803 0.240885 21.6137 0.374218ZM0.617578 0.374218C0.217578 2.24089 0.017578 4.64089 0.017578 7.57422C0.017578 10.5076 1.18424 13.6742 3.51758 17.0742C5.78424 20.4742 7.88424 22.7742 9.81758 23.9742C10.9509 23.5076 12.0176 22.7409 13.0176 21.6742C12.2842 19.4742 10.1842 16.3742 6.71758 12.3742C5.91758 11.4409 5.45091 10.9076 5.31758 10.7742C7.65091 10.7742 9.25091 10.7076 10.1176 10.5742C10.5176 9.24089 10.7176 7.50755 10.7176 5.37422C10.7176 3.17422 10.6509 1.60755 10.5176 0.674218C9.05091 0.340885 7.51758 0.174219 5.91758 0.174219C4.25091 0.174219 2.48424 0.240885 0.617578 0.374218Z" fill="black"/>
</svg>
