<svg width="36" height="36" viewBox="0 0 36 36" fill="none" xmlns="http://www.w3.org/2000/svg">
<g id="study 1">
<g id="outline">
<path id="Vector" d="M8.5625 7.3125H20.9375C21.0867 7.3125 21.2298 7.25324 21.3352 7.14775C21.4407 7.04226 21.5 6.89918 21.5 6.75C21.5 6.60082 21.4407 6.45774 21.3352 6.35225C21.2298 6.24676 21.0867 6.1875 20.9375 6.1875H8.5625C8.41332 6.1875 8.27024 6.24676 8.16475 6.35225C8.05926 6.45774 8 6.60082 8 6.75C8 6.89918 8.05926 7.04226 8.16475 7.14775C8.27024 7.25324 8.41332 7.3125 8.5625 7.3125Z" fill="#10D1E3"/>
<path id="Vector_2" d="M8.5625 10.6875H20.9375C21.0867 10.6875 21.2298 10.6282 21.3352 10.5227C21.4407 10.4173 21.5 10.2742 21.5 10.125C21.5 9.97582 21.4407 9.83274 21.3352 9.72725C21.2298 9.62176 21.0867 9.5625 20.9375 9.5625H8.5625C8.41332 9.5625 8.27024 9.62176 8.16475 9.72725C8.05926 9.83274 8 9.97582 8 10.125C8 10.2742 8.05926 10.4173 8.16475 10.5227C8.27024 10.6282 8.41332 10.6875 8.5625 10.6875Z" fill="#10D1E3"/>
<path id="Vector_3" d="M8.5625 14.0625H20.9375C21.0867 14.0625 21.2298 14.0032 21.3352 13.8977C21.4407 13.7923 21.5 13.6492 21.5 13.5C21.5 13.3508 21.4407 13.2077 21.3352 13.1023C21.2298 12.9968 21.0867 12.9375 20.9375 12.9375H8.5625C8.41332 12.9375 8.27024 12.9968 8.16475 13.1023C8.05926 13.2077 8 13.3508 8 13.5C8 13.6492 8.05926 13.7923 8.16475 13.8977C8.27024 14.0032 8.41332 14.0625 8.5625 14.0625Z" fill="#10D1E3"/>
<path id="Vector_4" d="M8.5625 17.4375H20.9375C21.0867 17.4375 21.2298 17.3782 21.3352 17.2727C21.4407 17.1673 21.5 17.0242 21.5 16.875C21.5 16.7258 21.4407 16.5827 21.3352 16.4773C21.2298 16.3718 21.0867 16.3125 20.9375 16.3125H8.5625C8.41332 16.3125 8.27024 16.3718 8.16475 16.4773C8.05926 16.5827 8 16.7258 8 16.875C8 17.0242 8.05926 17.1673 8.16475 17.2727C8.27024 17.3782 8.41332 17.4375 8.5625 17.4375Z" fill="#10D1E3"/>
<path id="Vector_5" d="M8.5625 20.8125H13.0625C13.2117 20.8125 13.3548 20.7532 13.4602 20.6477C13.5657 20.5423 13.625 20.3992 13.625 20.25C13.625 20.1008 13.5657 19.9577 13.4602 19.8523C13.3548 19.7468 13.2117 19.6875 13.0625 19.6875H8.5625C8.41332 19.6875 8.27024 19.7468 8.16475 19.8523C8.05926 19.9577 8 20.1008 8 20.25C8 20.3992 8.05926 20.5423 8.16475 20.6477C8.27024 20.7532 8.41332 20.8125 8.5625 20.8125Z" fill="#10D1E3"/>
<path id="Vector_6" d="M30.7914 13.2901C30.4051 13.0643 29.9451 13.0009 29.5122 13.1139C29.0793 13.2269 28.7089 13.507 28.4823 13.8928L27.1259 16.207V2.25C27.1259 2.10082 27.0666 1.95774 26.9611 1.85225C26.8556 1.74676 26.7125 1.6875 26.5634 1.6875H22.2964C22.2964 1.6875 20.6062 -0.03375 20.5386 0.0241875C20.4858 0.00817188 20.431 2.17383e-05 20.3759 0H4.06335C3.91417 0 3.7711 0.0592632 3.66561 0.164752C3.56012 0.270242 3.50085 0.413316 3.50085 0.5625V2.32123C3.01768 2.44578 2.58962 2.72741 2.28399 3.12181C1.97836 3.51622 1.8125 4.00103 1.8125 4.5C1.8125 4.99897 1.97836 5.48378 2.28399 5.87819C2.58962 6.27259 3.01768 6.55422 3.50085 6.67877V7.94623C3.01768 8.07078 2.58962 8.35241 2.28399 8.74681C1.97836 9.14122 1.8125 9.62603 1.8125 10.125C1.8125 10.624 1.97836 11.1088 2.28399 11.5032C2.58962 11.8976 3.01768 12.1792 3.50085 12.3038V13.5712C3.01768 13.6958 2.58962 13.9774 2.28399 14.3718C1.97836 14.7662 1.8125 15.251 1.8125 15.75C1.8125 16.249 1.97836 16.7338 2.28399 17.1282C2.58962 17.5226 3.01768 17.8042 3.50085 17.9288V18.6337C3.01768 18.7583 2.58962 19.0399 2.28399 19.4343C1.97836 19.8287 1.8125 20.3135 1.8125 20.8125C1.8125 21.3115 1.97836 21.7963 2.28399 22.1907C2.58962 22.5851 3.01768 22.8667 3.50085 22.9913V26.4375C3.50085 26.5867 3.56012 26.7298 3.66561 26.8352C3.7711 26.9407 3.91417 27 4.06335 27H4.62585V28.6875C4.62585 28.8367 4.68512 28.9798 4.79061 29.0852C4.8961 29.1907 5.03917 29.25 5.18835 29.25H19.4823L19.0969 29.9077C19.0624 29.9667 19.039 30.0316 19.0279 30.099C19.0273 30.1023 19.0264 30.105 19.0259 30.1083L19.0245 30.1175V30.1196L18.5745 33.1037C18.5578 33.2149 18.5747 33.3285 18.6232 33.4299C18.6716 33.5314 18.7493 33.616 18.8463 33.6728C18.9433 33.7297 19.0551 33.7561 19.1673 33.7488C19.2795 33.7415 19.3869 33.7008 19.4757 33.6318L21.8683 31.7742C22.0216 31.6552 22.0965 31.5823 22.0846 31.4846L23.3941 29.25H26.5634C26.7125 29.25 26.8556 29.1907 26.9611 29.0852C27.0666 28.9798 27.1259 28.8367 27.1259 28.6875V22.8824L31.3938 15.5992C31.6196 15.213 31.683 14.753 31.57 14.3201C31.4571 13.8872 31.1771 13.5168 30.7914 13.2901ZM29.7961 14.2017C29.9038 14.1736 30.0173 14.1781 30.1224 14.2145C30.2275 14.251 30.3195 14.3178 30.3866 14.4065C30.4538 14.4952 30.4931 14.6018 30.4997 14.7129C30.5062 14.8239 30.4797 14.9344 30.4234 15.0304L30.139 15.5156L29.1687 14.9468L29.4532 14.4616C29.4903 14.3978 29.5398 14.3419 29.5986 14.2973C29.6575 14.2527 29.7246 14.2202 29.7961 14.2017ZM21.3224 30.5601L20.3521 29.9912L27.7464 17.3734L28.7167 17.9423L21.3224 30.5601ZM20.9384 1.92052L22.9553 3.9375H20.9384V1.92052ZM28.3153 16.4028L28.5996 15.9176L29.5703 16.4865L29.2859 16.9716L28.3153 16.4028ZM26.0009 2.8125V18C26.0009 18.0365 26.0045 18.0729 26.0115 18.1087L24.8759 20.0467V4.5C24.8759 4.42625 24.8615 4.3532 24.8333 4.28505C24.8051 4.21689 24.7638 4.15496 24.7116 4.1028L24.7111 4.10224L23.4214 2.8125H26.0009ZM4.62585 1.125H19.8134V4.5C19.8134 4.64918 19.8726 4.79226 19.9781 4.89775C20.0836 5.00324 20.2267 5.0625 20.3759 5.0625H23.7509V21.9663L21.4602 25.875H4.62585V22.9913C5.01527 22.8911 5.37067 22.6882 5.655 22.4038C5.93932 22.1194 6.14218 21.764 6.24241 21.3746C6.27959 21.2301 6.25784 21.0767 6.18194 20.9482C6.10604 20.8197 5.98221 20.7266 5.83769 20.6895C5.76613 20.671 5.69164 20.6669 5.61848 20.6773C5.54533 20.6877 5.47493 20.7123 5.41131 20.7499C5.28282 20.8258 5.18975 20.9497 5.15256 21.0942C5.11529 21.2388 5.0495 21.3745 4.95905 21.4934C4.8686 21.6123 4.75532 21.7119 4.62585 21.7863V17.9288C5.01527 17.8286 5.37067 17.6257 5.655 17.3413C5.93932 17.0569 6.14218 16.7015 6.24241 16.3121C6.27959 16.1676 6.25784 16.0142 6.18194 15.8857C6.10604 15.7572 5.98221 15.6641 5.83769 15.627C5.69317 15.5898 5.53979 15.6115 5.41131 15.6874C5.28282 15.7633 5.18975 15.8871 5.15256 16.0317C5.11529 16.1763 5.0495 16.312 4.95905 16.4309C4.8686 16.5498 4.75532 16.6494 4.62585 16.7238V12.3038C5.01527 12.2036 5.37067 12.0007 5.655 11.7163C5.93932 11.4319 6.14218 11.0765 6.24241 10.6871C6.27959 10.5426 6.25784 10.3892 6.18194 10.2607C6.10604 10.1322 5.98221 10.0391 5.83769 10.002C5.69317 9.96477 5.53979 9.98652 5.41131 10.0624C5.28282 10.1383 5.18975 10.2621 5.15256 10.4067C5.11529 10.5513 5.0495 10.687 4.95905 10.8059C4.8686 10.9248 4.75532 11.0244 4.62585 11.0988V6.67884C5.01527 6.57856 5.37067 6.37566 5.655 6.0913C5.93932 5.80693 6.14218 5.45151 6.24241 5.06208C6.27959 4.91756 6.25784 4.76418 6.18194 4.6357C6.10604 4.50721 5.98221 4.41414 5.83769 4.37695C5.69317 4.33977 5.53979 4.36152 5.41131 4.43742C5.28282 4.51332 5.18975 4.63715 5.15256 4.78167C5.11529 4.92631 5.0495 5.06204 4.95905 5.1809C4.8686 5.29976 4.75532 5.39935 4.62585 5.47383V1.125ZM2.93835 4.5C2.93862 4.30278 2.99073 4.10909 3.08945 3.93835C3.18818 3.76762 3.33005 3.62584 3.50085 3.52723V5.47277C3.33005 5.37416 3.18818 5.23238 3.08945 5.06165C2.99073 4.89091 2.93862 4.69722 2.93835 4.5ZM2.93835 10.125C2.93862 9.92778 2.99073 9.73409 3.08945 9.56335C3.18818 9.39262 3.33005 9.25084 3.50085 9.15223V11.0978C3.33005 10.9992 3.18818 10.8574 3.08945 10.6866C2.99073 10.5159 2.93862 10.3222 2.93835 10.125ZM2.93835 15.75C2.93862 15.5528 2.99073 15.3591 3.08945 15.1884C3.18818 15.0176 3.33005 14.8758 3.50085 14.7772V16.7228C3.33005 16.6242 3.18818 16.4824 3.08945 16.3116C2.99073 16.1409 2.93862 15.9472 2.93835 15.75ZM2.93835 20.8125C2.93862 20.6153 2.99073 20.4216 3.08945 20.2509C3.18818 20.0801 3.33005 19.9383 3.50085 19.8397V21.7853C3.33005 21.6867 3.18818 21.5449 3.08945 21.3741C2.99073 21.2034 2.93862 21.0097 2.93835 20.8125ZM5.75085 28.125V27H20.8009L20.1416 28.125H5.75085ZM20.0145 31.0975L20.5221 31.395L19.8963 31.8807L20.0145 31.0975ZM26.0009 28.125H24.0532L26.0009 24.802V28.125Z" fill="#10D1E3"/>
</g>
</g>
</svg>
