<svg width="36" height="36" viewBox="0 0 36 36" fill="none" xmlns="http://www.w3.org/2000/svg">
<g id="wrench 1">
<g clip-path="url(#clip0_1556_45912)">
<g id="Group">
<g id="Group_2">
<path id="Vector" d="M30.8654 28.9492C29.839 28.9492 29.0039 29.7843 29.0039 30.8107C29.0039 31.8372 29.8389 32.6722 30.8654 32.6722C31.8919 32.6722 32.7269 31.8372 32.7269 30.8107C32.7269 29.7843 31.8919 28.9492 30.8654 28.9492ZM30.8654 31.569C30.4473 31.569 30.1071 31.2288 30.1071 30.8107C30.1071 30.3927 30.4473 30.0525 30.8654 30.0525C31.2834 30.0525 31.6236 30.3927 31.6236 30.8107C31.6236 31.2288 31.2834 31.569 30.8654 31.569Z" fill="#10D1E3"/>
</g>
</g>
<g id="Group_3">
<g id="Group_4">
<path id="Vector_2" d="M35.8802 30.7139C35.8451 29.351 35.2682 28.0975 34.2559 27.1844L23.1499 17.1673L32.9696 7.34758C33.0341 7.32831 33.0979 7.30434 33.1594 7.27185L35.2859 6.14952C35.5796 5.99441 35.7767 5.71696 35.8262 5.38853C35.8759 5.06003 35.7696 4.73688 35.5347 4.50175L33.1404 2.10754C32.9054 1.87263 32.5825 1.76638 32.2537 1.81602C31.9253 1.86559 31.6479 2.06261 31.4927 2.35645L30.3703 4.48277C30.3376 4.54485 30.3124 4.60905 30.2931 4.67423L25.6581 9.30923C25.4426 9.52474 25.4426 9.87391 25.6581 10.0894C25.8736 10.3047 26.2227 10.3047 26.4382 10.0894L30.6916 5.836L31.8062 6.95066L20.9289 17.828L19.8142 16.7133L24.5621 11.9656C24.7775 11.7501 24.7775 11.4009 24.5621 11.1854C24.3466 10.9701 23.9974 10.9701 23.7819 11.1854L20.337 14.6303L16.5878 11.2487C17.6508 8.18894 16.881 4.78476 14.5751 2.47893C12.2132 0.117063 8.67006 -0.635632 5.54833 0.561579C5.37388 0.628516 5.24514 0.779126 5.20633 0.961868C5.16751 1.14461 5.22369 1.33459 5.35581 1.46671L9.6865 5.79747C9.81461 5.92558 9.88527 6.09595 9.88527 6.27714C9.88527 6.45834 9.81468 6.6287 9.6865 6.75688L6.87407 9.56931C6.74596 9.69749 6.57559 9.76809 6.3944 9.76809C6.2132 9.76809 6.04283 9.69756 5.91465 9.56931L1.5839 5.23856C1.45171 5.10644 1.26187 5.05026 1.07905 5.08907C0.896311 5.12795 0.745701 5.25663 0.678764 5.43107C-0.518447 8.55266 0.234248 12.0959 2.59619 14.4579C4.84555 16.7072 8.18378 17.4991 11.1953 16.526L14.0941 19.6959C13.9548 19.9681 13.7737 20.2219 13.5503 20.4453C12.7147 21.2809 11.4624 21.5442 10.3595 21.1161C10.1557 21.0368 9.92443 21.0856 9.76975 21.2402L3.0156 27.9944C1.18719 29.8228 1.18719 32.7979 3.0156 34.6262C3.90147 35.5122 5.07913 36 6.33175 36C7.58429 36 8.76203 35.5122 9.64775 34.6265L16.4019 27.8724C16.5564 27.7178 16.6052 27.4865 16.526 27.2827C16.0979 26.1799 16.3611 24.9274 17.1966 24.0918C18.0324 23.2562 19.2848 22.993 20.3876 23.421C20.5915 23.5003 20.8227 23.4514 20.9773 23.2969L22.2514 22.0229C22.635 21.6392 22.8463 21.1291 22.8463 20.5867C22.8463 20.0442 22.635 19.5341 22.2514 19.1504L21.7091 18.6081L22.3688 17.9484L33.517 28.0036C34.3026 28.7121 34.7502 29.6848 34.7774 30.7423C34.8046 31.7998 34.4077 32.7942 33.6596 33.5422C32.9151 34.2868 31.9232 34.6831 30.8727 34.6604C29.8201 34.6369 28.849 34.1961 28.1385 33.419L19.8495 24.3547C19.6437 24.1298 19.2949 24.1143 19.0701 24.3199C18.8453 24.5256 18.8297 24.8745 19.0353 25.0992L27.3243 34.1636C28.2401 35.1649 29.4915 35.733 30.848 35.7633C30.886 35.7642 30.9239 35.7646 30.9618 35.7646C32.2758 35.7646 33.507 35.2549 34.4397 34.3223C35.4037 33.3583 35.9152 32.0768 35.8802 30.7139ZM31.3694 4.95351L32.4254 2.95284L34.6894 5.21683L32.6887 6.27285L31.3694 4.95351ZM11.7645 15.5137C11.6126 15.3477 11.3754 15.2905 11.1646 15.3691C8.46721 16.3753 5.40988 15.7114 3.37623 13.678C1.52969 11.8313 0.814186 9.15426 1.44468 6.65971L5.13447 10.3495C5.47105 10.686 5.91845 10.8713 6.39433 10.8713C6.8702 10.8713 7.3176 10.686 7.65411 10.3495L10.4665 7.53707C10.8031 7.20049 10.9883 6.75309 10.9883 6.27721C10.9883 5.80134 10.8031 5.35394 10.4665 5.01742L6.77683 1.32749C9.27116 0.696719 11.9485 1.41243 13.795 3.25905C15.8804 5.34431 16.5212 8.46238 15.4278 11.2028C15.3422 11.4172 15.3992 11.6622 15.5707 11.8169L19.5559 15.4114L19.0341 15.9332L18.4917 15.3909C18.1081 15.0073 17.598 14.7961 17.0555 14.7961C16.5131 14.7961 16.0029 15.0073 15.6193 15.3909L14.3453 16.665C14.1907 16.8196 14.142 17.0509 14.2212 17.2548C14.3679 17.6327 14.4315 18.028 14.4206 18.4183L11.7645 15.5137ZM21.4712 21.2427L20.4388 22.2751C19.0191 21.8658 17.4742 22.2541 16.4166 23.3116H16.4165C15.359 24.3692 14.9707 25.9139 15.3801 27.3339L8.86764 33.8463C8.19025 34.5236 7.28969 34.8967 6.33182 34.8967C5.37395 34.8967 4.47325 34.5236 3.796 33.8463C2.39769 32.448 2.39769 30.1728 3.796 28.7745L10.3084 22.2621C11.7283 22.6716 13.273 22.2831 14.3306 21.2256C15.3881 20.168 15.7765 18.6233 15.3671 17.2034L16.3995 16.171C16.7612 15.8092 17.3499 15.8092 17.7116 16.171L18.644 17.1034L20.5387 18.9982L21.4712 19.9306C21.833 20.2924 21.833 20.8811 21.4712 21.2427Z" fill="#10D1E3"/>
</g>
</g>
<g id="Group_5">
<g id="Group_6">
<path id="Vector_3" d="M11.4133 24.3461C11.1978 24.1307 10.8487 24.1307 10.6332 24.3461L5.40767 29.5716C5.19223 29.7871 5.19223 30.1363 5.40767 30.3518C5.51539 30.4594 5.65665 30.5133 5.79777 30.5133C5.93888 30.5133 6.08014 30.4594 6.18786 30.3518L11.4133 25.1263C11.6287 24.9108 11.6287 24.5615 11.4133 24.3461Z" fill="#10D1E3"/>
</g>
</g>
<g id="Group_7">
<g id="Group_8">
<path id="Vector_4" d="M13.345 26.2768C13.1295 26.0614 12.7803 26.0614 12.5648 26.2768L7.33931 31.5022C7.12388 31.7177 7.12388 32.0669 7.33931 32.2824C7.44703 32.39 7.58822 32.4439 7.72941 32.4439C7.87052 32.4439 8.01178 32.39 8.1195 32.2824L13.345 27.0569C13.5604 26.8414 13.5604 26.4923 13.345 26.2768Z" fill="#10D1E3"/>
</g>
</g>
</g>
</g>
<defs>
<clipPath id="clip0_1556_45912">
<rect width="36" height="36" rx="3" fill="white"/>
</clipPath>
</defs>
</svg>
