<svg width="36" height="36" viewBox="0 0 36 36" fill="none" xmlns="http://www.w3.org/2000/svg">
<g id="ab-testing 1" clip-path="url(#clip0_1556_45925)">
<g id="Group">
<path id="Vector" d="M9.98441 27.9492C9.10986 27.9492 8.39844 28.659 8.39844 29.5312C8.39844 30.4035 9.10986 31.1133 9.98441 31.1133C10.859 31.1133 11.5704 30.4035 11.5704 29.5312C11.5704 28.659 10.859 27.9492 9.98441 27.9492ZM9.98441 30.0586C9.69148 30.0586 9.45313 29.8221 9.45313 29.5312C9.45313 29.2404 9.69148 29.0039 9.98441 29.0039C10.2773 29.0039 10.5157 29.2404 10.5157 29.5312C10.5157 29.8221 10.2773 30.0586 9.98441 30.0586Z" fill="#10D1E3"/>
<path id="Vector_2" d="M11.4292 3.09375C11.4292 2.80252 11.1931 2.56641 10.9018 2.56641H7.37305C7.08174 2.56641 6.8457 2.80252 6.8457 3.09375C6.8457 3.38498 7.08174 3.62109 7.37305 3.62109H10.9018C11.1931 3.62109 11.4292 3.38498 11.4292 3.09375Z" fill="#10D1E3"/>
<path id="Vector_3" d="M12.2281 3.38666C12.4003 3.65947 12.8181 3.70081 13.0403 3.46681C13.2436 3.27106 13.2435 2.91732 13.0403 2.7215C12.8445 2.51759 12.4898 2.51703 12.2943 2.7215C12.1179 2.89173 12.09 3.18486 12.2281 3.38666Z" fill="#10D1E3"/>
<path id="Vector_4" d="M32.8261 2.77734H19.7607C19.3046 1.5866 18.1475 0.738281 16.7948 0.738281H3.17391C1.42383 0.738281 0 2.15768 0 3.90234V8.82422C0 9.11545 0.236039 9.35156 0.527344 9.35156C0.818648 9.35156 1.05469 9.11545 1.05469 8.82422V5.73047H7.1967C7.488 5.73047 7.72404 5.49436 7.72404 5.20312C7.72404 4.91189 7.488 4.67578 7.1967 4.67578H1.05469V3.90234C1.05469 2.73923 2.00538 1.79297 3.17391 1.79297H16.7948C17.9634 1.79297 18.9141 2.73923 18.9141 3.90234V4.67578H9.66677C9.37547 4.67578 9.13943 4.91189 9.13943 5.20312C9.13943 5.49436 9.37547 5.73047 9.66677 5.73047H18.9141V25.8398H1.05469V11.2852C1.05469 10.9939 0.818648 10.7578 0.527344 10.7578C0.236039 10.7578 0 10.9939 0 11.2852V30.0586C0 31.8033 1.42383 33.2227 3.17391 33.2227H16.2374C16.6983 34.4418 17.8644 35.2617 19.2052 35.2617H30.356C30.6473 35.2617 30.8834 35.0257 30.8834 34.7344C30.8834 34.4431 30.6473 34.207 30.356 34.207H19.2052C18.4335 34.207 17.75 33.8003 17.3784 33.1681C18.8506 32.8942 19.9688 31.6045 19.9688 30.0586V28.9336H34.9453V32.0977C34.9453 33.2608 33.9946 34.207 32.8261 34.207C32.5348 34.207 32.2987 34.4431 32.2987 34.7344C32.2987 35.0257 32.5348 35.2617 32.8261 35.2617C34.5762 35.2617 36 33.8423 36 32.0977V13.7812C36 13.49 35.764 13.2539 35.4727 13.2539C35.1814 13.2539 34.9453 13.49 34.9453 13.7812V27.8789H19.9688V7.76953H34.9453V11.3203C34.9453 11.6115 35.1814 11.8477 35.4727 11.8477C35.764 11.8477 36 11.6115 36 11.3203V5.94141C36 4.19674 34.5762 2.77734 32.8261 2.77734ZM18.9141 30.0586C18.9141 31.2217 17.9634 32.168 16.7948 32.168H3.17391C2.00538 32.168 1.05469 31.2217 1.05469 30.0586V26.8945H18.9141V30.0586ZM19.9688 6.71484C19.9688 6.71484 19.9675 3.85552 19.967 3.83203H32.8261C33.9946 3.83203 34.9453 4.7783 34.9453 5.94141V6.71484H19.9688Z" fill="#10D1E3"/>
<path id="Vector_5" d="M24.4297 31.5703C24.4297 32.4426 25.1411 33.1523 26.0157 33.1523C26.8902 33.1523 27.6016 32.4426 27.6016 31.5703C27.6016 30.698 26.8902 29.9883 26.0157 29.9883C25.1411 29.9883 24.4297 30.698 24.4297 31.5703ZM26.5469 31.5703C26.5469 31.8611 26.3086 32.0977 26.0157 32.0977C25.7227 32.0977 25.4844 31.8611 25.4844 31.5703C25.4844 31.2795 25.7227 31.043 26.0157 31.043C26.3086 31.043 26.5469 31.2795 26.5469 31.5703Z" fill="#10D1E3"/>
<path id="Vector_6" d="M26.9331 4.60547H23.4043C23.113 4.60547 22.877 4.84158 22.877 5.13281C22.877 5.42405 23.113 5.66016 23.4043 5.66016H26.9331C27.2244 5.66016 27.4604 5.42405 27.4604 5.13281C27.4604 4.84158 27.2243 4.60547 26.9331 4.60547Z" fill="#10D1E3"/>
<path id="Vector_7" d="M29.1845 4.93116C29.1579 4.86739 29.1188 4.80839 29.0699 4.7603C28.8758 4.55759 28.5194 4.55534 28.3246 4.7603C28.0903 4.98228 28.1323 5.39965 28.4047 5.57171C28.6066 5.7105 28.8993 5.68175 29.0699 5.50561C29.2192 5.35922 29.2665 5.12367 29.1845 4.93116Z" fill="#10D1E3"/>
<path id="Vector_8" d="M6.82041 20.32C7.03282 20.32 7.23315 20.1906 7.3133 19.9802L7.93346 18.3518H12.0413L12.6552 19.9787C12.7581 20.2512 13.0623 20.3888 13.3348 20.2859C13.6073 20.1831 13.7448 19.8788 13.6419 19.6063L10.6596 11.7037C10.6579 11.6989 10.6559 11.694 10.6539 11.6892C10.5441 11.4223 10.2868 11.25 9.99825 11.25C9.99804 11.25 9.99783 11.25 9.99755 11.25C9.70878 11.2503 9.45136 11.4232 9.34203 11.6905C9.34041 11.6945 9.33879 11.6985 9.33732 11.7025L6.32766 19.6048C6.22395 19.8769 6.36064 20.1816 6.63282 20.2853C6.69455 20.3089 6.75797 20.32 6.82041 20.32ZM9.99678 12.9343L11.6433 17.2971H8.33522L9.99678 12.9343Z" fill="#10D1E3"/>
<path id="Vector_9" d="M25.8971 13.2539H23.5548C23.2635 13.2539 23.0274 13.49 23.0274 13.7812V17.4722V17.4782V21.7969C23.0218 22.0811 23.273 22.3311 23.5571 22.3242C23.5787 22.3241 25.7196 22.3147 26.3062 22.3147C27.7938 22.3147 29.004 21.1102 29.004 19.6298C29.004 18.6176 28.4381 17.7347 27.6048 17.2773C28.0222 16.8498 28.2799 16.2673 28.2799 15.6256C28.2799 14.3179 27.211 13.2539 25.8971 13.2539ZM25.8971 14.3086C26.6295 14.3086 27.2253 14.8994 27.2253 15.6256C27.2253 16.3518 26.6295 16.9426 25.8971 16.9426C25.725 16.9426 24.0821 16.9448 24.0821 16.9448V14.3086H25.8971ZM26.3062 21.26C25.9013 21.26 24.7618 21.2644 24.0821 21.2673V18.0033C24.3618 18.0021 26.3062 17.9996 26.3062 17.9996C27.2122 17.9996 27.9493 18.7309 27.9493 19.6298C27.9493 20.5288 27.2122 21.26 26.3062 21.26Z" fill="#10D1E3"/>
</g>
</g>
<defs>
<clipPath id="clip0_1556_45925">
<rect width="36" height="36" fill="white"/>
</clipPath>
</defs>
</svg>
