<svg width="36" height="36" viewBox="0 0 36 36" fill="none" xmlns="http://www.w3.org/2000/svg">
<g id="computer (4) 2">
<g id="Group">
<path id="Vector" d="M34.038 11.842H32.0205V5.02381C32.0205 3.46091 30.749 2.18945 29.1861 2.18945H4.76407C3.20117 2.18945 1.92972 3.46091 1.92972 5.02381V22.3284C1.92972 22.9794 2.15922 23.5914 2.54474 24.0789H0.912582C0.409358 24.0788 0 24.49 0 24.9952V26.3331C0 27.6191 1.03844 28.6652 2.31482 28.6652H15.3931C15.6844 28.6652 15.9204 28.4291 15.9204 28.1379C15.9204 27.8467 15.6844 27.6106 15.3931 27.6106H2.31482C1.61999 27.6106 1.05468 27.0375 1.05468 26.3331V25.1335H23.2706V27.6106H17.854C17.5627 27.6106 17.3267 27.8467 17.3267 28.1379C17.3267 28.4291 17.5627 28.6652 17.854 28.6652H23.2706V31.8495C23.2706 32.9314 24.1508 33.8116 25.2326 33.8116H34.0379C35.1198 33.8116 35.9999 32.9314 35.9999 31.8495C35.9999 31.0436 35.9999 14.3806 35.9999 13.804C36 12.7222 35.1198 11.842 34.038 11.842ZM23.2706 24.0788H4.44514C3.60969 23.9256 2.98447 23.18 2.98447 22.3283V5.02381C2.98447 4.04246 3.7828 3.24414 4.76415 3.24414H29.1862C30.1675 3.24414 30.9659 4.04246 30.9659 5.02381V11.8421H29.948C29.948 11.1046 29.948 5.99707 29.948 5.18771C29.948 4.66873 29.5258 4.24644 29.0068 4.24644C28.8632 4.24644 5.67673 4.24644 4.94358 4.24644C4.42454 4.24644 4.00231 4.66866 4.00231 5.18771V22.1386C4.00231 22.6576 4.42454 23.0798 4.94358 23.0798H23.2707V24.0788H23.2706ZM28.8933 5.30105V6.70118H7.74756V5.30105H28.8933ZM6.69288 5.30105V6.70118H5.05693V5.30105H6.69288ZM23.2706 13.804V22.0251H5.05693V7.75586H28.8933V11.842H25.2327C24.1508 11.842 23.2706 12.7222 23.2706 13.804ZM24.3253 15.8743H25.3857V16.9303H24.3253V15.8743ZM34.9453 31.8495C34.9453 32.3499 34.5383 32.7569 34.038 32.7569H25.2326C24.7323 32.7569 24.3253 32.3499 24.3253 31.8495V30.3382H34.9453V31.8495ZM34.9453 29.2835H24.3253C24.3253 24.9786 24.3253 22.2853 24.3253 17.985H34.9453V29.2835ZM34.9453 16.9303H26.4403V15.8743H34.9453V16.9303ZM34.9453 14.8196C34.4071 14.8196 24.8052 14.8196 24.3253 14.8196V13.804C24.3253 13.3037 24.7323 12.8967 25.2326 12.8967H34.0379C34.5382 12.8967 34.9452 13.3037 34.9452 13.804V14.8196H34.9453Z" fill="#10D1E3"/>
<path id="Vector_2" d="M29.0742 31.9639H30.1952C30.4865 31.9639 30.7226 31.7278 30.7226 31.4365C30.7226 31.1453 30.4865 30.9092 30.1952 30.9092H29.0742C28.7829 30.9092 28.5469 31.1453 28.5469 31.4365C28.5469 31.7278 28.7829 31.9639 29.0742 31.9639Z" fill="#10D1E3"/>
<path id="Vector_3" d="M18.7153 13.9978L16.4524 12.4548C15.7362 11.9664 14.7637 12.4803 14.7637 13.3472V16.4333C14.7637 17.2999 15.7359 17.8141 16.4524 17.3256L18.7153 15.7826C19.3436 15.3542 19.3435 14.4261 18.7153 13.9978ZM18.1211 14.9112L15.8582 16.4543C15.8513 16.4589 15.8455 16.4629 15.8319 16.4558C15.8184 16.4486 15.8184 16.4415 15.8184 16.4333V13.3472C15.8184 13.3389 15.8184 13.3318 15.8319 13.3247C15.8373 13.3219 15.8414 13.3207 15.8449 13.3207C15.8503 13.3207 15.8541 13.3233 15.8582 13.3262L18.1211 14.8692C18.1258 14.8724 18.1322 14.8768 18.1322 14.8902C18.1322 14.9037 18.1258 14.908 18.1211 14.9112Z" fill="#10D1E3"/>
<path id="Vector_4" d="M16.6228 9.95312C13.9004 9.95312 11.6855 12.168 11.6855 14.8903C11.6855 17.6125 13.9004 19.8274 16.6228 19.8274C19.3451 19.8274 21.5599 17.6126 21.5599 14.8903C21.5599 12.1679 19.3451 9.95312 16.6228 9.95312ZM16.6228 18.7728C14.4819 18.7728 12.7402 17.0311 12.7402 14.8903C12.7402 12.7495 14.4819 11.0079 16.6228 11.0079C18.7635 11.0079 20.5052 12.7496 20.5052 14.8903C20.5052 17.0311 18.7635 18.7728 16.6228 18.7728Z" fill="#10D1E3"/>
<path id="Vector_5" d="M29.5238 21.3876C28.8539 20.9309 27.9473 21.4134 27.9473 22.2208V24.9067C27.9473 25.7208 28.8595 26.1929 29.5239 25.7399L31.4933 24.3969C32.08 23.997 32.0799 23.1305 31.4934 22.7306L29.5238 21.3876ZM29.002 24.8192V22.3083L30.8432 23.5638L29.002 24.8192Z" fill="#10D1E3"/>
<path id="Vector_6" d="M29.6349 27.9289C31.47 27.9289 33.1207 26.7691 33.7425 25.043C33.8413 24.769 33.6992 24.4669 33.4252 24.3682C33.1512 24.2696 32.849 24.4116 32.7503 24.6856C32.2786 25.9946 31.0266 26.8742 29.6348 26.8742C27.8093 26.8742 26.3241 25.389 26.3241 23.5635C26.3241 21.7381 27.8093 20.2529 29.6348 20.2529C31.0851 20.2529 32.3535 21.1811 32.7913 22.5627C32.8792 22.8404 33.1758 22.9941 33.4532 22.9062C33.7309 22.8182 33.8846 22.5218 33.7967 22.2442C33.2196 20.4223 31.547 19.1982 29.6349 19.1982C27.2279 19.1982 25.2695 21.1566 25.2695 23.5636C25.2695 25.9706 27.2279 27.9289 29.6349 27.9289Z" fill="#10D1E3"/>
</g>
</g>
</svg>
