<svg width="36" height="36" viewBox="0 0 36 36" fill="none" xmlns="http://www.w3.org/2000/svg">
<g id="ux 1" clip-path="url(#clip0_1556_45904)">
<path id="Vector" d="M6.42014 4.86814C6.42014 3.89282 5.62693 3.09961 4.65161 3.09961C3.6763 3.09961 2.88281 3.89282 2.88281 4.86814C2.88281 5.84345 3.6763 6.63667 4.65161 6.63667C5.62665 6.63667 6.42014 5.84345 6.42014 4.86814ZM3.9375 4.86814C3.9375 4.47455 4.25803 4.1543 4.65161 4.1543C5.0452 4.1543 5.36545 4.47455 5.36545 4.86814C5.36545 5.26172 5.0452 5.58198 4.65161 5.58198C4.25803 5.58198 3.9375 5.26172 3.9375 4.86814Z" fill="#10D1E3"/>
<path id="Vector_2" d="M8.85251 6.63667C9.82782 6.63667 10.6213 5.84345 10.6213 4.86814C10.6213 3.89282 9.82782 3.09961 8.85251 3.09961C7.8772 3.09961 7.08398 3.89282 7.08398 4.86814C7.08398 5.84345 7.8772 6.63667 8.85251 6.63667ZM8.85251 4.1543C9.24637 4.1543 9.56662 4.47455 9.56662 4.86814C9.56662 5.26172 9.2461 5.58198 8.85251 5.58198C8.45893 5.58198 8.13867 5.26172 8.13867 4.86814C8.13867 4.47455 8.45893 4.1543 8.85251 4.1543Z" fill="#10D1E3"/>
<path id="Vector_3" d="M13.0559 6.63667C14.0309 6.63667 14.8244 5.84345 14.8244 4.86814C14.8244 3.89282 14.0309 3.09961 13.0559 3.09961C12.0806 3.09961 11.2871 3.89282 11.2871 4.86814C11.2871 5.84345 12.0806 6.63667 13.0559 6.63667ZM13.0559 4.1543C13.4495 4.1543 13.7697 4.47455 13.7697 4.86814C13.7697 5.26172 13.4495 5.58198 13.0559 5.58198C12.6621 5.58198 12.3418 5.26172 12.3418 4.86814C12.3418 4.47455 12.6621 4.1543 13.0559 4.1543Z" fill="#10D1E3"/>
<path id="Vector_4" d="M18.8906 5.39551H31.7342C32.0256 5.39551 32.2616 5.15958 32.2616 4.86816C32.2616 4.57675 32.0256 4.34082 31.7342 4.34082H18.8906C18.5992 4.34082 18.3633 4.57675 18.3633 4.86816C18.3633 5.15958 18.5992 5.39551 18.8906 5.39551Z" fill="#10D1E3"/>
<path id="Vector_5" d="M33.7278 1.19531H2.13163C0.917635 1.19531 -0.0703125 2.18299 -0.0703125 3.39725V32.7352C-0.0703125 33.9492 0.917635 34.9371 2.13163 34.9371H33.7278C34.9418 34.9371 35.9298 33.9492 35.9298 32.7352V3.39725C35.9298 2.18299 34.9418 1.19531 33.7278 1.19531ZM33.7278 33.8824H2.13163C1.49909 33.8824 0.984377 33.3677 0.984377 32.7352V8.54024H3.92405C4.21546 8.54024 4.45139 8.3043 4.45139 8.01289C4.45139 7.72175 4.21546 7.48555 3.92405 7.48555H0.984377V3.39725C0.984377 2.76471 1.49909 2.25 2.13163 2.25H33.7278C34.3604 2.25 34.8751 2.76471 34.8751 3.39725V7.48555H5.8928C5.60167 7.48555 5.36546 7.72175 5.36546 8.01289C5.36546 8.3043 5.60167 8.54024 5.8928 8.54024H34.8751V32.7352C34.8751 33.3677 34.3604 33.8824 33.7278 33.8824Z" fill="#10D1E3"/>
<path id="Vector_6" d="M29.7709 9.85547H25.1622C24.2415 9.85547 23.4925 10.6045 23.4925 11.5251V12.1632C22.9517 12.3348 22.5241 12.7627 22.3529 13.3038L14.1162 13.3348C13.9445 12.7954 13.5174 12.3689 12.9777 12.1975V11.5597C12.9777 10.6391 12.2287 9.89008 11.3081 9.89008H6.69959C5.77893 9.89008 5.02994 10.6391 5.02994 11.5597V16.1682C5.02994 17.0889 5.77893 17.8376 6.69959 17.8376H7.33735C7.50873 18.3781 7.9361 18.8055 8.47663 18.9769V21.1316C8.47663 22.2434 9.38108 23.1479 10.4929 23.1479H15.4604C15.6318 23.6881 16.0591 24.1155 16.5994 24.2869V24.9611C16.5994 25.8618 17.3322 26.5945 18.2328 26.5945H18.9472C19.0988 27.123 19.4937 27.5493 20.0024 27.7445C19.8508 28.0467 19.5382 28.2543 19.1782 28.2543H13.5455C13.409 27.6465 12.9549 27.1576 12.3677 26.9711V26.3331C12.3677 25.4124 11.6187 24.6634 10.6981 24.6634H6.0893C5.16892 24.6634 4.41992 25.4124 4.41992 26.3331V30.9418C4.41992 31.8625 5.16892 32.6112 6.0893 32.6112H10.6981C11.6187 32.6112 12.3677 31.8625 12.3677 30.9418V30.3038C12.8588 30.1478 13.2568 29.7806 13.4537 29.309H19.1782C20.1087 29.309 20.8912 28.6625 21.0999 27.7951C21.6811 27.6317 22.1406 27.1743 22.3073 26.5945H22.9138C23.8147 26.5945 24.5472 25.8618 24.5472 24.9611V23.5738C24.5472 23.2824 24.3113 23.0465 24.0198 23.0465C23.7287 23.0465 23.4925 23.2824 23.4925 23.5738V24.9611C23.4925 25.2803 23.2329 25.5399 22.9138 25.5399H22.2785C21.7303 23.9666 19.5171 23.979 18.9757 25.5399H18.2328C17.9136 25.5399 17.6541 25.2803 17.6541 24.9611V24.2869C17.7667 24.2512 17.873 24.2053 17.9768 24.1473C17.9842 24.1399 18.8744 23.6903 18.8744 22.6205C18.8744 21.8627 18.3833 21.1868 17.6541 20.9542V20.2801C17.6541 19.961 17.9136 19.7014 18.2328 19.7014H22.9138C23.2329 19.7014 23.4925 19.961 23.4925 20.2801V21.6674C23.4925 21.9586 23.7287 22.1948 24.0198 22.1948C24.3113 22.1948 24.5472 21.9586 24.5472 21.6674V20.2801C24.5472 19.3795 23.8144 18.6467 22.9138 18.6467H18.2328C17.3322 18.6467 16.5994 19.3795 16.5994 20.2801V20.9542C16.0591 21.1255 15.6318 21.5529 15.4604 22.0932H10.4932C9.96281 22.0932 9.53132 21.6617 9.53132 21.1316V18.9769C10.0716 18.8055 10.4989 18.3781 10.6703 17.8376H11.3084C12.2287 17.8376 12.9777 17.0889 12.9777 16.1682V15.5302C13.5188 15.3585 13.9465 14.9306 14.1173 14.3895L22.354 14.3585C22.5257 14.8979 22.9528 15.3247 23.4925 15.4959V16.1339C23.4925 17.0545 24.2415 17.8035 25.1622 17.8035H29.7709C30.6913 17.8035 31.4403 17.0545 31.4403 16.1339V11.5251C31.4403 10.6045 30.6913 9.85547 29.7709 9.85547ZM11.8404 29.3304C11.4581 29.3304 11.1474 29.0195 11.1474 28.6375C11.1474 28.2554 11.4583 27.9445 11.8404 27.9445C12.2224 27.9445 12.5333 28.2554 12.5333 28.6375C12.5333 29.0195 12.2224 29.3304 11.8404 29.3304ZM11.313 30.9418C11.313 31.2808 11.0373 31.5565 10.6981 31.5565H6.0893C5.75037 31.5565 5.47461 31.2808 5.47461 30.9418V26.3331C5.47461 25.9939 5.75037 25.7181 6.0893 25.7181H10.6981C11.0373 25.7181 11.313 25.9939 11.313 26.3331V26.9711C9.67771 27.4921 9.69667 29.7886 11.313 30.3038V30.9418ZM21.32 26.1155C21.3183 26.4962 21.0082 26.8052 20.627 26.8052C20.246 26.8052 19.9359 26.4962 19.9343 26.1155C20.0211 25.1638 21.2367 25.2039 21.32 26.1155ZM17.2319 21.9355C17.5643 21.9866 17.8197 22.2744 17.8197 22.6205C17.8197 23.0034 17.5082 23.3135 17.1267 23.3135C16.7444 23.3135 16.4338 23.0026 16.4338 22.6205C16.4338 22.1978 16.8114 21.8712 17.2319 21.9355ZM12.4504 14.5568C12.0683 14.5568 11.7574 14.2459 11.7574 13.8638C11.7574 13.4818 12.0683 13.1709 12.4504 13.1709C12.8324 13.1709 13.1434 13.4818 13.1434 13.8638C13.1434 14.2459 12.8327 14.5568 12.4504 14.5568ZM9.00398 18.0035C8.58375 18.0035 8.25416 17.6286 8.31898 17.2051C8.36979 16.8727 8.65763 16.6176 9.00398 16.6176C9.38575 16.6176 9.69694 16.9279 9.69694 17.3103C9.69694 17.6926 9.38603 18.0035 9.00398 18.0035ZM11.923 16.1682C11.923 16.5072 11.6473 16.7829 11.3081 16.7829H10.6703C10.3962 15.9268 9.52528 15.4201 8.65351 15.598C8.6461 15.6019 7.66556 15.7576 7.33762 16.7829H6.69959C6.36039 16.7829 6.08463 16.5072 6.08463 16.1682V11.5595C6.08463 11.2205 6.36039 10.9445 6.69959 10.9445H11.3084C11.6473 10.9445 11.923 11.2205 11.923 11.5595V12.1975C11.1834 12.4331 10.6651 13.1393 10.7049 13.952C10.708 13.9591 10.7154 15.1451 11.923 15.5302V16.1682ZM24.0198 13.1365C24.4011 13.1365 24.7128 13.4466 24.7128 13.8295C24.7128 14.2129 24.4005 14.5225 24.0198 14.5225C23.6378 14.5225 23.3269 14.2116 23.3269 13.8295C23.3269 13.4475 23.6378 13.1365 24.0198 13.1365ZM30.3856 16.1339C30.3856 16.4728 30.1099 16.7489 29.7709 16.7489H25.1622C24.8229 16.7489 24.5472 16.4728 24.5472 16.1339V15.4959C25.3009 15.2558 25.806 14.5395 25.7653 13.74V13.7397C25.7288 13.0146 25.2421 12.3845 24.5472 12.1632V11.5251C24.5472 11.1862 24.8229 10.9104 25.1622 10.9104H29.7709C30.1099 10.9104 30.3856 11.1862 30.3856 11.5251V16.1339Z" fill="#10D1E3"/>
</g>
<defs>
<clipPath id="clip0_1556_45904">
<rect width="36" height="36" fill="white"/>
</clipPath>
</defs>
</svg>
