<svg width="36" height="36" viewBox="0 0 36 36" fill="none" xmlns="http://www.w3.org/2000/svg">
<g id="solution 1" clip-path="url(#clip0_1556_45898)">
<g id="Group">
<path id="Vector" d="M6.39401 13.7176C6.39401 13.0479 6.6671 12.4381 7.10958 11.9975C7.55009 11.5551 8.15998 11.282 8.82963 11.282C9.50133 11.282 10.1092 11.5551 10.5517 11.9975C10.9922 12.4381 11.2672 13.0479 11.2672 13.7176C11.2672 14.3674 11.3011 14.9753 11.3589 15.5513H12.6026C12.9813 15.5513 13.3241 15.3978 13.5733 15.1487C13.8224 14.8996 13.9778 14.5547 13.9778 14.178V12.1969C13.9778 11.9059 14.213 11.6687 14.506 11.6687H16.4872C16.8639 11.6687 17.2087 11.5152 17.4579 11.2641C17.707 11.015 17.8625 10.6722 17.8625 10.2955C17.8625 9.91679 17.707 9.57401 17.4579 9.32483C17.2088 9.07564 16.864 8.92025 16.4872 8.92025H14.506C14.213 8.92025 13.9778 8.68505 13.9778 8.3941V6.41087C13.9778 6.03413 13.8224 5.69136 13.5733 5.44217C13.3241 5.19305 12.9813 5.03759 12.6026 5.03759H10.6215C10.3305 5.03759 10.0953 4.80043 10.0953 4.50941V2.52821C10.0953 2.14951 9.9398 1.80673 9.69068 1.55755C9.44149 1.30843 9.09675 1.15297 8.72002 1.15297C8.34328 1.15297 8.00051 1.30843 7.74935 1.55755C7.50016 1.80666 7.34667 2.14951 7.34667 2.52821V4.50941C7.34667 4.80043 7.10951 5.03759 6.81848 5.03759H4.83736C4.46062 5.03759 4.11581 5.19305 3.8667 5.44217C3.61758 5.69136 3.46212 6.03413 3.46212 6.41087V14.178C3.46212 14.5547 3.61758 14.8996 3.8667 15.1487C4.11581 15.3978 4.46062 15.5513 4.83736 15.5513H6.39401V13.7176ZM29.6061 19.4498C29.6061 19.7408 29.3709 19.9759 29.0799 19.9759C28.789 19.9759 28.5517 19.7407 28.5517 19.4498V16.0794V13.7176C28.5517 13.3389 28.3963 12.9921 28.1451 12.743C27.896 12.4918 27.5491 12.3364 27.1705 12.3364C26.7917 12.3364 26.445 12.4918 26.1958 12.743C25.9447 12.9922 25.7893 13.339 25.7893 13.7176C25.7893 15.3739 25.566 16.8249 25.279 18.4472C25.0717 19.6232 24.8784 20.7254 24.8784 21.8833C24.8784 23.3124 25.2811 25.9054 26.6323 26.8143C26.7799 26.9119 26.8655 27.0754 26.8655 27.2507L26.8675 28.6459H32.225C32.516 27.5019 32.9245 26.5731 33.3412 25.6244C34.1285 23.8346 34.9457 21.975 34.9457 18.4233C34.9457 16.3604 34.6606 14.441 34.1683 12.8246C33.8614 11.8141 33.4747 10.9252 33.0303 10.1977V14.1779C33.0303 14.8456 32.7571 15.4535 32.3167 15.8941C31.8762 16.3345 31.2703 16.6076 30.6006 16.6076H29.6061V19.4498ZM29.6061 13.7176V15.5513H30.6006C30.9793 15.5513 31.3222 15.3978 31.5713 15.1487C31.8205 14.8996 31.9759 14.5547 31.9759 14.178V6.41087C31.9759 6.03413 31.8205 5.69136 31.5713 5.44217C31.3222 5.19305 30.9793 5.03759 30.6006 5.03759H28.6195C28.3285 5.03759 28.0912 4.80043 28.0912 4.50941V2.52821C28.0912 2.14951 27.9378 1.80673 27.6886 1.55755C27.4395 1.30843 27.0946 1.15297 26.7179 1.15297C26.3412 1.15297 25.9964 1.30843 25.7472 1.55755C25.4981 1.80666 25.3427 2.14951 25.3427 2.52821V4.50941C25.3427 4.80043 25.1075 5.03759 24.8165 5.03759H22.8354C22.4566 5.03759 22.1138 5.19305 21.8647 5.44217C21.6155 5.69136 21.4601 6.03413 21.4601 6.41087V7.86584H22.9151C23.5847 7.86584 24.1907 8.13887 24.6311 8.57937C25.0716 9.01988 25.3446 9.62576 25.3446 10.2954C25.3446 10.9631 25.0715 11.571 24.6311 12.0115C24.1906 12.4499 23.5847 12.723 22.9151 12.723H21.4601V14.178C21.4601 14.5547 21.6155 14.8996 21.8647 15.1487C22.1138 15.3978 22.4566 15.5513 22.8354 15.5513H24.6431C24.699 14.9753 24.7349 14.3674 24.7349 13.7176C24.7349 13.0479 25.0079 12.4381 25.4504 11.9975C25.8909 11.5551 26.5007 11.282 27.1705 11.282C27.8422 11.282 28.4501 11.5551 28.8925 11.9975C29.333 12.438 29.6061 13.0479 29.6061 13.7176ZM6.39401 16.6076H4.83736C4.16763 16.6076 3.56175 16.3345 3.12124 15.8941C2.68073 15.4535 2.40771 14.8456 2.40771 14.1779V11.2142C2.1207 11.838 1.87158 12.5416 1.66823 13.3089C1.27357 14.8058 1.05434 16.5437 1.05434 18.4233C1.05434 21.975 1.87158 23.8346 2.6588 25.6244C3.07533 26.5731 3.48391 27.5019 3.77494 28.6459H9.13247V27.2508C9.13247 27.0814 9.21614 26.916 9.36766 26.8144C10.721 25.9055 11.1236 23.3124 11.1236 21.8834C11.1236 20.7254 10.9283 19.6232 10.721 18.4473C10.436 16.8249 10.2128 15.374 10.2128 13.7177C10.2128 13.339 10.0573 12.9922 9.80613 12.7431C9.55498 12.4919 9.21016 12.3365 8.82949 12.3365C8.45079 12.3365 8.10598 12.4919 7.85489 12.7431C7.60373 12.9923 7.4482 13.339 7.4482 13.7177V16.0795V19.4498C7.4482 19.7408 7.21301 19.976 6.92205 19.976C6.62906 19.976 6.39387 19.7408 6.39387 19.4498V16.6076H6.39401ZM28.2966 34.8445C28.5876 34.8445 28.8247 35.0818 28.8247 35.3727C28.8247 35.6637 28.5876 35.9009 28.2966 35.9009H24.4956C24.2046 35.9009 23.9674 35.6637 23.9674 35.3727V31.0178C23.9674 30.366 24.2345 29.7721 24.6651 29.3416C24.976 29.0307 25.3706 28.8055 25.8131 28.7058V27.5119C24.3122 26.2702 23.8239 23.6891 23.8239 21.8833C23.8239 20.6377 24.0252 19.4896 24.2405 18.2679C24.3361 17.7337 24.4318 17.1837 24.5155 16.6077H22.8354C22.1657 16.6077 21.5598 16.3346 21.1193 15.8941C20.6788 15.4536 20.4058 14.8457 20.4058 14.178V12.1969C20.4058 11.9059 20.641 11.6687 20.934 11.6687H22.9152C23.2919 11.6687 23.6367 11.5152 23.8859 11.2641C24.135 11.015 24.2904 10.6722 24.2904 10.2955C24.2904 9.91679 24.135 9.57401 23.8859 9.32483C23.6367 9.07564 23.2919 8.92025 22.9152 8.92025H20.934C20.641 8.92025 20.4058 8.68505 20.4058 8.3941V6.41087C20.4058 5.74318 20.6788 5.13526 21.1193 4.69679C21.5598 4.25635 22.1657 3.98326 22.8354 3.98326H24.2884V2.52821C24.2884 1.85855 24.5614 1.2526 25.0019 0.812164C25.4424 0.371656 26.0502 0.0986328 26.7179 0.0986328C27.3857 0.0986328 27.9936 0.371656 28.434 0.812164C28.8745 1.25267 29.1476 1.85855 29.1476 2.52821V3.98319H30.6005C31.2701 3.98319 31.8761 4.25621 32.3165 4.69672C32.757 5.13519 33.0301 5.74311 33.0301 6.4108V8.45176C33.9131 9.40245 34.6546 10.8136 35.1747 12.5197C35.697 14.2397 36 16.2647 36 18.4233C36 22.1923 35.137 24.1575 34.3058 26.0489C33.9292 26.906 33.5584 27.7451 33.2913 28.7356C33.684 28.8493 34.0367 29.0606 34.3178 29.3416C34.7483 29.7721 35.0154 30.3661 35.0154 31.0178V35.3727C35.0154 35.6637 34.7782 35.9009 34.4872 35.9009H30.6862C30.3953 35.9009 30.158 35.6637 30.158 35.3727C30.158 35.0817 30.3953 34.8445 30.6862 34.8445H33.9609V31.0178C33.9609 30.657 33.8115 30.3262 33.5723 30.087C33.3332 29.8497 33.0043 29.7003 32.6435 29.7003H26.3412C25.9784 29.7003 25.6496 29.8478 25.4104 30.087C25.1712 30.3261 25.0237 30.657 25.0237 31.0178V34.8445H28.2966ZM7.70351 35.9009C7.41248 35.9009 7.17729 35.6637 7.17729 35.3727C7.17729 35.0817 7.41248 34.8445 7.70351 34.8445H10.9782V31.0178C10.9782 30.657 10.8288 30.3262 10.5896 30.087C10.3504 29.8478 10.0215 29.7003 9.66073 29.7003H3.35848C3.00769 29.7003 2.67483 29.8398 2.42768 30.087C2.18848 30.3261 2.04096 30.657 2.04096 31.0178V34.8445H5.3157C5.60672 34.8445 5.84191 35.0818 5.84191 35.3727C5.84191 35.6637 5.60672 35.9009 5.3157 35.9009H1.51284C1.22182 35.9009 0.986625 35.6637 0.986625 35.3727V31.0178C0.986625 30.366 1.25367 29.7721 1.6823 29.3416C1.9653 29.0606 2.31609 28.8493 2.70872 28.7356C2.44167 27.7451 2.07295 26.906 1.69622 26.0489C0.863016 24.1575 0 22.1923 0 18.4233C0 16.4561 0.231258 14.6284 0.651727 13.0399C1.06432 11.4773 1.66423 10.1419 2.40771 9.13744V6.41087C2.40771 5.74318 2.68073 5.13526 3.12124 4.69679C3.56175 4.25635 4.16763 3.98326 4.83736 3.98326H6.29234V2.52821C6.29234 1.85855 6.56536 1.2526 7.0039 0.812164C7.44434 0.371656 8.05233 0.0986328 8.72002 0.0986328C9.38967 0.0986328 9.99562 0.371656 10.4361 0.812164C10.8766 1.25267 11.1496 1.85855 11.1496 2.52821V3.98319H12.6026C13.2723 3.98319 13.8802 4.25621 14.3187 4.69672C14.7592 5.13519 15.0323 5.74311 15.0323 6.4108V7.86577H16.4873C17.155 7.86577 17.7629 8.1388 18.2033 8.5793C18.6439 9.01981 18.9168 9.62569 18.9168 10.2954C18.9168 10.963 18.6438 11.571 18.2033 12.0114C17.7628 12.4499 17.1549 12.723 16.4873 12.723H15.0323V14.1779C15.0323 14.8456 14.7592 15.4535 14.3187 15.8941C13.8802 16.3345 13.2723 16.6076 12.6026 16.6076H11.4865C11.5682 17.1836 11.6658 17.7337 11.7595 18.2678C11.9748 19.4896 12.1781 20.6376 12.1781 21.8833C12.1781 23.689 11.6877 26.2701 10.1869 27.5119V28.7057C10.6294 28.8053 11.026 29.0305 11.3369 29.3415C11.7654 29.772 12.0325 30.366 12.0325 31.0177V35.3727C12.0325 35.6636 11.7973 35.9008 11.5064 35.9008H7.70351V35.9009Z" fill="#10D1E3"/>
</g>
</g>
<defs>
<clipPath id="clip0_1556_45898">
<rect width="36" height="36" fill="white"/>
</clipPath>
</defs>
</svg>
