<svg width="36" height="36" viewBox="0 0 36 36" fill="none" xmlns="http://www.w3.org/2000/svg">
<g id="digital 3">
<path id="Vector" d="M34.8494 24.8164L32.328 29.1837C32.1779 29.4434 31.8594 29.5531 31.5813 29.4409L27.8697 27.9425C27.5614 27.8181 27.4124 27.4674 27.5368 27.1591C27.6613 26.8507 28.012 26.7016 28.3203 26.8262L31.5469 28.1287L33.5452 24.6674L30.8074 22.5272C30.6108 22.3735 30.5295 22.1147 30.6027 21.8762C31.361 19.4076 31.39 16.6868 30.6027 14.1239C30.5295 13.8855 30.6108 13.6266 30.8074 13.473L33.5452 11.3328L31.5469 7.87148L28.3203 9.17395C28.089 9.26747 27.8241 9.20841 27.6542 9.02572C25.8421 7.07728 23.5222 5.73666 20.9454 5.14871C20.702 5.09318 20.5181 4.8931 20.4832 4.64578L19.9985 1.2039H16.0018L15.5171 4.64563C15.4822 4.89288 15.2983 5.09295 15.0549 5.14855C12.4781 5.73651 10.1582 7.0772 8.34612 9.02556C8.17622 9.20826 7.91136 9.26732 7.67999 9.17379L4.45346 7.87133L2.45506 11.3326L5.19288 13.4728C5.38941 13.6265 5.47075 13.8853 5.39754 14.1238C4.63923 16.5924 4.61027 19.3132 5.39754 21.8761C5.47075 22.1145 5.38941 22.3734 5.19288 22.527L2.45506 24.6672L4.45346 28.1285L7.67999 26.8261C7.91136 26.7325 8.17629 26.7916 8.34612 26.9743C10.1582 28.9227 12.4781 30.2633 15.0549 30.8513C15.2983 30.9068 15.4822 31.1069 15.5171 31.3542L16.0018 34.796H19.9985L20.4832 31.3542C20.5181 31.107 20.702 30.9069 20.9454 30.8513C22.3564 30.5294 23.6976 29.9783 24.9316 29.2137C25.2144 29.0387 25.5853 29.1259 25.7603 29.4083C25.9354 29.691 25.8483 30.0621 25.5657 30.2372C24.3371 30.9984 23.0111 31.5657 21.6185 31.9264L21.1178 35.4819C21.0759 35.7789 20.8217 35.9999 20.5217 35.9999H15.4788C15.1788 35.9999 14.9245 35.7789 14.8827 35.4819L14.3819 31.9264C11.8644 31.2749 9.58704 29.9588 7.75252 28.095L4.41915 29.4406C4.14097 29.553 3.82254 29.4433 3.6725 29.1834L1.15101 24.8161C1.00097 24.5563 1.06523 24.2257 1.30157 24.0409L4.13036 21.8295C3.44218 19.3323 3.44203 16.6678 4.13036 14.1701L1.30157 11.9586C1.06523 11.7738 1.00097 11.4432 1.15101 11.1834L3.6725 6.81611C3.82254 6.55629 4.1409 6.44658 4.41915 6.55892L7.75252 7.90451C9.58704 6.04072 11.8644 4.72463 14.3819 4.07317L14.8827 0.517677C14.9245 0.220991 15.1787 0 15.4787 0H20.5216C20.8216 0 21.0759 0.220991 21.1177 0.517978L21.6184 4.07347C24.1359 4.72493 26.4133 6.04102 28.2479 7.90481L31.5813 6.55922C31.8595 6.44704 32.178 6.55652 32.328 6.81641L34.8494 11.1837C34.9994 11.4435 34.9352 11.7741 34.6988 11.9589L31.87 14.1704C32.5582 16.6675 32.5584 19.332 31.87 21.8298L34.6988 24.0412C34.9352 24.2259 34.9994 24.5565 34.8494 24.8164ZM17.0141 20.8635L20.0239 15.7469C20.1924 15.4603 20.0968 15.0914 19.8103 14.9229C19.5238 14.7544 19.1548 14.85 18.9862 15.1365L15.9764 20.2531C15.8079 20.5397 15.9035 20.9086 16.1901 21.0771C16.4767 21.2457 16.8457 21.15 17.0141 20.8635ZM14.6636 15.6924C14.4286 15.4575 14.0475 15.4574 13.8124 15.6924L11.9304 17.5744C11.6954 17.8094 11.6953 18.1906 11.9304 18.4257L13.8124 20.3077C14.0475 20.5428 14.4285 20.5427 14.6636 20.3077C14.8987 20.0726 14.8987 19.6914 14.6636 19.4564L13.2072 18.0001L14.6636 16.5438C14.8987 16.3086 14.8987 15.9275 14.6636 15.6924ZM21.6871 20.484C21.8412 20.484 21.9953 20.4252 22.1128 20.3077L23.9948 18.4256C24.2297 18.1906 24.2299 17.8094 23.9948 17.5743L22.1128 15.6923C21.8777 15.4573 21.4966 15.4573 21.2616 15.6923C21.0264 15.9274 21.0264 16.3086 21.2616 16.5436L22.7179 17.9999L21.2616 19.4562C20.8811 19.8369 21.1557 20.484 21.6871 20.484ZM14.4774 27.6077C15.6264 28.029 16.8177 28.2387 18.006 28.2386C25.442 28.2382 30.4256 20.4739 27.2846 13.6969C24.9119 8.57764 18.8167 6.3429 13.6971 8.71549C7.18857 11.732 5.71289 20.4049 10.9183 25.3904C11.1584 25.6204 11.5395 25.6122 11.7694 25.372C11.9994 25.132 11.9912 24.7509 11.751 24.521C7.16111 20.1248 8.45748 12.4708 14.2032 9.8078C18.7207 7.71429 24.0987 9.68598 26.1922 14.2032C28.2858 18.7203 26.314 24.0985 21.7968 26.1921C19.6085 27.2063 17.1563 27.3076 14.8916 26.4774C14.5796 26.3631 14.2337 26.5233 14.1193 26.8353C14.005 27.1475 14.1652 27.4933 14.4774 27.6077Z" fill="#10D1E3"/>
</g>
</svg>
