<svg width="41" height="41" viewBox="0 0 41 41" fill="none" xmlns="http://www.w3.org/2000/svg">
<g id="professional-skills-icon 1" clip-path="url(#clip0_1549_16986)">
<path id="Vector" d="M33.6082 5.30703C33.216 4.91406 32.7551 4.72031 32.2215 4.72031C31.6887 4.72031 31.2215 4.91406 30.8348 5.30703L28.7215 7.41406C28.1551 7.04688 27.5551 6.72656 26.9285 6.43984C26.302 6.15312 25.6613 5.90703 25.0145 5.69375V2.45312C25.0145 1.90625 24.8285 1.44609 24.448 1.06641C24.0684 0.686719 23.6082 0.5 23.0613 0.5H18.9949C18.4746 0.5 18.0223 0.686719 17.6285 1.06641C17.2418 1.44609 17.048 1.90625 17.048 2.45312V5.42031C16.3684 5.57969 15.7082 5.77969 15.0746 6.02656C14.4348 6.27344 13.8285 6.55312 13.2551 6.86641L10.9145 4.55937C10.548 4.17344 10.102 3.97344 9.56133 3.97344C9.02773 3.97344 8.56836 4.17344 8.17461 4.55937L5.32852 7.41406C4.93555 7.80703 4.7418 8.26719 4.7418 8.79922C4.7418 9.33281 4.93555 9.8 5.32852 10.1859L7.43555 12.3C7.06836 12.8672 6.74883 13.4664 6.46211 14.093C6.17461 14.7195 5.92852 15.3602 5.71523 16.0062H2.47539C1.92773 16.0062 1.46758 16.193 1.08789 16.5734C0.708203 16.9531 0.521484 17.4133 0.521484 17.9602V22.0266C0.521484 22.5461 0.708203 23 1.08789 23.3938C1.46758 23.7797 1.92773 23.9734 2.47539 23.9734H5.4418C5.60117 24.6531 5.80117 25.3133 6.04805 25.9461C6.2957 26.5867 6.57539 27.2062 6.88789 27.8062L4.58164 30.1062C4.19492 30.4734 3.99492 30.9195 3.99492 31.4602C3.99492 31.993 4.19492 32.4531 4.58164 32.8469L7.43555 35.7336C7.82852 36.1 8.28867 36.2805 8.82227 36.2805C9.35508 36.2805 9.82148 36.1 10.209 35.7336L12.3215 33.5867C12.8887 33.9531 13.4887 34.2727 14.1152 34.5602C14.7418 34.8461 15.3816 35.0938 16.0285 35.3062V38.5469C16.0285 39.0938 16.2152 39.5531 16.5949 39.9328C16.9746 40.3133 17.4355 40.5 17.9816 40.5H22.048C22.5684 40.5 23.0215 40.3133 23.4152 39.9328C23.8012 39.5531 23.9949 39.0938 23.9949 38.5469V35.5797C24.6746 35.4203 25.3348 35.2203 25.9676 34.9734C26.6082 34.7266 27.2285 34.4469 27.8277 34.1336L30.1277 36.4406C30.4949 36.8273 30.9473 37.0266 31.4957 37.0266C32.048 37.0266 32.5012 36.8273 32.8684 36.4406L35.7551 33.5867C36.1215 33.193 36.302 32.7336 36.302 32.2C36.302 31.6672 36.1215 31.2 35.7551 30.8133L33.6082 28.7C33.9754 28.1328 34.2949 27.5336 34.5816 26.9062C34.8676 26.2805 35.1152 25.6398 35.3285 24.993H38.5684C39.1152 24.993 39.5746 24.8055 39.9543 24.4266C40.3348 24.0461 40.5215 23.5867 40.5215 23.0398V18.9734C40.5215 18.4531 40.3348 18.0008 39.9543 17.6063C39.5746 17.2195 39.1152 17.0266 38.5684 17.0266H35.6012C35.4418 16.3734 35.2418 15.7195 34.9949 15.0734C34.748 14.4195 34.4684 13.807 34.1551 13.2328L36.4621 10.893C36.8488 10.5266 37.048 10.0797 37.048 9.53984C37.048 9.00625 36.8488 8.54688 36.4621 8.15312L33.6082 5.30703ZM29.8262 25.4617C28.0512 28.7836 24.5496 31.043 20.5215 31.043C16.4918 31.043 12.9926 28.7836 11.2176 25.4633C11.4254 24.5562 11.7684 23.7648 12.7723 23.2102C14.1598 22.4375 16.5488 22.4953 17.6855 21.4727L19.2559 25.5961L20.0449 23.3484L19.6582 22.925C19.3676 22.5 19.4676 22.0172 20.0066 21.9297C20.1887 21.9008 20.3934 21.9188 20.5902 21.9188C20.8004 21.9188 21.034 21.8992 21.2324 21.9438C21.7332 22.0539 21.7848 22.5391 21.5355 22.925L21.1488 23.3484L21.9387 25.5961L23.359 21.4727C24.384 22.3945 27.1426 22.5805 28.2715 23.2102C29.2785 23.7742 29.6199 24.557 29.8262 25.4617ZM17.3957 18.7078C17.2535 18.7102 17.1371 18.6922 17.0105 18.6219C16.8426 18.5289 16.7238 18.3687 16.6434 18.1883C16.4738 17.8086 16.3395 16.8109 16.766 16.525L16.6863 16.4734L16.6777 16.3633C16.6613 16.1625 16.6574 15.9195 16.6527 15.6641C16.6371 14.7266 16.6176 13.5891 15.8426 13.3617L15.5105 13.2633L15.7301 12.9992C16.3559 12.2461 17.0098 11.5875 17.6691 11.082C18.4152 10.5094 19.1738 10.1289 19.9152 10.0187C20.6785 9.90625 21.4176 10.0773 22.1004 10.6141C22.3012 10.7727 22.4973 10.9641 22.6863 11.1867C23.4137 11.2555 24.0098 11.6375 24.4348 12.1828C24.6879 12.5078 24.8809 12.893 25.0043 13.3023C25.1262 13.7102 25.1793 14.1438 25.1566 14.5703C25.1152 15.3359 24.8285 16.082 24.2496 16.6273C24.3512 16.6305 24.4473 16.6531 24.5316 16.6984C24.8551 16.8664 24.8652 17.2312 24.7809 17.5383C24.6965 17.7945 24.5902 18.0914 24.4895 18.3414C24.3676 18.6781 24.1887 18.7414 23.8434 18.7047C23.0676 22.0992 18.3762 22.2148 17.3957 18.7078ZM20.5215 8.10703C27.3684 8.10703 32.9145 13.657 32.9145 20.5C32.9145 27.3469 27.3645 32.893 20.5215 32.893C13.6754 32.893 8.12852 27.343 8.12852 20.5C8.12852 13.6531 13.6785 8.10703 20.5215 8.10703Z" fill="white"/>
</g>
<defs>
<clipPath id="clip0_1549_16986">
<rect width="40" height="40" fill="white" transform="translate(0.521484 0.5)"/>
</clipPath>
</defs>
</svg>
