<svg width="18" height="19" viewBox="0 0 18 19" fill="none" xmlns="http://www.w3.org/2000/svg">
<g id="project-management-timeline-icon 1" clip-path="url(#clip0_1549_17643)">
<g id="Group">
<path id="Vector" fill-rule="evenodd" clip-rule="evenodd" d="M16.5942 12.0753L17.1584 12.6319C17.3069 12.7783 17.3069 13.0127 17.1584 13.1591L16.6981 13.6132C16.8169 13.8475 16.9209 14.0965 16.9802 14.3601H17.5741C17.782 14.3601 17.9602 14.5359 17.9602 14.7409V15.5318C17.9602 15.7368 17.782 15.9126 17.5741 15.9126H16.9357C16.8615 16.1616 16.7427 16.4106 16.6091 16.6303L17.0248 17.0403C17.1733 17.1868 17.1733 17.4211 17.0248 17.5676L16.4606 18.1241C16.3121 18.2706 16.0746 18.2706 15.9261 18.1241L15.4658 17.6701C15.2283 17.7873 14.9759 17.8898 14.7086 17.9484V18.5342C14.7086 18.7393 14.5305 18.915 14.3226 18.915H13.5209C13.313 18.915 13.1348 18.7393 13.1348 18.5342V17.8898C12.8824 17.8166 12.63 17.6994 12.4073 17.5676L11.9916 17.9777C11.8431 18.1241 11.6056 18.1241 11.4571 17.9777L10.8929 17.4211C10.7444 17.2747 10.7444 17.0403 10.8929 16.8939L11.3532 16.4399C11.2344 16.2055 11.1305 15.9565 11.0711 15.6929H10.4772C10.2693 15.6929 10.0912 15.5172 10.0912 15.3121V14.5212C10.0912 14.3162 10.2693 14.1404 10.4772 14.1404H11.1156C11.1899 13.8914 11.3086 13.6425 11.4423 13.4228L11.0414 13.0273C10.8929 12.8809 10.8929 12.6465 11.0414 12.5001L11.6056 11.9435C11.754 11.7971 11.9916 11.7971 12.1401 11.9435L12.6003 12.3975C12.8379 12.2804 13.0903 12.1779 13.3575 12.1193V11.5334C13.3575 11.3284 13.5357 11.1526 13.7436 11.1526H14.5453C14.7532 11.1526 14.9313 11.3284 14.9313 11.5334V12.1632C15.1837 12.2364 15.4361 12.3536 15.6588 12.4854L16.0746 12.0753C16.1933 11.9289 16.4457 11.9289 16.5942 12.0753ZM7.09204 12.9394C6.88418 12.9394 6.72086 12.7344 6.72086 12.5001C6.72086 12.2511 6.88418 12.0607 7.09204 12.0607H8.93308C9.14095 12.0607 9.30426 12.2657 9.30426 12.5001C9.30426 12.749 9.14095 12.9394 8.93308 12.9394H7.09204ZM7.64138 17.3479C7.89378 17.3479 8.0868 17.553 8.0868 17.7873C8.0868 18.0363 7.87894 18.2267 7.64138 18.2267H1.99946C1.71736 18.2267 1.45012 18.1095 1.2571 17.9191C1.06409 17.7287 0.945312 17.4797 0.945312 17.1868V1.94026C0.945312 1.64734 1.06409 1.39836 1.2571 1.20796C1.45012 1.01756 1.70252 0.900391 1.99946 0.900391H14.872C15.154 0.900391 15.4213 1.01756 15.6143 1.20796C15.8073 1.39836 15.9261 1.64734 15.9261 1.94026V9.0143C15.9261 9.26329 15.7182 9.45368 15.4807 9.45368C15.2283 9.45368 15.0353 9.24864 15.0353 9.0143V1.94026C15.0353 1.89632 15.0204 1.86703 14.9907 1.83774C14.961 1.80845 14.9313 1.7938 14.8868 1.7938H1.99946C1.95492 1.7938 1.92523 1.80845 1.89553 1.83774C1.86584 1.85238 1.85099 1.89632 1.85099 1.94026V17.2161C1.85099 17.26 1.86584 17.2893 1.89553 17.3186C1.92523 17.3479 1.95492 17.3626 1.99946 17.3626H7.64138V17.3479ZM3.73658 11.7531H5.32522C5.41431 11.7531 5.4737 11.8117 5.4737 11.8996V13.247C5.4737 13.3349 5.41431 13.3935 5.32522 13.3935H3.73658C3.6475 13.3935 3.58811 13.3349 3.58811 13.247V11.8996C3.58811 11.8117 3.6475 11.7531 3.73658 11.7531ZM3.73658 4.00535H5.32522C5.41431 4.00535 5.4737 4.06394 5.4737 4.15181V5.49925C5.4737 5.58713 5.41431 5.64571 5.32522 5.64571H3.73658C3.6475 5.64571 3.58811 5.58713 3.58811 5.49925V4.15181C3.58811 4.06394 3.6475 4.00535 3.73658 4.00535ZM7.09204 5.19168C6.88418 5.19168 6.72086 4.98664 6.72086 4.7523C6.72086 4.50332 6.88418 4.31292 7.09204 4.31292H12.244C12.4519 4.31292 12.6152 4.51797 12.6152 4.7523C12.6152 5.00129 12.4519 5.19168 12.244 5.19168H7.09204ZM4.19684 9.30722C4.09291 9.38046 3.95929 9.36581 3.85536 9.26329C3.84051 9.24864 3.84051 9.24864 3.82566 9.23399L3.35055 8.75067C3.24662 8.64815 3.27632 8.48705 3.39509 8.36988C3.52872 8.26735 3.70688 8.25271 3.81081 8.35523L4.06322 8.61886L4.89466 7.95979C4.99859 7.87191 5.17675 7.91585 5.26584 8.04766C5.36977 8.17948 5.35492 8.36988 5.23614 8.45775L4.19684 9.30722ZM6.83964 8.92643C6.63178 8.92643 6.46846 8.72138 6.46846 8.48705C6.46846 8.23806 6.63178 8.04766 6.83964 8.04766H11.9916C12.1995 8.04766 12.3628 8.25271 12.3628 8.48705C12.3628 8.73603 12.1995 8.92643 11.9916 8.92643H6.83964ZM14.0257 13.4813C14.8868 13.4813 15.5995 14.1697 15.5995 15.0338C15.5995 15.8833 14.9016 16.5863 14.0257 16.5863C13.1645 16.5863 12.4519 15.8979 12.4519 15.0338C12.4519 14.1697 13.1645 13.4813 14.0257 13.4813Z" fill="#43C4D8"/>
</g>
</g>
<defs>
<clipPath id="clip0_1549_17643">
<rect width="17" height="18" fill="white" transform="translate(0.945312 0.900391)"/>
</clipPath>
</defs>
</svg>
