<svg width="23" height="22" viewBox="0 0 23 22" fill="none" xmlns="http://www.w3.org/2000/svg">
<g id="realtime-icon 1" clip-path="url(#clip0_1549_17641)">
<path id="Vector" d="M12.2248 1.72756C12.13 1.73226 12.0352 1.71803 11.9462 1.68575C11.8572 1.65346 11.7759 1.60379 11.7071 1.53976C11.6383 1.47572 11.5835 1.39866 11.5461 1.31325C11.5087 1.22784 11.4894 1.13587 11.4894 1.04293C11.4894 0.949988 11.5087 0.858019 11.5461 0.77261C11.5835 0.687201 11.6383 0.610136 11.7071 0.5461C11.7759 0.482064 11.8572 0.432395 11.9462 0.40011C12.0352 0.367825 12.13 0.3536 12.2248 0.358299C14.1505 0.355846 16.0411 0.863503 17.6962 1.82749L17.6263 1.88535C17.3148 2.1606 16.9872 2.48144 16.656 2.82332C15.2948 2.1032 13.7719 1.7266 12.2248 1.72756ZM9.52851 8.64224L11.3833 8.61769L11.5212 8.65275C11.8975 8.86161 12.253 9.10462 12.5829 9.37859C12.8241 9.57849 13.052 9.79341 13.265 10.022C14.0984 8.75951 15.0002 7.54162 15.9667 6.37358C16.7884 5.40405 17.954 4.04005 18.8653 3.24234L19.0443 3.17396H21.0692L20.661 3.61752C19.3317 5.11532 18.0919 6.68707 16.9478 8.3249C15.9183 9.78182 14.4144 12.0382 13.5962 13.5845L13.342 14.0649L13.1075 13.5758C12.6924 12.6886 12.1675 11.8548 11.5445 11.0932C10.9227 10.3378 10.1924 9.67467 9.37633 9.12437L9.52851 8.63873V8.64224ZM8.13024 5.91599C8.07973 5.83822 8.04584 5.75124 8.03062 5.6603C8.0154 5.56935 8.01915 5.47633 8.04167 5.38684C8.06418 5.29736 8.10498 5.21327 8.1616 5.13966C8.21822 5.06604 8.28949 5.00443 8.37111 4.95854C8.45272 4.91265 8.54299 4.88344 8.63646 4.87266C8.72992 4.86188 8.82465 4.86977 8.91492 4.89584C9.00519 4.92191 9.08912 4.96563 9.16166 5.02435C9.23419 5.08307 9.29382 5.15558 9.33694 5.23749L9.65026 5.76346C9.69587 5.84116 9.7254 5.9269 9.73718 6.01579C9.74895 6.10467 9.74273 6.19495 9.71888 6.28148C9.69502 6.36801 9.65399 6.44909 9.59814 6.52009C9.54228 6.59109 9.47269 6.65063 9.39334 6.69529C9.31399 6.73996 9.22643 6.76888 9.13566 6.78041C9.0449 6.79194 8.9527 6.78585 8.86434 6.76249C8.77598 6.73913 8.69318 6.69895 8.62067 6.64425C8.54817 6.58956 8.48737 6.52141 8.44176 6.4437L8.13024 5.91774V5.91599ZM6.09459 8.58438C6.01524 8.53937 5.94572 8.47949 5.89 8.40817C5.83428 8.33685 5.79345 8.25548 5.76984 8.16871C5.72216 7.99346 5.74753 7.80685 5.84036 7.64992C5.93319 7.49299 6.08588 7.37859 6.26484 7.3319C6.35345 7.30879 6.44584 7.30299 6.53675 7.31484C6.62765 7.32668 6.71527 7.35595 6.79462 7.40096L7.33173 7.70777C7.49199 7.79868 7.60881 7.9482 7.65648 8.12344C7.70416 8.29869 7.6788 8.4853 7.58597 8.64224C7.49314 8.79917 7.34045 8.91356 7.16149 8.96025C6.98253 9.00694 6.79196 8.9821 6.6317 8.89119L6.09459 8.58438ZM7.0775 14.8749C6.99815 14.9196 6.91059 14.9485 6.81983 14.96C6.72906 14.9716 6.63687 14.9655 6.5485 14.9421C6.46014 14.9187 6.37734 14.8786 6.30484 14.8239C6.23233 14.7692 6.17154 14.701 6.12592 14.6233C6.08031 14.5456 6.05078 14.4599 6.039 14.371C6.02723 14.2821 6.03345 14.1918 6.0573 14.1053C6.10548 13.9306 6.22258 13.7817 6.38284 13.6915L6.91995 13.3847C7.08021 13.2945 7.27049 13.2703 7.44895 13.3175C7.6274 13.3647 7.77941 13.4793 7.87153 13.6363C7.96365 13.7932 7.98833 13.9795 7.94015 14.1543C7.89197 14.329 7.77487 14.4779 7.61461 14.5681L7.0775 14.8749ZM5.58434 11.5438C5.39963 11.5438 5.22248 11.472 5.09187 11.3441C4.96126 11.2162 4.88789 11.0427 4.88789 10.8618C4.88789 10.6809 4.96126 10.5075 5.09187 10.3796C5.22248 10.2517 5.39963 10.1798 5.58434 10.1798H6.20918C6.39389 10.1798 6.57103 10.2517 6.70164 10.3796C6.83225 10.5075 6.90563 10.6809 6.90563 10.8618C6.90563 11.0427 6.83225 11.2162 6.70164 11.3441C6.57103 11.472 6.39389 11.5438 6.20918 11.5438H5.58434ZM12.7046 17.1541C12.7046 17.335 12.6312 17.5084 12.5006 17.6363C12.37 17.7642 12.1929 17.8361 12.0082 17.8361C11.8235 17.8361 11.6463 17.7642 11.5157 17.6363C11.3851 17.5084 11.3117 17.335 11.3117 17.1541V16.5405C11.3117 16.3596 11.3851 16.1861 11.5157 16.0582C11.6463 15.9303 11.8235 15.8585 12.0082 15.8585C12.1929 15.8585 12.37 15.9303 12.5006 16.0582C12.6312 16.1861 12.7046 16.3596 12.7046 16.5405V17.1541ZM11.3117 4.56601C11.3117 4.38513 11.3851 4.21167 11.5157 4.08377C11.6463 3.95587 11.8235 3.88401 12.0082 3.88401C12.1929 3.88401 12.37 3.95587 12.5006 4.08377C12.6312 4.21167 12.7046 4.38513 12.7046 4.56601V5.17964C12.7046 5.2692 12.6866 5.35788 12.6516 5.44063C12.6166 5.52337 12.5653 5.59856 12.5006 5.66188C12.436 5.72521 12.3592 5.77545 12.2747 5.80972C12.1902 5.844 12.0996 5.86164 12.0082 5.86164C11.9167 5.86164 11.8261 5.844 11.7416 5.80972C11.6571 5.77545 11.5804 5.72521 11.5157 5.66188C11.451 5.59856 11.3997 5.52337 11.3647 5.44063C11.3297 5.35788 11.3117 5.2692 11.3117 5.17964V4.56601ZM9.39961 16.6474C9.30678 16.8041 9.15418 16.9183 8.97539 16.9648C8.7966 17.0113 8.60626 16.9864 8.44624 16.8955C8.28622 16.8046 8.16963 16.6552 8.12212 16.4801C8.07461 16.305 8.10007 16.1186 8.1929 15.9619L8.50442 15.4359C8.55015 15.3579 8.61113 15.2894 8.68388 15.2345C8.75663 15.1795 8.83973 15.1391 8.92842 15.1156C9.01712 15.092 9.10968 15.0858 9.20081 15.0973C9.29195 15.1088 9.37988 15.1378 9.45958 15.1826C9.53929 15.2274 9.6092 15.2871 9.66534 15.3583C9.72148 15.4296 9.76273 15.5109 9.78676 15.5978C9.81078 15.6847 9.8171 15.7753 9.80535 15.8645C9.7936 15.9538 9.76402 16.0399 9.71829 16.1179L9.40498 16.6439L9.39961 16.6474ZM16.1099 15.9619C16.1847 16.1164 16.1976 16.2927 16.1459 16.456C16.0943 16.6193 15.9819 16.7576 15.831 16.8436C15.6801 16.9296 15.5018 16.957 15.3313 16.9203C15.1608 16.8837 15.0105 16.7856 14.9103 16.6457L14.597 16.1197C14.5044 15.9628 14.4793 15.7762 14.5271 15.6012C14.575 15.4261 14.6919 15.2768 14.8522 15.1861C15.0124 15.0954 15.2029 15.0708 15.3817 15.1177C15.5605 15.1645 15.7129 15.279 15.8055 15.4359L16.1188 15.9619H16.1099ZM17.92 13.6827C18.0737 13.7765 18.1842 13.9252 18.2281 14.0973C18.272 14.2694 18.2459 14.4515 18.1553 14.6051C18.0646 14.7587 17.9166 14.8718 17.7424 14.9205C17.5682 14.9692 17.3815 14.9497 17.2217 14.8661L16.6846 14.5593C16.5243 14.4684 16.4075 14.3189 16.3598 14.1437C16.3122 13.9684 16.3375 13.7818 16.4304 13.6249C16.5232 13.4679 16.6759 13.3535 16.8548 13.3069C17.0338 13.2602 17.2244 13.285 17.3846 13.3759L17.9217 13.6827H17.92ZM18.8617 10.1763C19.0464 10.1763 19.2235 10.2482 19.3541 10.3761C19.4848 10.504 19.5581 10.6774 19.5581 10.8583C19.5581 11.0392 19.4848 11.2126 19.3541 11.3405C19.2235 11.4684 19.0464 11.5403 18.8617 11.5403H18.1957C18.011 11.5403 17.8338 11.4684 17.7032 11.3405C17.5726 11.2126 17.4992 11.0392 17.4992 10.8583C17.4992 10.6774 17.5726 10.504 17.7032 10.3761C17.8338 10.2482 18.011 10.1763 18.1957 10.1763H18.8617ZM3.8996 3.33876C3.98975 3.30587 4.08459 3.28694 4.18069 3.28266C4.39728 3.24803 4.61935 3.29172 4.80547 3.40559C4.99159 3.51946 5.12906 3.69574 5.19225 3.90154L5.93525 6.26663C5.97381 6.37937 5.98889 6.49853 5.97958 6.61708C5.97028 6.73562 5.93678 6.85113 5.88108 6.95677C5.82537 7.06241 5.74859 7.15604 5.65528 7.2321C5.56197 7.30817 5.45402 7.36513 5.33783 7.39962C5.22164 7.43411 5.09956 7.44542 4.97883 7.43288C4.85809 7.42034 4.74115 7.38422 4.63493 7.32663C4.5287 7.26905 4.43535 7.19119 4.36041 7.09765C4.28546 7.00412 4.23044 6.89681 4.1986 6.78208L4.08043 6.40513C2.9824 8.32946 2.63234 10.5778 3.09489 12.7351C3.55744 14.8925 4.80137 16.8131 6.59702 18.1425C8.39268 19.4718 10.6188 20.1202 12.8645 19.9679C15.1102 19.8155 17.2238 18.8728 18.8151 17.3136C20.2151 15.9429 21.1333 14.1714 21.4369 12.2557C21.7404 10.3399 21.4135 8.37931 20.5034 6.6576C20.815 6.26488 21.1337 5.87742 21.4506 5.50924C22.2907 6.89934 22.792 8.4605 22.9154 10.0713C23.0389 11.6821 22.7812 13.299 22.1623 14.7963C21.5435 16.2936 20.5802 17.631 19.3474 18.7042C18.1146 19.7775 16.6456 20.5578 15.0547 20.9843C13.4637 21.4109 11.7936 21.4723 10.1745 21.1637C8.55535 20.8551 7.03074 20.1848 5.71928 19.2051C4.40783 18.2253 3.3449 16.9625 2.61318 15.5148C1.88147 14.0671 1.50071 12.4736 1.50052 10.8583C1.50071 9.01108 1.99913 7.19668 2.94534 5.59866L2.17906 5.88268C1.95328 5.96661 1.7027 5.95927 1.48244 5.86227C1.26218 5.76528 1.09029 5.58658 1.00459 5.36548C0.918878 5.14438 0.926373 4.899 1.02542 4.68331C1.12447 4.46762 1.30696 4.2993 1.53274 4.21537L3.8996 3.33876Z" fill="#43C4D8"/>
</g>
<defs>
<clipPath id="clip0_1549_17641">
<rect width="22" height="21" fill="white" transform="translate(0.945312 0.357422)"/>
</clipPath>
</defs>
</svg>
