<svg width="40" height="39" viewBox="0 0 40 39" fill="none" xmlns="http://www.w3.org/2000/svg">
<g id="recycle-sign-icon 1" clip-path="url(#clip0_1549_17549)">
<g id="Group">
<path id="Vector" fill-rule="evenodd" clip-rule="evenodd" d="M5.5746 32.5883L1.29311 25.3398C0.518692 24.0296 0.233047 22.9976 0.877334 21.481L3.39418 17.3158L0.87416 15.9805L9.32607 15.9461L13.5441 23.2072L10.9415 21.7343L6.71718 29.111C6.31728 29.8115 5.98402 30.34 5.77773 31.1374C5.65395 31.6189 5.59364 32.1036 5.5746 32.5883ZM7.26942 10.1767L11.3383 3.20337C12.484 1.79932 13.9091 1.29274 15.2643 1.67111C16.4323 1.99632 16.756 2.51541 17.3781 3.4504C18.1207 4.56676 18.7682 5.75817 19.4442 6.92769L14.893 14.6296L7.26942 10.1767ZM16.5275 0.645434L25.0397 0.617291C26.579 0.611037 27.6295 0.886218 28.6388 2.19333L31.0414 6.42424L33.4757 4.94201L29.2767 12.1655L20.7868 12.1342L23.3829 10.652L19.0126 3.35972C18.5968 2.66864 18.2953 2.11828 17.6986 1.5429C17.3368 1.1958 16.9433 0.90498 16.5275 0.645434ZM35.0626 13.6384L39.16 20.5992C39.8234 22.2784 39.5536 23.7481 38.5443 24.7144C37.6747 25.5493 37.0558 25.565 35.9227 25.6275C34.5707 25.7025 33.1996 25.6619 31.8317 25.6525L27.3375 17.9193L35.0626 13.6384ZM38.8109 26.3029L34.5802 33.5796C33.8153 34.8961 33.0504 35.656 31.3969 35.8624L26.4774 35.7967L26.5631 38.6173L22.3102 31.4219L26.5822 24.1953L26.5885 27.1504L35.1832 27.0659C35.9989 27.0566 36.6305 27.0753 37.4367 26.8533C37.9223 26.7188 38.3761 26.5281 38.8109 26.3029ZM18.5809 35.7216L10.4147 35.7373C8.60878 35.4621 7.45033 34.499 7.10439 33.1543C6.80605 31.9942 7.09804 31.4595 7.6122 30.4619C8.22157 29.2705 8.94521 28.1198 9.6371 26.9596L18.6825 26.9909L18.5809 35.7216Z" fill="#43C4D8"/>
</g>
</g>
<defs>
<clipPath id="clip0_1549_17549">
<rect width="39" height="38" fill="white" transform="translate(0.521484 0.617188)"/>
</clipPath>
</defs>
</svg>
