<svg width="41" height="41" viewBox="0 0 41 41" fill="none" xmlns="http://www.w3.org/2000/svg">
<g id="Group">
<path id="Vector" fill-rule="evenodd" clip-rule="evenodd" d="M31.8644 22.3519C36.7641 22.3519 40.7367 26.3245 40.7367 31.2242C40.7367 36.124 36.7641 40.0966 31.8644 40.0966C26.9646 40.0966 22.992 36.124 22.992 31.2242C22.992 26.3245 26.9646 22.3519 31.8644 22.3519ZM34.812 28.9882C34.9589 28.9653 35.1025 28.9556 35.2494 28.9556C35.8631 28.9588 36.454 29.1775 36.9208 29.6802C37.0187 29.7847 37.1101 29.9022 37.1982 30.036C37.492 30.4865 37.6389 31.0839 37.6324 31.6715C37.6259 32.246 37.4692 32.8205 37.1525 33.2416C36.9469 33.5158 36.6792 33.741 36.3626 33.9173C36.0557 34.0903 35.6967 34.2209 35.2951 34.3123L35.2201 34.3221H28.5478L28.5054 34.3188C28.2606 34.2894 28.0419 34.2307 27.8395 34.1491C27.6338 34.0642 27.4478 33.9532 27.2878 33.8161C27.1344 33.6888 27.0006 33.5419 26.8863 33.3852C26.5827 32.9641 26.4162 32.4516 26.413 31.9424C26.4097 31.4266 26.5697 30.9109 26.9157 30.4963C27.0267 30.3625 27.1605 30.2384 27.3107 30.1274C27.4869 30.0001 27.6893 29.8924 27.9178 29.8043C28.0745 29.7423 28.241 29.6933 28.4205 29.6509C28.6196 28.8544 29.0505 28.2374 29.5989 27.8131C30.1147 27.4148 30.7349 27.183 31.3715 27.121C32.008 27.059 32.6609 27.1667 33.2484 27.4475C33.8915 27.7576 34.4497 28.2701 34.812 28.9882ZM6.39955 9.67659C9.04363 10.5612 12.7258 11.1064 16.8159 11.1064C20.9061 11.1064 24.5882 10.5612 27.2323 9.67659C29.5532 8.90296 30.9895 7.96284 30.9895 7.04557C30.9895 6.1283 29.5532 5.18818 27.2323 4.41454C24.5882 3.53318 20.9061 2.98478 16.8159 2.98478C12.7258 2.98478 9.04363 3.52992 6.39955 4.41454C1.47372 6.05975 1.33662 7.98895 6.39955 9.67659ZM2.66192 16.5936C2.84472 17.4489 4.23858 18.3107 6.39955 19.0321C9.04363 19.9167 12.7258 20.4618 16.8159 20.4618C20.9061 20.4618 24.5882 19.9167 27.2323 19.0321C29.5532 18.2584 30.9895 17.3183 30.9895 16.4011H30.9993V10.101C30.1735 10.6657 29.1126 11.1651 27.8689 11.5797C25.0191 12.5296 21.1085 13.1204 16.8159 13.1204C12.5201 13.1204 8.61274 12.5329 5.76301 11.5797C4.53237 11.1684 3.48453 10.6787 2.66519 10.1205V16.5936H2.66192ZM21.288 31.1785C19.8681 31.3222 18.3665 31.3973 16.8159 31.3973C12.5201 31.3973 8.61274 30.8097 5.76301 29.8565C4.53237 29.4452 3.48453 28.9556 2.66519 28.3974V34.4331C2.84799 35.2883 4.24185 36.1501 6.40281 36.8715C9.0469 37.7528 12.729 38.3013 16.8192 38.3013C19.274 38.3013 21.5785 38.1054 23.6024 37.7561C24.1116 38.3894 24.6894 38.9639 25.3292 39.4666C22.8712 40.0052 19.9464 40.3153 16.8192 40.3153C12.5234 40.3153 8.61601 39.7277 5.76627 38.7746C4.2647 38.2719 0.651114 36.6267 0.651114 34.655C0.651114 34.4233 0.651114 34.2307 0.651114 34.0087C0.644586 25.0253 0.625 16.0355 0.625 7.04557C0.625 5.16533 2.58684 3.56909 5.75975 2.50819C8.60948 1.55828 12.5201 0.970703 16.8159 0.970703C21.1118 0.970703 25.0191 1.55828 27.8689 2.51145C30.7578 3.47442 32.6413 4.8846 32.9579 6.54939C32.9971 6.65385 33.0167 6.7681 33.0167 6.88888V20.7197C32.6249 20.674 32.2267 20.6512 31.8219 20.6512C31.5445 20.6512 31.2735 20.661 31.0026 20.6838V19.463C30.1767 20.0277 29.1158 20.5271 27.8721 20.9417C25.0224 21.8916 21.1118 22.4824 16.8192 22.4824C12.5234 22.4824 8.61601 21.8949 5.76627 20.9417C4.53563 20.5304 3.48779 20.0408 2.66845 19.4826V25.5182C2.85125 26.3735 4.24511 27.2353 6.40608 27.9567C9.05016 28.838 12.7323 29.3864 16.8225 29.3864C18.4579 29.3864 20.028 29.2983 21.4937 29.1384C21.3566 29.7945 21.288 30.48 21.288 31.1785Z" fill="#43C4D8"/>
</g>
</svg>
