<svg width="47" height="42" viewBox="0 0 47 42" fill="none" xmlns="http://www.w3.org/2000/svg">
<path id="Vector" fill-rule="evenodd" clip-rule="evenodd" d="M1.29516 38.4052H5.58864C5.44738 38.2253 5.37088 37.9875 5.37527 37.7422V16.9677C5.37527 16.7157 5.46006 16.474 5.61099 16.2958C5.76192 16.1175 5.96662 16.0174 6.18006 16.0174H39.9065C40.1196 16.0186 40.3237 16.1191 40.4745 16.2971C40.6252 16.475 40.7103 16.7161 40.7113 16.9677V37.7422C40.7097 37.9896 40.628 38.2268 40.4829 38.4052H44.9748C45.2825 38.4052 45.5777 38.5496 45.7953 38.8066C46.0129 39.0635 46.1352 39.4121 46.1352 39.7755C46.1352 40.1389 46.0129 40.4874 45.7953 40.7444C45.5777 41.0013 45.2825 41.1457 44.9748 41.1457H1.29516C0.987407 41.1457 0.692255 41.0013 0.474638 40.7444C0.257021 40.4874 0.134766 40.1389 0.134766 39.7755C0.134766 39.4121 0.257021 39.0635 0.474638 38.8066C0.692255 38.5496 0.987407 38.4052 1.29516 38.4052ZM33.1125 9.98399H30.8292V14.2096H29.2308V9.03809C29.2303 8.9137 29.2507 8.79044 29.2908 8.67541C29.3309 8.56039 29.3898 8.45588 29.4643 8.36793C29.5388 8.27998 29.6273 8.21032 29.7247 8.16299C29.8221 8.11567 29.9265 8.0916 30.0319 8.09218H33.1238C33.3195 7.48154 33.6912 6.97189 34.1736 6.65284C34.656 6.33378 35.2182 6.22574 35.7614 6.3477C36.3046 6.46966 36.794 6.81382 37.1436 7.31968C37.4932 7.82554 37.6806 8.46073 37.6728 9.11358C37.6651 9.76643 37.4627 10.3952 37.1012 10.8892C36.7398 11.3833 36.2424 11.7112 35.6965 11.8151C35.1507 11.919 34.5912 11.7924 34.1166 11.4575C33.6419 11.1226 33.2824 10.6009 33.1013 9.98399H33.1125ZM16.6049 10.647V14.2096H14.9991V11.5929H13.1612C12.9724 12.2064 12.6065 12.7216 12.1279 13.0482C11.6493 13.3748 11.0886 13.4917 10.5442 13.3786C9.99977 13.2654 9.50658 12.9293 9.15121 12.4293C8.79585 11.9294 8.60106 11.2975 8.60106 10.6448C8.60106 9.99207 8.79585 9.36023 9.15121 8.86027C9.50658 8.36031 9.99977 8.02421 10.5442 7.91102C11.0886 7.79784 11.6493 7.9148 12.1279 8.24137C12.6065 8.56793 12.9724 9.08322 13.1612 9.69668H15.8189C15.924 9.69657 16.0281 9.72113 16.1251 9.76893C16.2222 9.81674 16.3102 9.88683 16.3841 9.97515C16.5295 10.1562 16.6089 10.3975 16.6049 10.647ZM12.5098 0.259766C12.0864 0.259939 11.6708 0.395184 11.3071 0.65121C10.9433 0.907236 10.6449 1.27454 10.4433 1.7143C10.2417 2.15406 10.1445 2.64995 10.1619 3.14957C10.1793 3.64919 10.3107 4.13399 10.5421 4.55274C10.7736 4.97148 11.0965 5.30863 11.4768 5.52855C11.8571 5.74846 12.2807 5.84299 12.7027 5.80213C13.1248 5.76127 13.5297 5.58655 13.8746 5.29642C14.2195 5.0063 14.4916 4.61154 14.6622 4.15387H19.3637V14.2096H20.9658V3.21239C20.9668 3.08764 20.9468 2.9639 20.9069 2.84836C20.867 2.73282 20.8081 2.62779 20.7336 2.53937C20.6591 2.45095 20.5704 2.3809 20.4727 2.33329C20.3751 2.28569 20.2704 2.26148 20.1647 2.26207H14.767C14.6262 1.68652 14.3313 1.18033 13.9264 0.819346C13.5215 0.458366 13.0284 0.262034 12.5211 0.259766L12.5098 0.259766ZM25.5325 0.303967C24.9785 0.302267 24.4418 0.53168 24.017 0.951729C23.5923 1.37178 23.3069 1.95547 23.2111 2.59981C23.1153 3.24416 23.2153 3.90776 23.4935 4.47351C23.7716 5.03927 24.2101 5.47084 24.7315 5.69207V14.2096H26.3373V5.69207C26.859 5.47072 27.2977 5.03879 27.5758 4.47256C27.8539 3.90634 27.9537 3.24226 27.8574 2.59762C27.7611 1.95299 27.475 1.36927 27.0496 0.949574C26.6242 0.52988 26.0868 0.301214 25.5325 0.303967ZM19.2701 21.4762C19.2682 20.6256 19.4707 19.7918 19.854 19.0717H26.4122C26.7959 19.7916 26.9985 20.6256 26.9961 21.4762C26.9961 22.686 26.5891 23.8463 25.8647 24.7017C25.1402 25.5572 24.1576 26.0378 23.1331 26.0378C22.1086 26.0378 21.126 25.5572 20.4016 24.7017C19.6771 23.8463 19.2701 22.686 19.2701 21.4762ZM34.2842 21.6486V22.6034C34.2832 23.0337 34.1382 23.446 33.8809 23.7507C33.6236 24.0554 33.2748 24.2276 32.9104 24.23H31.4992C31.3231 25.1568 31.0371 26.0497 30.6495 26.882L31.5778 27.9694C31.8345 28.2742 31.9786 28.6865 31.9786 29.1164C31.9786 29.5462 31.8345 29.9586 31.5778 30.2634L30.4548 31.616C30.1961 31.9193 29.8462 32.0896 29.4816 32.0896C29.117 32.0896 28.7671 31.9193 28.5084 31.616L27.6512 30.6038C26.9311 31.1353 26.1475 31.5361 25.3266 31.7928V33.1718C25.3247 33.6025 25.1789 34.0149 24.921 34.3195C24.6631 34.624 24.3139 34.7961 23.9491 34.7984H22.3246C21.9598 34.7961 21.6106 34.624 21.3527 34.3195C21.0948 34.0149 20.949 33.6025 20.9471 33.1718V31.8104C20.1188 31.5589 19.3276 31.1611 18.6001 30.6303L17.7653 31.616C17.5072 31.9191 17.158 32.0892 16.794 32.0892C16.4299 32.0892 16.0807 31.9191 15.8226 31.616L14.6772 30.2634C14.4205 29.9586 14.2764 29.5462 14.2764 29.1164C14.2764 28.6865 14.4205 28.2742 14.6772 27.9694L15.5755 26.9041C15.1776 26.061 14.8851 25.1543 14.7071 24.2123H13.3558C12.9914 24.21 12.6426 24.0377 12.3853 23.733C12.128 23.4284 11.983 23.016 11.9821 22.5857V20.6718C11.9835 20.2554 12.1202 19.8555 12.364 19.5545C12.6077 19.2535 12.9399 19.0744 13.2922 19.054H17.9001C17.68 19.7711 17.5673 20.5279 17.5669 21.2906C17.5669 21.4055 17.5669 21.516 17.5669 21.631C17.5669 21.7459 17.5669 21.8564 17.5669 21.9669C17.5669 23.7007 18.1502 25.3635 19.1885 26.5895C20.2267 27.8155 21.6349 28.5042 23.1032 28.5042C24.5715 28.5042 25.9796 27.8155 27.0179 26.5895C28.0561 25.3635 28.6394 23.7007 28.6394 21.9669C28.6394 21.8564 28.6394 21.7415 28.6394 21.631C28.6394 21.5204 28.6394 21.4055 28.6394 21.2906C28.6391 20.5279 28.5263 19.7711 28.3062 19.054H32.974C33.3263 19.0744 33.6585 19.2535 33.9022 19.5545C34.146 19.8555 34.2827 20.2554 34.2842 20.6718V21.631V21.6486ZM6.7378 17.4982H39.4386V37.477H6.7378V17.4982ZM21.808 39.0815H24.4657C24.5813 39.0848 24.6915 39.1402 24.7736 39.2364C24.8557 39.3326 24.9036 39.4622 24.9074 39.5987C24.9089 39.6689 24.8986 39.7388 24.8772 39.8044C24.8559 39.8699 24.8237 39.9299 24.7827 39.9808C24.7417 40.0317 24.6926 40.0725 24.6382 40.101C24.5838 40.1295 24.5252 40.145 24.4657 40.1468H21.808C21.7479 40.1462 21.6885 40.1315 21.6332 40.1035C21.5779 40.0756 21.5279 40.0349 21.4861 39.9839C21.4443 39.9329 21.4115 39.8725 21.3897 39.8064C21.3678 39.7402 21.3573 39.6696 21.3588 39.5987C21.3588 39.458 21.4061 39.3231 21.4904 39.2236C21.5746 39.1241 21.6889 39.0683 21.808 39.0683V39.0815Z" fill="#43C4D8"/>
</svg>
