<svg width="54" height="35" viewBox="0 0 54 35" fill="none" xmlns="http://www.w3.org/2000/svg">
<g id="laptop-report-icon 1" clip-path="url(#clip0_1476_8268)">
<g id="Group">
<path id="Vector" fill-rule="evenodd" clip-rule="evenodd" d="M37.8766 11.4267L41.8145 11.4412C41.8102 12.6129 41.3875 13.7364 40.6414 14.561C40.4645 14.7539 40.2704 14.9323 40.0677 15.0866L37.8766 11.4267ZM6.9384 0.0371094H46.1751C46.6884 0.0371094 47.1111 0.509667 47.1111 1.08349V30.5749C47.1111 31.0619 46.8135 31.4718 46.408 31.5875H49.0841C49.688 31.5875 50.1797 32.1372 50.1797 32.8123C50.1797 33.4874 49.688 34.0371 49.0841 34.0371H3.27523C2.67139 34.0371 2.17969 33.4874 2.17969 32.8123C2.17969 32.1372 2.67139 31.5875 3.27523 31.5875H6.70549C6.30436 31.4718 6.00244 31.0571 6.00244 30.5749V1.08349C6.00244 0.509667 6.42513 0.0371094 6.9384 0.0371094ZM7.60262 1.67659H45.6403V30.2808H7.60262V1.67659ZM25.1399 32.0504H28.2195C28.5085 32.0504 28.7457 32.3157 28.7457 32.6387C28.7457 32.9618 28.5085 33.227 28.2195 33.227H25.1399C24.8509 33.227 24.6137 32.9618 24.6137 32.6387C24.6137 32.3108 24.8509 32.0504 25.1399 32.0504ZM16.3928 7.96932H17.5919C17.6566 7.96932 17.7083 8.02718 17.7083 8.09951V12.8781C17.7083 12.9505 17.6566 13.0083 17.5919 13.0083H16.3928C16.3281 13.0083 16.2764 12.9505 16.2764 12.8781V8.09951C16.2764 8.02718 16.3281 7.96932 16.3928 7.96932ZM10.9669 6.35394H12.1659C12.2306 6.35394 12.2824 6.41181 12.2824 6.48414V12.8781C12.2824 12.9505 12.2306 13.0083 12.1659 13.0083H10.9669C10.9022 13.0083 10.8504 12.9505 10.8504 12.8781V6.48414C10.8504 6.41181 10.9022 6.35394 10.9669 6.35394ZM13.6799 5.44741H14.8789C14.9436 5.44741 14.9954 5.50527 14.9954 5.5776V12.8781C14.9954 12.9505 14.9436 13.0083 14.8789 13.0083H13.6799C13.6152 13.0083 13.5634 12.9505 13.5634 12.8781V5.5776C13.5634 5.50527 13.6152 5.44741 13.6799 5.44741ZM11.0359 25.425C10.7728 25.425 10.5614 25.1839 10.5614 24.8898C10.5614 24.5956 10.7728 24.3545 11.0359 24.3545H42.3192C42.5823 24.3545 42.7936 24.5956 42.7936 24.8898C42.7936 25.1839 42.5823 25.425 42.3192 25.425H11.0359ZM10.9583 21.524C10.6951 21.524 10.4838 21.2829 10.4838 20.9887C10.4838 20.6946 10.6951 20.4535 10.9583 20.4535H24.398C24.6611 20.4535 24.8725 20.6946 24.8725 20.9887C24.8725 21.2829 24.6611 21.524 24.398 21.524H10.9583ZM26.2354 21.524C25.9723 21.524 25.761 21.2829 25.761 20.9887C25.761 20.6946 25.9723 20.4535 26.2354 20.4535H42.3192C42.5823 20.4535 42.7936 20.6946 42.7936 20.9887C42.7936 21.2829 42.5823 21.524 42.3192 21.524H26.2354ZM10.9583 18.0425C10.6951 18.0425 10.4838 17.8014 10.4838 17.5073C10.4838 17.2131 10.6951 16.972 10.9583 16.972H31.2603C31.5234 16.972 31.7347 17.2131 31.7347 17.5073C31.7347 17.8014 31.5234 18.0425 31.2603 18.0425H10.9583ZM37.4712 10.5539L37.2598 5.84763C37.2555 5.75601 37.3202 5.67404 37.4022 5.66922C37.4281 5.66922 37.4539 5.6644 37.4884 5.6644C37.5143 5.6644 37.5445 5.6644 37.5747 5.6644C38.7306 5.64993 39.7917 6.14178 40.5853 6.9567C41.3789 7.77162 41.9008 8.91443 41.9871 10.2067C41.9914 10.2983 41.931 10.3803 41.849 10.3851L37.6394 10.7227C37.5575 10.7275 37.4841 10.66 37.4798 10.5684C37.4712 10.5587 37.4712 10.5539 37.4712 10.5539ZM37.5704 6.00194L37.7645 10.3707L41.6679 10.0572C41.5601 8.92408 41.0813 7.92592 40.3783 7.20262C39.6407 6.44074 38.653 5.98747 37.5747 6.00194H37.5704ZM37.0011 11.2242L39.1102 15.3132C38.4675 15.7279 37.7386 15.9449 37.0011 15.9449C34.6676 15.9449 32.7785 13.8329 32.7785 11.2242C32.7785 8.88068 34.314 6.89401 36.3886 6.55647L37.0011 11.2242Z" fill="#43C4D8"/>
</g>
</g>
<defs>
<clipPath id="clip0_1476_8268">
<rect width="53" height="34" fill="white" transform="translate(0.179688 0.0371094)"/>
</clipPath>
</defs>
</svg>
