<svg width="42" height="46" viewBox="0 0 42 46" fill="none" xmlns="http://www.w3.org/2000/svg">
<path d="M0.41109 23.9238C0.399983 24.2211 0.392578 24.5221 0.392578 24.823C0.392578 26.2251 0.529566 27.5794 0.799838 28.908C1.0553 30.211 1.45145 31.4662 1.98089 32.6994C1.98089 32.7141 1.9957 32.7361 2.00311 32.7508C2.52884 33.9803 3.16935 35.1291 3.89872 36.2118C4.62438 37.2982 5.46112 38.2965 6.38301 39.2104C7.3049 40.1353 8.31564 40.9538 9.40784 41.6695C10.5037 42.3999 11.67 43.0238 12.8992 43.5486C14.1543 44.0845 15.4464 44.4735 16.7718 44.7415C18.0936 45.0057 19.4709 45.1415 20.8852 45.1415C22.2995 45.1415 23.6657 45.0057 25.0059 44.7378C26.3203 44.4846 27.5865 44.0918 28.8305 43.567C28.8453 43.567 28.8675 43.5523 28.8823 43.545C30.1115 43.0238 31.2814 42.3888 32.3736 41.6658C33.4695 40.9464 34.4766 40.117 35.3985 39.2067C36.3314 38.2928 37.1571 37.2909 37.8827 36.2081C38.6195 35.1218 39.2452 33.9656 39.7784 32.7471C40.3189 31.5029 40.7113 30.222 40.9816 28.908C41.2519 27.5904 41.3889 26.2251 41.3889 24.823C41.3889 24.5221 41.3815 24.2248 41.3704 23.9275C27.7568 23.9238 14.058 23.9238 0.41109 23.9238ZM2.21044 25.7112H7.87876C8.0898 28.4896 9.02279 31.279 10.6815 34.0978H4.68362C4.30228 33.4408 3.95796 32.7581 3.65066 32.0387C3.63585 32.0241 3.63585 32.0167 3.62845 32.002C3.16195 30.8936 2.79171 29.7448 2.55846 28.552C2.36964 27.6271 2.25117 26.6875 2.21044 25.7112ZM5.84987 35.8778H11.8366C13.5434 38.3149 15.7981 40.7666 18.6008 43.2257C18.0973 43.1669 17.6049 43.0899 17.1273 42.9944C15.9092 42.7485 14.743 42.3962 13.61 41.908C12.466 41.4236 11.3997 40.8473 10.4001 40.1867C9.40414 39.5297 8.49336 38.7847 7.64551 37.9442C6.9939 37.2982 6.39041 36.6155 5.84987 35.8852V35.8778ZM23.1769 43.2257C25.9944 40.7629 28.2418 38.3149 29.9412 35.8778H35.9279C35.3873 36.6082 34.7839 37.2945 34.1322 37.9368C33.2844 38.7773 32.3736 39.5224 31.3777 40.1794C30.3929 40.8363 29.3229 41.4089 28.1677 41.9007C28.1529 41.9154 28.1455 41.9154 28.1307 41.9227C27.0126 42.3852 25.8538 42.7522 24.6505 42.9834C24.1581 43.0825 23.6657 43.1559 23.1769 43.2146V43.2257ZM37.0978 34.0978H31.0963C32.7587 31.2827 33.6917 28.4933 33.899 25.7112H39.5673C39.5192 26.6875 39.4081 27.6271 39.223 28.552C38.9749 29.7595 38.6195 30.9157 38.1271 32.0387C37.8198 32.7544 37.4755 33.4408 37.0978 34.0978ZM21.7886 42.0695V35.8778H27.7383C26.1759 37.9258 24.1951 39.9848 21.7886 42.0695ZM21.7886 34.0978V25.7112H32.1033C31.8701 28.4676 30.8371 31.257 28.9934 34.0978H21.7886ZM19.9929 25.7112V34.0978H12.7881C10.9443 31.257 9.91136 28.4639 9.67811 25.7112H19.9929ZM19.9929 35.8778V42.0695C17.5827 39.9848 15.6019 37.9258 14.0395 35.8778H19.9929Z" fill="#43C4D8"/>
<path fill-rule="evenodd" clip-rule="evenodd" d="M31.2778 14.0394L31.9183 14.0247L32.4514 14.01C31.8257 12.1125 32.0367 10.3691 33.5325 8.88635C33.7843 9.70114 34.3544 10.3728 35.3244 10.8683C35.7872 11.2096 36.2352 11.6207 36.6684 12.0941C36.7462 11.7785 36.4537 11.4005 36.0982 11.0078C36.4278 11.1692 36.7276 11.3931 36.9461 11.8262C37.1978 12.329 37.1941 12.7548 37.109 13.298C37.0683 13.5512 37.009 13.7861 36.9202 14.0063H37.805C38.738 12.0207 38.1456 9.0772 36.2352 7.83299C35.6466 7.45128 35.2282 7.46596 34.5395 7.46596C33.7509 7.46596 33.3474 7.48798 32.6736 7.93208C31.6813 8.58539 31.0704 9.71216 30.8113 11.2794C30.7631 12.0611 30.7261 13.4118 31.2778 14.0394ZM0.748047 21.0752C0.825797 18.9318 3.41745 18.8474 5.44265 17.5958L6.79771 21.0752H0.748047ZM9.53376 19.8971H9.80033C10.041 19.8971 10.2372 19.7026 10.2372 19.464V18.763C10.2372 18.5244 10.041 18.3299 9.80033 18.3299H8.21942C7.97877 18.3299 7.78254 18.5244 7.78254 18.763V19.464C7.78254 19.7026 7.97877 19.8971 8.21942 19.8971H8.4897L8.25645 21.0752H9.75961L9.53376 19.8971ZM6.76809 16.0837C6.81993 15.6763 5.60555 14.3367 5.38341 13.5953C4.90951 12.8465 4.7392 12.0721 5.25753 11.2794C5.46486 10.9637 5.376 10.1159 5.376 9.68279C5.376 5.38493 12.977 5.38126 12.977 9.68279C12.977 10.226 12.8511 10.9343 13.1473 11.3638C13.6434 12.0795 13.3879 12.9346 12.9659 13.5989C12.6993 14.3807 11.4294 15.6433 11.5145 16.0874C11.5923 18.2895 6.75329 18.2161 6.76809 16.0837ZM19.271 15.2395L21.174 20.778L22.1329 17.4894L21.6627 16.9829C21.448 16.6746 21.4035 16.4104 21.522 16.1791C21.7775 15.6836 22.2995 15.7717 22.7882 15.7717C23.3029 15.7717 23.9397 15.6763 24.0989 16.3149C24.1507 16.5315 24.0841 16.7517 23.936 16.9829L23.4658 17.4894L24.4247 20.778L26.1463 15.2395C28.3862 17.2398 32.8994 16.069 33.4436 21.0716H11.3701C11.944 15.8048 17.0125 17.2582 19.271 15.2395ZM17.7197 7.90639C17.7308 8.21836 17.8937 8.62576 18.2158 9.09922L18.2232 9.10656L19.2858 10.7802C19.7116 11.4519 20.1521 12.1308 20.7075 12.63C21.2295 13.1071 21.8738 13.4301 22.7142 13.4301C23.6287 13.4338 24.2914 13.0961 24.8356 12.5933C25.4021 12.0685 25.8538 11.3417 26.2981 10.6187L27.4939 8.6698C27.7383 8.11927 27.8123 7.78527 27.7309 7.62378C27.6865 7.53203 27.5199 7.499 27.2533 7.51001C27.0682 7.56139 26.8534 7.56139 26.598 7.49165L27.083 5.65286C23.3362 6.03457 21.2295 2.55884 18.5601 5.20142L18.9082 7.38155C18.475 7.46963 17.6901 7.19069 17.7197 7.90639ZM27.8049 6.88239C28.0567 6.95947 28.2381 7.09894 28.3492 7.32282C28.5306 7.67884 28.4566 8.21102 28.1196 8.97077C28.1122 8.98545 28.1048 8.99646 28.1011 9.01114L26.8905 10.9857C26.4203 11.7491 25.9464 12.5162 25.3095 13.1071C24.6505 13.7237 23.8286 14.1348 22.7105 14.1275C21.6664 14.1238 20.8778 13.7311 20.2336 13.1438C19.6116 12.5823 19.1414 11.8593 18.6934 11.1546L17.6308 9.48093C17.2384 8.89736 17.0348 8.36517 17.0199 7.92474C17.0125 7.71187 17.0496 7.52469 17.131 7.35219C17.2162 7.17601 17.3421 7.02553 17.5161 6.90809C17.6012 6.8567 17.6975 6.80532 17.7974 6.76862C17.7308 5.86574 17.7086 4.74631 17.753 3.8104C17.7752 3.58284 17.8197 3.35528 17.8826 3.12406C18.1529 2.16245 18.8378 1.3917 19.6782 0.855846C19.9744 0.672334 20.3002 0.510843 20.6446 0.389725C22.6809 -0.336985 25.3836 0.0630724 26.8312 1.61559C27.4236 2.24687 27.7938 3.08736 27.8716 4.19944L27.8049 6.88239ZM33.7139 17.6472L34.1915 15.9993L33.9583 15.746C33.8509 15.5956 33.8324 15.4598 33.8879 15.346C34.0138 15.0964 34.2767 15.1441 34.521 15.1441C34.7765 15.1441 35.0949 15.0927 35.1763 15.4157C35.2023 15.5222 35.1689 15.6323 35.0986 15.7497L34.8616 16.0066L35.3393 17.6546L34.5247 18.2932L33.7139 17.6472ZM37.9939 17.0747C37.631 16.3553 37.1719 15.7424 36.6351 15.1698C37.6421 15.5552 38.6751 15.9369 39.4341 16.414C39.9191 16.715 40.1708 16.9425 40.3634 17.3059C40.7817 18.084 40.8262 18.7777 40.8854 19.6218L41.0335 21.0752H35.1467C34.9875 20.4036 34.8987 19.842 34.5655 19.097C35.5836 18.1023 36.6684 17.2949 37.9939 17.0747ZM30.7705 15.8194C31.3333 15.5735 31.9146 15.3643 32.4218 15.1698C32.133 15.4818 31.8664 15.8011 31.6258 16.1424C31.3555 16.0323 31.0704 15.9222 30.7705 15.8194Z" fill="#43C4D8"/>
</svg>
