<svg width="42" height="42" viewBox="0 0 42 42" fill="none" xmlns="http://www.w3.org/2000/svg">
<g id="Group">
<path id="Vector" d="M12.6105 38.0448C12.5904 37.5243 12.5135 37.0038 12.3898 36.4933C11.8918 34.4814 10.6282 32.6429 9.0704 31.3083C9.01023 31.2549 8.95006 31.2048 8.88655 31.1548L7.48255 32.5228C8.56563 33.3503 9.34786 34.4847 9.66877 35.5424C9.8426 36.1163 9.89274 36.6802 9.7958 37.1873C9.68548 37.7679 9.398 38.2651 8.9066 38.6254C8.79629 38.7055 8.67929 38.7756 8.55226 38.839C9.18072 39.1493 9.7724 39.3428 10.2839 39.3828C10.7987 39.4262 11.2499 39.3328 11.631 39.1025C11.9954 38.8823 12.3196 38.532 12.6105 38.0448ZM27.0115 23.811C26.8777 23.7409 26.7708 23.6408 26.6939 23.5207L26.4298 23.7809C26.5267 23.8443 26.6103 23.9277 26.6738 24.0278C28.0377 26.1766 28.8233 28.3621 28.8968 30.5909C28.9704 32.8298 28.3252 35.0786 26.8276 37.3475C26.5769 37.7279 26.0688 37.8313 25.6877 37.5811C25.3066 37.3308 25.203 36.8237 25.4537 36.4433C26.7541 34.4747 27.3157 32.5428 27.2521 30.641C27.1886 28.7291 26.4933 26.8206 25.2832 24.912L23.1872 26.974C23.1672 26.9107 23.1471 26.8506 23.1271 26.7872L22.9666 26.944L14.1448 38.6855C13.6936 39.5096 13.1386 40.1135 12.4834 40.5072C11.7915 40.921 11.0159 41.0911 10.1602 41.0211C8.85312 40.9143 7.19841 40.1002 5.64733 38.9157C5.59719 38.8857 5.54704 38.849 5.50693 38.8056C4.97207 38.3885 4.45393 37.9314 3.96588 37.4443C2.85939 36.3398 1.9 35.0719 1.30497 33.8107C0.663146 32.4527 0.432489 31.0814 0.853688 29.8635C1.12446 29.0828 1.65263 28.3888 2.49502 27.8349L14.8602 18.4424L21.5492 11.3054L29.4116 0.494878C29.5453 0.311366 29.7392 0.201259 29.9465 0.164556C31.0964 -0.0556587 32.2664 0.027756 33.403 0.341395C35.3552 0.878586 37.2038 2.09978 38.6446 3.63794C40.0887 5.17945 41.1383 7.05461 41.496 8.88974C41.6899 9.88404 41.6799 10.8717 41.4225 11.7992C41.3723 11.9861 41.2587 12.1429 41.1116 12.2497V12.253L29.2779 20.798L28.8032 21.2618C28.8032 21.3252 28.7999 21.3886 28.7965 21.452L27.8438 22.3896C29.5888 23.3005 31.0028 24.4449 32.0357 25.863C33.0921 27.3144 33.7439 29.0327 33.9278 31.0547C33.9679 31.5051 33.6336 31.9055 33.1823 31.9456C32.7311 31.9856 32.3299 31.6519 32.2898 31.2015C32.1327 29.4865 31.5912 28.0384 30.7086 26.8272C29.8161 25.6094 28.5692 24.6117 27.0115 23.811ZM7.50595 30.2005C6.38275 29.5532 5.20607 29.1829 4.1163 29.1895C3.83885 29.1929 3.56474 29.2196 3.29731 29.2763C2.83265 29.6033 2.54517 29.987 2.39808 30.4041C2.13065 31.1748 2.31451 32.1257 2.78251 33.1134C3.29396 34.2011 4.1397 35.3055 5.1225 36.2898C5.53367 36.7002 5.96824 37.0906 6.4095 37.4409C7.16832 37.5677 7.65972 37.4943 7.93049 37.2941C8.06086 37.1974 8.14109 37.0539 8.17452 36.8804C8.22132 36.6335 8.19123 36.3365 8.09095 36.0162C7.79678 35.0452 6.94769 33.9809 5.78773 33.3836C5.38324 33.1768 5.22279 32.6829 5.43004 32.2792C5.4735 32.1958 5.52699 32.1257 5.5905 32.0657L7.50595 30.2005ZM22.3649 25.2323C21.0545 23.0836 18.6677 20.788 16.3545 19.2398L16.0335 19.5835C15.9934 19.6335 15.9433 19.6803 15.8898 19.7236L5.4267 27.6714C6.73041 27.9183 8.06086 28.5222 9.27766 29.3864L9.30774 29.4098L9.31109 29.4131C9.59189 29.6133 9.866 29.8302 10.1334 30.0571C11.9352 31.5986 13.3994 33.7373 13.981 36.0963L13.9911 36.1363L21.6529 25.9397C21.683 25.893 21.7197 25.8496 21.7632 25.8096L22.3649 25.2323ZM22.064 13.1506C25.0425 14.622 27.5263 17.0077 28.4322 19.3766L39.8981 11.0952C40.0151 10.498 40.0018 9.85735 39.8747 9.20004C39.5772 7.67188 38.678 6.08366 37.4378 4.75904C36.1909 3.42774 34.6164 2.37671 32.9717 1.92627C32.1695 1.70606 31.3538 1.62932 30.5482 1.73609L22.8563 12.2997L22.853 12.2964C22.8329 12.3231 22.8128 12.3498 22.7861 12.3765L22.064 13.1506Z" fill="#43C4D8"/>
</g>
</svg>
