<svg width="19" height="20" viewBox="0 0 19 20" fill="none" xmlns="http://www.w3.org/2000/svg">
<g id="server-checkmark-icon 2" clip-path="url(#clip0_1549_17633)">
<g id="Group">
<path id="Vector" fill-rule="evenodd" clip-rule="evenodd" d="M17.3414 11.146C18.1411 12.0304 18.625 13.1917 18.625 14.4626C18.625 17.2366 16.3181 19.4863 13.4701 19.4863C11.4948 19.4863 9.77811 18.4024 8.91341 16.8129H6.56365V17.886H3.05726V16.8129H0.626587V15.5667H3.05726V14.4827H4.17106V12.0289H1.7737C1.45797 12.0289 1.17079 11.9036 0.962946 11.7011C0.753515 11.4985 0.625 11.2187 0.625 10.911V6.97892C0.625 6.70524 0.726543 6.45321 0.896309 6.25838C0.726543 6.06356 0.625 5.81152 0.625 5.5363V1.60579C0.625 1.2981 0.753515 1.01823 0.96136 0.815674C1.1692 0.611572 1.45638 0.486328 1.7737 0.486328H16.2213C16.537 0.486328 16.8242 0.611572 17.0321 0.814128C17.2399 1.01668 17.3684 1.29655 17.3684 1.60425V5.5363C17.3684 5.80998 17.2653 6.06201 17.0971 6.25684C17.2669 6.45166 17.3684 6.70369 17.3684 6.97738V10.9094C17.3684 10.9898 17.3589 11.0687 17.3414 11.146ZM11.2156 15.2837C11.0839 15.16 11.0157 14.9961 11.0125 14.8322C11.0093 14.6667 11.0696 14.5013 11.1965 14.373C11.3235 14.2446 11.4916 14.1781 11.6598 14.175C11.8296 14.172 11.9993 14.2307 12.131 14.3544L12.9846 15.1445L14.9647 12.6195C14.9711 12.6118 14.979 12.6056 14.9869 12.5994C15.6311 12.0567 16.4942 12.9984 15.8675 13.5612L13.4352 16.5068C13.4305 16.5129 13.4241 16.5176 13.4178 16.5238C13.2908 16.632 13.1306 16.6861 12.9704 16.683C12.8101 16.6799 12.6483 16.6212 12.5229 16.5037L11.2156 15.2837ZM8.44219 15.5667C8.35968 15.211 8.31685 14.8415 8.31685 14.4626C8.31685 13.5798 8.55166 12.7494 8.96101 12.0289H5.44827V14.4843H6.56206V15.5682H8.44219V15.5667ZM4.81046 15.4089C5.24994 15.4089 5.60693 15.7568 5.60693 16.1851C5.60693 16.6134 5.24994 16.9613 4.81046 16.9613C4.37097 16.9613 4.01398 16.6134 4.01398 16.1851C4.01398 15.7568 4.36938 15.4089 4.81046 15.4089ZM2.87322 2.50106H3.72205V4.64258H2.87322V2.50106ZM14.5379 8.28857C14.9092 8.28857 15.2106 8.58236 15.2106 8.94417C15.2106 9.25342 14.9917 9.51164 14.6966 9.58122C14.9631 9.64461 15.2217 9.72811 15.4708 9.83016C15.8596 9.98942 16.2245 10.192 16.5592 10.4347V6.97892C16.5592 6.88924 16.5212 6.80575 16.4593 6.74699C16.4117 6.7006 16.3498 6.66813 16.2816 6.65576C16.261 6.65731 16.2403 6.65731 16.2213 6.65731H1.7737C1.75307 6.65731 1.73245 6.65731 1.71341 6.65576C1.64519 6.66813 1.58331 6.7006 1.53571 6.74699C1.47225 6.80575 1.43417 6.8877 1.43417 6.97892V10.911C1.43417 11.0007 1.47225 11.0841 1.53412 11.1429C1.596 11.2032 1.68009 11.2403 1.77211 11.2403H9.47824C9.9447 10.7022 10.5222 10.26 11.1759 9.94922C11.8661 9.62142 12.6403 9.43742 13.459 9.43742C13.6938 9.43742 13.9255 9.45288 14.1524 9.48226C13.9778 9.3632 13.8652 9.16683 13.8652 8.94417C13.8652 8.58236 14.1666 8.28857 14.5379 8.28857ZM11.9756 8.28857C12.3468 8.28857 12.6483 8.58236 12.6483 8.94417C12.6483 9.30599 12.3468 9.59977 11.9756 9.59977C11.6043 9.59977 11.3028 9.30599 11.3028 8.94417C11.3028 8.58236 11.6043 8.28857 11.9756 8.28857ZM7.56638 7.87419H8.41522V10.0157H7.56638V7.87419ZM5.2198 7.87419H6.06863V10.0157H5.2198V7.87419ZM2.87322 7.87419H3.72205V10.0157H2.87322V7.87419ZM14.5379 2.91545C14.9092 2.91545 15.2106 3.20923 15.2106 3.57105C15.2106 3.93286 14.9092 4.22664 14.5379 4.22664C14.1666 4.22664 13.8652 3.93286 13.8652 3.57105C13.8652 3.20923 14.1666 2.91545 14.5379 2.91545ZM11.9756 2.91545C12.3468 2.91545 12.6483 3.20923 12.6483 3.57105C12.6483 3.93286 12.3468 4.22664 11.9756 4.22664C11.6043 4.22664 11.3028 3.93286 11.3028 3.57105C11.3028 3.20923 11.6043 2.91545 11.9756 2.91545ZM7.56638 2.50106H8.41522V4.64258H7.56638V2.50106ZM5.2198 2.50106H6.06863V4.64258H5.2198V2.50106ZM1.71182 5.861C1.73245 5.85946 1.75307 5.85946 1.77211 5.85946H16.2197C16.2403 5.85946 16.261 5.85946 16.28 5.861C16.3482 5.84863 16.4101 5.81616 16.4577 5.76978C16.5196 5.70947 16.5577 5.62752 16.5577 5.53784V1.60579C16.5577 1.51611 16.5196 1.43262 16.4577 1.37231C16.3958 1.31201 16.3117 1.2749 16.2197 1.2749H1.7737C1.68168 1.2749 1.596 1.31201 1.53412 1.37231C1.47225 1.43262 1.43417 1.51457 1.43417 1.60579V5.53784C1.43417 5.62752 1.47225 5.71102 1.53412 5.76978C1.58172 5.81616 1.6436 5.84863 1.71182 5.861ZM16.1674 11.1321C15.8611 10.9001 15.5232 10.7053 15.1614 10.5569C14.6395 10.3435 14.0635 10.226 13.4606 10.226C13.0846 10.226 12.7197 10.2724 12.3706 10.359C10.5 10.8352 9.11967 12.4928 9.11967 14.4642C9.11967 16.8067 11.068 18.707 13.4733 18.707C15.8786 18.707 17.8269 16.8083 17.8269 14.4642C17.8238 13.1128 17.1764 11.9098 16.1674 11.1321Z" fill="#43C4D8"/>
</g>
</g>
<defs>
<clipPath id="clip0_1549_17633">
<rect width="18" height="19" fill="white" transform="translate(0.625 0.486328)"/>
</clipPath>
</defs>
</svg>
