<svg width="25" height="25" viewBox="0 0 25 25" fill="none" xmlns="http://www.w3.org/2000/svg">
<g id="Group 173372">
<circle id="Ellipse 3591" cx="12.313" cy="12.8345" r="12.0493" fill="#0CAA41"/>
<path id="Star 30" d="M10.95 9.5192C11.3797 8.19665 13.2508 8.19665 13.6805 9.5192C13.8727 10.1107 14.4239 10.5111 15.0458 10.5111C16.4364 10.5111 17.0146 12.2906 15.8896 13.108C15.3864 13.4735 15.1759 14.1215 15.3681 14.7129C15.7978 16.0355 14.2841 17.1353 13.159 16.3179C12.6559 15.9523 11.9746 15.9523 11.4715 16.3179C10.3465 17.1353 8.83275 16.0355 9.26247 14.7129C9.45465 14.1215 9.24412 13.4735 8.74099 13.108C7.61596 12.2906 8.19415 10.5111 9.58476 10.5111C10.2067 10.5111 10.7578 10.1107 10.95 9.5192Z" fill="white"/>
</g>
</svg>
