<svg width="19" height="20" viewBox="0 0 19 20" fill="none" xmlns="http://www.w3.org/2000/svg">
<path d="M8.59744 1.601C8.87581 0.637904 10.2404 0.637902 10.5188 1.601L11.9197 6.44787C12.0434 6.87569 12.4351 7.17019 12.8804 7.17019L17.6412 7.17019C18.5815 7.17019 19.002 8.34995 18.2738 8.9447L14.2286 12.2485C13.9184 12.5019 13.7893 12.9159 13.9005 13.3007L15.3971 18.4785C15.6694 19.4208 14.5635 20.1511 13.8038 19.5306L10.1907 16.5797C9.82256 16.279 9.29367 16.279 8.92555 16.5797L5.31239 19.5306C4.5527 20.1511 3.44679 19.4208 3.71916 18.4785L5.21574 13.3007C5.32696 12.9159 5.19785 12.5019 4.88763 12.2485L0.842424 8.9447C0.114215 8.34995 0.534767 7.17019 1.47499 7.17019L6.23582 7.17019C6.68116 7.17019 7.07283 6.8757 7.19649 6.44787L8.59744 1.601Z" fill="#0CAA41"/>
</svg>
