<svg width="36" height="35" viewBox="0 0 36 35" fill="none" xmlns="http://www.w3.org/2000/svg">
<g id="target-icon 1" clip-path="url(#clip0_1549_17562)">
<g id="Group">
<path id="Vector" d="M17.5905 0.5H17.5931V0.500567C19.2742 0.500851 20.8988 0.743115 22.4324 1.19445C22.6776 1.26651 22.9251 1.34594 23.1744 1.43161C24.4356 1.86621 25.6279 2.44293 26.7322 3.14192C26.8099 3.191 26.833 3.29369 26.784 3.37113C26.7789 3.37879 26.7729 3.38645 26.7669 3.39326L25.5456 4.95294C25.4915 5.02216 25.3929 5.03691 25.3211 4.9884L25.3183 4.9867C25.0078 4.79578 24.6871 4.61507 24.3578 4.44515C24.026 4.27437 23.6888 4.11608 23.3467 3.97169L23.3461 3.9714C21.5785 3.22447 19.6333 2.81143 17.5903 2.81143H17.5885V2.81086C15.5531 2.81086 13.6129 3.22249 11.8486 3.96573C11.5604 4.08714 11.2775 4.21707 11.0013 4.35466C9.57511 5.06499 8.2797 6.00029 7.16174 7.11374L7.1606 7.11487L7.15291 7.12196C6.78206 7.49188 6.43087 7.88138 6.10132 8.28874C5.76978 8.69866 5.45903 9.1273 5.1722 9.57211C3.69763 11.8586 2.842 14.5796 2.842 17.4999V17.5016H2.84143C2.84143 19.5287 3.25472 21.4612 4.00098 23.2183C4.12288 23.5057 4.25334 23.7871 4.39148 24.0623C5.1047 25.4824 6.04378 26.7728 7.16203 27.8863L7.16317 27.8874L7.16943 27.8939C7.54085 28.2636 7.9325 28.6136 8.3418 28.9421C8.75338 29.2726 9.18376 29.5818 9.63066 29.8675C11.9264 31.3361 14.6588 32.1883 17.5905 32.1883H17.5922V32.1891C19.6282 32.1889 21.5679 31.7775 23.3322 31.0343C23.6207 30.9129 23.9032 30.7829 24.1795 30.6453C25.6057 29.935 26.9014 28.9997 28.019 27.8863L28.0205 27.8848L28.029 27.8766C28.3993 27.507 28.7502 27.1181 29.0795 26.7113C29.4113 26.3013 29.7218 25.8724 30.0086 25.4276C31.4834 23.1411 32.3388 20.4201 32.3388 17.5001V17.4973H32.3396C32.3394 16.2721 32.1881 15.0801 31.903 13.9408C31.8557 13.751 31.8059 13.5669 31.754 13.3888C31.48 12.4506 31.114 11.5508 30.6677 10.7C30.6289 10.6266 30.6512 10.5375 30.7167 10.4898L32.2949 9.24702C32.3667 9.19028 32.4712 9.20248 32.5279 9.27425C32.533 9.28049 32.5373 9.2873 32.541 9.29411H32.5416L32.5427 9.29638L32.5444 9.29978C32.7327 9.63963 32.9107 9.98771 33.0762 10.3426C33.242 10.6978 33.3955 11.0589 33.5362 11.4246C34.2617 13.3116 34.6593 15.3603 34.6593 17.5004V17.5021H34.6587C34.6584 19.8485 34.1805 22.0847 33.3169 24.1179C33.177 24.4478 33.0261 24.7737 32.8646 25.0946C32.0377 26.7413 30.9514 28.2346 29.66 29.5211L29.6588 29.5223L29.6525 29.5279C29.2219 29.9566 28.7681 30.362 28.2936 30.7429C27.8171 31.1256 27.3192 31.4831 26.8028 31.8135C24.1453 33.5134 20.9829 34.5003 17.5903 34.5003H17.5885V34.4997C15.2327 34.4994 12.9874 34.0234 10.946 33.1633C10.6147 33.024 10.2875 32.8734 9.96505 32.7125C8.31189 31.8893 6.81226 30.807 5.52055 29.5211L5.51941 29.5197L5.51143 29.5115C5.08191 29.0831 4.67546 28.6321 4.29378 28.1603C3.90983 27.6857 3.55066 27.1898 3.21912 26.6755C1.51241 24.0282 0.521484 20.8788 0.521484 17.5001V17.4982H0.522054C0.522339 15.1518 1.00028 12.9159 1.86361 10.8824C2.00374 10.5525 2.1547 10.2268 2.3162 9.90544C3.14278 8.25896 4.22941 6.76566 5.52055 5.47917L5.52169 5.47803L5.52909 5.47151C5.95919 5.04343 6.41292 4.63805 6.8866 4.25764C7.3634 3.87524 7.861 3.51751 8.37769 3.18731C11.036 1.48664 14.1982 0.5 17.5905 0.5ZM27.0298 5.12371L31.8064 0.578012L32.1246 3.64375L35.5215 4.06672L30.4065 9.00305L27.9176 9.21581L17.9862 18.4156L17.071 17.6306L26.4781 7.84365L27.0298 5.12371ZM17.5905 12.119H17.5948V12.1196C17.9161 12.1199 18.2288 12.1474 18.5299 12.2001C18.5649 12.2064 18.6145 12.2157 18.6772 12.2285H18.678C18.9287 12.2796 19.1742 12.3485 19.4126 12.4336C19.4992 12.4642 19.5442 12.559 19.5131 12.6452C19.5072 12.6623 19.498 12.6776 19.4875 12.6912L19.4878 12.6915L18.1545 14.3947C18.1172 14.4426 18.0579 14.4639 18.0013 14.4565V14.4571L17.9936 14.456L17.9343 14.4492L17.9292 14.4483L17.8779 14.4429L17.8737 14.4423C17.7848 14.4347 17.6905 14.4304 17.5905 14.4304H17.5888V14.4296C17.1641 14.4299 16.7585 14.5161 16.39 14.6716C16.329 14.6974 16.2698 14.7246 16.2131 14.7527C15.9163 14.9005 15.6457 15.0959 15.4113 15.3294L15.4102 15.3306L15.4025 15.3374C15.3273 15.4128 15.2561 15.4925 15.1888 15.5757C15.1196 15.661 15.0547 15.751 14.9946 15.844C14.687 16.3212 14.5087 16.8899 14.5087 17.4999V17.5016H14.5078C14.5081 17.9251 14.5947 18.3288 14.7508 18.6956C14.7767 18.7566 14.804 18.8156 14.8322 18.8717C14.9806 19.1676 15.1772 19.4368 15.4113 19.67L15.4124 19.6714L15.4193 19.6785C15.495 19.7534 15.5751 19.8249 15.6585 19.8916C15.7443 19.9605 15.8346 20.0255 15.928 20.0853C16.4073 20.3914 16.9784 20.5693 17.5905 20.5693H17.5922V20.5699C18.0175 20.5699 18.4231 20.4836 18.7911 20.3282C18.8523 20.3023 18.9113 20.2751 18.968 20.247C19.2651 20.0989 19.5354 19.9035 19.7695 19.67L19.7709 19.6686L19.7766 19.6632C19.8182 19.6215 19.8586 19.5792 19.896 19.5375C19.9333 19.4958 19.9723 19.449 20.0122 19.3985C20.2053 19.1546 20.3622 18.8811 20.4739 18.5869C20.4867 18.5526 20.5098 18.5248 20.5385 18.5064L22.693 16.8094C22.7651 16.7526 22.8693 16.7648 22.9263 16.8366C22.9462 16.8619 22.9573 16.8911 22.9607 16.9209H22.9616L22.963 16.9336L22.9636 16.9424L22.9704 17.0133V17.0153H22.971L22.9773 17.0925V17.0939C22.9872 17.2301 22.9929 17.3654 22.9929 17.4999V17.5016H22.9921C22.9918 18.244 22.8405 18.9515 22.5674 19.5948C22.5235 19.6984 22.4754 19.8016 22.4241 19.9041C22.1618 20.4257 21.8183 20.8986 21.4101 21.3049L21.409 21.306L21.3999 21.3137C21.2654 21.447 21.1241 21.5738 20.9769 21.6921C20.8259 21.8129 20.6681 21.9264 20.5052 22.0305C19.6638 22.5684 18.6635 22.8807 17.5903 22.8807H17.5885V22.8799C16.8431 22.8796 16.1328 22.729 15.4871 22.4569C15.3831 22.4132 15.2791 22.3653 15.1766 22.3142C14.6528 22.0529 14.178 21.7108 13.7701 21.3046L13.769 21.3035L13.7596 21.2932C13.6263 21.1596 13.4998 21.0192 13.3813 20.8728C13.2597 20.7225 13.146 20.5656 13.0412 20.4031C12.5012 19.5653 12.1876 18.5688 12.1876 17.5001V17.4982H12.1882C12.1884 16.756 12.34 16.0485 12.6128 15.4054C12.657 15.3019 12.7048 15.1986 12.7561 15.0962C13.0179 14.5754 13.3614 14.1028 13.7698 13.696L13.7701 13.6957L13.7698 13.6954L13.771 13.6943C13.9062 13.5598 14.0507 13.4307 14.2033 13.3082C14.3543 13.1871 14.5118 13.0739 14.675 12.9695C15.517 12.4313 16.5179 12.119 17.5905 12.119ZM17.8734 14.4423C17.7859 14.4316 17.7221 14.3544 17.7275 14.267L17.8734 14.4423ZM17.5905 6.26156H17.5934V6.26213C18.6028 6.26241 19.5807 6.39461 20.5095 6.64169C20.6607 6.68197 20.8111 6.72538 20.9601 6.7719C21.7249 7.00962 22.4557 7.32735 23.1422 7.71457C23.2219 7.75968 23.2501 7.86095 23.2048 7.94038C23.2006 7.94719 23.1963 7.95428 23.1912 7.96052L23.1903 7.96137L21.953 9.54204C21.9012 9.60786 21.8092 9.62431 21.7385 9.58375L21.7345 9.58176C21.5671 9.49467 21.3925 9.41042 21.211 9.33099C21.0284 9.2507 20.845 9.17695 20.661 9.11C19.7043 8.76221 18.6698 8.57242 17.5903 8.57242H17.5885V8.57186C16.3515 8.57186 15.1726 8.82235 14.1002 9.27397C13.931 9.34545 13.759 9.4246 13.5852 9.51084L13.5721 9.5168C12.7111 9.94771 11.9284 10.5137 11.2519 11.1871L11.2508 11.1882L11.2442 11.1948C11.0201 11.4186 10.8073 11.6552 10.6076 11.902C10.4063 12.1511 10.2174 12.4118 10.0431 12.6821C9.1473 14.0716 8.62748 15.7254 8.62748 17.4999V17.5016H8.62691C8.62691 18.7336 8.87842 19.908 9.33187 20.9758C9.40592 21.1506 9.48539 21.3219 9.56913 21.4887C10.0024 22.3514 10.5732 23.1355 11.2528 23.8123L11.2539 23.8135C11.4823 24.0413 11.7219 24.2557 11.9703 24.4549C12.2203 24.6554 12.4821 24.8435 12.7535 25.0171C14.1486 25.9096 15.8095 26.427 17.5908 26.427H17.5925V26.4276C18.8295 26.4276 20.0087 26.1774 21.0811 25.7258C21.2566 25.6517 21.4286 25.5729 21.5961 25.4892C22.4623 25.0577 23.2496 24.4895 23.9292 23.8123L23.9303 23.8112C24.159 23.5834 24.3743 23.3451 24.5743 23.0977C24.7757 22.8484 24.9645 22.588 25.1388 22.3173C26.0352 20.9276 26.555 19.2737 26.555 17.4999H26.5544V17.4956H26.555C26.555 16.945 26.5043 16.4049 26.408 15.8812C26.3935 15.8029 26.3764 15.7172 26.3568 15.6261C26.2636 15.1907 26.1386 14.7683 25.9856 14.3621C25.9583 14.2892 25.9856 14.2092 26.0474 14.1672L27.6604 12.8969C27.7325 12.8401 27.8368 12.8523 27.8934 12.9241C27.902 12.9352 27.9088 12.9462 27.9142 12.9581L27.9157 12.961L27.9168 12.9632L27.9171 12.963C28.0011 13.1527 28.082 13.3502 28.1592 13.5547C28.2352 13.7567 28.3053 13.9595 28.3682 14.1626C28.6972 15.2176 28.8747 16.3385 28.8747 17.4996V17.5013H28.8738C28.8738 19.0522 28.5579 20.5304 27.9871 21.8742C27.8949 22.0918 27.7946 22.3074 27.6878 22.5202C27.1412 23.6089 26.4231 24.5961 25.5695 25.446L25.5681 25.4472L25.5618 25.4531C25.2775 25.7354 24.9785 26.0032 24.6657 26.2543C24.3507 26.5073 24.0214 26.7436 23.6802 26.9618C21.9228 28.0857 19.8324 28.7379 17.5903 28.7379H17.5885C16.0314 28.7376 14.5471 28.423 13.1976 27.8545C12.9791 27.7623 12.7627 27.6627 12.549 27.5563C11.4561 27.0117 10.4646 26.2968 9.611 25.4466L9.60986 25.4455L9.60189 25.437C9.31905 25.1547 9.05103 24.8574 8.7998 24.5465C8.54574 24.2327 8.30847 23.9048 8.08915 23.565C6.96065 21.8149 6.30583 19.7327 6.30583 17.4999V17.4982H6.3064C6.30668 15.9473 6.62284 14.469 7.19364 13.1249C7.28593 12.9074 7.38591 12.6918 7.49272 12.479C8.03902 11.3911 8.75708 10.4042 9.61072 9.55368L9.611 9.55339L9.61072 9.55311L9.61186 9.55197L9.61926 9.54517C9.90296 9.2629 10.202 8.99568 10.5142 8.74518C10.8295 8.49214 11.1585 8.25584 11.4997 8.03768C13.2577 6.91374 15.3486 6.26156 17.5905 6.26156Z" fill="#43C4D8"/>
</g>
</g>
<defs>
<clipPath id="clip0_1549_17562">
<rect width="35" height="34" fill="white" transform="translate(0.521484 0.5)"/>
</clipPath>
</defs>
</svg>
