<svg width="44" height="42" viewBox="0 0 44 42" fill="none" xmlns="http://www.w3.org/2000/svg">
<g id="time-management-icon 1" clip-path="url(#clip0_1549_17559)">
<g id="Group">
<path id="Vector" fill-rule="evenodd" clip-rule="evenodd" d="M9.77376 36.823V23.3349H15.7961C18.3507 23.7966 20.9017 25.1888 23.4562 26.8101H28.1348C30.252 26.9369 31.3612 29.101 29.3036 30.5213C27.6624 31.7337 25.4998 31.6632 23.2813 31.4623C21.752 31.3848 21.6855 33.4572 23.2813 33.4642C23.8341 33.5065 24.436 33.3761 24.9644 33.3761C27.7324 33.3726 30.014 32.8404 31.4102 30.6376L32.1136 28.9882L39.0738 25.5131C42.5557 24.357 45.0297 28.026 42.4647 30.5777C37.4256 34.2713 32.2536 37.3094 26.9661 39.766C23.1273 42.1168 19.285 42.0392 15.4462 39.766L9.77376 36.823ZM32.1486 1.33881C36.3303 3.08342 39.0703 7.19293 39.0703 11.7747C39.0703 14.8939 37.814 17.717 35.7879 19.7611C33.7583 21.8053 30.9553 23.0706 27.8584 23.0706C24.765 23.0706 21.962 21.8053 19.9324 19.7611C17.9028 17.717 16.6465 14.8939 16.6465 11.7747C16.6465 7.22818 19.453 2.98826 23.6242 1.2648C26.2102 0.200412 29.5766 0.267377 32.1486 1.33881ZM26.1367 11.4751C26.2767 11.3201 26.4482 11.1897 26.6301 11.0875V6.17437C26.6301 5.67389 27.0326 5.26858 27.5295 5.26858C28.0264 5.26858 28.4323 5.67389 28.4323 6.17437V11.0875C28.7612 11.2672 29.0307 11.5386 29.2091 11.8699H32.908C33.4049 11.8699 33.8073 12.2752 33.8073 12.7757C33.8073 13.2761 33.4049 13.6815 32.908 13.6815H29.2091C28.8872 14.2841 28.2573 14.693 27.533 14.693C26.9626 14.693 26.4517 14.4392 26.1017 14.0374C25.4543 13.2938 25.4823 12.1836 26.1367 11.4751ZM34.5142 5.24743C29.8705 0.57048 22.0355 1.89215 19.32 7.78504C18.7601 8.99745 18.4487 10.3473 18.4487 11.7747C18.4487 14.3934 19.502 16.7618 21.2026 18.4782C22.9068 20.1947 25.2584 21.2555 27.8584 21.2555C30.4584 21.2555 32.8135 20.1911 34.5142 18.4747C36.2183 16.7618 37.2716 14.3899 37.2716 11.7712C37.2716 10.2874 36.9322 8.88115 36.3268 7.62997C35.8684 6.68541 35.256 5.99462 34.5142 5.24743ZM0.521484 22.0379H7.9611V38.1764H0.521484V22.0379Z" fill="#43C4D8"/>
</g>
</g>
<defs>
<clipPath id="clip0_1549_17559">
<rect width="43" height="41" fill="white" transform="translate(0.521484 0.5)"/>
</clipPath>
</defs>
</svg>
