<svg width="20" height="16" viewBox="0 0 20 16" fill="none" xmlns="http://www.w3.org/2000/svg">
<path fill-rule="evenodd" clip-rule="evenodd" d="M19.0569 1.82694C18.3445 2.14378 17.5883 2.35082 16.8138 2.44101C17.6283 1.95264 18.2389 1.18652 18.5332 0.283668C17.7656 0.738388 16.9265 1.05963 16.0515 1.23373C15.5155 0.662711 14.8203 0.265855 14.0561 0.0946022C13.2918 -0.0766509 12.4938 -0.014405 11.7653 0.273272C11.0369 0.560949 10.4117 1.06079 9.9707 1.70802C9.52971 2.35524 9.2933 3.12 9.2921 3.90318C9.29227 4.20256 9.32569 4.501 9.39174 4.793C7.83809 4.71488 6.31825 4.31078 4.93096 3.60696C3.54368 2.90314 2.31998 1.91533 1.33936 0.707721C0.991656 1.30421 0.808537 1.9823 0.808714 2.67273C0.80919 3.31471 0.968047 3.94666 1.2712 4.51255C1.57436 5.07844 2.01245 5.5608 2.54664 5.91686C1.92623 5.89564 1.31963 5.72811 0.776273 5.42792V5.4789C0.773478 6.38319 1.08447 7.26044 1.6562 7.96106C2.22793 8.66168 3.02501 9.14227 3.91149 9.32087C3.57532 9.4121 3.22864 9.45884 2.88032 9.4599C2.63302 9.45838 2.38638 9.43433 2.14344 9.38807C2.39364 10.164 2.87977 10.8425 3.53401 11.3289C4.18825 11.8153 4.97799 12.0854 5.79308 12.1015C4.15262 13.3872 2.06956 13.9705 0 13.7236C1.78706 14.873 3.86758 15.4828 5.99236 15.4801C13.1758 15.4801 17.1151 9.52479 17.1151 4.35736C17.1151 4.18589 17.1151 4.01904 17.1035 3.84989C17.8692 3.29982 18.5294 2.61609 19.0523 1.83158L19.0569 1.82694Z" fill="white"/>
</svg>
