<svg width="54" height="39" viewBox="0 0 54 39" fill="none" xmlns="http://www.w3.org/2000/svg">
<g id="Group">
<path id="Vector" fill-rule="evenodd" clip-rule="evenodd" d="M44.5294 38.3854V37.5415H20.4509C17.847 37.5415 17.7234 32.321 20.4509 32.321H22.3516H50.4446C50.6193 32.321 50.7642 32.4701 50.7642 32.6406V37.2219C50.7642 37.3924 50.6193 37.5415 50.4446 37.5415H49.0041V38.3854H44.5294ZM0.689453 38.3854V21.931C0.689453 20.1027 1.59293 18.479 2.97371 17.4776C4.87442 16.101 10.176 15.9774 12.1917 17.1409C14.3354 18.3768 14.3268 20.9764 16.1764 22.7833C18.6524 25.204 18.0302 25.481 21.4055 25.481H28.1688C34.199 25.481 30.9559 31.3451 27.3889 31.1618H21.235C18.2561 31.1618 18.0047 31.6391 15.5457 30.0026L15.4136 38.3854H0.689453ZM33.9945 31.1959C33.1251 31.1959 32.4177 30.4885 32.4177 29.6191C32.4177 28.7497 33.1251 28.0423 33.9945 28.0423H44.6529L50.0781 17.0002C50.4573 16.2204 51.3992 15.9007 52.1748 16.28C52.9547 16.6593 53.2743 17.6011 52.895 18.3768L47.0991 30.1731C46.8733 30.7655 46.2979 31.1874 45.6246 31.1874H33.9945V31.1959ZM11.6292 0.499023C15.7843 0.499023 19.151 3.86575 19.151 8.02089C19.151 12.176 15.7843 15.5428 11.6292 15.5428C7.47405 15.5428 4.10732 12.176 4.10732 8.02089C4.10732 3.86575 7.47405 0.499023 11.6292 0.499023Z" fill="white"/>
</g>
</svg>
