<svg width="18" height="21" viewBox="0 0 18 21" fill="none" xmlns="http://www.w3.org/2000/svg">
<g id="writing-pad-line-icon 1" clip-path="url(#clip0_1549_17608)">
<g id="Group">
<path id="Vector" d="M12.1936 2.37207C12.1433 2.37207 12.0946 2.36393 12.0493 2.34766C11.8109 2.34766 11.6163 2.15885 11.6163 1.92773V1.09766H7.4036V1.92773C7.4036 2.14583 7.23241 2.32487 7.01255 2.34603C6.96555 2.3623 6.9152 2.37207 6.86317 2.37207H5.27881V4.08594H13.5967V2.37207H12.1936ZM12.7894 20.1471C12.7122 20.2155 12.6098 20.2578 12.4974 20.2578C12.4739 20.2578 12.4521 20.2562 12.4303 20.2529H1.90868V20.2546C1.64686 20.2546 1.40518 20.1488 1.22895 19.9795V19.9779H1.22728L1.2256 19.9762C1.05273 19.807 0.945312 19.5742 0.945312 19.3203V3.55208C0.945312 3.29492 1.05441 3.06055 1.22895 2.89128C1.4035 2.72201 1.64518 2.61621 1.91036 2.61621H4.41446V2.15723C4.41446 1.98633 4.48663 1.83008 4.60411 1.71615L4.60579 1.71452L4.60747 1.71289C4.72495 1.60059 4.88608 1.5306 5.0623 1.5306H6.54093V0.952799C6.54093 0.76237 6.62149 0.589844 6.75072 0.462891L6.7524 0.461263C6.87996 0.335938 7.05786 0.257812 7.25423 0.257812H11.7673C11.9637 0.257812 12.1416 0.335938 12.2725 0.462891L12.2742 0.461263C12.4034 0.586589 12.484 0.760742 12.484 0.952799V1.53223H13.8166C13.9928 1.53223 14.1539 1.60221 14.2714 1.71615L14.2731 1.71777L14.2748 1.7194L14.2764 1.72103C14.3922 1.83496 14.4644 1.99121 14.4644 2.16211V2.62109H16.9685C17.232 2.62109 17.4737 2.72689 17.6482 2.89616L17.6499 2.89453C17.8245 3.0638 17.9336 3.29818 17.9336 3.55534V14.8151C17.942 14.8493 17.947 14.8835 17.947 14.9193C17.947 15.0462 17.8899 15.1585 17.7976 15.2367L12.8263 20.1195C12.8146 20.1276 12.8012 20.1374 12.7894 20.1471ZM12.0644 19.4163V15.764C12.0644 15.4157 12.2121 15.0983 12.4487 14.8688C12.6854 14.6393 13.0126 14.4961 13.3718 14.4961H17.0659V3.55208C17.0659 3.52604 17.0541 3.50326 17.0373 3.48535L17.039 3.48372H17.0373C17.0205 3.46745 16.9954 3.45768 16.9685 3.45768H14.4644V4.29915C14.4644 4.47005 14.3922 4.6263 14.2748 4.74023H14.2731L14.2714 4.74186L14.2697 4.74349C14.1522 4.85579 13.9911 4.92578 13.8149 4.92578H5.06063C4.88272 4.92578 4.71992 4.85579 4.60411 4.74186C4.59069 4.72884 4.57726 4.71419 4.56719 4.69954C4.4732 4.5905 4.41446 4.44889 4.41446 4.29753V3.45605H1.90868C1.88183 3.45605 1.85833 3.46745 1.83987 3.48372C1.82141 3.50163 1.81134 3.52441 1.81134 3.55046V19.3171C1.81134 19.3431 1.82141 19.3675 1.83987 19.3838L1.84155 19.3854C1.85833 19.4017 1.88351 19.4131 1.91036 19.4131V19.4147L12.0644 19.4163ZM12.9304 15.764V18.8206L16.4784 15.3359H13.3701C13.2493 15.3359 13.1385 15.3848 13.0596 15.4613C12.9791 15.5394 12.9304 15.6468 12.9304 15.764ZM4.51516 14.0355C4.27516 14.0355 4.08215 13.8467 4.08215 13.6156C4.08215 13.3828 4.27684 13.1956 4.51516 13.1956H12.1349C12.3732 13.1956 12.5679 13.3844 12.5679 13.6156C12.5679 13.8467 12.3732 14.0355 12.1349 14.0355H4.51516ZM4.51516 8.40885C4.27516 8.40885 4.08215 8.22005 4.08215 7.98893C4.08215 7.75781 4.27684 7.56901 4.51516 7.56901H14.362C14.602 7.56901 14.795 7.75781 14.795 7.98893C14.795 8.22005 14.6004 8.40885 14.362 8.40885H4.51516ZM4.51516 11.2214C4.27516 11.2214 4.08215 11.0326 4.08215 10.8014C4.08215 10.5703 4.27684 10.3815 4.51516 10.3815H14.362C14.602 10.3815 14.795 10.5703 14.795 10.8014C14.795 11.0342 14.6004 11.2214 14.362 11.2214H4.51516Z" fill="#43C4D8"/>
</g>
</g>
<defs>
<clipPath id="clip0_1549_17608">
<rect width="17" height="20" fill="white" transform="translate(0.945312 0.257812)"/>
</clipPath>
</defs>
</svg>
