<svg width="83" height="15" viewBox="0 0 83 15" fill="none" xmlns="http://www.w3.org/2000/svg">
<g id="Group 171183">
<path id="Star 1" d="M7.28296 0.691406L8.83214 5.45929L13.8454 5.45929L9.78958 8.406L11.3388 13.1739L7.28296 10.2272L3.22715 13.1739L4.77633 8.406L0.72053 5.45929L5.73378 5.45929L7.28296 0.691406Z" fill="#FF9100"/>
<path id="Star 2" d="M24.4783 0.691406L26.0275 5.45929L31.0407 5.45929L26.9849 8.406L28.5341 13.1739L24.4783 10.2272L20.4225 13.1739L21.9716 8.406L17.9158 5.45929L22.9291 5.45929L24.4783 0.691406Z" fill="#FF9100"/>
<path id="Star 3" d="M41.6736 0.691406L43.2228 5.45929L48.236 5.45929L44.1802 8.406L45.7294 13.1739L41.6736 10.2272L37.6178 13.1739L39.167 8.406L35.1112 5.45929L40.1244 5.45929L41.6736 0.691406Z" fill="#FF9100"/>
<path id="Star 4" d="M58.8669 0.691406L60.4161 5.45929L65.4294 5.45929L61.3736 8.406L62.9227 13.1739L58.8669 10.2272L54.8111 13.1739L56.3603 8.406L52.3045 5.45929L57.3178 5.45929L58.8669 0.691406Z" fill="#FF9100"/>
<path id="Star 5" d="M76.0603 0.691406L77.6095 5.45929L82.6227 5.45929L78.5669 8.406L80.1161 13.1739L76.0603 10.2272L72.0045 13.1739L73.5537 8.406L69.4979 5.45929L74.5111 5.45929L76.0603 0.691406Z" fill="#FF9100"/>
</g>
</svg>
