<svg width="91" height="16" viewBox="0 0 91 16" fill="none" xmlns="http://www.w3.org/2000/svg">
<g id="Group 44">
<path id="Star 1" d="M8.34313 4.55169C8.89639 3.07903 10.9795 3.07903 11.5328 4.55169L11.5672 4.64348C11.7961 5.2527 12.3787 5.65619 13.0295 5.65619H13.4204C14.8748 5.65619 15.4231 7.5591 14.1916 8.33291C13.6085 8.69928 13.3674 9.43514 13.6096 10.0798C14.1184 11.4341 12.6302 12.6975 11.4052 11.9277L10.8578 11.5838C10.2955 11.2304 9.58042 11.2304 9.01807 11.5838L8.47067 11.9277C7.24566 12.6975 5.75748 11.4341 6.2663 10.0798C6.50847 9.43514 6.26736 8.69928 5.6843 8.33291C4.45282 7.5591 5.00105 5.65619 6.45547 5.65619H6.84636C7.49716 5.65619 8.07977 5.2527 8.30864 4.64348L8.34313 4.55169Z" fill="#F8C307"/>
<path id="Star 2" d="M26.5253 4.56728C27.056 3.1154 29.1094 3.1154 29.6401 4.56728L29.6669 4.6404C29.8899 5.25043 30.4702 5.65619 31.1197 5.65619H31.4334C32.8833 5.65619 33.4404 7.54565 32.2224 8.33226C31.6518 8.7008 31.4152 9.42325 31.6484 10.0613C32.1444 11.4183 30.6417 12.6583 29.4279 11.8745L28.9938 11.5941C28.4392 11.236 27.7262 11.236 27.1716 11.5941L26.7375 11.8745C25.5238 12.6583 24.021 11.4183 24.5171 10.0613C24.7503 9.42325 24.5137 8.70079 23.943 8.33226C22.725 7.54565 23.2821 5.65619 24.732 5.65619H25.0458C25.6953 5.65619 26.2756 5.25043 26.4986 4.6404L26.5253 4.56728Z" fill="#F8C307"/>
<path id="Star 3" d="M44.4296 4.56728C44.9603 3.1154 47.0137 3.1154 47.5444 4.56728L47.5712 4.6404C47.7942 5.25043 48.3745 5.65619 49.024 5.65619H49.3377C50.7876 5.65619 51.3447 7.54565 50.1267 8.33226C49.5561 8.7008 49.3195 9.42325 49.5527 10.0613C50.0487 11.4183 48.546 12.6583 47.3322 11.8745L46.8981 11.5941C46.3435 11.236 45.6305 11.236 45.0759 11.5941L44.6418 11.8745C43.4281 12.6583 41.9253 11.4183 42.4214 10.0613C42.6546 9.42325 42.418 8.70079 41.8473 8.33226C40.6293 7.54565 41.1864 5.65619 42.6363 5.65619H42.9501C43.5996 5.65619 44.1799 5.25043 44.4029 4.6404L44.4296 4.56728Z" fill="#F8C307"/>
<path id="Star 4" d="M62.332 4.56728C62.8627 3.1154 64.9161 3.1154 65.4468 4.56728L65.4735 4.6404C65.6965 5.25043 66.2768 5.65619 66.9263 5.65619H67.24C68.69 5.65619 69.2471 7.54565 68.0291 8.33226C67.4584 8.7008 67.2218 9.42325 67.455 10.0613C67.9511 11.4183 66.4483 12.6583 65.2346 11.8745L64.8005 11.5941C64.2459 11.236 63.5329 11.236 62.9783 11.5941L62.5442 11.8745C61.3304 12.6583 59.8277 11.4183 60.3237 10.0613C60.5569 9.42325 60.3203 8.70079 59.7497 8.33226C58.5317 7.54565 59.0888 5.65619 60.5387 5.65619H60.8524C61.5019 5.65619 62.0822 5.25043 62.3052 4.6404L62.332 4.56728Z" fill="#F8C307"/>
<path id="Star 5" d="M80.4408 4.55169C80.994 3.07903 83.0772 3.07903 83.6304 4.55169L83.6649 4.64348C83.8938 5.2527 84.4764 5.65619 85.1272 5.65619H85.5181C86.9725 5.65619 87.5207 7.5591 86.2892 8.33291C85.7062 8.69928 85.4651 9.43514 85.7072 10.0798C86.2161 11.4341 84.7279 12.6975 83.5029 11.9277L82.9555 11.5838C82.3931 11.2304 81.6781 11.2304 81.1157 11.5838L80.5683 11.9277C79.3433 12.6975 77.8551 11.4341 78.364 10.0798C78.6061 9.43514 78.365 8.69928 77.782 8.33291C76.5505 7.5591 77.0987 5.65619 78.5531 5.65619H78.944C79.5948 5.65619 80.1774 5.2527 80.4063 4.64348L80.4408 4.55169Z" fill="#F8C307"/>
</g>
</svg>
