<svg width="110" height="19" viewBox="0 0 110 19" fill="none" xmlns="http://www.w3.org/2000/svg">
<g id="Group 172231">
<path id="Star 11" d="M9.36796 0.785156L11.3782 6.97215H17.8836L12.6207 10.7959L14.6309 16.9829L9.36796 13.1591L4.10499 16.9829L6.11527 10.7959L0.852298 6.97215H7.35769L9.36796 0.785156Z" fill="#F8C307"/>
<path id="Star 12" d="M32.2762 0.785156L34.2864 6.97215H40.7918L35.5289 10.7959L37.5391 16.9829L32.2762 13.1591L27.0132 16.9829L29.0235 10.7959L23.7605 6.97215H30.2659L32.2762 0.785156Z" fill="#F8C307"/>
<path id="Star 13" d="M55.1844 0.785156L57.1946 6.97215H63.7L58.4371 10.7959L60.4473 16.9829L55.1844 13.1591L49.9214 16.9829L51.9317 10.7959L46.6687 6.97215H53.1741L55.1844 0.785156Z" fill="#F8C307"/>
<path id="Star 14" d="M78.0906 0.785156L80.1009 6.97215H86.6063L81.3433 10.7959L83.3536 16.9829L78.0906 13.1591L72.8276 16.9829L74.8379 10.7959L69.575 6.97215H76.0803L78.0906 0.785156Z" fill="#F8C307"/>
<path id="Star 15" d="M100.999 0.785156L103.009 6.97215H109.514L104.252 10.7959L106.262 16.9829L100.999 13.1591L95.7359 16.9829L97.7461 10.7959L92.4832 6.97215H98.9885L100.999 0.785156Z" fill="#F8C307"/>
</g>
</svg>
