<svg width="19" height="18" viewBox="0 0 19 18" fill="none" xmlns="http://www.w3.org/2000/svg">
<g clip-path="url(#clip0_1828_57)">
<path fill-rule="evenodd" clip-rule="evenodd" d="M18.1823 5.27191C18.1823 5.27191 18.0029 4.06076 17.451 3.52898C16.7517 2.82952 15.9685 2.82499 15.6105 2.78447C13.0419 2.60547 9.18401 2.60547 9.18401 2.60547H9.17724C9.17724 2.60547 5.32104 2.60547 2.75102 2.78447C2.39167 2.82628 1.60959 2.82922 0.910548 3.52898C0.358318 4.06076 0.182718 5.27191 0.182718 5.27191C0.182718 5.27191 0 6.69316 0 8.11735V9.44913C0 10.8704 0.182718 12.2946 0.182718 12.2946C0.182718 12.2946 0.362049 13.5057 0.910548 14.0385C1.60959 14.7379 2.52829 14.7152 2.9385 14.7898C4.40912 14.9241 9.18536 14.9646 9.18536 14.9646C9.18536 14.9646 13.0466 14.9581 15.6153 14.7823C15.9746 14.7418 16.7564 14.7376 17.4558 14.0378C18.008 13.506 18.187 12.2936 18.187 12.2936C18.187 12.2936 18.3697 10.8724 18.3697 9.44814V8.11639C18.366 6.69511 18.1833 5.27095 18.1833 5.27095L18.1823 5.27191ZM7.28117 11.065V6.1267L12.2436 8.60409L7.28117 11.065Z" fill="white"/>
</g>
<defs>
<clipPath id="clip0_1828_57">
<rect width="18.3694" height="17.5707" fill="white"/>
</clipPath>
</defs>
</svg>
